%TF.GenerationSoftware,KiCad,Pcbnew,9.0.6*%
%TF.CreationDate,2026-07-06T14:28:08-05:00*%
%TF.ProjectId,Open_Field_Logger_Lab,4f70656e-5f46-4696-956c-645f4c6f6767,1.1*%
%TF.SameCoordinates,Original*%
%TF.FileFunction,Legend,Bot*%
%TF.FilePolarity,Positive*%
%FSLAX46Y46*%
G04 Gerber Fmt 4.6, Leading zero omitted, Abs format (unit mm)*
G04 Created by KiCad (PCBNEW 9.0.6) date 2026-07-06 14:28:08*
%MOMM*%
%LPD*%
G01*
G04 APERTURE LIST*
%ADD10C,0.190500*%
%ADD11C,0.285750*%
%ADD12C,0.317500*%
%ADD13C,0.254000*%
%ADD14C,0.127000*%
%ADD15C,0.508000*%
G04 APERTURE END LIST*
D10*
X145757609Y-67163185D02*
X145394752Y-66909185D01*
X145757609Y-66727756D02*
X144995609Y-66727756D01*
X144995609Y-66727756D02*
X144995609Y-67018042D01*
X144995609Y-67018042D02*
X145031895Y-67090613D01*
X145031895Y-67090613D02*
X145068181Y-67126899D01*
X145068181Y-67126899D02*
X145140752Y-67163185D01*
X145140752Y-67163185D02*
X145249609Y-67163185D01*
X145249609Y-67163185D02*
X145322181Y-67126899D01*
X145322181Y-67126899D02*
X145358466Y-67090613D01*
X145358466Y-67090613D02*
X145394752Y-67018042D01*
X145394752Y-67018042D02*
X145394752Y-66727756D01*
X144995609Y-67417185D02*
X145757609Y-67925185D01*
X144995609Y-67925185D02*
X145757609Y-67417185D01*
D11*
X128590656Y-124544149D02*
X128645085Y-124653007D01*
X128645085Y-124653007D02*
X128645085Y-124816292D01*
X128645085Y-124816292D02*
X128590656Y-124979578D01*
X128590656Y-124979578D02*
X128481799Y-125088435D01*
X128481799Y-125088435D02*
X128372942Y-125142864D01*
X128372942Y-125142864D02*
X128155228Y-125197292D01*
X128155228Y-125197292D02*
X127991942Y-125197292D01*
X127991942Y-125197292D02*
X127774228Y-125142864D01*
X127774228Y-125142864D02*
X127665371Y-125088435D01*
X127665371Y-125088435D02*
X127556514Y-124979578D01*
X127556514Y-124979578D02*
X127502085Y-124816292D01*
X127502085Y-124816292D02*
X127502085Y-124707435D01*
X127502085Y-124707435D02*
X127556514Y-124544149D01*
X127556514Y-124544149D02*
X127610942Y-124489721D01*
X127610942Y-124489721D02*
X127991942Y-124489721D01*
X127991942Y-124489721D02*
X127991942Y-124707435D01*
X127502085Y-123999864D02*
X128645085Y-123999864D01*
X128645085Y-123999864D02*
X127502085Y-123346721D01*
X127502085Y-123346721D02*
X128645085Y-123346721D01*
X127502085Y-122802435D02*
X128645085Y-122802435D01*
X128645085Y-122802435D02*
X128645085Y-122530292D01*
X128645085Y-122530292D02*
X128590656Y-122367006D01*
X128590656Y-122367006D02*
X128481799Y-122258149D01*
X128481799Y-122258149D02*
X128372942Y-122203720D01*
X128372942Y-122203720D02*
X128155228Y-122149292D01*
X128155228Y-122149292D02*
X127991942Y-122149292D01*
X127991942Y-122149292D02*
X127774228Y-122203720D01*
X127774228Y-122203720D02*
X127665371Y-122258149D01*
X127665371Y-122258149D02*
X127556514Y-122367006D01*
X127556514Y-122367006D02*
X127502085Y-122530292D01*
X127502085Y-122530292D02*
X127502085Y-122802435D01*
D10*
X147571895Y-67126899D02*
X147535609Y-67054328D01*
X147535609Y-67054328D02*
X147535609Y-66945470D01*
X147535609Y-66945470D02*
X147571895Y-66836613D01*
X147571895Y-66836613D02*
X147644466Y-66764042D01*
X147644466Y-66764042D02*
X147717038Y-66727756D01*
X147717038Y-66727756D02*
X147862181Y-66691470D01*
X147862181Y-66691470D02*
X147971038Y-66691470D01*
X147971038Y-66691470D02*
X148116181Y-66727756D01*
X148116181Y-66727756D02*
X148188752Y-66764042D01*
X148188752Y-66764042D02*
X148261324Y-66836613D01*
X148261324Y-66836613D02*
X148297609Y-66945470D01*
X148297609Y-66945470D02*
X148297609Y-67018042D01*
X148297609Y-67018042D02*
X148261324Y-67126899D01*
X148261324Y-67126899D02*
X148225038Y-67163185D01*
X148225038Y-67163185D02*
X147971038Y-67163185D01*
X147971038Y-67163185D02*
X147971038Y-67018042D01*
X148297609Y-67489756D02*
X147535609Y-67489756D01*
X147535609Y-67489756D02*
X148297609Y-67925185D01*
X148297609Y-67925185D02*
X147535609Y-67925185D01*
X148297609Y-68288042D02*
X147535609Y-68288042D01*
X147535609Y-68288042D02*
X147535609Y-68469471D01*
X147535609Y-68469471D02*
X147571895Y-68578328D01*
X147571895Y-68578328D02*
X147644466Y-68650899D01*
X147644466Y-68650899D02*
X147717038Y-68687185D01*
X147717038Y-68687185D02*
X147862181Y-68723471D01*
X147862181Y-68723471D02*
X147971038Y-68723471D01*
X147971038Y-68723471D02*
X148116181Y-68687185D01*
X148116181Y-68687185D02*
X148188752Y-68650899D01*
X148188752Y-68650899D02*
X148261324Y-68578328D01*
X148261324Y-68578328D02*
X148297609Y-68469471D01*
X148297609Y-68469471D02*
X148297609Y-68288042D01*
X177929104Y-128326100D02*
X177965390Y-128398672D01*
X177965390Y-128398672D02*
X177965390Y-128507529D01*
X177965390Y-128507529D02*
X177929104Y-128616386D01*
X177929104Y-128616386D02*
X177856533Y-128688957D01*
X177856533Y-128688957D02*
X177783961Y-128725243D01*
X177783961Y-128725243D02*
X177638818Y-128761529D01*
X177638818Y-128761529D02*
X177529961Y-128761529D01*
X177529961Y-128761529D02*
X177384818Y-128725243D01*
X177384818Y-128725243D02*
X177312247Y-128688957D01*
X177312247Y-128688957D02*
X177239676Y-128616386D01*
X177239676Y-128616386D02*
X177203390Y-128507529D01*
X177203390Y-128507529D02*
X177203390Y-128434957D01*
X177203390Y-128434957D02*
X177239676Y-128326100D01*
X177239676Y-128326100D02*
X177275961Y-128289814D01*
X177275961Y-128289814D02*
X177529961Y-128289814D01*
X177529961Y-128289814D02*
X177529961Y-128434957D01*
X177203390Y-127963243D02*
X177965390Y-127963243D01*
X177965390Y-127963243D02*
X177203390Y-127527814D01*
X177203390Y-127527814D02*
X177965390Y-127527814D01*
X177203390Y-127164957D02*
X177965390Y-127164957D01*
X177965390Y-127164957D02*
X177965390Y-126983528D01*
X177965390Y-126983528D02*
X177929104Y-126874671D01*
X177929104Y-126874671D02*
X177856533Y-126802100D01*
X177856533Y-126802100D02*
X177783961Y-126765814D01*
X177783961Y-126765814D02*
X177638818Y-126729528D01*
X177638818Y-126729528D02*
X177529961Y-126729528D01*
X177529961Y-126729528D02*
X177384818Y-126765814D01*
X177384818Y-126765814D02*
X177312247Y-126802100D01*
X177312247Y-126802100D02*
X177239676Y-126874671D01*
X177239676Y-126874671D02*
X177203390Y-126983528D01*
X177203390Y-126983528D02*
X177203390Y-127164957D01*
D11*
X150180656Y-124544149D02*
X150235085Y-124653007D01*
X150235085Y-124653007D02*
X150235085Y-124816292D01*
X150235085Y-124816292D02*
X150180656Y-124979578D01*
X150180656Y-124979578D02*
X150071799Y-125088435D01*
X150071799Y-125088435D02*
X149962942Y-125142864D01*
X149962942Y-125142864D02*
X149745228Y-125197292D01*
X149745228Y-125197292D02*
X149581942Y-125197292D01*
X149581942Y-125197292D02*
X149364228Y-125142864D01*
X149364228Y-125142864D02*
X149255371Y-125088435D01*
X149255371Y-125088435D02*
X149146514Y-124979578D01*
X149146514Y-124979578D02*
X149092085Y-124816292D01*
X149092085Y-124816292D02*
X149092085Y-124707435D01*
X149092085Y-124707435D02*
X149146514Y-124544149D01*
X149146514Y-124544149D02*
X149200942Y-124489721D01*
X149200942Y-124489721D02*
X149581942Y-124489721D01*
X149581942Y-124489721D02*
X149581942Y-124707435D01*
X149092085Y-123999864D02*
X150235085Y-123999864D01*
X150235085Y-123999864D02*
X149092085Y-123346721D01*
X149092085Y-123346721D02*
X150235085Y-123346721D01*
X149092085Y-122802435D02*
X150235085Y-122802435D01*
X150235085Y-122802435D02*
X150235085Y-122530292D01*
X150235085Y-122530292D02*
X150180656Y-122367006D01*
X150180656Y-122367006D02*
X150071799Y-122258149D01*
X150071799Y-122258149D02*
X149962942Y-122203720D01*
X149962942Y-122203720D02*
X149745228Y-122149292D01*
X149745228Y-122149292D02*
X149581942Y-122149292D01*
X149581942Y-122149292D02*
X149364228Y-122203720D01*
X149364228Y-122203720D02*
X149255371Y-122258149D01*
X149255371Y-122258149D02*
X149146514Y-122367006D01*
X149146514Y-122367006D02*
X149092085Y-122530292D01*
X149092085Y-122530292D02*
X149092085Y-122802435D01*
D10*
X179815961Y-128289814D02*
X179779676Y-128326100D01*
X179779676Y-128326100D02*
X179743390Y-128434957D01*
X179743390Y-128434957D02*
X179743390Y-128507529D01*
X179743390Y-128507529D02*
X179779676Y-128616386D01*
X179779676Y-128616386D02*
X179852247Y-128688957D01*
X179852247Y-128688957D02*
X179924818Y-128725243D01*
X179924818Y-128725243D02*
X180069961Y-128761529D01*
X180069961Y-128761529D02*
X180178818Y-128761529D01*
X180178818Y-128761529D02*
X180323961Y-128725243D01*
X180323961Y-128725243D02*
X180396533Y-128688957D01*
X180396533Y-128688957D02*
X180469104Y-128616386D01*
X180469104Y-128616386D02*
X180505390Y-128507529D01*
X180505390Y-128507529D02*
X180505390Y-128434957D01*
X180505390Y-128434957D02*
X180469104Y-128326100D01*
X180469104Y-128326100D02*
X180432818Y-128289814D01*
X179779676Y-127999529D02*
X179743390Y-127890672D01*
X179743390Y-127890672D02*
X179743390Y-127709243D01*
X179743390Y-127709243D02*
X179779676Y-127636672D01*
X179779676Y-127636672D02*
X179815961Y-127600386D01*
X179815961Y-127600386D02*
X179888533Y-127564100D01*
X179888533Y-127564100D02*
X179961104Y-127564100D01*
X179961104Y-127564100D02*
X180033676Y-127600386D01*
X180033676Y-127600386D02*
X180069961Y-127636672D01*
X180069961Y-127636672D02*
X180106247Y-127709243D01*
X180106247Y-127709243D02*
X180142533Y-127854386D01*
X180142533Y-127854386D02*
X180178818Y-127926957D01*
X180178818Y-127926957D02*
X180215104Y-127963243D01*
X180215104Y-127963243D02*
X180287676Y-127999529D01*
X180287676Y-127999529D02*
X180360247Y-127999529D01*
X180360247Y-127999529D02*
X180432818Y-127963243D01*
X180432818Y-127963243D02*
X180469104Y-127926957D01*
X180469104Y-127926957D02*
X180505390Y-127854386D01*
X180505390Y-127854386D02*
X180505390Y-127672957D01*
X180505390Y-127672957D02*
X180469104Y-127564100D01*
X187363390Y-128725243D02*
X188125390Y-128725243D01*
X188125390Y-128725243D02*
X187581104Y-128471243D01*
X187581104Y-128471243D02*
X188125390Y-128217243D01*
X188125390Y-128217243D02*
X187363390Y-128217243D01*
X188125390Y-127709243D02*
X188125390Y-127564100D01*
X188125390Y-127564100D02*
X188089104Y-127491529D01*
X188089104Y-127491529D02*
X188016533Y-127418957D01*
X188016533Y-127418957D02*
X187871390Y-127382672D01*
X187871390Y-127382672D02*
X187617390Y-127382672D01*
X187617390Y-127382672D02*
X187472247Y-127418957D01*
X187472247Y-127418957D02*
X187399676Y-127491529D01*
X187399676Y-127491529D02*
X187363390Y-127564100D01*
X187363390Y-127564100D02*
X187363390Y-127709243D01*
X187363390Y-127709243D02*
X187399676Y-127781815D01*
X187399676Y-127781815D02*
X187472247Y-127854386D01*
X187472247Y-127854386D02*
X187617390Y-127890672D01*
X187617390Y-127890672D02*
X187871390Y-127890672D01*
X187871390Y-127890672D02*
X188016533Y-127854386D01*
X188016533Y-127854386D02*
X188089104Y-127781815D01*
X188089104Y-127781815D02*
X188125390Y-127709243D01*
X187399676Y-127092386D02*
X187363390Y-126983529D01*
X187363390Y-126983529D02*
X187363390Y-126802100D01*
X187363390Y-126802100D02*
X187399676Y-126729529D01*
X187399676Y-126729529D02*
X187435961Y-126693243D01*
X187435961Y-126693243D02*
X187508533Y-126656957D01*
X187508533Y-126656957D02*
X187581104Y-126656957D01*
X187581104Y-126656957D02*
X187653676Y-126693243D01*
X187653676Y-126693243D02*
X187689961Y-126729529D01*
X187689961Y-126729529D02*
X187726247Y-126802100D01*
X187726247Y-126802100D02*
X187762533Y-126947243D01*
X187762533Y-126947243D02*
X187798818Y-127019814D01*
X187798818Y-127019814D02*
X187835104Y-127056100D01*
X187835104Y-127056100D02*
X187907676Y-127092386D01*
X187907676Y-127092386D02*
X187980247Y-127092386D01*
X187980247Y-127092386D02*
X188052818Y-127056100D01*
X188052818Y-127056100D02*
X188089104Y-127019814D01*
X188089104Y-127019814D02*
X188125390Y-126947243D01*
X188125390Y-126947243D02*
X188125390Y-126765814D01*
X188125390Y-126765814D02*
X188089104Y-126656957D01*
X187363390Y-126330386D02*
X188125390Y-126330386D01*
X182319676Y-128761529D02*
X182283390Y-128652672D01*
X182283390Y-128652672D02*
X182283390Y-128471243D01*
X182283390Y-128471243D02*
X182319676Y-128398672D01*
X182319676Y-128398672D02*
X182355961Y-128362386D01*
X182355961Y-128362386D02*
X182428533Y-128326100D01*
X182428533Y-128326100D02*
X182501104Y-128326100D01*
X182501104Y-128326100D02*
X182573676Y-128362386D01*
X182573676Y-128362386D02*
X182609961Y-128398672D01*
X182609961Y-128398672D02*
X182646247Y-128471243D01*
X182646247Y-128471243D02*
X182682533Y-128616386D01*
X182682533Y-128616386D02*
X182718818Y-128688957D01*
X182718818Y-128688957D02*
X182755104Y-128725243D01*
X182755104Y-128725243D02*
X182827676Y-128761529D01*
X182827676Y-128761529D02*
X182900247Y-128761529D01*
X182900247Y-128761529D02*
X182972818Y-128725243D01*
X182972818Y-128725243D02*
X183009104Y-128688957D01*
X183009104Y-128688957D02*
X183045390Y-128616386D01*
X183045390Y-128616386D02*
X183045390Y-128434957D01*
X183045390Y-128434957D02*
X183009104Y-128326100D01*
X182355961Y-127564100D02*
X182319676Y-127600386D01*
X182319676Y-127600386D02*
X182283390Y-127709243D01*
X182283390Y-127709243D02*
X182283390Y-127781815D01*
X182283390Y-127781815D02*
X182319676Y-127890672D01*
X182319676Y-127890672D02*
X182392247Y-127963243D01*
X182392247Y-127963243D02*
X182464818Y-127999529D01*
X182464818Y-127999529D02*
X182609961Y-128035815D01*
X182609961Y-128035815D02*
X182718818Y-128035815D01*
X182718818Y-128035815D02*
X182863961Y-127999529D01*
X182863961Y-127999529D02*
X182936533Y-127963243D01*
X182936533Y-127963243D02*
X183009104Y-127890672D01*
X183009104Y-127890672D02*
X183045390Y-127781815D01*
X183045390Y-127781815D02*
X183045390Y-127709243D01*
X183045390Y-127709243D02*
X183009104Y-127600386D01*
X183009104Y-127600386D02*
X182972818Y-127564100D01*
X182283390Y-127237529D02*
X183045390Y-127237529D01*
X182283390Y-126802100D02*
X182718818Y-127128672D01*
X183045390Y-126802100D02*
X182609961Y-127237529D01*
D11*
X139385656Y-124544149D02*
X139440085Y-124653007D01*
X139440085Y-124653007D02*
X139440085Y-124816292D01*
X139440085Y-124816292D02*
X139385656Y-124979578D01*
X139385656Y-124979578D02*
X139276799Y-125088435D01*
X139276799Y-125088435D02*
X139167942Y-125142864D01*
X139167942Y-125142864D02*
X138950228Y-125197292D01*
X138950228Y-125197292D02*
X138786942Y-125197292D01*
X138786942Y-125197292D02*
X138569228Y-125142864D01*
X138569228Y-125142864D02*
X138460371Y-125088435D01*
X138460371Y-125088435D02*
X138351514Y-124979578D01*
X138351514Y-124979578D02*
X138297085Y-124816292D01*
X138297085Y-124816292D02*
X138297085Y-124707435D01*
X138297085Y-124707435D02*
X138351514Y-124544149D01*
X138351514Y-124544149D02*
X138405942Y-124489721D01*
X138405942Y-124489721D02*
X138786942Y-124489721D01*
X138786942Y-124489721D02*
X138786942Y-124707435D01*
X138297085Y-123999864D02*
X139440085Y-123999864D01*
X139440085Y-123999864D02*
X138297085Y-123346721D01*
X138297085Y-123346721D02*
X139440085Y-123346721D01*
X138297085Y-122802435D02*
X139440085Y-122802435D01*
X139440085Y-122802435D02*
X139440085Y-122530292D01*
X139440085Y-122530292D02*
X139385656Y-122367006D01*
X139385656Y-122367006D02*
X139276799Y-122258149D01*
X139276799Y-122258149D02*
X139167942Y-122203720D01*
X139167942Y-122203720D02*
X138950228Y-122149292D01*
X138950228Y-122149292D02*
X138786942Y-122149292D01*
X138786942Y-122149292D02*
X138569228Y-122203720D01*
X138569228Y-122203720D02*
X138460371Y-122258149D01*
X138460371Y-122258149D02*
X138351514Y-122367006D01*
X138351514Y-122367006D02*
X138297085Y-122530292D01*
X138297085Y-122530292D02*
X138297085Y-122802435D01*
D10*
X197214529Y-117527324D02*
X197105672Y-117563609D01*
X197105672Y-117563609D02*
X196924243Y-117563609D01*
X196924243Y-117563609D02*
X196851672Y-117527324D01*
X196851672Y-117527324D02*
X196815386Y-117491038D01*
X196815386Y-117491038D02*
X196779100Y-117418466D01*
X196779100Y-117418466D02*
X196779100Y-117345895D01*
X196779100Y-117345895D02*
X196815386Y-117273324D01*
X196815386Y-117273324D02*
X196851672Y-117237038D01*
X196851672Y-117237038D02*
X196924243Y-117200752D01*
X196924243Y-117200752D02*
X197069386Y-117164466D01*
X197069386Y-117164466D02*
X197141957Y-117128181D01*
X197141957Y-117128181D02*
X197178243Y-117091895D01*
X197178243Y-117091895D02*
X197214529Y-117019324D01*
X197214529Y-117019324D02*
X197214529Y-116946752D01*
X197214529Y-116946752D02*
X197178243Y-116874181D01*
X197178243Y-116874181D02*
X197141957Y-116837895D01*
X197141957Y-116837895D02*
X197069386Y-116801609D01*
X197069386Y-116801609D02*
X196887957Y-116801609D01*
X196887957Y-116801609D02*
X196779100Y-116837895D01*
X196452529Y-117563609D02*
X196452529Y-116801609D01*
X196452529Y-116801609D02*
X196271100Y-116801609D01*
X196271100Y-116801609D02*
X196162243Y-116837895D01*
X196162243Y-116837895D02*
X196089672Y-116910466D01*
X196089672Y-116910466D02*
X196053386Y-116983038D01*
X196053386Y-116983038D02*
X196017100Y-117128181D01*
X196017100Y-117128181D02*
X196017100Y-117237038D01*
X196017100Y-117237038D02*
X196053386Y-117382181D01*
X196053386Y-117382181D02*
X196089672Y-117454752D01*
X196089672Y-117454752D02*
X196162243Y-117527324D01*
X196162243Y-117527324D02*
X196271100Y-117563609D01*
X196271100Y-117563609D02*
X196452529Y-117563609D01*
X195726815Y-117345895D02*
X195363958Y-117345895D01*
X195799386Y-117563609D02*
X195545386Y-116801609D01*
X195545386Y-116801609D02*
X195291386Y-117563609D01*
D11*
X143576656Y-125197292D02*
X143576656Y-124653007D01*
X143250085Y-125306149D02*
X144393085Y-124925149D01*
X144393085Y-124925149D02*
X143250085Y-124544149D01*
X143250085Y-124163150D02*
X144393085Y-124163150D01*
X143250085Y-123618864D02*
X144393085Y-123618864D01*
X144393085Y-123618864D02*
X143250085Y-122965721D01*
X143250085Y-122965721D02*
X144393085Y-122965721D01*
X144393085Y-122530292D02*
X144393085Y-121822720D01*
X144393085Y-121822720D02*
X143957656Y-122203720D01*
X143957656Y-122203720D02*
X143957656Y-122040435D01*
X143957656Y-122040435D02*
X143903228Y-121931578D01*
X143903228Y-121931578D02*
X143848799Y-121877149D01*
X143848799Y-121877149D02*
X143739942Y-121822720D01*
X143739942Y-121822720D02*
X143467799Y-121822720D01*
X143467799Y-121822720D02*
X143358942Y-121877149D01*
X143358942Y-121877149D02*
X143304514Y-121931578D01*
X143304514Y-121931578D02*
X143250085Y-122040435D01*
X143250085Y-122040435D02*
X143250085Y-122367006D01*
X143250085Y-122367006D02*
X143304514Y-122475863D01*
X143304514Y-122475863D02*
X143358942Y-122530292D01*
D10*
X184823390Y-128725243D02*
X185585390Y-128725243D01*
X185585390Y-128725243D02*
X185041104Y-128471243D01*
X185041104Y-128471243D02*
X185585390Y-128217243D01*
X185585390Y-128217243D02*
X184823390Y-128217243D01*
X184823390Y-127854386D02*
X185585390Y-127854386D01*
X184859676Y-127527815D02*
X184823390Y-127418958D01*
X184823390Y-127418958D02*
X184823390Y-127237529D01*
X184823390Y-127237529D02*
X184859676Y-127164958D01*
X184859676Y-127164958D02*
X184895961Y-127128672D01*
X184895961Y-127128672D02*
X184968533Y-127092386D01*
X184968533Y-127092386D02*
X185041104Y-127092386D01*
X185041104Y-127092386D02*
X185113676Y-127128672D01*
X185113676Y-127128672D02*
X185149961Y-127164958D01*
X185149961Y-127164958D02*
X185186247Y-127237529D01*
X185186247Y-127237529D02*
X185222533Y-127382672D01*
X185222533Y-127382672D02*
X185258818Y-127455243D01*
X185258818Y-127455243D02*
X185295104Y-127491529D01*
X185295104Y-127491529D02*
X185367676Y-127527815D01*
X185367676Y-127527815D02*
X185440247Y-127527815D01*
X185440247Y-127527815D02*
X185512818Y-127491529D01*
X185512818Y-127491529D02*
X185549104Y-127455243D01*
X185549104Y-127455243D02*
X185585390Y-127382672D01*
X185585390Y-127382672D02*
X185585390Y-127201243D01*
X185585390Y-127201243D02*
X185549104Y-127092386D01*
X185585390Y-126620672D02*
X185585390Y-126475529D01*
X185585390Y-126475529D02*
X185549104Y-126402958D01*
X185549104Y-126402958D02*
X185476533Y-126330386D01*
X185476533Y-126330386D02*
X185331390Y-126294101D01*
X185331390Y-126294101D02*
X185077390Y-126294101D01*
X185077390Y-126294101D02*
X184932247Y-126330386D01*
X184932247Y-126330386D02*
X184859676Y-126402958D01*
X184859676Y-126402958D02*
X184823390Y-126475529D01*
X184823390Y-126475529D02*
X184823390Y-126620672D01*
X184823390Y-126620672D02*
X184859676Y-126693244D01*
X184859676Y-126693244D02*
X184932247Y-126765815D01*
X184932247Y-126765815D02*
X185077390Y-126802101D01*
X185077390Y-126802101D02*
X185331390Y-126802101D01*
X185331390Y-126802101D02*
X185476533Y-126765815D01*
X185476533Y-126765815D02*
X185549104Y-126693244D01*
X185549104Y-126693244D02*
X185585390Y-126620672D01*
X197250814Y-114261609D02*
X196779100Y-114261609D01*
X196779100Y-114261609D02*
X197033100Y-114551895D01*
X197033100Y-114551895D02*
X196924243Y-114551895D01*
X196924243Y-114551895D02*
X196851672Y-114588181D01*
X196851672Y-114588181D02*
X196815386Y-114624466D01*
X196815386Y-114624466D02*
X196779100Y-114697038D01*
X196779100Y-114697038D02*
X196779100Y-114878466D01*
X196779100Y-114878466D02*
X196815386Y-114951038D01*
X196815386Y-114951038D02*
X196851672Y-114987324D01*
X196851672Y-114987324D02*
X196924243Y-115023609D01*
X196924243Y-115023609D02*
X197141957Y-115023609D01*
X197141957Y-115023609D02*
X197214529Y-114987324D01*
X197214529Y-114987324D02*
X197250814Y-114951038D01*
X196561386Y-114261609D02*
X196307386Y-115023609D01*
X196307386Y-115023609D02*
X196053386Y-114261609D01*
X195871957Y-114261609D02*
X195400243Y-114261609D01*
X195400243Y-114261609D02*
X195654243Y-114551895D01*
X195654243Y-114551895D02*
X195545386Y-114551895D01*
X195545386Y-114551895D02*
X195472815Y-114588181D01*
X195472815Y-114588181D02*
X195436529Y-114624466D01*
X195436529Y-114624466D02*
X195400243Y-114697038D01*
X195400243Y-114697038D02*
X195400243Y-114878466D01*
X195400243Y-114878466D02*
X195436529Y-114951038D01*
X195436529Y-114951038D02*
X195472815Y-114987324D01*
X195472815Y-114987324D02*
X195545386Y-115023609D01*
X195545386Y-115023609D02*
X195763100Y-115023609D01*
X195763100Y-115023609D02*
X195835672Y-114987324D01*
X195835672Y-114987324D02*
X195871957Y-114951038D01*
X164249390Y-109675243D02*
X165011390Y-109675243D01*
X165011390Y-109167243D02*
X165011390Y-109022100D01*
X165011390Y-109022100D02*
X164975104Y-108949529D01*
X164975104Y-108949529D02*
X164902533Y-108876957D01*
X164902533Y-108876957D02*
X164757390Y-108840672D01*
X164757390Y-108840672D02*
X164503390Y-108840672D01*
X164503390Y-108840672D02*
X164358247Y-108876957D01*
X164358247Y-108876957D02*
X164285676Y-108949529D01*
X164285676Y-108949529D02*
X164249390Y-109022100D01*
X164249390Y-109022100D02*
X164249390Y-109167243D01*
X164249390Y-109167243D02*
X164285676Y-109239815D01*
X164285676Y-109239815D02*
X164358247Y-109312386D01*
X164358247Y-109312386D02*
X164503390Y-109348672D01*
X164503390Y-109348672D02*
X164757390Y-109348672D01*
X164757390Y-109348672D02*
X164902533Y-109312386D01*
X164902533Y-109312386D02*
X164975104Y-109239815D01*
X164975104Y-109239815D02*
X165011390Y-109167243D01*
X165011390Y-108586671D02*
X165011390Y-108114957D01*
X165011390Y-108114957D02*
X164721104Y-108368957D01*
X164721104Y-108368957D02*
X164721104Y-108260100D01*
X164721104Y-108260100D02*
X164684818Y-108187529D01*
X164684818Y-108187529D02*
X164648533Y-108151243D01*
X164648533Y-108151243D02*
X164575961Y-108114957D01*
X164575961Y-108114957D02*
X164394533Y-108114957D01*
X164394533Y-108114957D02*
X164321961Y-108151243D01*
X164321961Y-108151243D02*
X164285676Y-108187529D01*
X164285676Y-108187529D02*
X164249390Y-108260100D01*
X164249390Y-108260100D02*
X164249390Y-108477814D01*
X164249390Y-108477814D02*
X164285676Y-108550386D01*
X164285676Y-108550386D02*
X164321961Y-108586671D01*
X165011390Y-107425529D02*
X165011390Y-107788386D01*
X165011390Y-107788386D02*
X164648533Y-107824672D01*
X164648533Y-107824672D02*
X164684818Y-107788386D01*
X164684818Y-107788386D02*
X164721104Y-107715815D01*
X164721104Y-107715815D02*
X164721104Y-107534386D01*
X164721104Y-107534386D02*
X164684818Y-107461815D01*
X164684818Y-107461815D02*
X164648533Y-107425529D01*
X164648533Y-107425529D02*
X164575961Y-107389243D01*
X164575961Y-107389243D02*
X164394533Y-107389243D01*
X164394533Y-107389243D02*
X164321961Y-107425529D01*
X164321961Y-107425529D02*
X164285676Y-107461815D01*
X164285676Y-107461815D02*
X164249390Y-107534386D01*
X164249390Y-107534386D02*
X164249390Y-107715815D01*
X164249390Y-107715815D02*
X164285676Y-107788386D01*
X164285676Y-107788386D02*
X164321961Y-107824672D01*
D11*
X121986656Y-125197292D02*
X121986656Y-124653007D01*
X121660085Y-125306149D02*
X122803085Y-124925149D01*
X122803085Y-124925149D02*
X121660085Y-124544149D01*
X121660085Y-124163150D02*
X122803085Y-124163150D01*
X121660085Y-123618864D02*
X122803085Y-123618864D01*
X122803085Y-123618864D02*
X121660085Y-122965721D01*
X121660085Y-122965721D02*
X122803085Y-122965721D01*
X121660085Y-121822720D02*
X121660085Y-122475863D01*
X121660085Y-122149292D02*
X122803085Y-122149292D01*
X122803085Y-122149292D02*
X122639799Y-122258149D01*
X122639799Y-122258149D02*
X122530942Y-122367006D01*
X122530942Y-122367006D02*
X122476514Y-122475863D01*
D12*
X103837618Y-94611492D02*
X103958571Y-94551016D01*
X103958571Y-94551016D02*
X104139999Y-94551016D01*
X104139999Y-94551016D02*
X104321428Y-94611492D01*
X104321428Y-94611492D02*
X104442380Y-94732444D01*
X104442380Y-94732444D02*
X104502857Y-94853397D01*
X104502857Y-94853397D02*
X104563333Y-95095301D01*
X104563333Y-95095301D02*
X104563333Y-95276730D01*
X104563333Y-95276730D02*
X104502857Y-95518635D01*
X104502857Y-95518635D02*
X104442380Y-95639587D01*
X104442380Y-95639587D02*
X104321428Y-95760540D01*
X104321428Y-95760540D02*
X104139999Y-95821016D01*
X104139999Y-95821016D02*
X104019047Y-95821016D01*
X104019047Y-95821016D02*
X103837618Y-95760540D01*
X103837618Y-95760540D02*
X103777142Y-95700063D01*
X103777142Y-95700063D02*
X103777142Y-95276730D01*
X103777142Y-95276730D02*
X104019047Y-95276730D01*
X103232857Y-95821016D02*
X103232857Y-94551016D01*
X103232857Y-94551016D02*
X102507142Y-95821016D01*
X102507142Y-95821016D02*
X102507142Y-94551016D01*
X101902381Y-95821016D02*
X101902381Y-94551016D01*
X101902381Y-94551016D02*
X101600000Y-94551016D01*
X101600000Y-94551016D02*
X101418571Y-94611492D01*
X101418571Y-94611492D02*
X101297619Y-94732444D01*
X101297619Y-94732444D02*
X101237142Y-94853397D01*
X101237142Y-94853397D02*
X101176666Y-95095301D01*
X101176666Y-95095301D02*
X101176666Y-95276730D01*
X101176666Y-95276730D02*
X101237142Y-95518635D01*
X101237142Y-95518635D02*
X101297619Y-95639587D01*
X101297619Y-95639587D02*
X101418571Y-95760540D01*
X101418571Y-95760540D02*
X101600000Y-95821016D01*
X101600000Y-95821016D02*
X101902381Y-95821016D01*
X104436332Y-99631016D02*
X104012999Y-100901016D01*
X104012999Y-100901016D02*
X103589665Y-99631016D01*
X103166333Y-100901016D02*
X103166333Y-99631016D01*
X103166333Y-99631016D02*
X102863952Y-99631016D01*
X102863952Y-99631016D02*
X102682523Y-99691492D01*
X102682523Y-99691492D02*
X102561571Y-99812444D01*
X102561571Y-99812444D02*
X102501094Y-99933397D01*
X102501094Y-99933397D02*
X102440618Y-100175301D01*
X102440618Y-100175301D02*
X102440618Y-100356730D01*
X102440618Y-100356730D02*
X102501094Y-100598635D01*
X102501094Y-100598635D02*
X102561571Y-100719587D01*
X102561571Y-100719587D02*
X102682523Y-100840540D01*
X102682523Y-100840540D02*
X102863952Y-100901016D01*
X102863952Y-100901016D02*
X103166333Y-100901016D01*
X101170618Y-100780063D02*
X101231094Y-100840540D01*
X101231094Y-100840540D02*
X101412523Y-100901016D01*
X101412523Y-100901016D02*
X101533475Y-100901016D01*
X101533475Y-100901016D02*
X101714904Y-100840540D01*
X101714904Y-100840540D02*
X101835856Y-100719587D01*
X101835856Y-100719587D02*
X101896333Y-100598635D01*
X101896333Y-100598635D02*
X101956809Y-100356730D01*
X101956809Y-100356730D02*
X101956809Y-100175301D01*
X101956809Y-100175301D02*
X101896333Y-99933397D01*
X101896333Y-99933397D02*
X101835856Y-99812444D01*
X101835856Y-99812444D02*
X101714904Y-99691492D01*
X101714904Y-99691492D02*
X101533475Y-99631016D01*
X101533475Y-99631016D02*
X101412523Y-99631016D01*
X101412523Y-99631016D02*
X101231094Y-99691492D01*
X101231094Y-99691492D02*
X101170618Y-99751968D01*
D11*
X107000656Y-124544149D02*
X107055085Y-124653007D01*
X107055085Y-124653007D02*
X107055085Y-124816292D01*
X107055085Y-124816292D02*
X107000656Y-124979578D01*
X107000656Y-124979578D02*
X106891799Y-125088435D01*
X106891799Y-125088435D02*
X106782942Y-125142864D01*
X106782942Y-125142864D02*
X106565228Y-125197292D01*
X106565228Y-125197292D02*
X106401942Y-125197292D01*
X106401942Y-125197292D02*
X106184228Y-125142864D01*
X106184228Y-125142864D02*
X106075371Y-125088435D01*
X106075371Y-125088435D02*
X105966514Y-124979578D01*
X105966514Y-124979578D02*
X105912085Y-124816292D01*
X105912085Y-124816292D02*
X105912085Y-124707435D01*
X105912085Y-124707435D02*
X105966514Y-124544149D01*
X105966514Y-124544149D02*
X106020942Y-124489721D01*
X106020942Y-124489721D02*
X106401942Y-124489721D01*
X106401942Y-124489721D02*
X106401942Y-124707435D01*
X105912085Y-123999864D02*
X107055085Y-123999864D01*
X107055085Y-123999864D02*
X105912085Y-123346721D01*
X105912085Y-123346721D02*
X107055085Y-123346721D01*
X105912085Y-122802435D02*
X107055085Y-122802435D01*
X107055085Y-122802435D02*
X107055085Y-122530292D01*
X107055085Y-122530292D02*
X107000656Y-122367006D01*
X107000656Y-122367006D02*
X106891799Y-122258149D01*
X106891799Y-122258149D02*
X106782942Y-122203720D01*
X106782942Y-122203720D02*
X106565228Y-122149292D01*
X106565228Y-122149292D02*
X106401942Y-122149292D01*
X106401942Y-122149292D02*
X106184228Y-122203720D01*
X106184228Y-122203720D02*
X106075371Y-122258149D01*
X106075371Y-122258149D02*
X105966514Y-122367006D01*
X105966514Y-122367006D02*
X105912085Y-122530292D01*
X105912085Y-122530292D02*
X105912085Y-122802435D01*
D10*
X196779100Y-121917895D02*
X196851672Y-121881609D01*
X196851672Y-121881609D02*
X196960529Y-121881609D01*
X196960529Y-121881609D02*
X197069386Y-121917895D01*
X197069386Y-121917895D02*
X197141957Y-121990466D01*
X197141957Y-121990466D02*
X197178243Y-122063038D01*
X197178243Y-122063038D02*
X197214529Y-122208181D01*
X197214529Y-122208181D02*
X197214529Y-122317038D01*
X197214529Y-122317038D02*
X197178243Y-122462181D01*
X197178243Y-122462181D02*
X197141957Y-122534752D01*
X197141957Y-122534752D02*
X197069386Y-122607324D01*
X197069386Y-122607324D02*
X196960529Y-122643609D01*
X196960529Y-122643609D02*
X196887957Y-122643609D01*
X196887957Y-122643609D02*
X196779100Y-122607324D01*
X196779100Y-122607324D02*
X196742814Y-122571038D01*
X196742814Y-122571038D02*
X196742814Y-122317038D01*
X196742814Y-122317038D02*
X196887957Y-122317038D01*
X196416243Y-122643609D02*
X196416243Y-121881609D01*
X196416243Y-121881609D02*
X195980814Y-122643609D01*
X195980814Y-122643609D02*
X195980814Y-121881609D01*
X195617957Y-122643609D02*
X195617957Y-121881609D01*
X195617957Y-121881609D02*
X195436528Y-121881609D01*
X195436528Y-121881609D02*
X195327671Y-121917895D01*
X195327671Y-121917895D02*
X195255100Y-121990466D01*
X195255100Y-121990466D02*
X195218814Y-122063038D01*
X195218814Y-122063038D02*
X195182528Y-122208181D01*
X195182528Y-122208181D02*
X195182528Y-122317038D01*
X195182528Y-122317038D02*
X195218814Y-122462181D01*
X195218814Y-122462181D02*
X195255100Y-122534752D01*
X195255100Y-122534752D02*
X195327671Y-122607324D01*
X195327671Y-122607324D02*
X195436528Y-122643609D01*
X195436528Y-122643609D02*
X195617957Y-122643609D01*
D11*
X111191656Y-125197292D02*
X111191656Y-124653007D01*
X110865085Y-125306149D02*
X112008085Y-124925149D01*
X112008085Y-124925149D02*
X110865085Y-124544149D01*
X110865085Y-124163150D02*
X112008085Y-124163150D01*
X110865085Y-123618864D02*
X112008085Y-123618864D01*
X112008085Y-123618864D02*
X110865085Y-122965721D01*
X110865085Y-122965721D02*
X112008085Y-122965721D01*
X112008085Y-122203720D02*
X112008085Y-122094863D01*
X112008085Y-122094863D02*
X111953656Y-121986006D01*
X111953656Y-121986006D02*
X111899228Y-121931578D01*
X111899228Y-121931578D02*
X111790371Y-121877149D01*
X111790371Y-121877149D02*
X111572656Y-121822720D01*
X111572656Y-121822720D02*
X111300514Y-121822720D01*
X111300514Y-121822720D02*
X111082799Y-121877149D01*
X111082799Y-121877149D02*
X110973942Y-121931578D01*
X110973942Y-121931578D02*
X110919514Y-121986006D01*
X110919514Y-121986006D02*
X110865085Y-122094863D01*
X110865085Y-122094863D02*
X110865085Y-122203720D01*
X110865085Y-122203720D02*
X110919514Y-122312578D01*
X110919514Y-122312578D02*
X110973942Y-122367006D01*
X110973942Y-122367006D02*
X111082799Y-122421435D01*
X111082799Y-122421435D02*
X111300514Y-122475863D01*
X111300514Y-122475863D02*
X111572656Y-122475863D01*
X111572656Y-122475863D02*
X111790371Y-122421435D01*
X111790371Y-122421435D02*
X111899228Y-122367006D01*
X111899228Y-122367006D02*
X111953656Y-122312578D01*
X111953656Y-122312578D02*
X112008085Y-122203720D01*
D13*
X108494285Y-63448812D02*
X107865332Y-63448812D01*
X107865332Y-63448812D02*
X108203999Y-63835860D01*
X108203999Y-63835860D02*
X108058856Y-63835860D01*
X108058856Y-63835860D02*
X107962094Y-63884241D01*
X107962094Y-63884241D02*
X107913713Y-63932622D01*
X107913713Y-63932622D02*
X107865332Y-64029384D01*
X107865332Y-64029384D02*
X107865332Y-64271289D01*
X107865332Y-64271289D02*
X107913713Y-64368051D01*
X107913713Y-64368051D02*
X107962094Y-64416432D01*
X107962094Y-64416432D02*
X108058856Y-64464812D01*
X108058856Y-64464812D02*
X108349142Y-64464812D01*
X108349142Y-64464812D02*
X108445904Y-64416432D01*
X108445904Y-64416432D02*
X108494285Y-64368051D01*
X107429904Y-64077765D02*
X106655809Y-64077765D01*
X105978475Y-63448812D02*
X105881713Y-63448812D01*
X105881713Y-63448812D02*
X105784951Y-63497193D01*
X105784951Y-63497193D02*
X105736570Y-63545574D01*
X105736570Y-63545574D02*
X105688189Y-63642336D01*
X105688189Y-63642336D02*
X105639808Y-63835860D01*
X105639808Y-63835860D02*
X105639808Y-64077765D01*
X105639808Y-64077765D02*
X105688189Y-64271289D01*
X105688189Y-64271289D02*
X105736570Y-64368051D01*
X105736570Y-64368051D02*
X105784951Y-64416432D01*
X105784951Y-64416432D02*
X105881713Y-64464812D01*
X105881713Y-64464812D02*
X105978475Y-64464812D01*
X105978475Y-64464812D02*
X106075237Y-64416432D01*
X106075237Y-64416432D02*
X106123618Y-64368051D01*
X106123618Y-64368051D02*
X106171999Y-64271289D01*
X106171999Y-64271289D02*
X106220380Y-64077765D01*
X106220380Y-64077765D02*
X106220380Y-63835860D01*
X106220380Y-63835860D02*
X106171999Y-63642336D01*
X106171999Y-63642336D02*
X106123618Y-63545574D01*
X106123618Y-63545574D02*
X106075237Y-63497193D01*
X106075237Y-63497193D02*
X105978475Y-63448812D01*
X105010856Y-63448812D02*
X104914094Y-63448812D01*
X104914094Y-63448812D02*
X104817332Y-63497193D01*
X104817332Y-63497193D02*
X104768951Y-63545574D01*
X104768951Y-63545574D02*
X104720570Y-63642336D01*
X104720570Y-63642336D02*
X104672189Y-63835860D01*
X104672189Y-63835860D02*
X104672189Y-64077765D01*
X104672189Y-64077765D02*
X104720570Y-64271289D01*
X104720570Y-64271289D02*
X104768951Y-64368051D01*
X104768951Y-64368051D02*
X104817332Y-64416432D01*
X104817332Y-64416432D02*
X104914094Y-64464812D01*
X104914094Y-64464812D02*
X105010856Y-64464812D01*
X105010856Y-64464812D02*
X105107618Y-64416432D01*
X105107618Y-64416432D02*
X105155999Y-64368051D01*
X105155999Y-64368051D02*
X105204380Y-64271289D01*
X105204380Y-64271289D02*
X105252761Y-64077765D01*
X105252761Y-64077765D02*
X105252761Y-63835860D01*
X105252761Y-63835860D02*
X105204380Y-63642336D01*
X105204380Y-63642336D02*
X105155999Y-63545574D01*
X105155999Y-63545574D02*
X105107618Y-63497193D01*
X105107618Y-63497193D02*
X105010856Y-63448812D01*
X104043237Y-63448812D02*
X103946475Y-63448812D01*
X103946475Y-63448812D02*
X103849713Y-63497193D01*
X103849713Y-63497193D02*
X103801332Y-63545574D01*
X103801332Y-63545574D02*
X103752951Y-63642336D01*
X103752951Y-63642336D02*
X103704570Y-63835860D01*
X103704570Y-63835860D02*
X103704570Y-64077765D01*
X103704570Y-64077765D02*
X103752951Y-64271289D01*
X103752951Y-64271289D02*
X103801332Y-64368051D01*
X103801332Y-64368051D02*
X103849713Y-64416432D01*
X103849713Y-64416432D02*
X103946475Y-64464812D01*
X103946475Y-64464812D02*
X104043237Y-64464812D01*
X104043237Y-64464812D02*
X104139999Y-64416432D01*
X104139999Y-64416432D02*
X104188380Y-64368051D01*
X104188380Y-64368051D02*
X104236761Y-64271289D01*
X104236761Y-64271289D02*
X104285142Y-64077765D01*
X104285142Y-64077765D02*
X104285142Y-63835860D01*
X104285142Y-63835860D02*
X104236761Y-63642336D01*
X104236761Y-63642336D02*
X104188380Y-63545574D01*
X104188380Y-63545574D02*
X104139999Y-63497193D01*
X104139999Y-63497193D02*
X104043237Y-63448812D01*
X103075618Y-63448812D02*
X102978856Y-63448812D01*
X102978856Y-63448812D02*
X102882094Y-63497193D01*
X102882094Y-63497193D02*
X102833713Y-63545574D01*
X102833713Y-63545574D02*
X102785332Y-63642336D01*
X102785332Y-63642336D02*
X102736951Y-63835860D01*
X102736951Y-63835860D02*
X102736951Y-64077765D01*
X102736951Y-64077765D02*
X102785332Y-64271289D01*
X102785332Y-64271289D02*
X102833713Y-64368051D01*
X102833713Y-64368051D02*
X102882094Y-64416432D01*
X102882094Y-64416432D02*
X102978856Y-64464812D01*
X102978856Y-64464812D02*
X103075618Y-64464812D01*
X103075618Y-64464812D02*
X103172380Y-64416432D01*
X103172380Y-64416432D02*
X103220761Y-64368051D01*
X103220761Y-64368051D02*
X103269142Y-64271289D01*
X103269142Y-64271289D02*
X103317523Y-64077765D01*
X103317523Y-64077765D02*
X103317523Y-63835860D01*
X103317523Y-63835860D02*
X103269142Y-63642336D01*
X103269142Y-63642336D02*
X103220761Y-63545574D01*
X103220761Y-63545574D02*
X103172380Y-63497193D01*
X103172380Y-63497193D02*
X103075618Y-63448812D01*
X102398285Y-63448812D02*
X101769332Y-63448812D01*
X101769332Y-63448812D02*
X102107999Y-63835860D01*
X102107999Y-63835860D02*
X101962856Y-63835860D01*
X101962856Y-63835860D02*
X101866094Y-63884241D01*
X101866094Y-63884241D02*
X101817713Y-63932622D01*
X101817713Y-63932622D02*
X101769332Y-64029384D01*
X101769332Y-64029384D02*
X101769332Y-64271289D01*
X101769332Y-64271289D02*
X101817713Y-64368051D01*
X101817713Y-64368051D02*
X101866094Y-64416432D01*
X101866094Y-64416432D02*
X101962856Y-64464812D01*
X101962856Y-64464812D02*
X102253142Y-64464812D01*
X102253142Y-64464812D02*
X102349904Y-64416432D01*
X102349904Y-64416432D02*
X102398285Y-64368051D01*
X101140380Y-63448812D02*
X101043618Y-63448812D01*
X101043618Y-63448812D02*
X100946856Y-63497193D01*
X100946856Y-63497193D02*
X100898475Y-63545574D01*
X100898475Y-63545574D02*
X100850094Y-63642336D01*
X100850094Y-63642336D02*
X100801713Y-63835860D01*
X100801713Y-63835860D02*
X100801713Y-64077765D01*
X100801713Y-64077765D02*
X100850094Y-64271289D01*
X100850094Y-64271289D02*
X100898475Y-64368051D01*
X100898475Y-64368051D02*
X100946856Y-64416432D01*
X100946856Y-64416432D02*
X101043618Y-64464812D01*
X101043618Y-64464812D02*
X101140380Y-64464812D01*
X101140380Y-64464812D02*
X101237142Y-64416432D01*
X101237142Y-64416432D02*
X101285523Y-64368051D01*
X101285523Y-64368051D02*
X101333904Y-64271289D01*
X101333904Y-64271289D02*
X101382285Y-64077765D01*
X101382285Y-64077765D02*
X101382285Y-63835860D01*
X101382285Y-63835860D02*
X101333904Y-63642336D01*
X101333904Y-63642336D02*
X101285523Y-63545574D01*
X101285523Y-63545574D02*
X101237142Y-63497193D01*
X101237142Y-63497193D02*
X101140380Y-63448812D01*
X100463047Y-63448812D02*
X99785713Y-63448812D01*
X99785713Y-63448812D02*
X100221142Y-64464812D01*
D10*
X142455609Y-66618899D02*
X142455609Y-67054328D01*
X143217609Y-66836613D02*
X142455609Y-66836613D01*
X142455609Y-67235756D02*
X143217609Y-67743756D01*
X142455609Y-67743756D02*
X143217609Y-67235756D01*
D11*
X117795656Y-124544149D02*
X117850085Y-124653007D01*
X117850085Y-124653007D02*
X117850085Y-124816292D01*
X117850085Y-124816292D02*
X117795656Y-124979578D01*
X117795656Y-124979578D02*
X117686799Y-125088435D01*
X117686799Y-125088435D02*
X117577942Y-125142864D01*
X117577942Y-125142864D02*
X117360228Y-125197292D01*
X117360228Y-125197292D02*
X117196942Y-125197292D01*
X117196942Y-125197292D02*
X116979228Y-125142864D01*
X116979228Y-125142864D02*
X116870371Y-125088435D01*
X116870371Y-125088435D02*
X116761514Y-124979578D01*
X116761514Y-124979578D02*
X116707085Y-124816292D01*
X116707085Y-124816292D02*
X116707085Y-124707435D01*
X116707085Y-124707435D02*
X116761514Y-124544149D01*
X116761514Y-124544149D02*
X116815942Y-124489721D01*
X116815942Y-124489721D02*
X117196942Y-124489721D01*
X117196942Y-124489721D02*
X117196942Y-124707435D01*
X116707085Y-123999864D02*
X117850085Y-123999864D01*
X117850085Y-123999864D02*
X116707085Y-123346721D01*
X116707085Y-123346721D02*
X117850085Y-123346721D01*
X116707085Y-122802435D02*
X117850085Y-122802435D01*
X117850085Y-122802435D02*
X117850085Y-122530292D01*
X117850085Y-122530292D02*
X117795656Y-122367006D01*
X117795656Y-122367006D02*
X117686799Y-122258149D01*
X117686799Y-122258149D02*
X117577942Y-122203720D01*
X117577942Y-122203720D02*
X117360228Y-122149292D01*
X117360228Y-122149292D02*
X117196942Y-122149292D01*
X117196942Y-122149292D02*
X116979228Y-122203720D01*
X116979228Y-122203720D02*
X116870371Y-122258149D01*
X116870371Y-122258149D02*
X116761514Y-122367006D01*
X116761514Y-122367006D02*
X116707085Y-122530292D01*
X116707085Y-122530292D02*
X116707085Y-122802435D01*
D10*
X156629390Y-109675243D02*
X157391390Y-109675243D01*
X157391390Y-109167243D02*
X157391390Y-109022100D01*
X157391390Y-109022100D02*
X157355104Y-108949529D01*
X157355104Y-108949529D02*
X157282533Y-108876957D01*
X157282533Y-108876957D02*
X157137390Y-108840672D01*
X157137390Y-108840672D02*
X156883390Y-108840672D01*
X156883390Y-108840672D02*
X156738247Y-108876957D01*
X156738247Y-108876957D02*
X156665676Y-108949529D01*
X156665676Y-108949529D02*
X156629390Y-109022100D01*
X156629390Y-109022100D02*
X156629390Y-109167243D01*
X156629390Y-109167243D02*
X156665676Y-109239815D01*
X156665676Y-109239815D02*
X156738247Y-109312386D01*
X156738247Y-109312386D02*
X156883390Y-109348672D01*
X156883390Y-109348672D02*
X157137390Y-109348672D01*
X157137390Y-109348672D02*
X157282533Y-109312386D01*
X157282533Y-109312386D02*
X157355104Y-109239815D01*
X157355104Y-109239815D02*
X157391390Y-109167243D01*
X157391390Y-108586671D02*
X157391390Y-108114957D01*
X157391390Y-108114957D02*
X157101104Y-108368957D01*
X157101104Y-108368957D02*
X157101104Y-108260100D01*
X157101104Y-108260100D02*
X157064818Y-108187529D01*
X157064818Y-108187529D02*
X157028533Y-108151243D01*
X157028533Y-108151243D02*
X156955961Y-108114957D01*
X156955961Y-108114957D02*
X156774533Y-108114957D01*
X156774533Y-108114957D02*
X156701961Y-108151243D01*
X156701961Y-108151243D02*
X156665676Y-108187529D01*
X156665676Y-108187529D02*
X156629390Y-108260100D01*
X156629390Y-108260100D02*
X156629390Y-108477814D01*
X156629390Y-108477814D02*
X156665676Y-108550386D01*
X156665676Y-108550386D02*
X156701961Y-108586671D01*
X157391390Y-107461815D02*
X157391390Y-107606957D01*
X157391390Y-107606957D02*
X157355104Y-107679529D01*
X157355104Y-107679529D02*
X157318818Y-107715815D01*
X157318818Y-107715815D02*
X157209961Y-107788386D01*
X157209961Y-107788386D02*
X157064818Y-107824672D01*
X157064818Y-107824672D02*
X156774533Y-107824672D01*
X156774533Y-107824672D02*
X156701961Y-107788386D01*
X156701961Y-107788386D02*
X156665676Y-107752100D01*
X156665676Y-107752100D02*
X156629390Y-107679529D01*
X156629390Y-107679529D02*
X156629390Y-107534386D01*
X156629390Y-107534386D02*
X156665676Y-107461815D01*
X156665676Y-107461815D02*
X156701961Y-107425529D01*
X156701961Y-107425529D02*
X156774533Y-107389243D01*
X156774533Y-107389243D02*
X156955961Y-107389243D01*
X156955961Y-107389243D02*
X157028533Y-107425529D01*
X157028533Y-107425529D02*
X157064818Y-107461815D01*
X157064818Y-107461815D02*
X157101104Y-107534386D01*
X157101104Y-107534386D02*
X157101104Y-107679529D01*
X157101104Y-107679529D02*
X157064818Y-107752100D01*
X157064818Y-107752100D02*
X157028533Y-107788386D01*
X157028533Y-107788386D02*
X156955961Y-107824672D01*
D14*
X152369411Y-125059828D02*
X152399649Y-125090067D01*
X152399649Y-125090067D02*
X152490363Y-125150543D01*
X152490363Y-125150543D02*
X152550839Y-125180781D01*
X152550839Y-125180781D02*
X152641554Y-125211019D01*
X152641554Y-125211019D02*
X152792744Y-125241257D01*
X152792744Y-125241257D02*
X152913696Y-125241257D01*
X152913696Y-125241257D02*
X153064887Y-125211019D01*
X153064887Y-125211019D02*
X153155601Y-125180781D01*
X153155601Y-125180781D02*
X153216077Y-125150543D01*
X153216077Y-125150543D02*
X153306792Y-125090067D01*
X153306792Y-125090067D02*
X153337030Y-125059828D01*
X152611315Y-124515543D02*
X152611315Y-124817924D01*
X152611315Y-124817924D02*
X153246315Y-124817924D01*
X152611315Y-124213162D02*
X152641554Y-124273638D01*
X152641554Y-124273638D02*
X152671792Y-124303876D01*
X152671792Y-124303876D02*
X152732268Y-124334114D01*
X152732268Y-124334114D02*
X152913696Y-124334114D01*
X152913696Y-124334114D02*
X152974173Y-124303876D01*
X152974173Y-124303876D02*
X153004411Y-124273638D01*
X153004411Y-124273638D02*
X153034649Y-124213162D01*
X153034649Y-124213162D02*
X153034649Y-124122447D01*
X153034649Y-124122447D02*
X153004411Y-124061971D01*
X153004411Y-124061971D02*
X152974173Y-124031733D01*
X152974173Y-124031733D02*
X152913696Y-124001495D01*
X152913696Y-124001495D02*
X152732268Y-124001495D01*
X152732268Y-124001495D02*
X152671792Y-124031733D01*
X152671792Y-124031733D02*
X152641554Y-124061971D01*
X152641554Y-124061971D02*
X152611315Y-124122447D01*
X152611315Y-124122447D02*
X152611315Y-124213162D01*
X153034649Y-123789828D02*
X152611315Y-123668876D01*
X152611315Y-123668876D02*
X152913696Y-123547923D01*
X152913696Y-123547923D02*
X152611315Y-123426971D01*
X152611315Y-123426971D02*
X153034649Y-123306019D01*
X152671792Y-122217447D02*
X152641554Y-122247685D01*
X152641554Y-122247685D02*
X152611315Y-122338399D01*
X152611315Y-122338399D02*
X152611315Y-122398875D01*
X152611315Y-122398875D02*
X152641554Y-122489590D01*
X152641554Y-122489590D02*
X152702030Y-122550066D01*
X152702030Y-122550066D02*
X152762506Y-122580304D01*
X152762506Y-122580304D02*
X152883458Y-122610542D01*
X152883458Y-122610542D02*
X152974173Y-122610542D01*
X152974173Y-122610542D02*
X153095125Y-122580304D01*
X153095125Y-122580304D02*
X153155601Y-122550066D01*
X153155601Y-122550066D02*
X153216077Y-122489590D01*
X153216077Y-122489590D02*
X153246315Y-122398875D01*
X153246315Y-122398875D02*
X153246315Y-122338399D01*
X153246315Y-122338399D02*
X153216077Y-122247685D01*
X153216077Y-122247685D02*
X153185839Y-122217447D01*
X153034649Y-121673161D02*
X152611315Y-121673161D01*
X153034649Y-121945304D02*
X152702030Y-121945304D01*
X152702030Y-121945304D02*
X152641554Y-121915066D01*
X152641554Y-121915066D02*
X152611315Y-121854590D01*
X152611315Y-121854590D02*
X152611315Y-121763875D01*
X152611315Y-121763875D02*
X152641554Y-121703399D01*
X152641554Y-121703399D02*
X152671792Y-121673161D01*
X152611315Y-121370780D02*
X153034649Y-121370780D01*
X152913696Y-121370780D02*
X152974173Y-121340542D01*
X152974173Y-121340542D02*
X153004411Y-121310304D01*
X153004411Y-121310304D02*
X153034649Y-121249828D01*
X153034649Y-121249828D02*
X153034649Y-121189351D01*
X152611315Y-120977685D02*
X153034649Y-120977685D01*
X152913696Y-120977685D02*
X152974173Y-120947447D01*
X152974173Y-120947447D02*
X153004411Y-120917209D01*
X153004411Y-120917209D02*
X153034649Y-120856733D01*
X153034649Y-120856733D02*
X153034649Y-120796256D01*
X152641554Y-120342685D02*
X152611315Y-120403161D01*
X152611315Y-120403161D02*
X152611315Y-120524114D01*
X152611315Y-120524114D02*
X152641554Y-120584590D01*
X152641554Y-120584590D02*
X152702030Y-120614828D01*
X152702030Y-120614828D02*
X152943934Y-120614828D01*
X152943934Y-120614828D02*
X153004411Y-120584590D01*
X153004411Y-120584590D02*
X153034649Y-120524114D01*
X153034649Y-120524114D02*
X153034649Y-120403161D01*
X153034649Y-120403161D02*
X153004411Y-120342685D01*
X153004411Y-120342685D02*
X152943934Y-120312447D01*
X152943934Y-120312447D02*
X152883458Y-120312447D01*
X152883458Y-120312447D02*
X152822982Y-120614828D01*
X153034649Y-120040304D02*
X152611315Y-120040304D01*
X152974173Y-120040304D02*
X153004411Y-120010066D01*
X153004411Y-120010066D02*
X153034649Y-119949590D01*
X153034649Y-119949590D02*
X153034649Y-119858875D01*
X153034649Y-119858875D02*
X153004411Y-119798399D01*
X153004411Y-119798399D02*
X152943934Y-119768161D01*
X152943934Y-119768161D02*
X152611315Y-119768161D01*
X153034649Y-119556494D02*
X153034649Y-119314590D01*
X153246315Y-119465780D02*
X152702030Y-119465780D01*
X152702030Y-119465780D02*
X152641554Y-119435542D01*
X152641554Y-119435542D02*
X152611315Y-119375066D01*
X152611315Y-119375066D02*
X152611315Y-119314590D01*
X153246315Y-118498161D02*
X153246315Y-118377208D01*
X153246315Y-118377208D02*
X153216077Y-118316732D01*
X153216077Y-118316732D02*
X153155601Y-118256256D01*
X153155601Y-118256256D02*
X153034649Y-118226018D01*
X153034649Y-118226018D02*
X152822982Y-118226018D01*
X152822982Y-118226018D02*
X152702030Y-118256256D01*
X152702030Y-118256256D02*
X152641554Y-118316732D01*
X152641554Y-118316732D02*
X152611315Y-118377208D01*
X152611315Y-118377208D02*
X152611315Y-118498161D01*
X152611315Y-118498161D02*
X152641554Y-118558637D01*
X152641554Y-118558637D02*
X152702030Y-118619113D01*
X152702030Y-118619113D02*
X152822982Y-118649351D01*
X152822982Y-118649351D02*
X153034649Y-118649351D01*
X153034649Y-118649351D02*
X153155601Y-118619113D01*
X153155601Y-118619113D02*
X153216077Y-118558637D01*
X153216077Y-118558637D02*
X153246315Y-118498161D01*
X153034649Y-117953875D02*
X152611315Y-117953875D01*
X152974173Y-117953875D02*
X153004411Y-117923637D01*
X153004411Y-117923637D02*
X153034649Y-117863161D01*
X153034649Y-117863161D02*
X153034649Y-117772446D01*
X153034649Y-117772446D02*
X153004411Y-117711970D01*
X153004411Y-117711970D02*
X152943934Y-117681732D01*
X152943934Y-117681732D02*
X152611315Y-117681732D01*
X152611315Y-117288637D02*
X152641554Y-117349113D01*
X152641554Y-117349113D02*
X152702030Y-117379351D01*
X152702030Y-117379351D02*
X153246315Y-117379351D01*
X153034649Y-117107208D02*
X152611315Y-116956018D01*
X153034649Y-116804827D02*
X152611315Y-116956018D01*
X152611315Y-116956018D02*
X152460125Y-117016494D01*
X152460125Y-117016494D02*
X152429887Y-117046732D01*
X152429887Y-117046732D02*
X152399649Y-117107208D01*
X152369411Y-116623398D02*
X152399649Y-116593160D01*
X152399649Y-116593160D02*
X152490363Y-116532684D01*
X152490363Y-116532684D02*
X152550839Y-116502446D01*
X152550839Y-116502446D02*
X152641554Y-116472208D01*
X152641554Y-116472208D02*
X152792744Y-116441970D01*
X152792744Y-116441970D02*
X152913696Y-116441970D01*
X152913696Y-116441970D02*
X153064887Y-116472208D01*
X153064887Y-116472208D02*
X153155601Y-116502446D01*
X153155601Y-116502446D02*
X153216077Y-116532684D01*
X153216077Y-116532684D02*
X153306792Y-116593160D01*
X153306792Y-116593160D02*
X153337030Y-116623398D01*
D10*
X159169390Y-109675243D02*
X159931390Y-109675243D01*
X159931390Y-109167243D02*
X159931390Y-109022100D01*
X159931390Y-109022100D02*
X159895104Y-108949529D01*
X159895104Y-108949529D02*
X159822533Y-108876957D01*
X159822533Y-108876957D02*
X159677390Y-108840672D01*
X159677390Y-108840672D02*
X159423390Y-108840672D01*
X159423390Y-108840672D02*
X159278247Y-108876957D01*
X159278247Y-108876957D02*
X159205676Y-108949529D01*
X159205676Y-108949529D02*
X159169390Y-109022100D01*
X159169390Y-109022100D02*
X159169390Y-109167243D01*
X159169390Y-109167243D02*
X159205676Y-109239815D01*
X159205676Y-109239815D02*
X159278247Y-109312386D01*
X159278247Y-109312386D02*
X159423390Y-109348672D01*
X159423390Y-109348672D02*
X159677390Y-109348672D01*
X159677390Y-109348672D02*
X159822533Y-109312386D01*
X159822533Y-109312386D02*
X159895104Y-109239815D01*
X159895104Y-109239815D02*
X159931390Y-109167243D01*
X159931390Y-108586671D02*
X159931390Y-108114957D01*
X159931390Y-108114957D02*
X159641104Y-108368957D01*
X159641104Y-108368957D02*
X159641104Y-108260100D01*
X159641104Y-108260100D02*
X159604818Y-108187529D01*
X159604818Y-108187529D02*
X159568533Y-108151243D01*
X159568533Y-108151243D02*
X159495961Y-108114957D01*
X159495961Y-108114957D02*
X159314533Y-108114957D01*
X159314533Y-108114957D02*
X159241961Y-108151243D01*
X159241961Y-108151243D02*
X159205676Y-108187529D01*
X159205676Y-108187529D02*
X159169390Y-108260100D01*
X159169390Y-108260100D02*
X159169390Y-108477814D01*
X159169390Y-108477814D02*
X159205676Y-108550386D01*
X159205676Y-108550386D02*
X159241961Y-108586671D01*
X159169390Y-107752100D02*
X159169390Y-107606957D01*
X159169390Y-107606957D02*
X159205676Y-107534386D01*
X159205676Y-107534386D02*
X159241961Y-107498100D01*
X159241961Y-107498100D02*
X159350818Y-107425529D01*
X159350818Y-107425529D02*
X159495961Y-107389243D01*
X159495961Y-107389243D02*
X159786247Y-107389243D01*
X159786247Y-107389243D02*
X159858818Y-107425529D01*
X159858818Y-107425529D02*
X159895104Y-107461815D01*
X159895104Y-107461815D02*
X159931390Y-107534386D01*
X159931390Y-107534386D02*
X159931390Y-107679529D01*
X159931390Y-107679529D02*
X159895104Y-107752100D01*
X159895104Y-107752100D02*
X159858818Y-107788386D01*
X159858818Y-107788386D02*
X159786247Y-107824672D01*
X159786247Y-107824672D02*
X159604818Y-107824672D01*
X159604818Y-107824672D02*
X159532247Y-107788386D01*
X159532247Y-107788386D02*
X159495961Y-107752100D01*
X159495961Y-107752100D02*
X159459676Y-107679529D01*
X159459676Y-107679529D02*
X159459676Y-107534386D01*
X159459676Y-107534386D02*
X159495961Y-107461815D01*
X159495961Y-107461815D02*
X159532247Y-107425529D01*
X159532247Y-107425529D02*
X159604818Y-107389243D01*
D11*
X132781656Y-125197292D02*
X132781656Y-124653007D01*
X132455085Y-125306149D02*
X133598085Y-124925149D01*
X133598085Y-124925149D02*
X132455085Y-124544149D01*
X132455085Y-124163150D02*
X133598085Y-124163150D01*
X132455085Y-123618864D02*
X133598085Y-123618864D01*
X133598085Y-123618864D02*
X132455085Y-122965721D01*
X132455085Y-122965721D02*
X133598085Y-122965721D01*
X133489228Y-122475863D02*
X133543656Y-122421435D01*
X133543656Y-122421435D02*
X133598085Y-122312578D01*
X133598085Y-122312578D02*
X133598085Y-122040435D01*
X133598085Y-122040435D02*
X133543656Y-121931578D01*
X133543656Y-121931578D02*
X133489228Y-121877149D01*
X133489228Y-121877149D02*
X133380371Y-121822720D01*
X133380371Y-121822720D02*
X133271514Y-121822720D01*
X133271514Y-121822720D02*
X133108228Y-121877149D01*
X133108228Y-121877149D02*
X132455085Y-122530292D01*
X132455085Y-122530292D02*
X132455085Y-121822720D01*
D10*
X197214529Y-120067324D02*
X197105672Y-120103609D01*
X197105672Y-120103609D02*
X196924243Y-120103609D01*
X196924243Y-120103609D02*
X196851672Y-120067324D01*
X196851672Y-120067324D02*
X196815386Y-120031038D01*
X196815386Y-120031038D02*
X196779100Y-119958466D01*
X196779100Y-119958466D02*
X196779100Y-119885895D01*
X196779100Y-119885895D02*
X196815386Y-119813324D01*
X196815386Y-119813324D02*
X196851672Y-119777038D01*
X196851672Y-119777038D02*
X196924243Y-119740752D01*
X196924243Y-119740752D02*
X197069386Y-119704466D01*
X197069386Y-119704466D02*
X197141957Y-119668181D01*
X197141957Y-119668181D02*
X197178243Y-119631895D01*
X197178243Y-119631895D02*
X197214529Y-119559324D01*
X197214529Y-119559324D02*
X197214529Y-119486752D01*
X197214529Y-119486752D02*
X197178243Y-119414181D01*
X197178243Y-119414181D02*
X197141957Y-119377895D01*
X197141957Y-119377895D02*
X197069386Y-119341609D01*
X197069386Y-119341609D02*
X196887957Y-119341609D01*
X196887957Y-119341609D02*
X196779100Y-119377895D01*
X196017100Y-120031038D02*
X196053386Y-120067324D01*
X196053386Y-120067324D02*
X196162243Y-120103609D01*
X196162243Y-120103609D02*
X196234815Y-120103609D01*
X196234815Y-120103609D02*
X196343672Y-120067324D01*
X196343672Y-120067324D02*
X196416243Y-119994752D01*
X196416243Y-119994752D02*
X196452529Y-119922181D01*
X196452529Y-119922181D02*
X196488815Y-119777038D01*
X196488815Y-119777038D02*
X196488815Y-119668181D01*
X196488815Y-119668181D02*
X196452529Y-119523038D01*
X196452529Y-119523038D02*
X196416243Y-119450466D01*
X196416243Y-119450466D02*
X196343672Y-119377895D01*
X196343672Y-119377895D02*
X196234815Y-119341609D01*
X196234815Y-119341609D02*
X196162243Y-119341609D01*
X196162243Y-119341609D02*
X196053386Y-119377895D01*
X196053386Y-119377895D02*
X196017100Y-119414181D01*
X195327672Y-120103609D02*
X195690529Y-120103609D01*
X195690529Y-120103609D02*
X195690529Y-119341609D01*
D11*
X155188085Y-124598578D02*
X155188085Y-125142864D01*
X155188085Y-125142864D02*
X154643799Y-125197292D01*
X154643799Y-125197292D02*
X154698228Y-125142864D01*
X154698228Y-125142864D02*
X154752656Y-125034007D01*
X154752656Y-125034007D02*
X154752656Y-124761864D01*
X154752656Y-124761864D02*
X154698228Y-124653007D01*
X154698228Y-124653007D02*
X154643799Y-124598578D01*
X154643799Y-124598578D02*
X154534942Y-124544149D01*
X154534942Y-124544149D02*
X154262799Y-124544149D01*
X154262799Y-124544149D02*
X154153942Y-124598578D01*
X154153942Y-124598578D02*
X154099514Y-124653007D01*
X154099514Y-124653007D02*
X154045085Y-124761864D01*
X154045085Y-124761864D02*
X154045085Y-125034007D01*
X154045085Y-125034007D02*
X154099514Y-125142864D01*
X154099514Y-125142864D02*
X154153942Y-125197292D01*
X155188085Y-124217578D02*
X154045085Y-123836578D01*
X154045085Y-123836578D02*
X155188085Y-123455578D01*
X154099514Y-122258150D02*
X154045085Y-122094865D01*
X154045085Y-122094865D02*
X154045085Y-121822722D01*
X154045085Y-121822722D02*
X154099514Y-121713865D01*
X154099514Y-121713865D02*
X154153942Y-121659436D01*
X154153942Y-121659436D02*
X154262799Y-121605007D01*
X154262799Y-121605007D02*
X154371656Y-121605007D01*
X154371656Y-121605007D02*
X154480514Y-121659436D01*
X154480514Y-121659436D02*
X154534942Y-121713865D01*
X154534942Y-121713865D02*
X154589371Y-121822722D01*
X154589371Y-121822722D02*
X154643799Y-122040436D01*
X154643799Y-122040436D02*
X154698228Y-122149293D01*
X154698228Y-122149293D02*
X154752656Y-122203722D01*
X154752656Y-122203722D02*
X154861514Y-122258150D01*
X154861514Y-122258150D02*
X154970371Y-122258150D01*
X154970371Y-122258150D02*
X155079228Y-122203722D01*
X155079228Y-122203722D02*
X155133656Y-122149293D01*
X155133656Y-122149293D02*
X155188085Y-122040436D01*
X155188085Y-122040436D02*
X155188085Y-121768293D01*
X155188085Y-121768293D02*
X155133656Y-121605007D01*
X154099514Y-120679722D02*
X154045085Y-120788579D01*
X154045085Y-120788579D02*
X154045085Y-121006294D01*
X154045085Y-121006294D02*
X154099514Y-121115151D01*
X154099514Y-121115151D02*
X154208371Y-121169579D01*
X154208371Y-121169579D02*
X154643799Y-121169579D01*
X154643799Y-121169579D02*
X154752656Y-121115151D01*
X154752656Y-121115151D02*
X154807085Y-121006294D01*
X154807085Y-121006294D02*
X154807085Y-120788579D01*
X154807085Y-120788579D02*
X154752656Y-120679722D01*
X154752656Y-120679722D02*
X154643799Y-120625294D01*
X154643799Y-120625294D02*
X154534942Y-120625294D01*
X154534942Y-120625294D02*
X154426085Y-121169579D01*
X154807085Y-120135437D02*
X154045085Y-120135437D01*
X154698228Y-120135437D02*
X154752656Y-120081008D01*
X154752656Y-120081008D02*
X154807085Y-119972151D01*
X154807085Y-119972151D02*
X154807085Y-119808865D01*
X154807085Y-119808865D02*
X154752656Y-119700008D01*
X154752656Y-119700008D02*
X154643799Y-119645580D01*
X154643799Y-119645580D02*
X154045085Y-119645580D01*
X154099514Y-119155722D02*
X154045085Y-119046865D01*
X154045085Y-119046865D02*
X154045085Y-118829151D01*
X154045085Y-118829151D02*
X154099514Y-118720294D01*
X154099514Y-118720294D02*
X154208371Y-118665865D01*
X154208371Y-118665865D02*
X154262799Y-118665865D01*
X154262799Y-118665865D02*
X154371656Y-118720294D01*
X154371656Y-118720294D02*
X154426085Y-118829151D01*
X154426085Y-118829151D02*
X154426085Y-118992437D01*
X154426085Y-118992437D02*
X154480514Y-119101294D01*
X154480514Y-119101294D02*
X154589371Y-119155722D01*
X154589371Y-119155722D02*
X154643799Y-119155722D01*
X154643799Y-119155722D02*
X154752656Y-119101294D01*
X154752656Y-119101294D02*
X154807085Y-118992437D01*
X154807085Y-118992437D02*
X154807085Y-118829151D01*
X154807085Y-118829151D02*
X154752656Y-118720294D01*
X154045085Y-118012722D02*
X154099514Y-118121579D01*
X154099514Y-118121579D02*
X154153942Y-118176008D01*
X154153942Y-118176008D02*
X154262799Y-118230436D01*
X154262799Y-118230436D02*
X154589371Y-118230436D01*
X154589371Y-118230436D02*
X154698228Y-118176008D01*
X154698228Y-118176008D02*
X154752656Y-118121579D01*
X154752656Y-118121579D02*
X154807085Y-118012722D01*
X154807085Y-118012722D02*
X154807085Y-117849436D01*
X154807085Y-117849436D02*
X154752656Y-117740579D01*
X154752656Y-117740579D02*
X154698228Y-117686151D01*
X154698228Y-117686151D02*
X154589371Y-117631722D01*
X154589371Y-117631722D02*
X154262799Y-117631722D01*
X154262799Y-117631722D02*
X154153942Y-117686151D01*
X154153942Y-117686151D02*
X154099514Y-117740579D01*
X154099514Y-117740579D02*
X154045085Y-117849436D01*
X154045085Y-117849436D02*
X154045085Y-118012722D01*
X154045085Y-117141865D02*
X154807085Y-117141865D01*
X154589371Y-117141865D02*
X154698228Y-117087436D01*
X154698228Y-117087436D02*
X154752656Y-117033008D01*
X154752656Y-117033008D02*
X154807085Y-116924150D01*
X154807085Y-116924150D02*
X154807085Y-116815293D01*
X155188085Y-115345722D02*
X155188085Y-115128008D01*
X155188085Y-115128008D02*
X155133656Y-115019151D01*
X155133656Y-115019151D02*
X155024799Y-114910294D01*
X155024799Y-114910294D02*
X154807085Y-114855865D01*
X154807085Y-114855865D02*
X154426085Y-114855865D01*
X154426085Y-114855865D02*
X154208371Y-114910294D01*
X154208371Y-114910294D02*
X154099514Y-115019151D01*
X154099514Y-115019151D02*
X154045085Y-115128008D01*
X154045085Y-115128008D02*
X154045085Y-115345722D01*
X154045085Y-115345722D02*
X154099514Y-115454580D01*
X154099514Y-115454580D02*
X154208371Y-115563437D01*
X154208371Y-115563437D02*
X154426085Y-115617865D01*
X154426085Y-115617865D02*
X154807085Y-115617865D01*
X154807085Y-115617865D02*
X155024799Y-115563437D01*
X155024799Y-115563437D02*
X155133656Y-115454580D01*
X155133656Y-115454580D02*
X155188085Y-115345722D01*
X154807085Y-113876151D02*
X154045085Y-113876151D01*
X154807085Y-114366008D02*
X154208371Y-114366008D01*
X154208371Y-114366008D02*
X154099514Y-114311579D01*
X154099514Y-114311579D02*
X154045085Y-114202722D01*
X154045085Y-114202722D02*
X154045085Y-114039436D01*
X154045085Y-114039436D02*
X154099514Y-113930579D01*
X154099514Y-113930579D02*
X154153942Y-113876151D01*
X154807085Y-113495150D02*
X154807085Y-113059722D01*
X155188085Y-113331865D02*
X154208371Y-113331865D01*
X154208371Y-113331865D02*
X154099514Y-113277436D01*
X154099514Y-113277436D02*
X154045085Y-113168579D01*
X154045085Y-113168579D02*
X154045085Y-113059722D01*
D10*
X190665390Y-128797814D02*
X190665390Y-128326100D01*
X190665390Y-128326100D02*
X190375104Y-128580100D01*
X190375104Y-128580100D02*
X190375104Y-128471243D01*
X190375104Y-128471243D02*
X190338818Y-128398672D01*
X190338818Y-128398672D02*
X190302533Y-128362386D01*
X190302533Y-128362386D02*
X190229961Y-128326100D01*
X190229961Y-128326100D02*
X190048533Y-128326100D01*
X190048533Y-128326100D02*
X189975961Y-128362386D01*
X189975961Y-128362386D02*
X189939676Y-128398672D01*
X189939676Y-128398672D02*
X189903390Y-128471243D01*
X189903390Y-128471243D02*
X189903390Y-128688957D01*
X189903390Y-128688957D02*
X189939676Y-128761529D01*
X189939676Y-128761529D02*
X189975961Y-128797814D01*
X190665390Y-128108386D02*
X189903390Y-127854386D01*
X189903390Y-127854386D02*
X190665390Y-127600386D01*
X190665390Y-127418957D02*
X190665390Y-126947243D01*
X190665390Y-126947243D02*
X190375104Y-127201243D01*
X190375104Y-127201243D02*
X190375104Y-127092386D01*
X190375104Y-127092386D02*
X190338818Y-127019815D01*
X190338818Y-127019815D02*
X190302533Y-126983529D01*
X190302533Y-126983529D02*
X190229961Y-126947243D01*
X190229961Y-126947243D02*
X190048533Y-126947243D01*
X190048533Y-126947243D02*
X189975961Y-126983529D01*
X189975961Y-126983529D02*
X189939676Y-127019815D01*
X189939676Y-127019815D02*
X189903390Y-127092386D01*
X189903390Y-127092386D02*
X189903390Y-127310100D01*
X189903390Y-127310100D02*
X189939676Y-127382672D01*
X189939676Y-127382672D02*
X189975961Y-127418957D01*
X161709390Y-109675243D02*
X162471390Y-109675243D01*
X162471390Y-109167243D02*
X162471390Y-109022100D01*
X162471390Y-109022100D02*
X162435104Y-108949529D01*
X162435104Y-108949529D02*
X162362533Y-108876957D01*
X162362533Y-108876957D02*
X162217390Y-108840672D01*
X162217390Y-108840672D02*
X161963390Y-108840672D01*
X161963390Y-108840672D02*
X161818247Y-108876957D01*
X161818247Y-108876957D02*
X161745676Y-108949529D01*
X161745676Y-108949529D02*
X161709390Y-109022100D01*
X161709390Y-109022100D02*
X161709390Y-109167243D01*
X161709390Y-109167243D02*
X161745676Y-109239815D01*
X161745676Y-109239815D02*
X161818247Y-109312386D01*
X161818247Y-109312386D02*
X161963390Y-109348672D01*
X161963390Y-109348672D02*
X162217390Y-109348672D01*
X162217390Y-109348672D02*
X162362533Y-109312386D01*
X162362533Y-109312386D02*
X162435104Y-109239815D01*
X162435104Y-109239815D02*
X162471390Y-109167243D01*
X162471390Y-108586671D02*
X162471390Y-108114957D01*
X162471390Y-108114957D02*
X162181104Y-108368957D01*
X162181104Y-108368957D02*
X162181104Y-108260100D01*
X162181104Y-108260100D02*
X162144818Y-108187529D01*
X162144818Y-108187529D02*
X162108533Y-108151243D01*
X162108533Y-108151243D02*
X162035961Y-108114957D01*
X162035961Y-108114957D02*
X161854533Y-108114957D01*
X161854533Y-108114957D02*
X161781961Y-108151243D01*
X161781961Y-108151243D02*
X161745676Y-108187529D01*
X161745676Y-108187529D02*
X161709390Y-108260100D01*
X161709390Y-108260100D02*
X161709390Y-108477814D01*
X161709390Y-108477814D02*
X161745676Y-108550386D01*
X161745676Y-108550386D02*
X161781961Y-108586671D01*
X162217390Y-107461815D02*
X161709390Y-107461815D01*
X162507676Y-107643243D02*
X161963390Y-107824672D01*
X161963390Y-107824672D02*
X161963390Y-107352957D01*
D15*
%TO.C,U1*%
X100315000Y-83659700D02*
G75*
G02*
X99553000Y-83659700I-381000J0D01*
G01*
X99553000Y-83659700D02*
G75*
G02*
X100315000Y-83659700I381000J0D01*
G01*
%TD*%
M02*
