M48
; DRILL file {KiCad 9.0.6} date 2026-06-16T15:16:35-0500
; FORMAT={-:-/ absolute / inch / decimal}
; #@! TF.CreationDate,2026-06-16T15:16:35-05:00
; #@! TF.GenerationSoftware,Kicad,Pcbnew,9.0.6
; #@! TF.FileFunction,Plated,1,4,PTH
FMAT,2
INCH
; #@! TA.AperFunction,Plated,PTH,ViaDrill
T1C0.0100
; #@! TA.AperFunction,Plated,PTH,ComponentDrill
T2C0.0320
; #@! TA.AperFunction,Plated,PTH,ComponentDrill
T3C0.0354
; #@! TA.AperFunction,Plated,PTH,ComponentDrill
T4C0.0390
; #@! TA.AperFunction,Plated,PTH,ComponentDrill
T5C0.0394
; #@! TA.AperFunction,Plated,PTH,ComponentDrill
T6C0.0400
; #@! TA.AperFunction,Plated,PTH,ComponentDrill
T7C0.0520
; #@! TA.AperFunction,Plated,PTH,ComponentDrill
T8C0.0591
; #@! TA.AperFunction,Plated,PTH,ComponentDrill
T9C0.1024
%
G90
G05
T1
X4.3Y-4.51
X4.92Y-4.2
X4.92Y-4.34
X5.1Y-4.2
X5.1Y-4.34
X5.2Y-4.405
X5.28Y-4.2
X5.28Y-4.34
X5.67Y-4.1081
X5.674Y-4.028
X5.7Y-4.028
X5.7Y-4.072
X5.7Y-4.098
X5.726Y-4.028
X5.805Y-4.145
X6.0475Y-4.3425
X6.05Y-4.028
X6.1594Y-3.098
X6.16Y-3.16
X6.26Y-4.605
X6.26Y-4.93
X6.26Y-5.09
X6.34Y-4.43
X6.355Y-4.615
X6.485Y-4.625
X6.551Y-4.072
X6.577Y-4.072
X6.603Y-4.072
X6.6126Y-4.5224
X6.615Y-4.66
X6.629Y-4.072
X6.6378Y-4.01
X6.655Y-4.072
X6.6608Y-3.9558
X6.79Y-4.365
X7.09Y-4.765
X7.19Y-4.678
X7.221Y-4.74
X7.23Y-2.72
X7.2544Y-4.722
T2
X3.7587Y-4.51
X4.1013Y-4.51
T3
X7.45Y-2.72
X7.55Y-2.72
T4
X5.62Y-4.2493
X5.62Y-4.3493
X5.62Y-4.4493
X5.62Y-4.5493
X5.92Y-4.2493
X5.92Y-4.3493
X5.92Y-4.4493
X5.92Y-4.5493
T5
X3.8Y-4.66
X3.83Y-3.7516
X3.83Y-3.9484
X4.2116Y-5.07
X4.4084Y-5.07
X4.6216Y-5.07
X4.8184Y-5.07
X5.0316Y-5.07
X5.2284Y-5.07
X5.4416Y-5.07
X5.625Y-2.555
X5.6384Y-5.07
X5.725Y-2.555
X5.825Y-2.555
X5.8516Y-5.07
X6.0115Y-2.9998
X6.0116Y-3.9002
X6.0484Y-5.07
X6.1115Y-2.9998
X6.1116Y-3.9002
X6.18Y-4.165
X6.2115Y-2.9998
X6.2116Y-3.9002
X6.28Y-4.165
X6.3115Y-2.9998
X6.3116Y-3.9002
X6.38Y-4.165
X6.4115Y-2.9998
X6.4116Y-3.9002
X6.48Y-4.165
X6.5115Y-2.9998
X6.5116Y-3.9002
X6.6115Y-2.9998
X6.6116Y-3.9002
X6.7115Y-2.9998
X6.7116Y-3.9002
X6.8115Y-2.9998
X6.8116Y-3.9002
X6.9115Y-2.9998
X6.9116Y-3.9002
X6.99Y-5.14
X7.0115Y-2.9998
X7.0116Y-3.9002
X7.09Y-5.14
X7.1115Y-2.9998
X7.1116Y-3.9002
X7.19Y-5.14
X7.2115Y-2.9998
X7.2116Y-3.9002
X7.29Y-5.14
X7.3115Y-2.9998
X7.3116Y-3.9002
X7.39Y-5.14
X7.4115Y-2.9998
X7.4116Y-3.9002
X7.49Y-5.14
X7.5115Y-2.9998
X7.5116Y-3.9002
X7.6115Y-2.9998
X7.6116Y-3.9002
X7.7115Y-2.9998
X7.7116Y-3.9002
X7.8116Y-3.9002
X7.8117Y-2.9995
X7.84Y-4.51
X7.84Y-4.61
X7.84Y-4.71
X7.84Y-4.81
T6
X4.01Y-3.2937
X4.11Y-3.2937
X4.21Y-3.2937
T7
X4.8665Y-3.385
X5.6535Y-3.385
T8
X4.575Y-3.5282
X4.575Y-4.1682
T9
X4.305Y-3.7682
X4.305Y-3.9282
M30
