%TF.GenerationSoftware,KiCad,Pcbnew,9.0.6*%
%TF.CreationDate,2026-06-16T15:16:33-05:00*%
%TF.ProjectId,Open_Field_Logger_Lab,4f70656e-5f46-4696-956c-645f4c6f6767,1.0*%
%TF.SameCoordinates,Original*%
%TF.FileFunction,Copper,L3,Inr*%
%TF.FilePolarity,Positive*%
%FSLAX46Y46*%
G04 Gerber Fmt 4.6, Leading zero omitted, Abs format (unit mm)*
G04 Created by KiCad (PCBNEW 9.0.6) date 2026-06-16 15:16:33*
%MOMM*%
%LPD*%
G01*
G04 APERTURE LIST*
%TA.AperFunction,WasherPad*%
%ADD10C,3.810000*%
%TD*%
%TA.AperFunction,ComponentPad*%
%ADD11R,2.250000X2.250000*%
%TD*%
%TA.AperFunction,ComponentPad*%
%ADD12C,2.250000*%
%TD*%
%TA.AperFunction,ComponentPad*%
%ADD13R,1.700000X1.700000*%
%TD*%
%TA.AperFunction,ComponentPad*%
%ADD14O,1.700000X1.700000*%
%TD*%
%TA.AperFunction,ComponentPad*%
%ADD15C,2.540000*%
%TD*%
%TA.AperFunction,ComponentPad*%
%ADD16R,1.498600X1.498600*%
%TD*%
%TA.AperFunction,ComponentPad*%
%ADD17C,1.498600*%
%TD*%
%TA.AperFunction,ComponentPad*%
%ADD18R,1.320800X1.320800*%
%TD*%
%TA.AperFunction,ComponentPad*%
%ADD19C,1.320800*%
%TD*%
%TA.AperFunction,WasherPad*%
%ADD20C,3.302000*%
%TD*%
%TA.AperFunction,ComponentPad*%
%ADD21C,3.302000*%
%TD*%
%TA.AperFunction,ComponentPad*%
%ADD22C,1.700000*%
%TD*%
%TA.AperFunction,ComponentPad*%
%ADD23R,1.800000X1.800000*%
%TD*%
%TA.AperFunction,ComponentPad*%
%ADD24C,1.800000*%
%TD*%
%TA.AperFunction,ComponentPad*%
%ADD25C,1.524000*%
%TD*%
%TA.AperFunction,ViaPad*%
%ADD26C,0.508000*%
%TD*%
G04 APERTURE END LIST*
D10*
%TO.N,*%
%TO.C,H4*%
X96520000Y-129540000D03*
%TD*%
%TO.N,*%
%TO.C,H1*%
X198120000Y-129540000D03*
%TD*%
D11*
%TO.N,Net-(U1-Vin)*%
%TO.C,D3*%
X116205000Y-89616000D03*
D12*
%TO.N,Net-(J3-Pin_1)*%
X116205000Y-105872000D03*
%TD*%
D10*
%TO.N,*%
%TO.C,H2*%
X96520000Y-66040000D03*
%TD*%
D13*
%TO.N,GND*%
%TO.C,J13*%
X127802000Y-128778000D03*
D14*
%TO.N,Net-(J13-Pin_2)*%
X132802000Y-128778000D03*
%TD*%
D10*
%TO.N,*%
%TO.C,H3*%
X198120000Y-66040000D03*
%TD*%
D15*
%TO.N,Net-(BT1-+)*%
%TO.C,BT1*%
X143598900Y-85979000D03*
%TO.N,GND*%
X123609100Y-85979000D03*
%TD*%
D13*
%TO.N,GND*%
%TO.C,J12*%
X117388000Y-128778000D03*
D14*
%TO.N,Net-(J12-Pin_2)*%
X122388000Y-128778000D03*
%TD*%
D16*
%TO.N,Net-(U3-X1)*%
%TO.C,U3*%
X142748000Y-107933400D03*
D17*
%TO.N,Net-(U3-X2)*%
X142748000Y-110473400D03*
%TO.N,Net-(BT1-+)*%
X142748000Y-113013400D03*
%TO.N,GND*%
X142748000Y-115553400D03*
%TO.N,I2C_SDA*%
X150368000Y-115553400D03*
%TO.N,I2C_SCL*%
X150368000Y-113013400D03*
%TO.N,RTC_MFP*%
X150368000Y-110473400D03*
%TO.N,+3V3*%
X150368000Y-107933400D03*
%TD*%
D18*
%TO.N,GND*%
%TO.C,TH1*%
X95471999Y-114554000D03*
D19*
%TO.N,Net-(J9-Pin_1)*%
X104172001Y-114554000D03*
%TD*%
D13*
%TO.N,GND*%
%TO.C,J6*%
X177546000Y-130556000D03*
D14*
%TO.N,EXT_CS*%
X180086000Y-130556000D03*
%TO.N,SPI_SCK*%
X182626000Y-130556000D03*
%TO.N,SPI_MISO*%
X185166000Y-130556000D03*
%TO.N,SPI_MOSI*%
X187706000Y-130556000D03*
%TO.N,+3V3*%
X190246000Y-130556000D03*
%TD*%
D13*
%TO.N,Net-(J4-Pin_1)*%
%TO.C,J4*%
X156972000Y-105791000D03*
D14*
%TO.N,Net-(J4-Pin_2)*%
X159512000Y-105791000D03*
%TO.N,Net-(J4-Pin_3)*%
X162052000Y-105791000D03*
%TO.N,Net-(J4-Pin_4)*%
X164592000Y-105791000D03*
%TD*%
D20*
%TO.N,*%
%TO.C,J3*%
X109347000Y-90632000D03*
D21*
%TO.N,Net-(J3-Pin_1)*%
X109347000Y-95712000D03*
%TD*%
D20*
%TO.N,*%
%TO.C,J2*%
X109347000Y-104856000D03*
D21*
%TO.N,Net-(J1-Pin_2)*%
X109347000Y-99776000D03*
%TD*%
D13*
%TO.N,+3V3*%
%TO.C,U2*%
X152694500Y-99064000D03*
D22*
%TO.N,unconnected-(U2-EN-Pad2)*%
X155234500Y-99064000D03*
%TO.N,Net-(J4-Pin_1)*%
X157774500Y-99064000D03*
%TO.N,Net-(J4-Pin_2)*%
X160314500Y-99064000D03*
%TO.N,Net-(J4-Pin_3)*%
X162854500Y-99064000D03*
%TO.N,Net-(J4-Pin_4)*%
X165394500Y-99064000D03*
%TO.N,SD_CD*%
X167934500Y-99064000D03*
%TO.N,RTC_MFP*%
X170474500Y-99064000D03*
%TO.N,EXT_CS*%
X173014500Y-99064000D03*
%TO.N,ADC_ALRT*%
X175554500Y-99064000D03*
%TO.N,Error_LED*%
X178094500Y-99064000D03*
%TO.N,Log_LED*%
X180634500Y-99064000D03*
%TO.N,unconnected-(U2-IO12-Pad13)*%
X183174500Y-99064000D03*
%TO.N,GND*%
X185714500Y-99064000D03*
%TO.N,unconnected-(U2-IO13-Pad15)*%
X188254500Y-99064000D03*
%TO.N,unconnected-(U2-IO9-Pad16)*%
X190794500Y-99064000D03*
%TO.N,unconnected-(U2-IO10-Pad17)*%
X193334500Y-99064000D03*
%TO.N,unconnected-(U2-IO11-Pad18)*%
X195874500Y-99064000D03*
%TO.N,+5V*%
X198414500Y-99064000D03*
%TO.N,unconnected-(U2-IO6{slash}SCK-Pad20)*%
X198417500Y-76188000D03*
%TO.N,unconnected-(U2-IO7-Pad21)*%
X195872500Y-76196000D03*
%TO.N,unconnected-(U2-IO8-Pad22)*%
X193332500Y-76196000D03*
%TO.N,unconnected-(U2-IO15-Pad23)*%
X190792500Y-76196000D03*
%TO.N,unconnected-(U2-IO2-Pad24)*%
X188252500Y-76196000D03*
%TO.N,unconnected-(U2-IO0-Pad25)*%
X185712500Y-76196000D03*
%TO.N,unconnected-(U2-IO4-Pad26)*%
X183172500Y-76196000D03*
%TO.N,Log_Button*%
X180632500Y-76196000D03*
%TO.N,unconnected-(U2-IO17-Pad28)*%
X178092500Y-76196000D03*
%TO.N,SD_CS*%
X175552500Y-76196000D03*
%TO.N,SPI_SCK*%
X173012500Y-76196000D03*
%TO.N,SPI_MISO*%
X170472500Y-76196000D03*
%TO.N,GND*%
X167932500Y-76196000D03*
%TO.N,I2C_SDA*%
X165392500Y-76196000D03*
%TO.N,RX*%
X162852500Y-76196000D03*
%TO.N,TX*%
X160312500Y-76196000D03*
%TO.N,I2C_SCL*%
X157772500Y-76196000D03*
%TO.N,SPI_MOSI*%
X155232500Y-76196000D03*
%TO.N,GND*%
X152692500Y-76196000D03*
%TD*%
D13*
%TO.N,GND*%
%TO.C,J5*%
X147955000Y-64897000D03*
D14*
%TO.N,RX*%
X145415000Y-64897000D03*
%TO.N,TX*%
X142875000Y-64897000D03*
%TD*%
D23*
%TO.N,GND*%
%TO.C,D1*%
X191770000Y-69088000D03*
D24*
%TO.N,Net-(D1-A)*%
X189230000Y-69088000D03*
%TD*%
D13*
%TO.N,GND*%
%TO.C,J1*%
X97282000Y-95290000D03*
D14*
%TO.N,Net-(J1-Pin_2)*%
X97282000Y-100290000D03*
%TD*%
D13*
%TO.N,GND*%
%TO.C,J11*%
X106974000Y-128778000D03*
D14*
%TO.N,Net-(J11-Pin_2)*%
X111974000Y-128778000D03*
%TD*%
D25*
%TO.N,Net-(U1-Vin)*%
%TO.C,U1*%
X106934000Y-83659700D03*
%TO.N,GND*%
X104394000Y-83659700D03*
%TO.N,+5V*%
X101854000Y-83659700D03*
%TD*%
D13*
%TO.N,GND*%
%TO.C,J10*%
X148630000Y-128778000D03*
D14*
%TO.N,+5V*%
X153630000Y-128778000D03*
%TD*%
D13*
%TO.N,GND*%
%TO.C,J14*%
X138216000Y-128778000D03*
D14*
%TO.N,Net-(J14-Pin_2)*%
X143216000Y-128778000D03*
%TD*%
%TO.N,Net-(J9-Pin_1)*%
%TO.C,J9*%
X96520000Y-118364000D03*
%TD*%
D13*
%TO.N,GND*%
%TO.C,J7*%
X199136000Y-122174000D03*
D14*
%TO.N,I2C_SCL*%
X199136000Y-119634000D03*
%TO.N,I2C_SDA*%
X199136000Y-117094000D03*
%TO.N,+3V3*%
X199136000Y-114554000D03*
%TD*%
D26*
%TO.N,Net-(BT1-+)*%
X144119597Y-102311200D03*
X144018000Y-104345200D03*
%TO.N,GND*%
X161417000Y-117221000D03*
X164719000Y-117475000D03*
X147447000Y-105283000D03*
%TO.N,+5V*%
X134112000Y-110236000D03*
X183642000Y-69088000D03*
X132080000Y-111887000D03*
X129540000Y-110236000D03*
X124968000Y-110236000D03*
X109220000Y-114554000D03*
%TO.N,+3V3*%
X134112000Y-106680000D03*
X161036000Y-112522000D03*
X172466000Y-110871000D03*
X129540000Y-106680000D03*
X159004000Y-129286000D03*
X124968000Y-106680000D03*
%TO.N,I2C_SDA*%
X145440403Y-102311200D03*
X144780000Y-104089203D03*
X183414400Y-120397000D03*
%TO.N,I2C_SCL*%
X144780000Y-102311200D03*
X184262868Y-119938800D03*
X144780000Y-103428800D03*
%TO.N,SD_CD*%
X159004000Y-125222000D03*
X159004000Y-116967000D03*
X166395388Y-103428800D03*
%TO.N,SD_CS*%
X169037000Y-103428800D03*
%TO.N,SPI_MOSI*%
X168021000Y-118363000D03*
X168599518Y-101853000D03*
X168376597Y-103428800D03*
X156449868Y-78689200D03*
X156464000Y-80265000D03*
X167961000Y-114868000D03*
%TO.N,SPI_MISO*%
X167055791Y-103428800D03*
%TO.N,SPI_SCK*%
X169184628Y-100477628D03*
X167716194Y-103428800D03*
X182626000Y-118821200D03*
%TO.N,EXT_CS*%
X180086000Y-121031000D03*
%TO.N,RTC_MFP*%
X153670000Y-102311200D03*
X153606500Y-110299500D03*
%TD*%
%TA.AperFunction,Conductor*%
%TO.N,+5V*%
G36*
X198123472Y-63246695D02*
G01*
X198425829Y-63263675D01*
X198439630Y-63265230D01*
X198734744Y-63315372D01*
X198748301Y-63318466D01*
X199035946Y-63401335D01*
X199049070Y-63405928D01*
X199325618Y-63520477D01*
X199338140Y-63526506D01*
X199588274Y-63664751D01*
X199600142Y-63671310D01*
X199611903Y-63678700D01*
X199856050Y-63851932D01*
X199866899Y-63860583D01*
X200090110Y-64060056D01*
X200099941Y-64069887D01*
X200274783Y-64265536D01*
X200299411Y-64293094D01*
X200308069Y-64303951D01*
X200481296Y-64548091D01*
X200488689Y-64559857D01*
X200633489Y-64821852D01*
X200639522Y-64834381D01*
X200754071Y-65110929D01*
X200758664Y-65124053D01*
X200841533Y-65411698D01*
X200844627Y-65425255D01*
X200894768Y-65720361D01*
X200896325Y-65734179D01*
X200913305Y-66036527D01*
X200913500Y-66043480D01*
X200913500Y-129536519D01*
X200913305Y-129543472D01*
X200896325Y-129845820D01*
X200894768Y-129859638D01*
X200844627Y-130154744D01*
X200841533Y-130168301D01*
X200758664Y-130455946D01*
X200754071Y-130469070D01*
X200639522Y-130745618D01*
X200633489Y-130758147D01*
X200488689Y-131020142D01*
X200481291Y-131031915D01*
X200308075Y-131276039D01*
X200299411Y-131286905D01*
X200099943Y-131510110D01*
X200090110Y-131519943D01*
X199866905Y-131719411D01*
X199856039Y-131728075D01*
X199684490Y-131849797D01*
X199611916Y-131901291D01*
X199600142Y-131908689D01*
X199338147Y-132053489D01*
X199325618Y-132059522D01*
X199049070Y-132174071D01*
X199035946Y-132178664D01*
X198748301Y-132261533D01*
X198734744Y-132264627D01*
X198439638Y-132314768D01*
X198425820Y-132316325D01*
X198123472Y-132333305D01*
X198116519Y-132333500D01*
X96523481Y-132333500D01*
X96516528Y-132333305D01*
X96214179Y-132316325D01*
X96200361Y-132314768D01*
X95905255Y-132264627D01*
X95891698Y-132261533D01*
X95604053Y-132178664D01*
X95590929Y-132174071D01*
X95314381Y-132059522D01*
X95301852Y-132053489D01*
X95039857Y-131908689D01*
X95028091Y-131901296D01*
X94783951Y-131728069D01*
X94773094Y-131719411D01*
X94763739Y-131711051D01*
X94549887Y-131519941D01*
X94540056Y-131510110D01*
X94535421Y-131504923D01*
X94340583Y-131286899D01*
X94331932Y-131276050D01*
X94158700Y-131031903D01*
X94151310Y-131020142D01*
X94006510Y-130758147D01*
X94000477Y-130745618D01*
X93885928Y-130469070D01*
X93881335Y-130455946D01*
X93798466Y-130168301D01*
X93795372Y-130154744D01*
X93785180Y-130094757D01*
X93745230Y-129859630D01*
X93743675Y-129845829D01*
X93726695Y-129543472D01*
X93726500Y-129536519D01*
X93726500Y-129404905D01*
X94114500Y-129404905D01*
X94114500Y-129675094D01*
X94144749Y-129943558D01*
X94144751Y-129943570D01*
X94204872Y-130206979D01*
X94294106Y-130461996D01*
X94411331Y-130705416D01*
X94436592Y-130745618D01*
X94555077Y-130934187D01*
X94723532Y-131145422D01*
X94914578Y-131336468D01*
X95125813Y-131504923D01*
X95354581Y-131648667D01*
X95598005Y-131765894D01*
X95853020Y-131855127D01*
X95853022Y-131855127D01*
X95853023Y-131855128D01*
X96116429Y-131915249D01*
X96384905Y-131945499D01*
X96384906Y-131945500D01*
X96384910Y-131945500D01*
X96655094Y-131945500D01*
X96655094Y-131945499D01*
X96923571Y-131915249D01*
X97186977Y-131855128D01*
X97441995Y-131765894D01*
X97685419Y-131648667D01*
X97914187Y-131504923D01*
X98125422Y-131336468D01*
X98316468Y-131145422D01*
X98484923Y-130934187D01*
X98628667Y-130705419D01*
X98745894Y-130461995D01*
X98835128Y-130206977D01*
X98895249Y-129943571D01*
X98925500Y-129675090D01*
X98925500Y-129404910D01*
X98895249Y-129136429D01*
X98835128Y-128873023D01*
X98745894Y-128618005D01*
X98628667Y-128374581D01*
X98484923Y-128145813D01*
X98391463Y-128028618D01*
X98332052Y-127954119D01*
X98332051Y-127954118D01*
X98316469Y-127934579D01*
X98262025Y-127880135D01*
X105623500Y-127880135D01*
X105623500Y-129675870D01*
X105623501Y-129675876D01*
X105629908Y-129735483D01*
X105680202Y-129870328D01*
X105680206Y-129870335D01*
X105766452Y-129985544D01*
X105766455Y-129985547D01*
X105881664Y-130071793D01*
X105881671Y-130071797D01*
X106016517Y-130122091D01*
X106016516Y-130122091D01*
X106023444Y-130122835D01*
X106076127Y-130128500D01*
X107871872Y-130128499D01*
X107931483Y-130122091D01*
X108066331Y-130071796D01*
X108181546Y-129985546D01*
X108267796Y-129870331D01*
X108318091Y-129735483D01*
X108324500Y-129675873D01*
X108324499Y-128671713D01*
X110623500Y-128671713D01*
X110623500Y-128884287D01*
X110656754Y-129094243D01*
X110711327Y-129262202D01*
X110722444Y-129296414D01*
X110818951Y-129485820D01*
X110943890Y-129657786D01*
X111094213Y-129808109D01*
X111266179Y-129933048D01*
X111266181Y-129933049D01*
X111266184Y-129933051D01*
X111455588Y-130029557D01*
X111657757Y-130095246D01*
X111867713Y-130128500D01*
X111867714Y-130128500D01*
X112080286Y-130128500D01*
X112080287Y-130128500D01*
X112290243Y-130095246D01*
X112492412Y-130029557D01*
X112681816Y-129933051D01*
X112724557Y-129901998D01*
X112853786Y-129808109D01*
X112853788Y-129808106D01*
X112853792Y-129808104D01*
X113004104Y-129657792D01*
X113004106Y-129657788D01*
X113004109Y-129657786D01*
X113129048Y-129485820D01*
X113129047Y-129485820D01*
X113129051Y-129485816D01*
X113225557Y-129296412D01*
X113291246Y-129094243D01*
X113324500Y-128884287D01*
X113324500Y-128671713D01*
X113291246Y-128461757D01*
X113225557Y-128259588D01*
X113129051Y-128070184D01*
X113115077Y-128050950D01*
X113041511Y-127949694D01*
X113041508Y-127949691D01*
X113004341Y-127898535D01*
X113004104Y-127898208D01*
X112986031Y-127880135D01*
X116037500Y-127880135D01*
X116037500Y-129675870D01*
X116037501Y-129675876D01*
X116043908Y-129735483D01*
X116094202Y-129870328D01*
X116094206Y-129870335D01*
X116180452Y-129985544D01*
X116180455Y-129985547D01*
X116295664Y-130071793D01*
X116295671Y-130071797D01*
X116430517Y-130122091D01*
X116430516Y-130122091D01*
X116437444Y-130122835D01*
X116490127Y-130128500D01*
X118285872Y-130128499D01*
X118345483Y-130122091D01*
X118480331Y-130071796D01*
X118595546Y-129985546D01*
X118681796Y-129870331D01*
X118732091Y-129735483D01*
X118738500Y-129675873D01*
X118738499Y-128671713D01*
X121037500Y-128671713D01*
X121037500Y-128884287D01*
X121070754Y-129094243D01*
X121125327Y-129262202D01*
X121136444Y-129296414D01*
X121232951Y-129485820D01*
X121357890Y-129657786D01*
X121508213Y-129808109D01*
X121680179Y-129933048D01*
X121680181Y-129933049D01*
X121680184Y-129933051D01*
X121869588Y-130029557D01*
X122071757Y-130095246D01*
X122281713Y-130128500D01*
X122281714Y-130128500D01*
X122494286Y-130128500D01*
X122494287Y-130128500D01*
X122704243Y-130095246D01*
X122906412Y-130029557D01*
X123095816Y-129933051D01*
X123138557Y-129901998D01*
X123267786Y-129808109D01*
X123267788Y-129808106D01*
X123267792Y-129808104D01*
X123418104Y-129657792D01*
X123418106Y-129657788D01*
X123418109Y-129657786D01*
X123543048Y-129485820D01*
X123543047Y-129485820D01*
X123543051Y-129485816D01*
X123639557Y-129296412D01*
X123705246Y-129094243D01*
X123738500Y-128884287D01*
X123738500Y-128671713D01*
X123705246Y-128461757D01*
X123639557Y-128259588D01*
X123543051Y-128070184D01*
X123529077Y-128050950D01*
X123455511Y-127949694D01*
X123455508Y-127949691D01*
X123418341Y-127898535D01*
X123418104Y-127898208D01*
X123400031Y-127880135D01*
X126451500Y-127880135D01*
X126451500Y-129675870D01*
X126451501Y-129675876D01*
X126457908Y-129735483D01*
X126508202Y-129870328D01*
X126508206Y-129870335D01*
X126594452Y-129985544D01*
X126594455Y-129985547D01*
X126709664Y-130071793D01*
X126709671Y-130071797D01*
X126844517Y-130122091D01*
X126844516Y-130122091D01*
X126851444Y-130122835D01*
X126904127Y-130128500D01*
X128699872Y-130128499D01*
X128759483Y-130122091D01*
X128894331Y-130071796D01*
X129009546Y-129985546D01*
X129095796Y-129870331D01*
X129146091Y-129735483D01*
X129152500Y-129675873D01*
X129152499Y-128671713D01*
X131451500Y-128671713D01*
X131451500Y-128884287D01*
X131484754Y-129094243D01*
X131539327Y-129262202D01*
X131550444Y-129296414D01*
X131646951Y-129485820D01*
X131771890Y-129657786D01*
X131922213Y-129808109D01*
X132094179Y-129933048D01*
X132094181Y-129933049D01*
X132094184Y-129933051D01*
X132283588Y-130029557D01*
X132485757Y-130095246D01*
X132695713Y-130128500D01*
X132695714Y-130128500D01*
X132908286Y-130128500D01*
X132908287Y-130128500D01*
X133118243Y-130095246D01*
X133320412Y-130029557D01*
X133509816Y-129933051D01*
X133552557Y-129901998D01*
X133681786Y-129808109D01*
X133681788Y-129808106D01*
X133681792Y-129808104D01*
X133832104Y-129657792D01*
X133832106Y-129657788D01*
X133832109Y-129657786D01*
X133957048Y-129485820D01*
X133957047Y-129485820D01*
X133957051Y-129485816D01*
X134053557Y-129296412D01*
X134119246Y-129094243D01*
X134152500Y-128884287D01*
X134152500Y-128671713D01*
X134119246Y-128461757D01*
X134053557Y-128259588D01*
X133957051Y-128070184D01*
X133943077Y-128050950D01*
X133869511Y-127949694D01*
X133869508Y-127949691D01*
X133832341Y-127898535D01*
X133832104Y-127898208D01*
X133814031Y-127880135D01*
X136865500Y-127880135D01*
X136865500Y-129675870D01*
X136865501Y-129675876D01*
X136871908Y-129735483D01*
X136922202Y-129870328D01*
X136922206Y-129870335D01*
X137008452Y-129985544D01*
X137008455Y-129985547D01*
X137123664Y-130071793D01*
X137123671Y-130071797D01*
X137258517Y-130122091D01*
X137258516Y-130122091D01*
X137265444Y-130122835D01*
X137318127Y-130128500D01*
X139113872Y-130128499D01*
X139173483Y-130122091D01*
X139308331Y-130071796D01*
X139423546Y-129985546D01*
X139509796Y-129870331D01*
X139560091Y-129735483D01*
X139566500Y-129675873D01*
X139566499Y-128671713D01*
X141865500Y-128671713D01*
X141865500Y-128884287D01*
X141898754Y-129094243D01*
X141953327Y-129262202D01*
X141964444Y-129296414D01*
X142060951Y-129485820D01*
X142185890Y-129657786D01*
X142336213Y-129808109D01*
X142508179Y-129933048D01*
X142508181Y-129933049D01*
X142508184Y-129933051D01*
X142697588Y-130029557D01*
X142899757Y-130095246D01*
X143109713Y-130128500D01*
X143109714Y-130128500D01*
X143322286Y-130128500D01*
X143322287Y-130128500D01*
X143532243Y-130095246D01*
X143734412Y-130029557D01*
X143923816Y-129933051D01*
X143966557Y-129901998D01*
X144095786Y-129808109D01*
X144095788Y-129808106D01*
X144095792Y-129808104D01*
X144246104Y-129657792D01*
X144246106Y-129657788D01*
X144246109Y-129657786D01*
X144371048Y-129485820D01*
X144371047Y-129485820D01*
X144371051Y-129485816D01*
X144467557Y-129296412D01*
X144533246Y-129094243D01*
X144566500Y-128884287D01*
X144566500Y-128671713D01*
X144533246Y-128461757D01*
X144467557Y-128259588D01*
X144371051Y-128070184D01*
X144357077Y-128050950D01*
X144283511Y-127949694D01*
X144283508Y-127949691D01*
X144246341Y-127898535D01*
X144246104Y-127898208D01*
X144228031Y-127880135D01*
X147279500Y-127880135D01*
X147279500Y-129675870D01*
X147279501Y-129675876D01*
X147285908Y-129735483D01*
X147336202Y-129870328D01*
X147336206Y-129870335D01*
X147422452Y-129985544D01*
X147422455Y-129985547D01*
X147537664Y-130071793D01*
X147537671Y-130071797D01*
X147672517Y-130122091D01*
X147672516Y-130122091D01*
X147679444Y-130122835D01*
X147732127Y-130128500D01*
X149527872Y-130128499D01*
X149587483Y-130122091D01*
X149722331Y-130071796D01*
X149837546Y-129985546D01*
X149923796Y-129870331D01*
X149974091Y-129735483D01*
X149980500Y-129675873D01*
X149980499Y-128528000D01*
X152302769Y-128528000D01*
X153196988Y-128528000D01*
X153164075Y-128585007D01*
X153130000Y-128712174D01*
X153130000Y-128843826D01*
X153164075Y-128970993D01*
X153196988Y-129028000D01*
X152302769Y-129028000D01*
X152313242Y-129094126D01*
X152313242Y-129094129D01*
X152378904Y-129296217D01*
X152475379Y-129485557D01*
X152600272Y-129657459D01*
X152600276Y-129657464D01*
X152750535Y-129807723D01*
X152750540Y-129807727D01*
X152922442Y-129932620D01*
X153111782Y-130029095D01*
X153313871Y-130094757D01*
X153380000Y-130105231D01*
X153380000Y-129211012D01*
X153437007Y-129243925D01*
X153564174Y-129278000D01*
X153695826Y-129278000D01*
X153822993Y-129243925D01*
X153880000Y-129211012D01*
X153880000Y-130105230D01*
X153946126Y-130094757D01*
X153946129Y-130094757D01*
X154148217Y-130029095D01*
X154337557Y-129932620D01*
X154509459Y-129807727D01*
X154509464Y-129807723D01*
X154659723Y-129657464D01*
X154659727Y-129657459D01*
X154784620Y-129485557D01*
X154881095Y-129296217D01*
X154908562Y-129211683D01*
X158249500Y-129211683D01*
X158249500Y-129360316D01*
X158278493Y-129506072D01*
X158278495Y-129506080D01*
X158335371Y-129643391D01*
X158417939Y-129766964D01*
X158417945Y-129766971D01*
X158523028Y-129872054D01*
X158523035Y-129872060D01*
X158646608Y-129954628D01*
X158646609Y-129954628D01*
X158646610Y-129954629D01*
X158783920Y-130011505D01*
X158929683Y-130040499D01*
X158929687Y-130040500D01*
X158929688Y-130040500D01*
X159078313Y-130040500D01*
X159078314Y-130040499D01*
X159224080Y-130011505D01*
X159361390Y-129954629D01*
X159484966Y-129872059D01*
X159590059Y-129766966D01*
X159662777Y-129658135D01*
X176195500Y-129658135D01*
X176195500Y-131453870D01*
X176195501Y-131453876D01*
X176201908Y-131513483D01*
X176252202Y-131648328D01*
X176252206Y-131648335D01*
X176338452Y-131763544D01*
X176338455Y-131763547D01*
X176453664Y-131849793D01*
X176453671Y-131849797D01*
X176588517Y-131900091D01*
X176588516Y-131900091D01*
X176595444Y-131900835D01*
X176648127Y-131906500D01*
X178443872Y-131906499D01*
X178503483Y-131900091D01*
X178638331Y-131849796D01*
X178753546Y-131763546D01*
X178839796Y-131648331D01*
X178888810Y-131516916D01*
X178930681Y-131460984D01*
X178996145Y-131436566D01*
X179064418Y-131451417D01*
X179092673Y-131472569D01*
X179206213Y-131586109D01*
X179378179Y-131711048D01*
X179378181Y-131711049D01*
X179378184Y-131711051D01*
X179567588Y-131807557D01*
X179769757Y-131873246D01*
X179979713Y-131906500D01*
X179979714Y-131906500D01*
X180192286Y-131906500D01*
X180192287Y-131906500D01*
X180402243Y-131873246D01*
X180604412Y-131807557D01*
X180793816Y-131711051D01*
X180862486Y-131661160D01*
X180965786Y-131586109D01*
X180965788Y-131586106D01*
X180965792Y-131586104D01*
X181116104Y-131435792D01*
X181116106Y-131435788D01*
X181116109Y-131435786D01*
X181241048Y-131263820D01*
X181241047Y-131263820D01*
X181241051Y-131263816D01*
X181245514Y-131255054D01*
X181293488Y-131204259D01*
X181361308Y-131187463D01*
X181427444Y-131209999D01*
X181466486Y-131255056D01*
X181470951Y-131263820D01*
X181595890Y-131435786D01*
X181746213Y-131586109D01*
X181918179Y-131711048D01*
X181918181Y-131711049D01*
X181918184Y-131711051D01*
X182107588Y-131807557D01*
X182309757Y-131873246D01*
X182519713Y-131906500D01*
X182519714Y-131906500D01*
X182732286Y-131906500D01*
X182732287Y-131906500D01*
X182942243Y-131873246D01*
X183144412Y-131807557D01*
X183333816Y-131711051D01*
X183402486Y-131661160D01*
X183505786Y-131586109D01*
X183505788Y-131586106D01*
X183505792Y-131586104D01*
X183656104Y-131435792D01*
X183656106Y-131435788D01*
X183656109Y-131435786D01*
X183781048Y-131263820D01*
X183781047Y-131263820D01*
X183781051Y-131263816D01*
X183785514Y-131255054D01*
X183833488Y-131204259D01*
X183901308Y-131187463D01*
X183967444Y-131209999D01*
X184006486Y-131255056D01*
X184010951Y-131263820D01*
X184135890Y-131435786D01*
X184286213Y-131586109D01*
X184458179Y-131711048D01*
X184458181Y-131711049D01*
X184458184Y-131711051D01*
X184647588Y-131807557D01*
X184849757Y-131873246D01*
X185059713Y-131906500D01*
X185059714Y-131906500D01*
X185272286Y-131906500D01*
X185272287Y-131906500D01*
X185482243Y-131873246D01*
X185684412Y-131807557D01*
X185873816Y-131711051D01*
X185942486Y-131661160D01*
X186045786Y-131586109D01*
X186045788Y-131586106D01*
X186045792Y-131586104D01*
X186196104Y-131435792D01*
X186196106Y-131435788D01*
X186196109Y-131435786D01*
X186321048Y-131263820D01*
X186321047Y-131263820D01*
X186321051Y-131263816D01*
X186325514Y-131255054D01*
X186373488Y-131204259D01*
X186441308Y-131187463D01*
X186507444Y-131209999D01*
X186546486Y-131255056D01*
X186550951Y-131263820D01*
X186675890Y-131435786D01*
X186826213Y-131586109D01*
X186998179Y-131711048D01*
X186998181Y-131711049D01*
X186998184Y-131711051D01*
X187187588Y-131807557D01*
X187389757Y-131873246D01*
X187599713Y-131906500D01*
X187599714Y-131906500D01*
X187812286Y-131906500D01*
X187812287Y-131906500D01*
X188022243Y-131873246D01*
X188224412Y-131807557D01*
X188413816Y-131711051D01*
X188482486Y-131661160D01*
X188585786Y-131586109D01*
X188585788Y-131586106D01*
X188585792Y-131586104D01*
X188736104Y-131435792D01*
X188736106Y-131435788D01*
X188736109Y-131435786D01*
X188861048Y-131263820D01*
X188861047Y-131263820D01*
X188861051Y-131263816D01*
X188865514Y-131255054D01*
X188913488Y-131204259D01*
X188981308Y-131187463D01*
X189047444Y-131209999D01*
X189086486Y-131255056D01*
X189090951Y-131263820D01*
X189215890Y-131435786D01*
X189366213Y-131586109D01*
X189538179Y-131711048D01*
X189538181Y-131711049D01*
X189538184Y-131711051D01*
X189727588Y-131807557D01*
X189929757Y-131873246D01*
X190139713Y-131906500D01*
X190139714Y-131906500D01*
X190352286Y-131906500D01*
X190352287Y-131906500D01*
X190562243Y-131873246D01*
X190764412Y-131807557D01*
X190953816Y-131711051D01*
X191022486Y-131661160D01*
X191125786Y-131586109D01*
X191125788Y-131586106D01*
X191125792Y-131586104D01*
X191276104Y-131435792D01*
X191276106Y-131435788D01*
X191276109Y-131435786D01*
X191401048Y-131263820D01*
X191401047Y-131263820D01*
X191401051Y-131263816D01*
X191497557Y-131074412D01*
X191563246Y-130872243D01*
X191596500Y-130662287D01*
X191596500Y-130449713D01*
X191563246Y-130239757D01*
X191497557Y-130037588D01*
X191401051Y-129848184D01*
X191401049Y-129848181D01*
X191401048Y-129848179D01*
X191276109Y-129676213D01*
X191125790Y-129525894D01*
X191125785Y-129525890D01*
X191092581Y-129501765D01*
X191092558Y-129501750D01*
X190959261Y-129404905D01*
X195714500Y-129404905D01*
X195714500Y-129675094D01*
X195744749Y-129943558D01*
X195744751Y-129943570D01*
X195804872Y-130206979D01*
X195894106Y-130461996D01*
X196011331Y-130705416D01*
X196036592Y-130745618D01*
X196155077Y-130934187D01*
X196323532Y-131145422D01*
X196514578Y-131336468D01*
X196725813Y-131504923D01*
X196954581Y-131648667D01*
X197198005Y-131765894D01*
X197453020Y-131855127D01*
X197453022Y-131855127D01*
X197453023Y-131855128D01*
X197716429Y-131915249D01*
X197984905Y-131945499D01*
X197984906Y-131945500D01*
X197984910Y-131945500D01*
X198255094Y-131945500D01*
X198255094Y-131945499D01*
X198523571Y-131915249D01*
X198786977Y-131855128D01*
X199041995Y-131765894D01*
X199285419Y-131648667D01*
X199514187Y-131504923D01*
X199725422Y-131336468D01*
X199916468Y-131145422D01*
X200084923Y-130934187D01*
X200228667Y-130705419D01*
X200345894Y-130461995D01*
X200435128Y-130206977D01*
X200495249Y-129943571D01*
X200525500Y-129675090D01*
X200525500Y-129404910D01*
X200495249Y-129136429D01*
X200435128Y-128873023D01*
X200345894Y-128618005D01*
X200228667Y-128374581D01*
X200084923Y-128145813D01*
X199916468Y-127934578D01*
X199725422Y-127743532D01*
X199514187Y-127575077D01*
X199356190Y-127475801D01*
X199285416Y-127431331D01*
X199041996Y-127314106D01*
X198786978Y-127224872D01*
X198786980Y-127224872D01*
X198589422Y-127179781D01*
X198523571Y-127164751D01*
X198523567Y-127164750D01*
X198523558Y-127164749D01*
X198255094Y-127134500D01*
X198255090Y-127134500D01*
X197984910Y-127134500D01*
X197984906Y-127134500D01*
X197716441Y-127164749D01*
X197716429Y-127164751D01*
X197453020Y-127224872D01*
X197198003Y-127314106D01*
X196954583Y-127431331D01*
X196725814Y-127575076D01*
X196514578Y-127743531D01*
X196323531Y-127934578D01*
X196155076Y-128145814D01*
X196011331Y-128374583D01*
X195894106Y-128618003D01*
X195804872Y-128873020D01*
X195744751Y-129136429D01*
X195744749Y-129136441D01*
X195714500Y-129404905D01*
X190959261Y-129404905D01*
X190953815Y-129400948D01*
X190764414Y-129304444D01*
X190764413Y-129304443D01*
X190764412Y-129304443D01*
X190562243Y-129238754D01*
X190562241Y-129238753D01*
X190562240Y-129238753D01*
X190400957Y-129213208D01*
X190352287Y-129205500D01*
X190139713Y-129205500D01*
X190091042Y-129213208D01*
X189929760Y-129238753D01*
X189727585Y-129304444D01*
X189538179Y-129400951D01*
X189366213Y-129525890D01*
X189215890Y-129676213D01*
X189090949Y-129848182D01*
X189086484Y-129856946D01*
X189038509Y-129907742D01*
X188970688Y-129924536D01*
X188904553Y-129901998D01*
X188865516Y-129856946D01*
X188861050Y-129848182D01*
X188736109Y-129676213D01*
X188585786Y-129525890D01*
X188413820Y-129400951D01*
X188224414Y-129304444D01*
X188224413Y-129304443D01*
X188224412Y-129304443D01*
X188022243Y-129238754D01*
X188022241Y-129238753D01*
X188022240Y-129238753D01*
X187860957Y-129213208D01*
X187812287Y-129205500D01*
X187599713Y-129205500D01*
X187551042Y-129213208D01*
X187389760Y-129238753D01*
X187187585Y-129304444D01*
X186998179Y-129400951D01*
X186826213Y-129525890D01*
X186675890Y-129676213D01*
X186550949Y-129848182D01*
X186546484Y-129856946D01*
X186498509Y-129907742D01*
X186430688Y-129924536D01*
X186364553Y-129901998D01*
X186325516Y-129856946D01*
X186321050Y-129848182D01*
X186196109Y-129676213D01*
X186045786Y-129525890D01*
X185873820Y-129400951D01*
X185684414Y-129304444D01*
X185684413Y-129304443D01*
X185684412Y-129304443D01*
X185482243Y-129238754D01*
X185482241Y-129238753D01*
X185482240Y-129238753D01*
X185320957Y-129213208D01*
X185272287Y-129205500D01*
X185059713Y-129205500D01*
X185011042Y-129213208D01*
X184849760Y-129238753D01*
X184647585Y-129304444D01*
X184458179Y-129400951D01*
X184286213Y-129525890D01*
X184135890Y-129676213D01*
X184010949Y-129848182D01*
X184006484Y-129856946D01*
X183958509Y-129907742D01*
X183890688Y-129924536D01*
X183824553Y-129901998D01*
X183785516Y-129856946D01*
X183781050Y-129848182D01*
X183656109Y-129676213D01*
X183505786Y-129525890D01*
X183333820Y-129400951D01*
X183144414Y-129304444D01*
X183144413Y-129304443D01*
X183144412Y-129304443D01*
X182942243Y-129238754D01*
X182942241Y-129238753D01*
X182942240Y-129238753D01*
X182780957Y-129213208D01*
X182732287Y-129205500D01*
X182519713Y-129205500D01*
X182471042Y-129213208D01*
X182309760Y-129238753D01*
X182107585Y-129304444D01*
X181918179Y-129400951D01*
X181746213Y-129525890D01*
X181595890Y-129676213D01*
X181470949Y-129848182D01*
X181466484Y-129856946D01*
X181418509Y-129907742D01*
X181350688Y-129924536D01*
X181284553Y-129901998D01*
X181245516Y-129856946D01*
X181241050Y-129848182D01*
X181116109Y-129676213D01*
X180965786Y-129525890D01*
X180793820Y-129400951D01*
X180604414Y-129304444D01*
X180604413Y-129304443D01*
X180604412Y-129304443D01*
X180402243Y-129238754D01*
X180402241Y-129238753D01*
X180402240Y-129238753D01*
X180240957Y-129213208D01*
X180192287Y-129205500D01*
X179979713Y-129205500D01*
X179931042Y-129213208D01*
X179769760Y-129238753D01*
X179567585Y-129304444D01*
X179378179Y-129400951D01*
X179206215Y-129525889D01*
X179092673Y-129639431D01*
X179031350Y-129672915D01*
X178961658Y-129667931D01*
X178905725Y-129626059D01*
X178888810Y-129595082D01*
X178839797Y-129463671D01*
X178839793Y-129463664D01*
X178753547Y-129348455D01*
X178753544Y-129348452D01*
X178638335Y-129262206D01*
X178638328Y-129262202D01*
X178503482Y-129211908D01*
X178503483Y-129211908D01*
X178443883Y-129205501D01*
X178443881Y-129205500D01*
X178443873Y-129205500D01*
X178443864Y-129205500D01*
X176648129Y-129205500D01*
X176648123Y-129205501D01*
X176588516Y-129211908D01*
X176453671Y-129262202D01*
X176453664Y-129262206D01*
X176338455Y-129348452D01*
X176338452Y-129348455D01*
X176252206Y-129463664D01*
X176252202Y-129463671D01*
X176201908Y-129598517D01*
X176195501Y-129658116D01*
X176195500Y-129658135D01*
X159662777Y-129658135D01*
X159672629Y-129643390D01*
X159729505Y-129506080D01*
X159758500Y-129360312D01*
X159758500Y-129211688D01*
X159729505Y-129065920D01*
X159672629Y-128928610D01*
X159635487Y-128873023D01*
X159590060Y-128805035D01*
X159590054Y-128805028D01*
X159484971Y-128699945D01*
X159484964Y-128699939D01*
X159361391Y-128617371D01*
X159224080Y-128560495D01*
X159224072Y-128560493D01*
X159078316Y-128531500D01*
X159078312Y-128531500D01*
X158929688Y-128531500D01*
X158929683Y-128531500D01*
X158783927Y-128560493D01*
X158783919Y-128560495D01*
X158646608Y-128617371D01*
X158523035Y-128699939D01*
X158523028Y-128699945D01*
X158417945Y-128805028D01*
X158417939Y-128805035D01*
X158335371Y-128928608D01*
X158278495Y-129065919D01*
X158278493Y-129065927D01*
X158249500Y-129211683D01*
X154908562Y-129211683D01*
X154922990Y-129167278D01*
X154946757Y-129094129D01*
X154946757Y-129094126D01*
X154957231Y-129028000D01*
X154063012Y-129028000D01*
X154095925Y-128970993D01*
X154130000Y-128843826D01*
X154130000Y-128712174D01*
X154095925Y-128585007D01*
X154063012Y-128528000D01*
X154957231Y-128528000D01*
X154946757Y-128461873D01*
X154946757Y-128461870D01*
X154881095Y-128259782D01*
X154784620Y-128070442D01*
X154659727Y-127898540D01*
X154659723Y-127898535D01*
X154509464Y-127748276D01*
X154509459Y-127748272D01*
X154337557Y-127623379D01*
X154148215Y-127526903D01*
X153946124Y-127461241D01*
X153880000Y-127450768D01*
X153880000Y-128344988D01*
X153822993Y-128312075D01*
X153695826Y-128278000D01*
X153564174Y-128278000D01*
X153437007Y-128312075D01*
X153380000Y-128344988D01*
X153380000Y-127450768D01*
X153379999Y-127450768D01*
X153313875Y-127461241D01*
X153111784Y-127526903D01*
X152922442Y-127623379D01*
X152750540Y-127748272D01*
X152750535Y-127748276D01*
X152600276Y-127898535D01*
X152600272Y-127898540D01*
X152475379Y-128070442D01*
X152378904Y-128259782D01*
X152313242Y-128461870D01*
X152313242Y-128461873D01*
X152302769Y-128528000D01*
X149980499Y-128528000D01*
X149980499Y-127880128D01*
X149974091Y-127820517D01*
X149947145Y-127748272D01*
X149923797Y-127685671D01*
X149923793Y-127685664D01*
X149837547Y-127570455D01*
X149837544Y-127570452D01*
X149722335Y-127484206D01*
X149722328Y-127484202D01*
X149587482Y-127433908D01*
X149587483Y-127433908D01*
X149527883Y-127427501D01*
X149527881Y-127427500D01*
X149527873Y-127427500D01*
X149527864Y-127427500D01*
X147732129Y-127427500D01*
X147732123Y-127427501D01*
X147672516Y-127433908D01*
X147537671Y-127484202D01*
X147537664Y-127484206D01*
X147422455Y-127570452D01*
X147422452Y-127570455D01*
X147336206Y-127685664D01*
X147336202Y-127685671D01*
X147285908Y-127820517D01*
X147279501Y-127880116D01*
X147279501Y-127880123D01*
X147279500Y-127880135D01*
X144228031Y-127880135D01*
X144095792Y-127747896D01*
X144095786Y-127747890D01*
X143923820Y-127622951D01*
X143734414Y-127526444D01*
X143734413Y-127526443D01*
X143734412Y-127526443D01*
X143532243Y-127460754D01*
X143532241Y-127460753D01*
X143532240Y-127460753D01*
X143370957Y-127435208D01*
X143322287Y-127427500D01*
X143109713Y-127427500D01*
X143061042Y-127435208D01*
X142899760Y-127460753D01*
X142697585Y-127526444D01*
X142508179Y-127622951D01*
X142336213Y-127747890D01*
X142185890Y-127898213D01*
X142060951Y-128070179D01*
X141964444Y-128259585D01*
X141898753Y-128461760D01*
X141865500Y-128671713D01*
X139566499Y-128671713D01*
X139566499Y-127880128D01*
X139560091Y-127820517D01*
X139533145Y-127748272D01*
X139509797Y-127685671D01*
X139509793Y-127685664D01*
X139423547Y-127570455D01*
X139423544Y-127570452D01*
X139308335Y-127484206D01*
X139308328Y-127484202D01*
X139173482Y-127433908D01*
X139173483Y-127433908D01*
X139113883Y-127427501D01*
X139113881Y-127427500D01*
X139113873Y-127427500D01*
X139113864Y-127427500D01*
X137318129Y-127427500D01*
X137318123Y-127427501D01*
X137258516Y-127433908D01*
X137123671Y-127484202D01*
X137123664Y-127484206D01*
X137008455Y-127570452D01*
X137008452Y-127570455D01*
X136922206Y-127685664D01*
X136922202Y-127685671D01*
X136871908Y-127820517D01*
X136865501Y-127880116D01*
X136865501Y-127880123D01*
X136865500Y-127880135D01*
X133814031Y-127880135D01*
X133681792Y-127747896D01*
X133681786Y-127747890D01*
X133509820Y-127622951D01*
X133320414Y-127526444D01*
X133320413Y-127526443D01*
X133320412Y-127526443D01*
X133118243Y-127460754D01*
X133118241Y-127460753D01*
X133118240Y-127460753D01*
X132956957Y-127435208D01*
X132908287Y-127427500D01*
X132695713Y-127427500D01*
X132647042Y-127435208D01*
X132485760Y-127460753D01*
X132283585Y-127526444D01*
X132094179Y-127622951D01*
X131922213Y-127747890D01*
X131771890Y-127898213D01*
X131646951Y-128070179D01*
X131550444Y-128259585D01*
X131484753Y-128461760D01*
X131451500Y-128671713D01*
X129152499Y-128671713D01*
X129152499Y-127880128D01*
X129146091Y-127820517D01*
X129119145Y-127748272D01*
X129095797Y-127685671D01*
X129095793Y-127685664D01*
X129009547Y-127570455D01*
X129009544Y-127570452D01*
X128894335Y-127484206D01*
X128894328Y-127484202D01*
X128759482Y-127433908D01*
X128759483Y-127433908D01*
X128699883Y-127427501D01*
X128699881Y-127427500D01*
X128699873Y-127427500D01*
X128699864Y-127427500D01*
X126904129Y-127427500D01*
X126904123Y-127427501D01*
X126844516Y-127433908D01*
X126709671Y-127484202D01*
X126709664Y-127484206D01*
X126594455Y-127570452D01*
X126594452Y-127570455D01*
X126508206Y-127685664D01*
X126508202Y-127685671D01*
X126457908Y-127820517D01*
X126451501Y-127880116D01*
X126451501Y-127880123D01*
X126451500Y-127880135D01*
X123400031Y-127880135D01*
X123267792Y-127747896D01*
X123267786Y-127747890D01*
X123095820Y-127622951D01*
X122906414Y-127526444D01*
X122906413Y-127526443D01*
X122906412Y-127526443D01*
X122704243Y-127460754D01*
X122704241Y-127460753D01*
X122704240Y-127460753D01*
X122542957Y-127435208D01*
X122494287Y-127427500D01*
X122281713Y-127427500D01*
X122233042Y-127435208D01*
X122071760Y-127460753D01*
X121869585Y-127526444D01*
X121680179Y-127622951D01*
X121508213Y-127747890D01*
X121357890Y-127898213D01*
X121232951Y-128070179D01*
X121136444Y-128259585D01*
X121070753Y-128461760D01*
X121037500Y-128671713D01*
X118738499Y-128671713D01*
X118738499Y-127880128D01*
X118732091Y-127820517D01*
X118705145Y-127748272D01*
X118681797Y-127685671D01*
X118681793Y-127685664D01*
X118595547Y-127570455D01*
X118595544Y-127570452D01*
X118480335Y-127484206D01*
X118480328Y-127484202D01*
X118345482Y-127433908D01*
X118345483Y-127433908D01*
X118285883Y-127427501D01*
X118285881Y-127427500D01*
X118285873Y-127427500D01*
X118285864Y-127427500D01*
X116490129Y-127427500D01*
X116490123Y-127427501D01*
X116430516Y-127433908D01*
X116295671Y-127484202D01*
X116295664Y-127484206D01*
X116180455Y-127570452D01*
X116180452Y-127570455D01*
X116094206Y-127685664D01*
X116094202Y-127685671D01*
X116043908Y-127820517D01*
X116037501Y-127880116D01*
X116037501Y-127880123D01*
X116037500Y-127880135D01*
X112986031Y-127880135D01*
X112853792Y-127747896D01*
X112853786Y-127747890D01*
X112681820Y-127622951D01*
X112492414Y-127526444D01*
X112492413Y-127526443D01*
X112492412Y-127526443D01*
X112290243Y-127460754D01*
X112290241Y-127460753D01*
X112290240Y-127460753D01*
X112128957Y-127435208D01*
X112080287Y-127427500D01*
X111867713Y-127427500D01*
X111819042Y-127435208D01*
X111657760Y-127460753D01*
X111455585Y-127526444D01*
X111266179Y-127622951D01*
X111094213Y-127747890D01*
X110943890Y-127898213D01*
X110818951Y-128070179D01*
X110722444Y-128259585D01*
X110656753Y-128461760D01*
X110623500Y-128671713D01*
X108324499Y-128671713D01*
X108324499Y-127880128D01*
X108318091Y-127820517D01*
X108291145Y-127748272D01*
X108267797Y-127685671D01*
X108267793Y-127685664D01*
X108181547Y-127570455D01*
X108181544Y-127570452D01*
X108066335Y-127484206D01*
X108066328Y-127484202D01*
X107931482Y-127433908D01*
X107931483Y-127433908D01*
X107871883Y-127427501D01*
X107871881Y-127427500D01*
X107871873Y-127427500D01*
X107871864Y-127427500D01*
X106076129Y-127427500D01*
X106076123Y-127427501D01*
X106016516Y-127433908D01*
X105881671Y-127484202D01*
X105881664Y-127484206D01*
X105766455Y-127570452D01*
X105766452Y-127570455D01*
X105680206Y-127685664D01*
X105680202Y-127685671D01*
X105629908Y-127820517D01*
X105623501Y-127880116D01*
X105623501Y-127880123D01*
X105623500Y-127880135D01*
X98262025Y-127880135D01*
X98125421Y-127743531D01*
X98052858Y-127685664D01*
X97914187Y-127575077D01*
X97756190Y-127475801D01*
X97685416Y-127431331D01*
X97441996Y-127314106D01*
X97186978Y-127224872D01*
X97186980Y-127224872D01*
X96989422Y-127179781D01*
X96923571Y-127164751D01*
X96923567Y-127164750D01*
X96923558Y-127164749D01*
X96655094Y-127134500D01*
X96655090Y-127134500D01*
X96384910Y-127134500D01*
X96384906Y-127134500D01*
X96116441Y-127164749D01*
X96116429Y-127164751D01*
X95853020Y-127224872D01*
X95598003Y-127314106D01*
X95354583Y-127431331D01*
X95125814Y-127575076D01*
X94914578Y-127743531D01*
X94723531Y-127934578D01*
X94555076Y-128145814D01*
X94411331Y-128374583D01*
X94294106Y-128618003D01*
X94204872Y-128873020D01*
X94144751Y-129136429D01*
X94144749Y-129136441D01*
X94114500Y-129404905D01*
X93726500Y-129404905D01*
X93726500Y-125147683D01*
X158249500Y-125147683D01*
X158249500Y-125296316D01*
X158278493Y-125442072D01*
X158278495Y-125442080D01*
X158335371Y-125579391D01*
X158417939Y-125702964D01*
X158417945Y-125702971D01*
X158523028Y-125808054D01*
X158523035Y-125808060D01*
X158646608Y-125890628D01*
X158646609Y-125890628D01*
X158646610Y-125890629D01*
X158783920Y-125947505D01*
X158929683Y-125976499D01*
X158929687Y-125976500D01*
X158929688Y-125976500D01*
X159078313Y-125976500D01*
X159078314Y-125976499D01*
X159224080Y-125947505D01*
X159361390Y-125890629D01*
X159484966Y-125808059D01*
X159590059Y-125702966D01*
X159672629Y-125579390D01*
X159729505Y-125442080D01*
X159758500Y-125296312D01*
X159758500Y-125147688D01*
X159729505Y-125001920D01*
X159672629Y-124864610D01*
X159590059Y-124741034D01*
X159590054Y-124741028D01*
X159484971Y-124635945D01*
X159484964Y-124635939D01*
X159361391Y-124553371D01*
X159224080Y-124496495D01*
X159224072Y-124496493D01*
X159078316Y-124467500D01*
X159078312Y-124467500D01*
X158929688Y-124467500D01*
X158929683Y-124467500D01*
X158783927Y-124496493D01*
X158783919Y-124496495D01*
X158646608Y-124553371D01*
X158523035Y-124635939D01*
X158523028Y-124635945D01*
X158417945Y-124741028D01*
X158417939Y-124741035D01*
X158335371Y-124864608D01*
X158278495Y-125001919D01*
X158278493Y-125001927D01*
X158249500Y-125147683D01*
X93726500Y-125147683D01*
X93726500Y-120956683D01*
X179331500Y-120956683D01*
X179331500Y-121105316D01*
X179360493Y-121251072D01*
X179360495Y-121251080D01*
X179417371Y-121388391D01*
X179499939Y-121511964D01*
X179499945Y-121511971D01*
X179605028Y-121617054D01*
X179605035Y-121617060D01*
X179728608Y-121699628D01*
X179728609Y-121699628D01*
X179728610Y-121699629D01*
X179865920Y-121756505D01*
X180011683Y-121785499D01*
X180011687Y-121785500D01*
X180011688Y-121785500D01*
X180160313Y-121785500D01*
X180160314Y-121785499D01*
X180306080Y-121756505D01*
X180443390Y-121699629D01*
X180566966Y-121617059D01*
X180672059Y-121511966D01*
X180754629Y-121388390D01*
X180811505Y-121251080D01*
X180840500Y-121105312D01*
X180840500Y-120956688D01*
X180811505Y-120810920D01*
X180754629Y-120673610D01*
X180748412Y-120664306D01*
X180672060Y-120550035D01*
X180672054Y-120550028D01*
X180566970Y-120444944D01*
X180566963Y-120444939D01*
X180443390Y-120362371D01*
X180443391Y-120362371D01*
X180443389Y-120362370D01*
X180347576Y-120322683D01*
X182659900Y-120322683D01*
X182659900Y-120471316D01*
X182688893Y-120617072D01*
X182688895Y-120617080D01*
X182745771Y-120754391D01*
X182828339Y-120877964D01*
X182828345Y-120877971D01*
X182933428Y-120983054D01*
X182933435Y-120983060D01*
X183057008Y-121065628D01*
X183057009Y-121065628D01*
X183057010Y-121065629D01*
X183194320Y-121122505D01*
X183340083Y-121151499D01*
X183340087Y-121151500D01*
X183340088Y-121151500D01*
X183488713Y-121151500D01*
X183488714Y-121151499D01*
X183634480Y-121122505D01*
X183771790Y-121065629D01*
X183895366Y-120983059D01*
X184000459Y-120877966D01*
X184059691Y-120789318D01*
X184086414Y-120749325D01*
X184088580Y-120750772D01*
X184129602Y-120709007D01*
X184190005Y-120693300D01*
X184337181Y-120693300D01*
X184337182Y-120693299D01*
X184482948Y-120664305D01*
X184620258Y-120607429D01*
X184743834Y-120524859D01*
X184848927Y-120419766D01*
X184931497Y-120296190D01*
X184988373Y-120158880D01*
X185017368Y-120013112D01*
X185017368Y-119864488D01*
X184988373Y-119718720D01*
X184931497Y-119581410D01*
X184908307Y-119546704D01*
X184848928Y-119457835D01*
X184848922Y-119457828D01*
X184743839Y-119352745D01*
X184743832Y-119352739D01*
X184620259Y-119270171D01*
X184482948Y-119213295D01*
X184482940Y-119213293D01*
X184337184Y-119184300D01*
X184337180Y-119184300D01*
X184188556Y-119184300D01*
X184188551Y-119184300D01*
X184042795Y-119213293D01*
X184042787Y-119213295D01*
X183905476Y-119270171D01*
X183781903Y-119352739D01*
X183781896Y-119352745D01*
X183676810Y-119457831D01*
X183590854Y-119586475D01*
X183588694Y-119585032D01*
X183547622Y-119626817D01*
X183487262Y-119642500D01*
X183340083Y-119642500D01*
X183194327Y-119671493D01*
X183194319Y-119671495D01*
X183057008Y-119728371D01*
X182933435Y-119810939D01*
X182933428Y-119810945D01*
X182828345Y-119916028D01*
X182828339Y-119916035D01*
X182745771Y-120039608D01*
X182688895Y-120176919D01*
X182688893Y-120176927D01*
X182659900Y-120322683D01*
X180347576Y-120322683D01*
X180306080Y-120305495D01*
X180306072Y-120305493D01*
X180160316Y-120276500D01*
X180160312Y-120276500D01*
X180011688Y-120276500D01*
X180011683Y-120276500D01*
X179865927Y-120305493D01*
X179865919Y-120305495D01*
X179728608Y-120362371D01*
X179605035Y-120444939D01*
X179605028Y-120444945D01*
X179499945Y-120550028D01*
X179499939Y-120550035D01*
X179417371Y-120673608D01*
X179360495Y-120810919D01*
X179360493Y-120810927D01*
X179331500Y-120956683D01*
X93726500Y-120956683D01*
X93726500Y-118257713D01*
X95169500Y-118257713D01*
X95169500Y-118470286D01*
X95187363Y-118583072D01*
X95202754Y-118680243D01*
X95255950Y-118843964D01*
X95268444Y-118882414D01*
X95364951Y-119071820D01*
X95489890Y-119243786D01*
X95640213Y-119394109D01*
X95812179Y-119519048D01*
X95812181Y-119519049D01*
X95812184Y-119519051D01*
X96001588Y-119615557D01*
X96203757Y-119681246D01*
X96413713Y-119714500D01*
X96413714Y-119714500D01*
X96626286Y-119714500D01*
X96626287Y-119714500D01*
X96836243Y-119681246D01*
X97038412Y-119615557D01*
X97227816Y-119519051D01*
X97268038Y-119489828D01*
X97399786Y-119394109D01*
X97399788Y-119394106D01*
X97399792Y-119394104D01*
X97550104Y-119243792D01*
X97550106Y-119243788D01*
X97550109Y-119243786D01*
X97675048Y-119071820D01*
X97675047Y-119071820D01*
X97675051Y-119071816D01*
X97771557Y-118882412D01*
X97837246Y-118680243D01*
X97870500Y-118470287D01*
X97870500Y-118288683D01*
X167266500Y-118288683D01*
X167266500Y-118437316D01*
X167295493Y-118583072D01*
X167295495Y-118583080D01*
X167352371Y-118720391D01*
X167434939Y-118843964D01*
X167434945Y-118843971D01*
X167540028Y-118949054D01*
X167540035Y-118949060D01*
X167663608Y-119031628D01*
X167663609Y-119031628D01*
X167663610Y-119031629D01*
X167800920Y-119088505D01*
X167937061Y-119115585D01*
X167946683Y-119117499D01*
X167946687Y-119117500D01*
X167946688Y-119117500D01*
X168095313Y-119117500D01*
X168095314Y-119117499D01*
X168241080Y-119088505D01*
X168378390Y-119031629D01*
X168501966Y-118949059D01*
X168607059Y-118843966D01*
X168671927Y-118746883D01*
X181871500Y-118746883D01*
X181871500Y-118895516D01*
X181900493Y-119041272D01*
X181900495Y-119041280D01*
X181957371Y-119178591D01*
X182039939Y-119302164D01*
X182039945Y-119302171D01*
X182145028Y-119407254D01*
X182145035Y-119407260D01*
X182268608Y-119489828D01*
X182268609Y-119489828D01*
X182268610Y-119489829D01*
X182405920Y-119546705D01*
X182551683Y-119575699D01*
X182551687Y-119575700D01*
X182551688Y-119575700D01*
X182700313Y-119575700D01*
X182700314Y-119575699D01*
X182846080Y-119546705D01*
X182983390Y-119489829D01*
X183106966Y-119407259D01*
X183212059Y-119302166D01*
X183294629Y-119178590D01*
X183351505Y-119041280D01*
X183380500Y-118895512D01*
X183380500Y-118746888D01*
X183351505Y-118601120D01*
X183294629Y-118463810D01*
X183276926Y-118437316D01*
X183212060Y-118340235D01*
X183212054Y-118340228D01*
X183106971Y-118235145D01*
X183106964Y-118235139D01*
X182983391Y-118152571D01*
X182846080Y-118095695D01*
X182846072Y-118095693D01*
X182700316Y-118066700D01*
X182700312Y-118066700D01*
X182551688Y-118066700D01*
X182551683Y-118066700D01*
X182405927Y-118095693D01*
X182405919Y-118095695D01*
X182268608Y-118152571D01*
X182145035Y-118235139D01*
X182145028Y-118235145D01*
X182039945Y-118340228D01*
X182039939Y-118340235D01*
X181957371Y-118463808D01*
X181900495Y-118601119D01*
X181900493Y-118601127D01*
X181871500Y-118746883D01*
X168671927Y-118746883D01*
X168689629Y-118720390D01*
X168746505Y-118583080D01*
X168775500Y-118437312D01*
X168775500Y-118288688D01*
X168746505Y-118142920D01*
X168689629Y-118005610D01*
X168669510Y-117975500D01*
X168607060Y-117882035D01*
X168607054Y-117882028D01*
X168501971Y-117776945D01*
X168501964Y-117776939D01*
X168378391Y-117694371D01*
X168241080Y-117637495D01*
X168241072Y-117637493D01*
X168095316Y-117608500D01*
X168095312Y-117608500D01*
X167946688Y-117608500D01*
X167946683Y-117608500D01*
X167800927Y-117637493D01*
X167800919Y-117637495D01*
X167663608Y-117694371D01*
X167540035Y-117776939D01*
X167540028Y-117776945D01*
X167434945Y-117882028D01*
X167434939Y-117882035D01*
X167352371Y-118005608D01*
X167295495Y-118142919D01*
X167295493Y-118142927D01*
X167266500Y-118288683D01*
X97870500Y-118288683D01*
X97870500Y-118257713D01*
X97837246Y-118047757D01*
X97771557Y-117845588D01*
X97675051Y-117656184D01*
X97675049Y-117656181D01*
X97675048Y-117656179D01*
X97550109Y-117484213D01*
X97399786Y-117333890D01*
X97227820Y-117208951D01*
X97038414Y-117112444D01*
X97038413Y-117112443D01*
X97038412Y-117112443D01*
X96836243Y-117046754D01*
X96836241Y-117046753D01*
X96836240Y-117046753D01*
X96674957Y-117021208D01*
X96626287Y-117013500D01*
X96413713Y-117013500D01*
X96365042Y-117021208D01*
X96203760Y-117046753D01*
X96001585Y-117112444D01*
X95812179Y-117208951D01*
X95640213Y-117333890D01*
X95489890Y-117484213D01*
X95364951Y-117656179D01*
X95268444Y-117845585D01*
X95202753Y-118047760D01*
X95169500Y-118257713D01*
X93726500Y-118257713D01*
X93726500Y-116892683D01*
X158249500Y-116892683D01*
X158249500Y-117041316D01*
X158278493Y-117187072D01*
X158278495Y-117187080D01*
X158335371Y-117324391D01*
X158417939Y-117447964D01*
X158417945Y-117447971D01*
X158523028Y-117553054D01*
X158523035Y-117553060D01*
X158646608Y-117635628D01*
X158646609Y-117635628D01*
X158646610Y-117635629D01*
X158783920Y-117692505D01*
X158929683Y-117721499D01*
X158929687Y-117721500D01*
X158929688Y-117721500D01*
X159078313Y-117721500D01*
X159078314Y-117721499D01*
X159224080Y-117692505D01*
X159361390Y-117635629D01*
X159484966Y-117553059D01*
X159590059Y-117447966D01*
X159672629Y-117324390D01*
X159729505Y-117187080D01*
X159732558Y-117171730D01*
X159737541Y-117146683D01*
X160662500Y-117146683D01*
X160662500Y-117295316D01*
X160691493Y-117441072D01*
X160691495Y-117441080D01*
X160748371Y-117578391D01*
X160830939Y-117701964D01*
X160830945Y-117701971D01*
X160936028Y-117807054D01*
X160936035Y-117807060D01*
X161059608Y-117889628D01*
X161059609Y-117889628D01*
X161059610Y-117889629D01*
X161196920Y-117946505D01*
X161334071Y-117973786D01*
X161342683Y-117975499D01*
X161342687Y-117975500D01*
X161342688Y-117975500D01*
X161491313Y-117975500D01*
X161491314Y-117975499D01*
X161637080Y-117946505D01*
X161774390Y-117889629D01*
X161897966Y-117807059D01*
X162003059Y-117701966D01*
X162085629Y-117578390D01*
X162142505Y-117441080D01*
X162148640Y-117410239D01*
X162150541Y-117400683D01*
X163964500Y-117400683D01*
X163964500Y-117549316D01*
X163993493Y-117695072D01*
X163993495Y-117695080D01*
X164050371Y-117832391D01*
X164132939Y-117955964D01*
X164132945Y-117955971D01*
X164238028Y-118061054D01*
X164238035Y-118061060D01*
X164361608Y-118143628D01*
X164361609Y-118143628D01*
X164361610Y-118143629D01*
X164498920Y-118200505D01*
X164644683Y-118229499D01*
X164644687Y-118229500D01*
X164644688Y-118229500D01*
X164793313Y-118229500D01*
X164793314Y-118229499D01*
X164939080Y-118200505D01*
X165076390Y-118143629D01*
X165199966Y-118061059D01*
X165305059Y-117955966D01*
X165387629Y-117832390D01*
X165444505Y-117695080D01*
X165473500Y-117549312D01*
X165473500Y-117400688D01*
X165444505Y-117254920D01*
X165387629Y-117117610D01*
X165386823Y-117116404D01*
X165305060Y-116994035D01*
X165305054Y-116994028D01*
X165199971Y-116888945D01*
X165199964Y-116888939D01*
X165076391Y-116806371D01*
X164939080Y-116749495D01*
X164939072Y-116749493D01*
X164793316Y-116720500D01*
X164793312Y-116720500D01*
X164644688Y-116720500D01*
X164644683Y-116720500D01*
X164498927Y-116749493D01*
X164498919Y-116749495D01*
X164361608Y-116806371D01*
X164238035Y-116888939D01*
X164238028Y-116888945D01*
X164132945Y-116994028D01*
X164132939Y-116994035D01*
X164050371Y-117117608D01*
X163993495Y-117254919D01*
X163993493Y-117254927D01*
X163964500Y-117400683D01*
X162150541Y-117400683D01*
X162156564Y-117370404D01*
X162156564Y-117370403D01*
X162171499Y-117295316D01*
X162171500Y-117295313D01*
X162171500Y-117146687D01*
X162171499Y-117146683D01*
X162151622Y-117046754D01*
X162142505Y-117000920D01*
X162085629Y-116863610D01*
X162028266Y-116777760D01*
X162003060Y-116740035D01*
X162003054Y-116740028D01*
X161897971Y-116634945D01*
X161897964Y-116634939D01*
X161774391Y-116552371D01*
X161637080Y-116495495D01*
X161637072Y-116495493D01*
X161491316Y-116466500D01*
X161491312Y-116466500D01*
X161342688Y-116466500D01*
X161342683Y-116466500D01*
X161196927Y-116495493D01*
X161196919Y-116495495D01*
X161059608Y-116552371D01*
X160936035Y-116634939D01*
X160936028Y-116634945D01*
X160830945Y-116740028D01*
X160830939Y-116740035D01*
X160748371Y-116863608D01*
X160691495Y-117000919D01*
X160691493Y-117000927D01*
X160662500Y-117146683D01*
X159737541Y-117146683D01*
X159743564Y-117116404D01*
X159743564Y-117116403D01*
X159754158Y-117063140D01*
X159758500Y-117041312D01*
X159758500Y-116892688D01*
X159729505Y-116746920D01*
X159672629Y-116609610D01*
X159649896Y-116575588D01*
X159590060Y-116486035D01*
X159590054Y-116486028D01*
X159484971Y-116380945D01*
X159484964Y-116380939D01*
X159361391Y-116298371D01*
X159224080Y-116241495D01*
X159224072Y-116241493D01*
X159078316Y-116212500D01*
X159078312Y-116212500D01*
X158929688Y-116212500D01*
X158929683Y-116212500D01*
X158783927Y-116241493D01*
X158783919Y-116241495D01*
X158646608Y-116298371D01*
X158523035Y-116380939D01*
X158523028Y-116380945D01*
X158417945Y-116486028D01*
X158417939Y-116486035D01*
X158335371Y-116609608D01*
X158278495Y-116746919D01*
X158278493Y-116746927D01*
X158249500Y-116892683D01*
X93726500Y-116892683D01*
X93726500Y-113845735D01*
X94311099Y-113845735D01*
X94311099Y-115262270D01*
X94311100Y-115262276D01*
X94317507Y-115321883D01*
X94367801Y-115456728D01*
X94367805Y-115456735D01*
X94454051Y-115571944D01*
X94454054Y-115571947D01*
X94569263Y-115658193D01*
X94569270Y-115658197D01*
X94704116Y-115708491D01*
X94704115Y-115708491D01*
X94711043Y-115709235D01*
X94763726Y-115714900D01*
X96180271Y-115714899D01*
X96239882Y-115708491D01*
X96374730Y-115658196D01*
X96489945Y-115571946D01*
X96576195Y-115456731D01*
X96626490Y-115321883D01*
X96632899Y-115262273D01*
X96632898Y-114462629D01*
X103011101Y-114462629D01*
X103011101Y-114645370D01*
X103039685Y-114825841D01*
X103039686Y-114825845D01*
X103096153Y-114999631D01*
X103179110Y-115162444D01*
X103286516Y-115310276D01*
X103415725Y-115439485D01*
X103563557Y-115546891D01*
X103726370Y-115629848D01*
X103900156Y-115686315D01*
X103967836Y-115697034D01*
X104080631Y-115714900D01*
X104080636Y-115714900D01*
X104263371Y-115714900D01*
X104363632Y-115699019D01*
X104443846Y-115686315D01*
X104617632Y-115629848D01*
X104780445Y-115546891D01*
X104928277Y-115439485D01*
X105057486Y-115310276D01*
X105164892Y-115162444D01*
X105247849Y-114999631D01*
X105304316Y-114825845D01*
X105330538Y-114660286D01*
X105332901Y-114645370D01*
X105332901Y-114462629D01*
X105312587Y-114334374D01*
X105304316Y-114282155D01*
X105247849Y-114108369D01*
X105164892Y-113945556D01*
X105057486Y-113797724D01*
X104928277Y-113668515D01*
X104780445Y-113561109D01*
X104617632Y-113478152D01*
X104443846Y-113421685D01*
X104443844Y-113421684D01*
X104443842Y-113421684D01*
X104263371Y-113393100D01*
X104263366Y-113393100D01*
X104080636Y-113393100D01*
X104080631Y-113393100D01*
X103900159Y-113421684D01*
X103726367Y-113478153D01*
X103563556Y-113561109D01*
X103415722Y-113668517D01*
X103286518Y-113797721D01*
X103179110Y-113945555D01*
X103096154Y-114108366D01*
X103039685Y-114282158D01*
X103011101Y-114462629D01*
X96632898Y-114462629D01*
X96632898Y-113845728D01*
X96626490Y-113786117D01*
X96582627Y-113668515D01*
X96576196Y-113651271D01*
X96576192Y-113651264D01*
X96489946Y-113536055D01*
X96489943Y-113536052D01*
X96374734Y-113449806D01*
X96374727Y-113449802D01*
X96239881Y-113399508D01*
X96239882Y-113399508D01*
X96180282Y-113393101D01*
X96180280Y-113393100D01*
X96180272Y-113393100D01*
X96180263Y-113393100D01*
X94763728Y-113393100D01*
X94763722Y-113393101D01*
X94704115Y-113399508D01*
X94569270Y-113449802D01*
X94569263Y-113449806D01*
X94454054Y-113536052D01*
X94454051Y-113536055D01*
X94367805Y-113651264D01*
X94367801Y-113651271D01*
X94317507Y-113786117D01*
X94311100Y-113845716D01*
X94311100Y-113845723D01*
X94311099Y-113845735D01*
X93726500Y-113845735D01*
X93726500Y-104714975D01*
X107195500Y-104714975D01*
X107195500Y-104997024D01*
X107232312Y-105276634D01*
X107305310Y-105549065D01*
X107413236Y-105809622D01*
X107413241Y-105809633D01*
X107554250Y-106053866D01*
X107554261Y-106053882D01*
X107725944Y-106277624D01*
X107725950Y-106277631D01*
X107925368Y-106477049D01*
X107925375Y-106477055D01*
X107950028Y-106495972D01*
X108149126Y-106648745D01*
X108149133Y-106648749D01*
X108393366Y-106789758D01*
X108393371Y-106789760D01*
X108393374Y-106789762D01*
X108653939Y-106897691D01*
X108926363Y-106970687D01*
X109205983Y-107007500D01*
X109205990Y-107007500D01*
X109488010Y-107007500D01*
X109488017Y-107007500D01*
X109767637Y-106970687D01*
X110040061Y-106897691D01*
X110300626Y-106789762D01*
X110544874Y-106648745D01*
X110768626Y-106477054D01*
X110968054Y-106277626D01*
X111139745Y-106053874D01*
X111280762Y-105809626D01*
X111307916Y-105744070D01*
X114579500Y-105744070D01*
X114579500Y-105999930D01*
X114585451Y-106037500D01*
X114619526Y-106252640D01*
X114698588Y-106495972D01*
X114698589Y-106495975D01*
X114776427Y-106648738D01*
X114809870Y-106714374D01*
X114814750Y-106723950D01*
X114965132Y-106930935D01*
X114965136Y-106930940D01*
X115146059Y-107111863D01*
X115146064Y-107111867D01*
X115326607Y-107243038D01*
X115353053Y-107262252D01*
X115502080Y-107338185D01*
X115581024Y-107378410D01*
X115581027Y-107378411D01*
X115702693Y-107417942D01*
X115824361Y-107457474D01*
X116077070Y-107497500D01*
X116077071Y-107497500D01*
X116332929Y-107497500D01*
X116332930Y-107497500D01*
X116585639Y-107457474D01*
X116828975Y-107378410D01*
X117056947Y-107262252D01*
X117263942Y-107111862D01*
X117444862Y-106930942D01*
X117595252Y-106723947D01*
X117655511Y-106605683D01*
X124213500Y-106605683D01*
X124213500Y-106754316D01*
X124242493Y-106900072D01*
X124242495Y-106900080D01*
X124299371Y-107037391D01*
X124381939Y-107160964D01*
X124381945Y-107160971D01*
X124487028Y-107266054D01*
X124487035Y-107266060D01*
X124610608Y-107348628D01*
X124610609Y-107348628D01*
X124610610Y-107348629D01*
X124747920Y-107405505D01*
X124893683Y-107434499D01*
X124893687Y-107434500D01*
X124893688Y-107434500D01*
X125042313Y-107434500D01*
X125042314Y-107434499D01*
X125188080Y-107405505D01*
X125325390Y-107348629D01*
X125448966Y-107266059D01*
X125554059Y-107160966D01*
X125636629Y-107037390D01*
X125693505Y-106900080D01*
X125722500Y-106754312D01*
X125722500Y-106605688D01*
X125722499Y-106605683D01*
X128785500Y-106605683D01*
X128785500Y-106754316D01*
X128814493Y-106900072D01*
X128814495Y-106900080D01*
X128871371Y-107037391D01*
X128953939Y-107160964D01*
X128953945Y-107160971D01*
X129059028Y-107266054D01*
X129059035Y-107266060D01*
X129182608Y-107348628D01*
X129182609Y-107348628D01*
X129182610Y-107348629D01*
X129319920Y-107405505D01*
X129465683Y-107434499D01*
X129465687Y-107434500D01*
X129465688Y-107434500D01*
X129614313Y-107434500D01*
X129614314Y-107434499D01*
X129760080Y-107405505D01*
X129897390Y-107348629D01*
X130020966Y-107266059D01*
X130126059Y-107160966D01*
X130208629Y-107037390D01*
X130265505Y-106900080D01*
X130294500Y-106754312D01*
X130294500Y-106605688D01*
X130294499Y-106605683D01*
X133357500Y-106605683D01*
X133357500Y-106754316D01*
X133386493Y-106900072D01*
X133386495Y-106900080D01*
X133443371Y-107037391D01*
X133525939Y-107160964D01*
X133525945Y-107160971D01*
X133631028Y-107266054D01*
X133631035Y-107266060D01*
X133754608Y-107348628D01*
X133754609Y-107348628D01*
X133754610Y-107348629D01*
X133891920Y-107405505D01*
X134037683Y-107434499D01*
X134037687Y-107434500D01*
X134037688Y-107434500D01*
X134186313Y-107434500D01*
X134186314Y-107434499D01*
X134332080Y-107405505D01*
X134469390Y-107348629D01*
X134592966Y-107266059D01*
X134698059Y-107160966D01*
X134714584Y-107136235D01*
X141498200Y-107136235D01*
X141498200Y-108730570D01*
X141498201Y-108730576D01*
X141504608Y-108790183D01*
X141554902Y-108925028D01*
X141554906Y-108925035D01*
X141641152Y-109040244D01*
X141641155Y-109040247D01*
X141756364Y-109126493D01*
X141756371Y-109126497D01*
X141891217Y-109176791D01*
X141891216Y-109176791D01*
X141898144Y-109177535D01*
X141950827Y-109183200D01*
X142015888Y-109183199D01*
X142082925Y-109202883D01*
X142128681Y-109255686D01*
X142138625Y-109324844D01*
X142109601Y-109388400D01*
X142088773Y-109407516D01*
X141933816Y-109520101D01*
X141933807Y-109520108D01*
X141794708Y-109659207D01*
X141794708Y-109659208D01*
X141794706Y-109659210D01*
X141755306Y-109713439D01*
X141679075Y-109818361D01*
X141589766Y-109993638D01*
X141528973Y-110180737D01*
X141498200Y-110375033D01*
X141498200Y-110571766D01*
X141528973Y-110766062D01*
X141589766Y-110953161D01*
X141641146Y-111053999D01*
X141679075Y-111128438D01*
X141794706Y-111287590D01*
X141933810Y-111426694D01*
X142092962Y-111542325D01*
X142174160Y-111583697D01*
X142270754Y-111632915D01*
X142321550Y-111680890D01*
X142338345Y-111748711D01*
X142315807Y-111814846D01*
X142270754Y-111853885D01*
X142092961Y-111944475D01*
X142002159Y-112010447D01*
X141933810Y-112060106D01*
X141933808Y-112060108D01*
X141933807Y-112060108D01*
X141794708Y-112199207D01*
X141794708Y-112199208D01*
X141794706Y-112199210D01*
X141745047Y-112267559D01*
X141679075Y-112358361D01*
X141589766Y-112533638D01*
X141528973Y-112720737D01*
X141498200Y-112915033D01*
X141498200Y-113111766D01*
X141528973Y-113306062D01*
X141589766Y-113493161D01*
X141624388Y-113561109D01*
X141679075Y-113668438D01*
X141794706Y-113827590D01*
X141933810Y-113966694D01*
X142092962Y-114082325D01*
X142174160Y-114123697D01*
X142270754Y-114172915D01*
X142321550Y-114220890D01*
X142338345Y-114288711D01*
X142315807Y-114354846D01*
X142270754Y-114393885D01*
X142092961Y-114484475D01*
X142056990Y-114510610D01*
X141933810Y-114600106D01*
X141933808Y-114600108D01*
X141933807Y-114600108D01*
X141794708Y-114739207D01*
X141794708Y-114739208D01*
X141794706Y-114739210D01*
X141755129Y-114793683D01*
X141679075Y-114898361D01*
X141589766Y-115073638D01*
X141528973Y-115260737D01*
X141498200Y-115455033D01*
X141498200Y-115651766D01*
X141528973Y-115846062D01*
X141589766Y-116033161D01*
X141679075Y-116208438D01*
X141794706Y-116367590D01*
X141933810Y-116506694D01*
X142092962Y-116622325D01*
X142175774Y-116664520D01*
X142268238Y-116711633D01*
X142268240Y-116711633D01*
X142268243Y-116711635D01*
X142355646Y-116740034D01*
X142455337Y-116772426D01*
X142649634Y-116803200D01*
X142649639Y-116803200D01*
X142846366Y-116803200D01*
X143040662Y-116772426D01*
X143052237Y-116768665D01*
X143227757Y-116711635D01*
X143403038Y-116622325D01*
X143562190Y-116506694D01*
X143701294Y-116367590D01*
X143816925Y-116208438D01*
X143906235Y-116033157D01*
X143967026Y-115846062D01*
X143987800Y-115714900D01*
X143997800Y-115651766D01*
X143997800Y-115455033D01*
X143967026Y-115260737D01*
X143906233Y-115073638D01*
X143859120Y-114981174D01*
X143816925Y-114898362D01*
X143701294Y-114739210D01*
X143562190Y-114600106D01*
X143403038Y-114484475D01*
X143227757Y-114395165D01*
X143225245Y-114393885D01*
X143174449Y-114345910D01*
X143157654Y-114278089D01*
X143180191Y-114211955D01*
X143225245Y-114172915D01*
X143237485Y-114166677D01*
X143403038Y-114082325D01*
X143562190Y-113966694D01*
X143701294Y-113827590D01*
X143816925Y-113668438D01*
X143906235Y-113493157D01*
X143967026Y-113306062D01*
X143971708Y-113276499D01*
X143997800Y-113111766D01*
X143997800Y-112915033D01*
X143967026Y-112720737D01*
X143906233Y-112533638D01*
X143816924Y-112358361D01*
X143775917Y-112301920D01*
X143701294Y-112199210D01*
X143562190Y-112060106D01*
X143403038Y-111944475D01*
X143227757Y-111855165D01*
X143225245Y-111853885D01*
X143174449Y-111805910D01*
X143157654Y-111738089D01*
X143180191Y-111671955D01*
X143225245Y-111632915D01*
X143239800Y-111625499D01*
X143403038Y-111542325D01*
X143562190Y-111426694D01*
X143701294Y-111287590D01*
X143816925Y-111128438D01*
X143906235Y-110953157D01*
X143967026Y-110766062D01*
X143974051Y-110721706D01*
X143997800Y-110571766D01*
X143997800Y-110375033D01*
X143967026Y-110180737D01*
X143906233Y-109993638D01*
X143817013Y-109818535D01*
X143816925Y-109818362D01*
X143701294Y-109659210D01*
X143562190Y-109520106D01*
X143407224Y-109407516D01*
X143364559Y-109352187D01*
X143358580Y-109282574D01*
X143391186Y-109220779D01*
X143452025Y-109186421D01*
X143480109Y-109183199D01*
X143545172Y-109183199D01*
X143604783Y-109176791D01*
X143739631Y-109126496D01*
X143854846Y-109040246D01*
X143941096Y-108925031D01*
X143991391Y-108790183D01*
X143997800Y-108730573D01*
X143997799Y-107835033D01*
X149118200Y-107835033D01*
X149118200Y-108031766D01*
X149148973Y-108226062D01*
X149209766Y-108413161D01*
X149299075Y-108588438D01*
X149414706Y-108747590D01*
X149553810Y-108886694D01*
X149712962Y-109002325D01*
X149787382Y-109040244D01*
X149890754Y-109092915D01*
X149941550Y-109140890D01*
X149958345Y-109208711D01*
X149935807Y-109274846D01*
X149890754Y-109313885D01*
X149712961Y-109404475D01*
X149622159Y-109470447D01*
X149553810Y-109520106D01*
X149553808Y-109520108D01*
X149553807Y-109520108D01*
X149414708Y-109659207D01*
X149414708Y-109659208D01*
X149414706Y-109659210D01*
X149375306Y-109713439D01*
X149299075Y-109818361D01*
X149209766Y-109993638D01*
X149148973Y-110180737D01*
X149118200Y-110375033D01*
X149118200Y-110571766D01*
X149148973Y-110766062D01*
X149209766Y-110953161D01*
X149261146Y-111053999D01*
X149299075Y-111128438D01*
X149414706Y-111287590D01*
X149553810Y-111426694D01*
X149712962Y-111542325D01*
X149794160Y-111583697D01*
X149890754Y-111632915D01*
X149941550Y-111680890D01*
X149958345Y-111748711D01*
X149935807Y-111814846D01*
X149890754Y-111853885D01*
X149712961Y-111944475D01*
X149622159Y-112010447D01*
X149553810Y-112060106D01*
X149553808Y-112060108D01*
X149553807Y-112060108D01*
X149414708Y-112199207D01*
X149414708Y-112199208D01*
X149414706Y-112199210D01*
X149365047Y-112267559D01*
X149299075Y-112358361D01*
X149209766Y-112533638D01*
X149148973Y-112720737D01*
X149118200Y-112915033D01*
X149118200Y-113111766D01*
X149148973Y-113306062D01*
X149209766Y-113493161D01*
X149244388Y-113561109D01*
X149299075Y-113668438D01*
X149414706Y-113827590D01*
X149553810Y-113966694D01*
X149712962Y-114082325D01*
X149794160Y-114123697D01*
X149890754Y-114172915D01*
X149941550Y-114220890D01*
X149958345Y-114288711D01*
X149935807Y-114354846D01*
X149890754Y-114393885D01*
X149712961Y-114484475D01*
X149676990Y-114510610D01*
X149553810Y-114600106D01*
X149553808Y-114600108D01*
X149553807Y-114600108D01*
X149414708Y-114739207D01*
X149414708Y-114739208D01*
X149414706Y-114739210D01*
X149375129Y-114793683D01*
X149299075Y-114898361D01*
X149209766Y-115073638D01*
X149148973Y-115260737D01*
X149118200Y-115455033D01*
X149118200Y-115651766D01*
X149148973Y-115846062D01*
X149209766Y-116033161D01*
X149299075Y-116208438D01*
X149414706Y-116367590D01*
X149553810Y-116506694D01*
X149712962Y-116622325D01*
X149795774Y-116664520D01*
X149888238Y-116711633D01*
X149888240Y-116711633D01*
X149888243Y-116711635D01*
X149975646Y-116740034D01*
X150075337Y-116772426D01*
X150269634Y-116803200D01*
X150269639Y-116803200D01*
X150466366Y-116803200D01*
X150560558Y-116788280D01*
X150660662Y-116772426D01*
X150660665Y-116772425D01*
X150660666Y-116772425D01*
X150672237Y-116768665D01*
X150672238Y-116768665D01*
X150731242Y-116749493D01*
X150847757Y-116711635D01*
X151023038Y-116622325D01*
X151182190Y-116506694D01*
X151321294Y-116367590D01*
X151436925Y-116208438D01*
X151526235Y-116033157D01*
X151587026Y-115846062D01*
X151607800Y-115714900D01*
X151617800Y-115651766D01*
X151617800Y-115455033D01*
X151587026Y-115260737D01*
X151526233Y-115073638D01*
X151477324Y-114977650D01*
X151436925Y-114898362D01*
X151436923Y-114898359D01*
X151436922Y-114898357D01*
X151409406Y-114860485D01*
X151409403Y-114860482D01*
X151384235Y-114825841D01*
X151360871Y-114793683D01*
X167206500Y-114793683D01*
X167206500Y-114942316D01*
X167235493Y-115088072D01*
X167235495Y-115088080D01*
X167292371Y-115225391D01*
X167374939Y-115348964D01*
X167374945Y-115348971D01*
X167480028Y-115454054D01*
X167480035Y-115454060D01*
X167603608Y-115536628D01*
X167603609Y-115536628D01*
X167603610Y-115536629D01*
X167740920Y-115593505D01*
X167886683Y-115622499D01*
X167886687Y-115622500D01*
X167886688Y-115622500D01*
X168035313Y-115622500D01*
X168035314Y-115622499D01*
X168181080Y-115593505D01*
X168318390Y-115536629D01*
X168441966Y-115454059D01*
X168547059Y-115348966D01*
X168629629Y-115225390D01*
X168686505Y-115088080D01*
X168715500Y-114942312D01*
X168715500Y-114793688D01*
X168686505Y-114647920D01*
X168629629Y-114510610D01*
X168629629Y-114510609D01*
X168587603Y-114447713D01*
X197785500Y-114447713D01*
X197785500Y-114660286D01*
X197806628Y-114793687D01*
X197818754Y-114870243D01*
X197827890Y-114898362D01*
X197884444Y-115072414D01*
X197980951Y-115261820D01*
X198105890Y-115433786D01*
X198256213Y-115584109D01*
X198428182Y-115709050D01*
X198436946Y-115713516D01*
X198487742Y-115761491D01*
X198504536Y-115829312D01*
X198481998Y-115895447D01*
X198436946Y-115934484D01*
X198428182Y-115938949D01*
X198256213Y-116063890D01*
X198105890Y-116214213D01*
X197980951Y-116386179D01*
X197884444Y-116575585D01*
X197818753Y-116777760D01*
X197785500Y-116987713D01*
X197785500Y-117200286D01*
X197817240Y-117400688D01*
X197818754Y-117410243D01*
X197865158Y-117553060D01*
X197884444Y-117612414D01*
X197980951Y-117801820D01*
X198105890Y-117973786D01*
X198256213Y-118124109D01*
X198428182Y-118249050D01*
X198436946Y-118253516D01*
X198487742Y-118301491D01*
X198504536Y-118369312D01*
X198481998Y-118435447D01*
X198436946Y-118474484D01*
X198428182Y-118478949D01*
X198256213Y-118603890D01*
X198105890Y-118754213D01*
X197980951Y-118926179D01*
X197884444Y-119115585D01*
X197818753Y-119317760D01*
X197785500Y-119527713D01*
X197785500Y-119740286D01*
X197805171Y-119864488D01*
X197818754Y-119950243D01*
X197847791Y-120039610D01*
X197884444Y-120152414D01*
X197980951Y-120341820D01*
X198105890Y-120513786D01*
X198219430Y-120627326D01*
X198252915Y-120688649D01*
X198247931Y-120758341D01*
X198206059Y-120814274D01*
X198175083Y-120831189D01*
X198043669Y-120880203D01*
X198043664Y-120880206D01*
X197928455Y-120966452D01*
X197928452Y-120966455D01*
X197842206Y-121081664D01*
X197842202Y-121081671D01*
X197791908Y-121216517D01*
X197785501Y-121276116D01*
X197785501Y-121276123D01*
X197785500Y-121276135D01*
X197785500Y-123071870D01*
X197785501Y-123071876D01*
X197791908Y-123131483D01*
X197842202Y-123266328D01*
X197842206Y-123266335D01*
X197928452Y-123381544D01*
X197928455Y-123381547D01*
X198043664Y-123467793D01*
X198043671Y-123467797D01*
X198178517Y-123518091D01*
X198178516Y-123518091D01*
X198185444Y-123518835D01*
X198238127Y-123524500D01*
X200033872Y-123524499D01*
X200093483Y-123518091D01*
X200228331Y-123467796D01*
X200343546Y-123381546D01*
X200429796Y-123266331D01*
X200480091Y-123131483D01*
X200486500Y-123071873D01*
X200486499Y-121276128D01*
X200480091Y-121216517D01*
X200455841Y-121151500D01*
X200429797Y-121081671D01*
X200429793Y-121081664D01*
X200343547Y-120966455D01*
X200343544Y-120966452D01*
X200228335Y-120880206D01*
X200228328Y-120880202D01*
X200096917Y-120831189D01*
X200040983Y-120789318D01*
X200016566Y-120723853D01*
X200031418Y-120655580D01*
X200052563Y-120627332D01*
X200166104Y-120513792D01*
X200196965Y-120471316D01*
X200291048Y-120341820D01*
X200291047Y-120341820D01*
X200291051Y-120341816D01*
X200387557Y-120152412D01*
X200453246Y-119950243D01*
X200486500Y-119740287D01*
X200486500Y-119527713D01*
X200453246Y-119317757D01*
X200387557Y-119115588D01*
X200291051Y-118926184D01*
X200291049Y-118926181D01*
X200291048Y-118926179D01*
X200166109Y-118754213D01*
X200015786Y-118603890D01*
X199843820Y-118478951D01*
X199843115Y-118478591D01*
X199835054Y-118474485D01*
X199784259Y-118426512D01*
X199767463Y-118358692D01*
X199789999Y-118292556D01*
X199835054Y-118253515D01*
X199843816Y-118249051D01*
X199910633Y-118200506D01*
X200015786Y-118124109D01*
X200015788Y-118124106D01*
X200015792Y-118124104D01*
X200166104Y-117973792D01*
X200166106Y-117973788D01*
X200166109Y-117973786D01*
X200291048Y-117801820D01*
X200291047Y-117801820D01*
X200291051Y-117801816D01*
X200387557Y-117612412D01*
X200453246Y-117410243D01*
X200486500Y-117200287D01*
X200486500Y-116987713D01*
X200453246Y-116777757D01*
X200387557Y-116575588D01*
X200291051Y-116386184D01*
X200291049Y-116386181D01*
X200291048Y-116386179D01*
X200166109Y-116214213D01*
X200015786Y-116063890D01*
X199843820Y-115938951D01*
X199843115Y-115938591D01*
X199835054Y-115934485D01*
X199784259Y-115886512D01*
X199767463Y-115818692D01*
X199789999Y-115752556D01*
X199835054Y-115713515D01*
X199843816Y-115709051D01*
X199913811Y-115658197D01*
X200015786Y-115584109D01*
X200015788Y-115584106D01*
X200015792Y-115584104D01*
X200166104Y-115433792D01*
X200166106Y-115433788D01*
X200166109Y-115433786D01*
X200290721Y-115262270D01*
X200291051Y-115261816D01*
X200387557Y-115072412D01*
X200453246Y-114870243D01*
X200486500Y-114660287D01*
X200486500Y-114447713D01*
X200453246Y-114237757D01*
X200387557Y-114035588D01*
X200291051Y-113846184D01*
X200291049Y-113846181D01*
X200291048Y-113846179D01*
X200166109Y-113674213D01*
X200015786Y-113523890D01*
X199843820Y-113398951D01*
X199654414Y-113302444D01*
X199654413Y-113302443D01*
X199654412Y-113302443D01*
X199452243Y-113236754D01*
X199452241Y-113236753D01*
X199452240Y-113236753D01*
X199290957Y-113211208D01*
X199242287Y-113203500D01*
X199029713Y-113203500D01*
X198981042Y-113211208D01*
X198819760Y-113236753D01*
X198617585Y-113302444D01*
X198428179Y-113398951D01*
X198256213Y-113523890D01*
X198105890Y-113674213D01*
X197980951Y-113846179D01*
X197884444Y-114035585D01*
X197818753Y-114237760D01*
X197785500Y-114447713D01*
X168587603Y-114447713D01*
X168547057Y-114387031D01*
X168441971Y-114281945D01*
X168441964Y-114281939D01*
X168318391Y-114199371D01*
X168181080Y-114142495D01*
X168181072Y-114142493D01*
X168035316Y-114113500D01*
X168035312Y-114113500D01*
X167886688Y-114113500D01*
X167886683Y-114113500D01*
X167740927Y-114142493D01*
X167740919Y-114142495D01*
X167603608Y-114199371D01*
X167480035Y-114281939D01*
X167480028Y-114281945D01*
X167374945Y-114387028D01*
X167374939Y-114387035D01*
X167292371Y-114510608D01*
X167235495Y-114647919D01*
X167235493Y-114647927D01*
X167206500Y-114793683D01*
X151360871Y-114793683D01*
X151321294Y-114739210D01*
X151182190Y-114600106D01*
X151023038Y-114484475D01*
X150847757Y-114395165D01*
X150845245Y-114393885D01*
X150794449Y-114345910D01*
X150777654Y-114278089D01*
X150800191Y-114211955D01*
X150845245Y-114172915D01*
X150857485Y-114166677D01*
X151023038Y-114082325D01*
X151182190Y-113966694D01*
X151321294Y-113827590D01*
X151436925Y-113668438D01*
X151526235Y-113493157D01*
X151587026Y-113306062D01*
X151591708Y-113276499D01*
X151617800Y-113111766D01*
X151617800Y-112915033D01*
X151587026Y-112720737D01*
X151526232Y-112533635D01*
X151508020Y-112497892D01*
X151508019Y-112497891D01*
X151482436Y-112447683D01*
X160281500Y-112447683D01*
X160281500Y-112596316D01*
X160310493Y-112742072D01*
X160310495Y-112742080D01*
X160367371Y-112879391D01*
X160449939Y-113002964D01*
X160449945Y-113002971D01*
X160555028Y-113108054D01*
X160555035Y-113108060D01*
X160678608Y-113190628D01*
X160678609Y-113190628D01*
X160678610Y-113190629D01*
X160815920Y-113247505D01*
X160961683Y-113276499D01*
X160961687Y-113276500D01*
X160961688Y-113276500D01*
X161110313Y-113276500D01*
X161110314Y-113276499D01*
X161256080Y-113247505D01*
X161393390Y-113190629D01*
X161516966Y-113108059D01*
X161622059Y-113002966D01*
X161704629Y-112879390D01*
X161761505Y-112742080D01*
X161790500Y-112596312D01*
X161790500Y-112447688D01*
X161761505Y-112301920D01*
X161704629Y-112164610D01*
X161634802Y-112060106D01*
X161622060Y-112041035D01*
X161622054Y-112041028D01*
X161516971Y-111935945D01*
X161516964Y-111935939D01*
X161393391Y-111853371D01*
X161256080Y-111796495D01*
X161256072Y-111796493D01*
X161110316Y-111767500D01*
X161110312Y-111767500D01*
X160961688Y-111767500D01*
X160961683Y-111767500D01*
X160815927Y-111796493D01*
X160815919Y-111796495D01*
X160678608Y-111853371D01*
X160555035Y-111935939D01*
X160555028Y-111935945D01*
X160449945Y-112041028D01*
X160449939Y-112041035D01*
X160367371Y-112164608D01*
X160310495Y-112301919D01*
X160310493Y-112301927D01*
X160281500Y-112447683D01*
X151482436Y-112447683D01*
X151436924Y-112358361D01*
X151395917Y-112301920D01*
X151321294Y-112199210D01*
X151182190Y-112060106D01*
X151023038Y-111944475D01*
X150847757Y-111855165D01*
X150845245Y-111853885D01*
X150794449Y-111805910D01*
X150777654Y-111738089D01*
X150800191Y-111671955D01*
X150845245Y-111632915D01*
X150859800Y-111625499D01*
X151023038Y-111542325D01*
X151182190Y-111426694D01*
X151321294Y-111287590D01*
X151436925Y-111128438D01*
X151526235Y-110953157D01*
X151587026Y-110766062D01*
X151594051Y-110721706D01*
X151617800Y-110571766D01*
X151617800Y-110375033D01*
X151596174Y-110238494D01*
X151594066Y-110225183D01*
X152852000Y-110225183D01*
X152852000Y-110373816D01*
X152880993Y-110519572D01*
X152880995Y-110519580D01*
X152937871Y-110656891D01*
X153020439Y-110780464D01*
X153020445Y-110780471D01*
X153125528Y-110885554D01*
X153125535Y-110885560D01*
X153249108Y-110968128D01*
X153249109Y-110968128D01*
X153249110Y-110968129D01*
X153386420Y-111025005D01*
X153532183Y-111053999D01*
X153532187Y-111054000D01*
X153532188Y-111054000D01*
X153680813Y-111054000D01*
X153680814Y-111053999D01*
X153826580Y-111025005D01*
X153963890Y-110968129D01*
X154087466Y-110885559D01*
X154176342Y-110796683D01*
X171711500Y-110796683D01*
X171711500Y-110945316D01*
X171740493Y-111091072D01*
X171740495Y-111091080D01*
X171797371Y-111228391D01*
X171879939Y-111351964D01*
X171879945Y-111351971D01*
X171985028Y-111457054D01*
X171985035Y-111457060D01*
X172108608Y-111539628D01*
X172108609Y-111539628D01*
X172108610Y-111539629D01*
X172245920Y-111596505D01*
X172391683Y-111625499D01*
X172391687Y-111625500D01*
X172391688Y-111625500D01*
X172540313Y-111625500D01*
X172540314Y-111625499D01*
X172686080Y-111596505D01*
X172823390Y-111539629D01*
X172946966Y-111457059D01*
X173052059Y-111351966D01*
X173134629Y-111228390D01*
X173191505Y-111091080D01*
X173220500Y-110945312D01*
X173220500Y-110796688D01*
X173191505Y-110650920D01*
X173134629Y-110513610D01*
X173052059Y-110390034D01*
X173052054Y-110390028D01*
X172946971Y-110284945D01*
X172946964Y-110284939D01*
X172823391Y-110202371D01*
X172686080Y-110145495D01*
X172686072Y-110145493D01*
X172540316Y-110116500D01*
X172540312Y-110116500D01*
X172391688Y-110116500D01*
X172391683Y-110116500D01*
X172245927Y-110145493D01*
X172245919Y-110145495D01*
X172108608Y-110202371D01*
X171985035Y-110284939D01*
X171985028Y-110284945D01*
X171879945Y-110390028D01*
X171879939Y-110390035D01*
X171797371Y-110513608D01*
X171740495Y-110650919D01*
X171740493Y-110650927D01*
X171711500Y-110796683D01*
X154176342Y-110796683D01*
X154192559Y-110780466D01*
X154275129Y-110656890D01*
X154332005Y-110519580D01*
X154361000Y-110373812D01*
X154361000Y-110225188D01*
X154332005Y-110079420D01*
X154275129Y-109942110D01*
X154192559Y-109818534D01*
X154192554Y-109818528D01*
X154087471Y-109713445D01*
X154087464Y-109713439D01*
X153963891Y-109630871D01*
X153826580Y-109573995D01*
X153826572Y-109573993D01*
X153680816Y-109545000D01*
X153680812Y-109545000D01*
X153532188Y-109545000D01*
X153532183Y-109545000D01*
X153386427Y-109573993D01*
X153386419Y-109573995D01*
X153249108Y-109630871D01*
X153125535Y-109713439D01*
X153125528Y-109713445D01*
X153020445Y-109818528D01*
X153020439Y-109818535D01*
X152937871Y-109942108D01*
X152880995Y-110079419D01*
X152880993Y-110079427D01*
X152852000Y-110225183D01*
X151594066Y-110225183D01*
X151587026Y-110180737D01*
X151526233Y-109993638D01*
X151437013Y-109818535D01*
X151436925Y-109818362D01*
X151321294Y-109659210D01*
X151182190Y-109520106D01*
X151023038Y-109404475D01*
X150847757Y-109315165D01*
X150845245Y-109313885D01*
X150794449Y-109265910D01*
X150777654Y-109198089D01*
X150800191Y-109131955D01*
X150845245Y-109092915D01*
X150857485Y-109086677D01*
X151023038Y-109002325D01*
X151182190Y-108886694D01*
X151321294Y-108747590D01*
X151436925Y-108588438D01*
X151526235Y-108413157D01*
X151587026Y-108226062D01*
X151617800Y-108031766D01*
X151617800Y-107835033D01*
X151587026Y-107640737D01*
X151540485Y-107497500D01*
X151526235Y-107453643D01*
X151526233Y-107453640D01*
X151526233Y-107453638D01*
X151436924Y-107278361D01*
X151427986Y-107266059D01*
X151321294Y-107119210D01*
X151182190Y-106980106D01*
X151023038Y-106864475D01*
X150847761Y-106775166D01*
X150660662Y-106714373D01*
X150466366Y-106683600D01*
X150466361Y-106683600D01*
X150269639Y-106683600D01*
X150269634Y-106683600D01*
X150075337Y-106714373D01*
X149888238Y-106775166D01*
X149712961Y-106864475D01*
X149667244Y-106897691D01*
X149553810Y-106980106D01*
X149553808Y-106980108D01*
X149553807Y-106980108D01*
X149414708Y-107119207D01*
X149414708Y-107119208D01*
X149414706Y-107119210D01*
X149384367Y-107160968D01*
X149299075Y-107278361D01*
X149209766Y-107453638D01*
X149148973Y-107640737D01*
X149118200Y-107835033D01*
X143997799Y-107835033D01*
X143997799Y-107136228D01*
X143991391Y-107076617D01*
X143978687Y-107042557D01*
X143941097Y-106941771D01*
X143941093Y-106941764D01*
X143854847Y-106826555D01*
X143854844Y-106826552D01*
X143739635Y-106740306D01*
X143739628Y-106740302D01*
X143604782Y-106690008D01*
X143604783Y-106690008D01*
X143545183Y-106683601D01*
X143545181Y-106683600D01*
X143545173Y-106683600D01*
X143545164Y-106683600D01*
X141950829Y-106683600D01*
X141950823Y-106683601D01*
X141891216Y-106690008D01*
X141756371Y-106740302D01*
X141756364Y-106740306D01*
X141641155Y-106826552D01*
X141641152Y-106826555D01*
X141554906Y-106941764D01*
X141554902Y-106941771D01*
X141504608Y-107076617D01*
X141498322Y-107135091D01*
X141498201Y-107136223D01*
X141498200Y-107136235D01*
X134714584Y-107136235D01*
X134780629Y-107037390D01*
X134837505Y-106900080D01*
X134866500Y-106754312D01*
X134866500Y-106605688D01*
X134837505Y-106459920D01*
X134780629Y-106322610D01*
X134771810Y-106309412D01*
X134698060Y-106199035D01*
X134698054Y-106199028D01*
X134592971Y-106093945D01*
X134592964Y-106093939D01*
X134469391Y-106011371D01*
X134332080Y-105954495D01*
X134332072Y-105954493D01*
X134186316Y-105925500D01*
X134186312Y-105925500D01*
X134037688Y-105925500D01*
X134037683Y-105925500D01*
X133891927Y-105954493D01*
X133891919Y-105954495D01*
X133754608Y-106011371D01*
X133631035Y-106093939D01*
X133631028Y-106093945D01*
X133525945Y-106199028D01*
X133525939Y-106199035D01*
X133443371Y-106322608D01*
X133386495Y-106459919D01*
X133386493Y-106459927D01*
X133357500Y-106605683D01*
X130294499Y-106605683D01*
X130265505Y-106459920D01*
X130208629Y-106322610D01*
X130199810Y-106309412D01*
X130126060Y-106199035D01*
X130126054Y-106199028D01*
X130020971Y-106093945D01*
X130020964Y-106093939D01*
X129897391Y-106011371D01*
X129760080Y-105954495D01*
X129760072Y-105954493D01*
X129614316Y-105925500D01*
X129614312Y-105925500D01*
X129465688Y-105925500D01*
X129465683Y-105925500D01*
X129319927Y-105954493D01*
X129319919Y-105954495D01*
X129182608Y-106011371D01*
X129059035Y-106093939D01*
X129059028Y-106093945D01*
X128953945Y-106199028D01*
X128953939Y-106199035D01*
X128871371Y-106322608D01*
X128814495Y-106459919D01*
X128814493Y-106459927D01*
X128785500Y-106605683D01*
X125722499Y-106605683D01*
X125693505Y-106459920D01*
X125636629Y-106322610D01*
X125627810Y-106309412D01*
X125554060Y-106199035D01*
X125554054Y-106199028D01*
X125448971Y-106093945D01*
X125448964Y-106093939D01*
X125325391Y-106011371D01*
X125188080Y-105954495D01*
X125188072Y-105954493D01*
X125042316Y-105925500D01*
X125042312Y-105925500D01*
X124893688Y-105925500D01*
X124893683Y-105925500D01*
X124747927Y-105954493D01*
X124747919Y-105954495D01*
X124610608Y-106011371D01*
X124487035Y-106093939D01*
X124487028Y-106093945D01*
X124381945Y-106199028D01*
X124381939Y-106199035D01*
X124299371Y-106322608D01*
X124242495Y-106459919D01*
X124242493Y-106459927D01*
X124213500Y-106605683D01*
X117655511Y-106605683D01*
X117711410Y-106495975D01*
X117790474Y-106252639D01*
X117830500Y-105999930D01*
X117830500Y-105744070D01*
X117790474Y-105491361D01*
X117711410Y-105248025D01*
X117711410Y-105248024D01*
X117691364Y-105208683D01*
X146692500Y-105208683D01*
X146692500Y-105357316D01*
X146721493Y-105503072D01*
X146721495Y-105503080D01*
X146778371Y-105640391D01*
X146860939Y-105763964D01*
X146860945Y-105763971D01*
X146966028Y-105869054D01*
X146966035Y-105869060D01*
X147089608Y-105951628D01*
X147089609Y-105951628D01*
X147089610Y-105951629D01*
X147226920Y-106008505D01*
X147372683Y-106037499D01*
X147372687Y-106037500D01*
X147372688Y-106037500D01*
X147521313Y-106037500D01*
X147521314Y-106037499D01*
X147667080Y-106008505D01*
X147804390Y-105951629D01*
X147927966Y-105869059D01*
X148033059Y-105763966D01*
X148115629Y-105640390D01*
X148172505Y-105503080D01*
X148201500Y-105357312D01*
X148201500Y-105208688D01*
X148172505Y-105062920D01*
X148115629Y-104925610D01*
X148115628Y-104925608D01*
X148115627Y-104925606D01*
X148093931Y-104893135D01*
X155621500Y-104893135D01*
X155621500Y-106688870D01*
X155621501Y-106688876D01*
X155627908Y-106748483D01*
X155678202Y-106883328D01*
X155678206Y-106883335D01*
X155764452Y-106998544D01*
X155764455Y-106998547D01*
X155879664Y-107084793D01*
X155879671Y-107084797D01*
X156014517Y-107135091D01*
X156014516Y-107135091D01*
X156021444Y-107135835D01*
X156074127Y-107141500D01*
X157869872Y-107141499D01*
X157929483Y-107135091D01*
X158064331Y-107084796D01*
X158179546Y-106998546D01*
X158265796Y-106883331D01*
X158314810Y-106751916D01*
X158356681Y-106695984D01*
X158422145Y-106671566D01*
X158490418Y-106686417D01*
X158518673Y-106707569D01*
X158632213Y-106821109D01*
X158804179Y-106946048D01*
X158804181Y-106946049D01*
X158804184Y-106946051D01*
X158993588Y-107042557D01*
X159195757Y-107108246D01*
X159405713Y-107141500D01*
X159405714Y-107141500D01*
X159618286Y-107141500D01*
X159618287Y-107141500D01*
X159828243Y-107108246D01*
X160030412Y-107042557D01*
X160219816Y-106946051D01*
X160283101Y-106900072D01*
X160391786Y-106821109D01*
X160391788Y-106821106D01*
X160391792Y-106821104D01*
X160542104Y-106670792D01*
X160542106Y-106670788D01*
X160542109Y-106670786D01*
X160667048Y-106498820D01*
X160667047Y-106498820D01*
X160667051Y-106498816D01*
X160671514Y-106490054D01*
X160719488Y-106439259D01*
X160787308Y-106422463D01*
X160853444Y-106444999D01*
X160892484Y-106490054D01*
X160896591Y-106498115D01*
X160896951Y-106498820D01*
X161021890Y-106670786D01*
X161172213Y-106821109D01*
X161344179Y-106946048D01*
X161344181Y-106946049D01*
X161344184Y-106946051D01*
X161533588Y-107042557D01*
X161735757Y-107108246D01*
X161945713Y-107141500D01*
X161945714Y-107141500D01*
X162158286Y-107141500D01*
X162158287Y-107141500D01*
X162368243Y-107108246D01*
X162570412Y-107042557D01*
X162759816Y-106946051D01*
X162823101Y-106900072D01*
X162931786Y-106821109D01*
X162931788Y-106821106D01*
X162931792Y-106821104D01*
X163082104Y-106670792D01*
X163082106Y-106670788D01*
X163082109Y-106670786D01*
X163207048Y-106498820D01*
X163207047Y-106498820D01*
X163207051Y-106498816D01*
X163211514Y-106490054D01*
X163259488Y-106439259D01*
X163327308Y-106422463D01*
X163393444Y-106444999D01*
X163432484Y-106490054D01*
X163436591Y-106498115D01*
X163436951Y-106498820D01*
X163561890Y-106670786D01*
X163712213Y-106821109D01*
X163884179Y-106946048D01*
X163884181Y-106946049D01*
X163884184Y-106946051D01*
X164073588Y-107042557D01*
X164275757Y-107108246D01*
X164485713Y-107141500D01*
X164485714Y-107141500D01*
X164698286Y-107141500D01*
X164698287Y-107141500D01*
X164908243Y-107108246D01*
X165110412Y-107042557D01*
X165299816Y-106946051D01*
X165363101Y-106900072D01*
X165471786Y-106821109D01*
X165471788Y-106821106D01*
X165471792Y-106821104D01*
X165622104Y-106670792D01*
X165622106Y-106670788D01*
X165622109Y-106670786D01*
X165747048Y-106498820D01*
X165747047Y-106498820D01*
X165747051Y-106498816D01*
X165843557Y-106309412D01*
X165909246Y-106107243D01*
X165942500Y-105897287D01*
X165942500Y-105684713D01*
X165909246Y-105474757D01*
X165843557Y-105272588D01*
X165747051Y-105083184D01*
X165747049Y-105083181D01*
X165747048Y-105083179D01*
X165622109Y-104911213D01*
X165471786Y-104760890D01*
X165299820Y-104635951D01*
X165110414Y-104539444D01*
X165110413Y-104539443D01*
X165110412Y-104539443D01*
X164908243Y-104473754D01*
X164908241Y-104473753D01*
X164908240Y-104473753D01*
X164746957Y-104448208D01*
X164698287Y-104440500D01*
X164485713Y-104440500D01*
X164437042Y-104448208D01*
X164275760Y-104473753D01*
X164073585Y-104539444D01*
X163884179Y-104635951D01*
X163712213Y-104760890D01*
X163561890Y-104911213D01*
X163436949Y-105083182D01*
X163432484Y-105091946D01*
X163384509Y-105142742D01*
X163316688Y-105159536D01*
X163250553Y-105136998D01*
X163211516Y-105091946D01*
X163207050Y-105083182D01*
X163082109Y-104911213D01*
X162931786Y-104760890D01*
X162759820Y-104635951D01*
X162570414Y-104539444D01*
X162570413Y-104539443D01*
X162570412Y-104539443D01*
X162368243Y-104473754D01*
X162368241Y-104473753D01*
X162368240Y-104473753D01*
X162206957Y-104448208D01*
X162158287Y-104440500D01*
X161945713Y-104440500D01*
X161897042Y-104448208D01*
X161735760Y-104473753D01*
X161533585Y-104539444D01*
X161344179Y-104635951D01*
X161172213Y-104760890D01*
X161021890Y-104911213D01*
X160896949Y-105083182D01*
X160892484Y-105091946D01*
X160844509Y-105142742D01*
X160776688Y-105159536D01*
X160710553Y-105136998D01*
X160671516Y-105091946D01*
X160667050Y-105083182D01*
X160542109Y-104911213D01*
X160391786Y-104760890D01*
X160219820Y-104635951D01*
X160030414Y-104539444D01*
X160030413Y-104539443D01*
X160030412Y-104539443D01*
X159828243Y-104473754D01*
X159828241Y-104473753D01*
X159828240Y-104473753D01*
X159666957Y-104448208D01*
X159618287Y-104440500D01*
X159405713Y-104440500D01*
X159357042Y-104448208D01*
X159195760Y-104473753D01*
X158993585Y-104539444D01*
X158804179Y-104635951D01*
X158632215Y-104760889D01*
X158518673Y-104874431D01*
X158457350Y-104907915D01*
X158387658Y-104902931D01*
X158331725Y-104861059D01*
X158314810Y-104830082D01*
X158265797Y-104698671D01*
X158265793Y-104698664D01*
X158179547Y-104583455D01*
X158179544Y-104583452D01*
X158064335Y-104497206D01*
X158064328Y-104497202D01*
X157929482Y-104446908D01*
X157929483Y-104446908D01*
X157869883Y-104440501D01*
X157869881Y-104440500D01*
X157869873Y-104440500D01*
X157869864Y-104440500D01*
X156074129Y-104440500D01*
X156074123Y-104440501D01*
X156014516Y-104446908D01*
X155879671Y-104497202D01*
X155879664Y-104497206D01*
X155764455Y-104583452D01*
X155764452Y-104583455D01*
X155678206Y-104698664D01*
X155678202Y-104698671D01*
X155627908Y-104833517D01*
X155621501Y-104893116D01*
X155621500Y-104893135D01*
X148093931Y-104893135D01*
X148033060Y-104802035D01*
X148033054Y-104802028D01*
X147927971Y-104696945D01*
X147927964Y-104696939D01*
X147804391Y-104614371D01*
X147667080Y-104557495D01*
X147667072Y-104557493D01*
X147521316Y-104528500D01*
X147521312Y-104528500D01*
X147372688Y-104528500D01*
X147372683Y-104528500D01*
X147226927Y-104557493D01*
X147226919Y-104557495D01*
X147089608Y-104614371D01*
X146966035Y-104696939D01*
X146966028Y-104696945D01*
X146860945Y-104802028D01*
X146860939Y-104802035D01*
X146778371Y-104925608D01*
X146721495Y-105062919D01*
X146721493Y-105062927D01*
X146692500Y-105208683D01*
X117691364Y-105208683D01*
X117657765Y-105142742D01*
X117595252Y-105020053D01*
X117535099Y-104937259D01*
X117444867Y-104813064D01*
X117444863Y-104813059D01*
X117263940Y-104632136D01*
X117263935Y-104632132D01*
X117056950Y-104481750D01*
X117056949Y-104481749D01*
X117056947Y-104481748D01*
X116828975Y-104365590D01*
X116828972Y-104365588D01*
X116585640Y-104286526D01*
X116486875Y-104270883D01*
X143263500Y-104270883D01*
X143263500Y-104419516D01*
X143292493Y-104565272D01*
X143292495Y-104565280D01*
X143349371Y-104702591D01*
X143431939Y-104826164D01*
X143431945Y-104826171D01*
X143537028Y-104931254D01*
X143537035Y-104931260D01*
X143660608Y-105013828D01*
X143660609Y-105013828D01*
X143660610Y-105013829D01*
X143797920Y-105070705D01*
X143904706Y-105091946D01*
X143943683Y-105099699D01*
X143943687Y-105099700D01*
X143943688Y-105099700D01*
X144092313Y-105099700D01*
X144092314Y-105099699D01*
X144116388Y-105094910D01*
X144186432Y-105080979D01*
X144212323Y-105075828D01*
X144238080Y-105070705D01*
X144375390Y-105013829D01*
X144498966Y-104931259D01*
X144559428Y-104870796D01*
X144620749Y-104837313D01*
X144671297Y-104836862D01*
X144705688Y-104843703D01*
X144705689Y-104843703D01*
X144854313Y-104843703D01*
X144854314Y-104843702D01*
X145000080Y-104814708D01*
X145137390Y-104757832D01*
X145260966Y-104675262D01*
X145366059Y-104570169D01*
X145448629Y-104446593D01*
X145505505Y-104309283D01*
X145534500Y-104163515D01*
X145534500Y-104014891D01*
X145505505Y-103869123D01*
X145479545Y-103806453D01*
X145472077Y-103736985D01*
X145479547Y-103711546D01*
X145505505Y-103648880D01*
X145534500Y-103503112D01*
X145534500Y-103354488D01*
X145505505Y-103208720D01*
X145505498Y-103208705D01*
X145504830Y-103206498D01*
X145504818Y-103205268D01*
X145504317Y-103202745D01*
X145504795Y-103202649D01*
X145504201Y-103136631D01*
X145541444Y-103077515D01*
X145599297Y-103048876D01*
X145622931Y-103044174D01*
X145660483Y-103036705D01*
X145797793Y-102979829D01*
X145921369Y-102897259D01*
X146026462Y-102792166D01*
X146109032Y-102668590D01*
X146165908Y-102531280D01*
X146194903Y-102385512D01*
X146194903Y-102236888D01*
X146194902Y-102236883D01*
X152915500Y-102236883D01*
X152915500Y-102385516D01*
X152944493Y-102531272D01*
X152944495Y-102531280D01*
X153001371Y-102668591D01*
X153083939Y-102792164D01*
X153083945Y-102792171D01*
X153189028Y-102897254D01*
X153189035Y-102897260D01*
X153312608Y-102979828D01*
X153312609Y-102979828D01*
X153312610Y-102979829D01*
X153449920Y-103036705D01*
X153583371Y-103063250D01*
X153595683Y-103065699D01*
X153595687Y-103065700D01*
X153595688Y-103065700D01*
X153744313Y-103065700D01*
X153744314Y-103065699D01*
X153890080Y-103036705D01*
X154027390Y-102979829D01*
X154150966Y-102897259D01*
X154256059Y-102792166D01*
X154338629Y-102668590D01*
X154395505Y-102531280D01*
X154424500Y-102385512D01*
X154424500Y-102236888D01*
X154395505Y-102091120D01*
X154338629Y-101953810D01*
X154321049Y-101927500D01*
X154256060Y-101830235D01*
X154256054Y-101830228D01*
X154150971Y-101725145D01*
X154150964Y-101725139D01*
X154027391Y-101642571D01*
X153890080Y-101585695D01*
X153890072Y-101585693D01*
X153744316Y-101556700D01*
X153744312Y-101556700D01*
X153595688Y-101556700D01*
X153595683Y-101556700D01*
X153449927Y-101585693D01*
X153449919Y-101585695D01*
X153312608Y-101642571D01*
X153189035Y-101725139D01*
X153189028Y-101725145D01*
X153083945Y-101830228D01*
X153083939Y-101830235D01*
X153001371Y-101953808D01*
X152944495Y-102091119D01*
X152944493Y-102091127D01*
X152915500Y-102236883D01*
X146194902Y-102236883D01*
X146165908Y-102091120D01*
X146109032Y-101953810D01*
X146091452Y-101927500D01*
X146026463Y-101830235D01*
X146026457Y-101830228D01*
X145921374Y-101725145D01*
X145921367Y-101725139D01*
X145797794Y-101642571D01*
X145660483Y-101585695D01*
X145660475Y-101585693D01*
X145514719Y-101556700D01*
X145514715Y-101556700D01*
X145366091Y-101556700D01*
X145366086Y-101556700D01*
X145220330Y-101585693D01*
X145220318Y-101585696D01*
X145157653Y-101611653D01*
X145088184Y-101619122D01*
X145062748Y-101611653D01*
X145000080Y-101585695D01*
X145000072Y-101585693D01*
X144854316Y-101556700D01*
X144854312Y-101556700D01*
X144705688Y-101556700D01*
X144705683Y-101556700D01*
X144559927Y-101585693D01*
X144559915Y-101585696D01*
X144497250Y-101611653D01*
X144427781Y-101619122D01*
X144402345Y-101611653D01*
X144339677Y-101585695D01*
X144339669Y-101585693D01*
X144193913Y-101556700D01*
X144193909Y-101556700D01*
X144045285Y-101556700D01*
X144045280Y-101556700D01*
X143899524Y-101585693D01*
X143899516Y-101585695D01*
X143762205Y-101642571D01*
X143638632Y-101725139D01*
X143638625Y-101725145D01*
X143533542Y-101830228D01*
X143533536Y-101830235D01*
X143450968Y-101953808D01*
X143394092Y-102091119D01*
X143394090Y-102091127D01*
X143365097Y-102236883D01*
X143365097Y-102385516D01*
X143394090Y-102531272D01*
X143394092Y-102531280D01*
X143450968Y-102668591D01*
X143533536Y-102792164D01*
X143533542Y-102792171D01*
X143638625Y-102897254D01*
X143638632Y-102897260D01*
X143762205Y-102979828D01*
X143762206Y-102979828D01*
X143762207Y-102979829D01*
X143899517Y-103036705D01*
X143924438Y-103041662D01*
X143960702Y-103048876D01*
X144022613Y-103081261D01*
X144057187Y-103141976D01*
X144055292Y-103202667D01*
X144055683Y-103202745D01*
X144055216Y-103205089D01*
X144055173Y-103206485D01*
X144054493Y-103208725D01*
X144025500Y-103354483D01*
X144025500Y-103472662D01*
X144005815Y-103539701D01*
X143953011Y-103585456D01*
X143925691Y-103594279D01*
X143797927Y-103619693D01*
X143797919Y-103619695D01*
X143660608Y-103676571D01*
X143537035Y-103759139D01*
X143537028Y-103759145D01*
X143431945Y-103864228D01*
X143431939Y-103864235D01*
X143349371Y-103987808D01*
X143292495Y-104125119D01*
X143292493Y-104125127D01*
X143263500Y-104270883D01*
X116486875Y-104270883D01*
X116459284Y-104266513D01*
X116332930Y-104246500D01*
X116077070Y-104246500D01*
X115992833Y-104259842D01*
X115824359Y-104286526D01*
X115581027Y-104365588D01*
X115581024Y-104365589D01*
X115353049Y-104481750D01*
X115146064Y-104632132D01*
X115146059Y-104632136D01*
X114965136Y-104813059D01*
X114965132Y-104813064D01*
X114814750Y-105020049D01*
X114698589Y-105248024D01*
X114698588Y-105248027D01*
X114619526Y-105491359D01*
X114619526Y-105491361D01*
X114579500Y-105744070D01*
X111307916Y-105744070D01*
X111332503Y-105684713D01*
X111388689Y-105549065D01*
X111388691Y-105549061D01*
X111461687Y-105276637D01*
X111498500Y-104997017D01*
X111498500Y-104714983D01*
X111496352Y-104698671D01*
X111475390Y-104539444D01*
X111461687Y-104435363D01*
X111388691Y-104162939D01*
X111280762Y-103902374D01*
X111280760Y-103902371D01*
X111280758Y-103902366D01*
X111139749Y-103658133D01*
X111139745Y-103658126D01*
X111020799Y-103503112D01*
X110968055Y-103434375D01*
X110968049Y-103434368D01*
X110768631Y-103234950D01*
X110768624Y-103234944D01*
X110544882Y-103063261D01*
X110544880Y-103063259D01*
X110544874Y-103063255D01*
X110544869Y-103063252D01*
X110544866Y-103063250D01*
X110300633Y-102922241D01*
X110300622Y-102922236D01*
X110040065Y-102814310D01*
X109767634Y-102741312D01*
X109488024Y-102704500D01*
X109488017Y-102704500D01*
X109205983Y-102704500D01*
X109205975Y-102704500D01*
X108926365Y-102741312D01*
X108653934Y-102814310D01*
X108393377Y-102922236D01*
X108393366Y-102922241D01*
X108149133Y-103063250D01*
X108149117Y-103063261D01*
X107925375Y-103234944D01*
X107925368Y-103234950D01*
X107725950Y-103434368D01*
X107725944Y-103434375D01*
X107554261Y-103658117D01*
X107554250Y-103658133D01*
X107413241Y-103902366D01*
X107413236Y-103902377D01*
X107305310Y-104162934D01*
X107232312Y-104435365D01*
X107195500Y-104714975D01*
X93726500Y-104714975D01*
X93726500Y-100183713D01*
X95931500Y-100183713D01*
X95931500Y-100396287D01*
X95964754Y-100606243D01*
X96004842Y-100729622D01*
X96030444Y-100808414D01*
X96126951Y-100997820D01*
X96251890Y-101169786D01*
X96402213Y-101320109D01*
X96574179Y-101445048D01*
X96574181Y-101445049D01*
X96574184Y-101445051D01*
X96763588Y-101541557D01*
X96965757Y-101607246D01*
X97175713Y-101640500D01*
X97175714Y-101640500D01*
X97388286Y-101640500D01*
X97388287Y-101640500D01*
X97598243Y-101607246D01*
X97800412Y-101541557D01*
X97989816Y-101445051D01*
X98011789Y-101429086D01*
X98161786Y-101320109D01*
X98161788Y-101320106D01*
X98161792Y-101320104D01*
X98312104Y-101169792D01*
X98312106Y-101169788D01*
X98312109Y-101169786D01*
X98437048Y-100997820D01*
X98437047Y-100997820D01*
X98437051Y-100997816D01*
X98533557Y-100808412D01*
X98599246Y-100606243D01*
X98632500Y-100396287D01*
X98632500Y-100183713D01*
X98599246Y-99973757D01*
X98533557Y-99771588D01*
X98437051Y-99582184D01*
X98437049Y-99582181D01*
X98437048Y-99582179D01*
X98312109Y-99410213D01*
X98161786Y-99259890D01*
X97989820Y-99134951D01*
X97800414Y-99038444D01*
X97800413Y-99038443D01*
X97800412Y-99038443D01*
X97598243Y-98972754D01*
X97598241Y-98972753D01*
X97598240Y-98972753D01*
X97436957Y-98947208D01*
X97388287Y-98939500D01*
X97175713Y-98939500D01*
X97127042Y-98947208D01*
X96965760Y-98972753D01*
X96763585Y-99038444D01*
X96574179Y-99134951D01*
X96402213Y-99259890D01*
X96251890Y-99410213D01*
X96126951Y-99582179D01*
X96030444Y-99771585D01*
X95964753Y-99973760D01*
X95945692Y-100094109D01*
X95931500Y-100183713D01*
X93726500Y-100183713D01*
X93726500Y-94392135D01*
X95931500Y-94392135D01*
X95931500Y-96187870D01*
X95931501Y-96187876D01*
X95937908Y-96247483D01*
X95988202Y-96382328D01*
X95988206Y-96382335D01*
X96074452Y-96497544D01*
X96074455Y-96497547D01*
X96189664Y-96583793D01*
X96189671Y-96583797D01*
X96324517Y-96634091D01*
X96324516Y-96634091D01*
X96331444Y-96634835D01*
X96384127Y-96640500D01*
X98179872Y-96640499D01*
X98239483Y-96634091D01*
X98374331Y-96583796D01*
X98489546Y-96497546D01*
X98575796Y-96382331D01*
X98626091Y-96247483D01*
X98632500Y-96187873D01*
X98632499Y-95570975D01*
X107195500Y-95570975D01*
X107195500Y-95853024D01*
X107232312Y-96132634D01*
X107305310Y-96405065D01*
X107413236Y-96665622D01*
X107413241Y-96665633D01*
X107554250Y-96909866D01*
X107554261Y-96909882D01*
X107725944Y-97133624D01*
X107725950Y-97133631D01*
X107925368Y-97333049D01*
X107925374Y-97333054D01*
X108149126Y-97504745D01*
X108149133Y-97504749D01*
X108377526Y-97636613D01*
X108425742Y-97687180D01*
X108438964Y-97755787D01*
X108412996Y-97820652D01*
X108377526Y-97851387D01*
X108149133Y-97983250D01*
X108149117Y-97983261D01*
X107925375Y-98154944D01*
X107925368Y-98154950D01*
X107725950Y-98354368D01*
X107725944Y-98354375D01*
X107554261Y-98578117D01*
X107554250Y-98578133D01*
X107413241Y-98822366D01*
X107413236Y-98822377D01*
X107305310Y-99082934D01*
X107232312Y-99355365D01*
X107195500Y-99634975D01*
X107195500Y-99917024D01*
X107232312Y-100196634D01*
X107305310Y-100469065D01*
X107413236Y-100729622D01*
X107413241Y-100729633D01*
X107554250Y-100973866D01*
X107554261Y-100973882D01*
X107725944Y-101197624D01*
X107725950Y-101197631D01*
X107925368Y-101397049D01*
X107925374Y-101397054D01*
X108149126Y-101568745D01*
X108149133Y-101568749D01*
X108393366Y-101709758D01*
X108393371Y-101709760D01*
X108393374Y-101709762D01*
X108653939Y-101817691D01*
X108926363Y-101890687D01*
X109158955Y-101921308D01*
X109204562Y-101927313D01*
X109205983Y-101927500D01*
X109205990Y-101927500D01*
X109488010Y-101927500D01*
X109488017Y-101927500D01*
X109767637Y-101890687D01*
X110040061Y-101817691D01*
X110300626Y-101709762D01*
X110544874Y-101568745D01*
X110768626Y-101397054D01*
X110968054Y-101197626D01*
X111139745Y-100973874D01*
X111280762Y-100729626D01*
X111388691Y-100469061D01*
X111461687Y-100196637D01*
X111498500Y-99917017D01*
X111498500Y-99634983D01*
X111461687Y-99355363D01*
X111388691Y-99082939D01*
X111280762Y-98822374D01*
X111280760Y-98822371D01*
X111280758Y-98822366D01*
X111139749Y-98578133D01*
X111139745Y-98578126D01*
X110969644Y-98356446D01*
X110968055Y-98354375D01*
X110968049Y-98354368D01*
X110779816Y-98166135D01*
X151344000Y-98166135D01*
X151344000Y-99961870D01*
X151344001Y-99961876D01*
X151350408Y-100021483D01*
X151400702Y-100156328D01*
X151400706Y-100156335D01*
X151486952Y-100271544D01*
X151486955Y-100271547D01*
X151602164Y-100357793D01*
X151602171Y-100357797D01*
X151737017Y-100408091D01*
X151737016Y-100408091D01*
X151743944Y-100408835D01*
X151796627Y-100414500D01*
X153592372Y-100414499D01*
X153651983Y-100408091D01*
X153786831Y-100357796D01*
X153902046Y-100271546D01*
X153988296Y-100156331D01*
X154037310Y-100024916D01*
X154079181Y-99968984D01*
X154144645Y-99944566D01*
X154212918Y-99959417D01*
X154241173Y-99980569D01*
X154354713Y-100094109D01*
X154526679Y-100219048D01*
X154526681Y-100219049D01*
X154526684Y-100219051D01*
X154716088Y-100315557D01*
X154918257Y-100381246D01*
X155128213Y-100414500D01*
X155128214Y-100414500D01*
X155340786Y-100414500D01*
X155340787Y-100414500D01*
X155550743Y-100381246D01*
X155752912Y-100315557D01*
X155942316Y-100219051D01*
X156028638Y-100156335D01*
X156114286Y-100094109D01*
X156114288Y-100094106D01*
X156114292Y-100094104D01*
X156264604Y-99943792D01*
X156264606Y-99943788D01*
X156264609Y-99943786D01*
X156389548Y-99771820D01*
X156389547Y-99771820D01*
X156389551Y-99771816D01*
X156394014Y-99763054D01*
X156441988Y-99712259D01*
X156509808Y-99695463D01*
X156575944Y-99717999D01*
X156614986Y-99763056D01*
X156619451Y-99771820D01*
X156744390Y-99943786D01*
X156894713Y-100094109D01*
X157066679Y-100219048D01*
X157066681Y-100219049D01*
X157066684Y-100219051D01*
X157256088Y-100315557D01*
X157458257Y-100381246D01*
X157668213Y-100414500D01*
X157668214Y-100414500D01*
X157880786Y-100414500D01*
X157880787Y-100414500D01*
X158090743Y-100381246D01*
X158292912Y-100315557D01*
X158482316Y-100219051D01*
X158568638Y-100156335D01*
X158654286Y-100094109D01*
X158654288Y-100094106D01*
X158654292Y-100094104D01*
X158804604Y-99943792D01*
X158804606Y-99943788D01*
X158804609Y-99943786D01*
X158929548Y-99771820D01*
X158929547Y-99771820D01*
X158929551Y-99771816D01*
X158934014Y-99763054D01*
X158981988Y-99712259D01*
X159049808Y-99695463D01*
X159115944Y-99717999D01*
X159154986Y-99763056D01*
X159159451Y-99771820D01*
X159284390Y-99943786D01*
X159434713Y-100094109D01*
X159606679Y-100219048D01*
X159606681Y-100219049D01*
X159606684Y-100219051D01*
X159796088Y-100315557D01*
X159998257Y-100381246D01*
X160208213Y-100414500D01*
X160208214Y-100414500D01*
X160420786Y-100414500D01*
X160420787Y-100414500D01*
X160630743Y-100381246D01*
X160832912Y-100315557D01*
X161022316Y-100219051D01*
X161108638Y-100156335D01*
X161194286Y-100094109D01*
X161194288Y-100094106D01*
X161194292Y-100094104D01*
X161344604Y-99943792D01*
X161344606Y-99943788D01*
X161344609Y-99943786D01*
X161469548Y-99771820D01*
X161469547Y-99771820D01*
X161469551Y-99771816D01*
X161474014Y-99763054D01*
X161521988Y-99712259D01*
X161589808Y-99695463D01*
X161655944Y-99717999D01*
X161694986Y-99763056D01*
X161699451Y-99771820D01*
X161824390Y-99943786D01*
X161974713Y-100094109D01*
X162146679Y-100219048D01*
X162146681Y-100219049D01*
X162146684Y-100219051D01*
X162336088Y-100315557D01*
X162538257Y-100381246D01*
X162748213Y-100414500D01*
X162748214Y-100414500D01*
X162960786Y-100414500D01*
X162960787Y-100414500D01*
X163170743Y-100381246D01*
X163372912Y-100315557D01*
X163562316Y-100219051D01*
X163648638Y-100156335D01*
X163734286Y-100094109D01*
X163734288Y-100094106D01*
X163734292Y-100094104D01*
X163884604Y-99943792D01*
X163884606Y-99943788D01*
X163884609Y-99943786D01*
X164009548Y-99771820D01*
X164009547Y-99771820D01*
X164009551Y-99771816D01*
X164014014Y-99763054D01*
X164061988Y-99712259D01*
X164129808Y-99695463D01*
X164195944Y-99717999D01*
X164234986Y-99763056D01*
X164239451Y-99771820D01*
X164364390Y-99943786D01*
X164514713Y-100094109D01*
X164686679Y-100219048D01*
X164686681Y-100219049D01*
X164686684Y-100219051D01*
X164876088Y-100315557D01*
X165078257Y-100381246D01*
X165288213Y-100414500D01*
X165288214Y-100414500D01*
X165500786Y-100414500D01*
X165500787Y-100414500D01*
X165710743Y-100381246D01*
X165912912Y-100315557D01*
X166102316Y-100219051D01*
X166188638Y-100156335D01*
X166274286Y-100094109D01*
X166274288Y-100094106D01*
X166274292Y-100094104D01*
X166424604Y-99943792D01*
X166424606Y-99943788D01*
X166424609Y-99943786D01*
X166549548Y-99771820D01*
X166549547Y-99771820D01*
X166549551Y-99771816D01*
X166554014Y-99763054D01*
X166601988Y-99712259D01*
X166669808Y-99695463D01*
X166735944Y-99717999D01*
X166774986Y-99763056D01*
X166779451Y-99771820D01*
X166904390Y-99943786D01*
X167054713Y-100094109D01*
X167226679Y-100219048D01*
X167226681Y-100219049D01*
X167226684Y-100219051D01*
X167416088Y-100315557D01*
X167618257Y-100381246D01*
X167828213Y-100414500D01*
X167828214Y-100414500D01*
X168040786Y-100414500D01*
X168040787Y-100414500D01*
X168250743Y-100381246D01*
X168267811Y-100375699D01*
X168337650Y-100373704D01*
X168397483Y-100409784D01*
X168428312Y-100472485D01*
X168430128Y-100493631D01*
X168430128Y-100551944D01*
X168459121Y-100697700D01*
X168459123Y-100697708D01*
X168515998Y-100835016D01*
X168569376Y-100914903D01*
X168590253Y-100981581D01*
X168571768Y-101048961D01*
X168519789Y-101095650D01*
X168490464Y-101105410D01*
X168379445Y-101127493D01*
X168379437Y-101127495D01*
X168242126Y-101184371D01*
X168118553Y-101266939D01*
X168118546Y-101266945D01*
X168013463Y-101372028D01*
X168013457Y-101372035D01*
X167930889Y-101495608D01*
X167874013Y-101632919D01*
X167874011Y-101632927D01*
X167845018Y-101778683D01*
X167845018Y-101927316D01*
X167874011Y-102073072D01*
X167874013Y-102073080D01*
X167930889Y-102210391D01*
X168013457Y-102333964D01*
X168013463Y-102333971D01*
X168118546Y-102439054D01*
X168118553Y-102439060D01*
X168184395Y-102483054D01*
X168190955Y-102490903D01*
X168200102Y-102495495D01*
X168212983Y-102517261D01*
X168229201Y-102536666D01*
X168230476Y-102546819D01*
X168235687Y-102555624D01*
X168234756Y-102580897D01*
X168237908Y-102605991D01*
X168233492Y-102615220D01*
X168233116Y-102625446D01*
X168218668Y-102646203D01*
X168207754Y-102669018D01*
X168197985Y-102675922D01*
X168193203Y-102682794D01*
X168173636Y-102693132D01*
X168162830Y-102700770D01*
X168156898Y-102703219D01*
X168156517Y-102703295D01*
X168093991Y-102729194D01*
X168093720Y-102729306D01*
X168059102Y-102732988D01*
X168024378Y-102736722D01*
X168024279Y-102736693D01*
X168024242Y-102736697D01*
X168024170Y-102736661D01*
X167998942Y-102729253D01*
X167936274Y-102703295D01*
X167936266Y-102703293D01*
X167790510Y-102674300D01*
X167790506Y-102674300D01*
X167641882Y-102674300D01*
X167641877Y-102674300D01*
X167496121Y-102703293D01*
X167496109Y-102703296D01*
X167433444Y-102729253D01*
X167363975Y-102736722D01*
X167338539Y-102729253D01*
X167275871Y-102703295D01*
X167275863Y-102703293D01*
X167130107Y-102674300D01*
X167130103Y-102674300D01*
X166981479Y-102674300D01*
X166981474Y-102674300D01*
X166835718Y-102703293D01*
X166835706Y-102703296D01*
X166773041Y-102729253D01*
X166703572Y-102736722D01*
X166678136Y-102729253D01*
X166615468Y-102703295D01*
X166615460Y-102703293D01*
X166469704Y-102674300D01*
X166469700Y-102674300D01*
X166321076Y-102674300D01*
X166321071Y-102674300D01*
X166175315Y-102703293D01*
X166175307Y-102703295D01*
X166037996Y-102760171D01*
X165914423Y-102842739D01*
X165914416Y-102842745D01*
X165809333Y-102947828D01*
X165809327Y-102947835D01*
X165726759Y-103071408D01*
X165669883Y-103208719D01*
X165669881Y-103208727D01*
X165640888Y-103354483D01*
X165640888Y-103503116D01*
X165669881Y-103648872D01*
X165669883Y-103648880D01*
X165726759Y-103786191D01*
X165809327Y-103909764D01*
X165809333Y-103909771D01*
X165914416Y-104014854D01*
X165914423Y-104014860D01*
X166037996Y-104097428D01*
X166037997Y-104097428D01*
X166037998Y-104097429D01*
X166175308Y-104154305D01*
X166321071Y-104183299D01*
X166321075Y-104183300D01*
X166321076Y-104183300D01*
X166469701Y-104183300D01*
X166469702Y-104183299D01*
X166615468Y-104154305D01*
X166678134Y-104128346D01*
X166747604Y-104120877D01*
X166773041Y-104128345D01*
X166835711Y-104154305D01*
X166981474Y-104183299D01*
X166981478Y-104183300D01*
X166981479Y-104183300D01*
X167130104Y-104183300D01*
X167130105Y-104183299D01*
X167275871Y-104154305D01*
X167338537Y-104128346D01*
X167408007Y-104120877D01*
X167433444Y-104128345D01*
X167496114Y-104154305D01*
X167641877Y-104183299D01*
X167641881Y-104183300D01*
X167641882Y-104183300D01*
X167790507Y-104183300D01*
X167790508Y-104183299D01*
X167936274Y-104154305D01*
X167998940Y-104128346D01*
X168068410Y-104120877D01*
X168093847Y-104128345D01*
X168156517Y-104154305D01*
X168302280Y-104183299D01*
X168302284Y-104183300D01*
X168302285Y-104183300D01*
X168450910Y-104183300D01*
X168450911Y-104183299D01*
X168596677Y-104154305D01*
X168659343Y-104128346D01*
X168728813Y-104120877D01*
X168754250Y-104128345D01*
X168816920Y-104154305D01*
X168962683Y-104183299D01*
X168962687Y-104183300D01*
X168962688Y-104183300D01*
X169111313Y-104183300D01*
X169111314Y-104183299D01*
X169257080Y-104154305D01*
X169394390Y-104097429D01*
X169517966Y-104014859D01*
X169623059Y-103909766D01*
X169705629Y-103786190D01*
X169762505Y-103648880D01*
X169791500Y-103503112D01*
X169791500Y-103354488D01*
X169762505Y-103208720D01*
X169705629Y-103071410D01*
X169690572Y-103048876D01*
X169623060Y-102947835D01*
X169623054Y-102947828D01*
X169517971Y-102842745D01*
X169517964Y-102842739D01*
X169394391Y-102760171D01*
X169257080Y-102703295D01*
X169257072Y-102703293D01*
X169109867Y-102674012D01*
X169047956Y-102641627D01*
X169013382Y-102580912D01*
X169017121Y-102511142D01*
X169057988Y-102454470D01*
X169065154Y-102449301D01*
X169080484Y-102439059D01*
X169185577Y-102333966D01*
X169268147Y-102210390D01*
X169325023Y-102073080D01*
X169354018Y-101927312D01*
X169354018Y-101778688D01*
X169325023Y-101632920D01*
X169268147Y-101495610D01*
X169268146Y-101495608D01*
X169268146Y-101495607D01*
X169214770Y-101415724D01*
X169193892Y-101349047D01*
X169212377Y-101281667D01*
X169264356Y-101234977D01*
X169293671Y-101225219D01*
X169404708Y-101203133D01*
X169542018Y-101146257D01*
X169665594Y-101063687D01*
X169770687Y-100958594D01*
X169853257Y-100835018D01*
X169910133Y-100697708D01*
X169939128Y-100551940D01*
X169939128Y-100480717D01*
X169958813Y-100413678D01*
X170011617Y-100367923D01*
X170080775Y-100357979D01*
X170101433Y-100362782D01*
X170158257Y-100381246D01*
X170368213Y-100414500D01*
X170368214Y-100414500D01*
X170580786Y-100414500D01*
X170580787Y-100414500D01*
X170790743Y-100381246D01*
X170992912Y-100315557D01*
X171182316Y-100219051D01*
X171268638Y-100156335D01*
X171354286Y-100094109D01*
X171354288Y-100094106D01*
X171354292Y-100094104D01*
X171504604Y-99943792D01*
X171504606Y-99943788D01*
X171504609Y-99943786D01*
X171629548Y-99771820D01*
X171629547Y-99771820D01*
X171629551Y-99771816D01*
X171634014Y-99763054D01*
X171681988Y-99712259D01*
X171749808Y-99695463D01*
X171815944Y-99717999D01*
X171854986Y-99763056D01*
X171859451Y-99771820D01*
X171984390Y-99943786D01*
X172134713Y-100094109D01*
X172306679Y-100219048D01*
X172306681Y-100219049D01*
X172306684Y-100219051D01*
X172496088Y-100315557D01*
X172698257Y-100381246D01*
X172908213Y-100414500D01*
X172908214Y-100414500D01*
X173120786Y-100414500D01*
X173120787Y-100414500D01*
X173330743Y-100381246D01*
X173532912Y-100315557D01*
X173722316Y-100219051D01*
X173808638Y-100156335D01*
X173894286Y-100094109D01*
X173894288Y-100094106D01*
X173894292Y-100094104D01*
X174044604Y-99943792D01*
X174044606Y-99943788D01*
X174044609Y-99943786D01*
X174169548Y-99771820D01*
X174169547Y-99771820D01*
X174169551Y-99771816D01*
X174174014Y-99763054D01*
X174221988Y-99712259D01*
X174289808Y-99695463D01*
X174355944Y-99717999D01*
X174394986Y-99763056D01*
X174399451Y-99771820D01*
X174524390Y-99943786D01*
X174674713Y-100094109D01*
X174846679Y-100219048D01*
X174846681Y-100219049D01*
X174846684Y-100219051D01*
X175036088Y-100315557D01*
X175238257Y-100381246D01*
X175448213Y-100414500D01*
X175448214Y-100414500D01*
X175660786Y-100414500D01*
X175660787Y-100414500D01*
X175870743Y-100381246D01*
X176072912Y-100315557D01*
X176262316Y-100219051D01*
X176348638Y-100156335D01*
X176434286Y-100094109D01*
X176434288Y-100094106D01*
X176434292Y-100094104D01*
X176584604Y-99943792D01*
X176584606Y-99943788D01*
X176584609Y-99943786D01*
X176709548Y-99771820D01*
X176709547Y-99771820D01*
X176709551Y-99771816D01*
X176714014Y-99763054D01*
X176761988Y-99712259D01*
X176829808Y-99695463D01*
X176895944Y-99717999D01*
X176934986Y-99763056D01*
X176939451Y-99771820D01*
X177064390Y-99943786D01*
X177214713Y-100094109D01*
X177386679Y-100219048D01*
X177386681Y-100219049D01*
X177386684Y-100219051D01*
X177576088Y-100315557D01*
X177778257Y-100381246D01*
X177988213Y-100414500D01*
X177988214Y-100414500D01*
X178200786Y-100414500D01*
X178200787Y-100414500D01*
X178410743Y-100381246D01*
X178612912Y-100315557D01*
X178802316Y-100219051D01*
X178888638Y-100156335D01*
X178974286Y-100094109D01*
X178974288Y-100094106D01*
X178974292Y-100094104D01*
X179124604Y-99943792D01*
X179124606Y-99943788D01*
X179124609Y-99943786D01*
X179249548Y-99771820D01*
X179249547Y-99771820D01*
X179249551Y-99771816D01*
X179254014Y-99763054D01*
X179301988Y-99712259D01*
X179369808Y-99695463D01*
X179435944Y-99717999D01*
X179474986Y-99763056D01*
X179479451Y-99771820D01*
X179604390Y-99943786D01*
X179754713Y-100094109D01*
X179926679Y-100219048D01*
X179926681Y-100219049D01*
X179926684Y-100219051D01*
X180116088Y-100315557D01*
X180318257Y-100381246D01*
X180528213Y-100414500D01*
X180528214Y-100414500D01*
X180740786Y-100414500D01*
X180740787Y-100414500D01*
X180950743Y-100381246D01*
X181152912Y-100315557D01*
X181342316Y-100219051D01*
X181428638Y-100156335D01*
X181514286Y-100094109D01*
X181514288Y-100094106D01*
X181514292Y-100094104D01*
X181664604Y-99943792D01*
X181664606Y-99943788D01*
X181664609Y-99943786D01*
X181789548Y-99771820D01*
X181789547Y-99771820D01*
X181789551Y-99771816D01*
X181794014Y-99763054D01*
X181841988Y-99712259D01*
X181909808Y-99695463D01*
X181975944Y-99717999D01*
X182014986Y-99763056D01*
X182019451Y-99771820D01*
X182144390Y-99943786D01*
X182294713Y-100094109D01*
X182466679Y-100219048D01*
X182466681Y-100219049D01*
X182466684Y-100219051D01*
X182656088Y-100315557D01*
X182858257Y-100381246D01*
X183068213Y-100414500D01*
X183068214Y-100414500D01*
X183280786Y-100414500D01*
X183280787Y-100414500D01*
X183490743Y-100381246D01*
X183692912Y-100315557D01*
X183882316Y-100219051D01*
X183968638Y-100156335D01*
X184054286Y-100094109D01*
X184054288Y-100094106D01*
X184054292Y-100094104D01*
X184204604Y-99943792D01*
X184204606Y-99943788D01*
X184204609Y-99943786D01*
X184329548Y-99771820D01*
X184329547Y-99771820D01*
X184329551Y-99771816D01*
X184334014Y-99763054D01*
X184381988Y-99712259D01*
X184449808Y-99695463D01*
X184515944Y-99717999D01*
X184554986Y-99763056D01*
X184559451Y-99771820D01*
X184684390Y-99943786D01*
X184834713Y-100094109D01*
X185006679Y-100219048D01*
X185006681Y-100219049D01*
X185006684Y-100219051D01*
X185196088Y-100315557D01*
X185398257Y-100381246D01*
X185608213Y-100414500D01*
X185608214Y-100414500D01*
X185820786Y-100414500D01*
X185820787Y-100414500D01*
X186030743Y-100381246D01*
X186232912Y-100315557D01*
X186422316Y-100219051D01*
X186508638Y-100156335D01*
X186594286Y-100094109D01*
X186594288Y-100094106D01*
X186594292Y-100094104D01*
X186744604Y-99943792D01*
X186744606Y-99943788D01*
X186744609Y-99943786D01*
X186869548Y-99771820D01*
X186869547Y-99771820D01*
X186869551Y-99771816D01*
X186874014Y-99763054D01*
X186921988Y-99712259D01*
X186989808Y-99695463D01*
X187055944Y-99717999D01*
X187094986Y-99763056D01*
X187099451Y-99771820D01*
X187224390Y-99943786D01*
X187374713Y-100094109D01*
X187546679Y-100219048D01*
X187546681Y-100219049D01*
X187546684Y-100219051D01*
X187736088Y-100315557D01*
X187938257Y-100381246D01*
X188148213Y-100414500D01*
X188148214Y-100414500D01*
X188360786Y-100414500D01*
X188360787Y-100414500D01*
X188570743Y-100381246D01*
X188772912Y-100315557D01*
X188962316Y-100219051D01*
X189048638Y-100156335D01*
X189134286Y-100094109D01*
X189134288Y-100094106D01*
X189134292Y-100094104D01*
X189284604Y-99943792D01*
X189284606Y-99943788D01*
X189284609Y-99943786D01*
X189409548Y-99771820D01*
X189409547Y-99771820D01*
X189409551Y-99771816D01*
X189414014Y-99763054D01*
X189461988Y-99712259D01*
X189529808Y-99695463D01*
X189595944Y-99717999D01*
X189634986Y-99763056D01*
X189639451Y-99771820D01*
X189764390Y-99943786D01*
X189914713Y-100094109D01*
X190086679Y-100219048D01*
X190086681Y-100219049D01*
X190086684Y-100219051D01*
X190276088Y-100315557D01*
X190478257Y-100381246D01*
X190688213Y-100414500D01*
X190688214Y-100414500D01*
X190900786Y-100414500D01*
X190900787Y-100414500D01*
X191110743Y-100381246D01*
X191312912Y-100315557D01*
X191502316Y-100219051D01*
X191588638Y-100156335D01*
X191674286Y-100094109D01*
X191674288Y-100094106D01*
X191674292Y-100094104D01*
X191824604Y-99943792D01*
X191824606Y-99943788D01*
X191824609Y-99943786D01*
X191949548Y-99771820D01*
X191949547Y-99771820D01*
X191949551Y-99771816D01*
X191954014Y-99763054D01*
X192001988Y-99712259D01*
X192069808Y-99695463D01*
X192135944Y-99717999D01*
X192174986Y-99763056D01*
X192179451Y-99771820D01*
X192304390Y-99943786D01*
X192454713Y-100094109D01*
X192626679Y-100219048D01*
X192626681Y-100219049D01*
X192626684Y-100219051D01*
X192816088Y-100315557D01*
X193018257Y-100381246D01*
X193228213Y-100414500D01*
X193228214Y-100414500D01*
X193440786Y-100414500D01*
X193440787Y-100414500D01*
X193650743Y-100381246D01*
X193852912Y-100315557D01*
X194042316Y-100219051D01*
X194128638Y-100156335D01*
X194214286Y-100094109D01*
X194214288Y-100094106D01*
X194214292Y-100094104D01*
X194364604Y-99943792D01*
X194364606Y-99943788D01*
X194364609Y-99943786D01*
X194489548Y-99771820D01*
X194489547Y-99771820D01*
X194489551Y-99771816D01*
X194494014Y-99763054D01*
X194541988Y-99712259D01*
X194609808Y-99695463D01*
X194675944Y-99717999D01*
X194714986Y-99763056D01*
X194719451Y-99771820D01*
X194844390Y-99943786D01*
X194994713Y-100094109D01*
X195166679Y-100219048D01*
X195166681Y-100219049D01*
X195166684Y-100219051D01*
X195356088Y-100315557D01*
X195558257Y-100381246D01*
X195768213Y-100414500D01*
X195768214Y-100414500D01*
X195980786Y-100414500D01*
X195980787Y-100414500D01*
X196190743Y-100381246D01*
X196392912Y-100315557D01*
X196582316Y-100219051D01*
X196668638Y-100156335D01*
X196754286Y-100094109D01*
X196754288Y-100094106D01*
X196754292Y-100094104D01*
X196904604Y-99943792D01*
X196904606Y-99943788D01*
X196904609Y-99943786D01*
X196990390Y-99825717D01*
X197029551Y-99771816D01*
X197034293Y-99762508D01*
X197082263Y-99711711D01*
X197150083Y-99694911D01*
X197216219Y-99717445D01*
X197255263Y-99762500D01*
X197259873Y-99771547D01*
X197299228Y-99825716D01*
X197931537Y-99193408D01*
X197948575Y-99256993D01*
X198014401Y-99371007D01*
X198107493Y-99464099D01*
X198221507Y-99529925D01*
X198285090Y-99546962D01*
X197652782Y-100179269D01*
X197652782Y-100179270D01*
X197706949Y-100218624D01*
X197896282Y-100315095D01*
X198098370Y-100380757D01*
X198308254Y-100414000D01*
X198520746Y-100414000D01*
X198730627Y-100380757D01*
X198730630Y-100380757D01*
X198932717Y-100315095D01*
X199122054Y-100218622D01*
X199176216Y-100179270D01*
X199176217Y-100179270D01*
X198543908Y-99546962D01*
X198607493Y-99529925D01*
X198721507Y-99464099D01*
X198814599Y-99371007D01*
X198880425Y-99256993D01*
X198897462Y-99193408D01*
X199529770Y-99825717D01*
X199529770Y-99825716D01*
X199569122Y-99771554D01*
X199665595Y-99582217D01*
X199731257Y-99380130D01*
X199731257Y-99380127D01*
X199764500Y-99170246D01*
X199764500Y-98957753D01*
X199731257Y-98747872D01*
X199731257Y-98747869D01*
X199665595Y-98545782D01*
X199569124Y-98356449D01*
X199529770Y-98302282D01*
X199529769Y-98302282D01*
X198897462Y-98934590D01*
X198880425Y-98871007D01*
X198814599Y-98756993D01*
X198721507Y-98663901D01*
X198607493Y-98598075D01*
X198543909Y-98581037D01*
X199176216Y-97948728D01*
X199122050Y-97909375D01*
X198932717Y-97812904D01*
X198730629Y-97747242D01*
X198520746Y-97714000D01*
X198308254Y-97714000D01*
X198098372Y-97747242D01*
X198098369Y-97747242D01*
X197896282Y-97812904D01*
X197706939Y-97909380D01*
X197652782Y-97948727D01*
X197652782Y-97948728D01*
X198285091Y-98581037D01*
X198221507Y-98598075D01*
X198107493Y-98663901D01*
X198014401Y-98756993D01*
X197948575Y-98871007D01*
X197931537Y-98934591D01*
X197299228Y-98302282D01*
X197299227Y-98302282D01*
X197259880Y-98356440D01*
X197259876Y-98356446D01*
X197255260Y-98365505D01*
X197207281Y-98416297D01*
X197139459Y-98433087D01*
X197073326Y-98410543D01*
X197034294Y-98365493D01*
X197029551Y-98356184D01*
X197029549Y-98356181D01*
X197029548Y-98356179D01*
X196904609Y-98184213D01*
X196754286Y-98033890D01*
X196582320Y-97908951D01*
X196392914Y-97812444D01*
X196392913Y-97812443D01*
X196392912Y-97812443D01*
X196190743Y-97746754D01*
X196190741Y-97746753D01*
X196190740Y-97746753D01*
X196029457Y-97721208D01*
X195980787Y-97713500D01*
X195768213Y-97713500D01*
X195719542Y-97721208D01*
X195558260Y-97746753D01*
X195356085Y-97812444D01*
X195166679Y-97908951D01*
X194994713Y-98033890D01*
X194844390Y-98184213D01*
X194719449Y-98356182D01*
X194714984Y-98364946D01*
X194667009Y-98415742D01*
X194599188Y-98432536D01*
X194533053Y-98409998D01*
X194494016Y-98364946D01*
X194489550Y-98356182D01*
X194364609Y-98184213D01*
X194214286Y-98033890D01*
X194042320Y-97908951D01*
X193852914Y-97812444D01*
X193852913Y-97812443D01*
X193852912Y-97812443D01*
X193650743Y-97746754D01*
X193650741Y-97746753D01*
X193650740Y-97746753D01*
X193489457Y-97721208D01*
X193440787Y-97713500D01*
X193228213Y-97713500D01*
X193179542Y-97721208D01*
X193018260Y-97746753D01*
X192816085Y-97812444D01*
X192626679Y-97908951D01*
X192454713Y-98033890D01*
X192304390Y-98184213D01*
X192179449Y-98356182D01*
X192174984Y-98364946D01*
X192127009Y-98415742D01*
X192059188Y-98432536D01*
X191993053Y-98409998D01*
X191954016Y-98364946D01*
X191949550Y-98356182D01*
X191824609Y-98184213D01*
X191674286Y-98033890D01*
X191502320Y-97908951D01*
X191312914Y-97812444D01*
X191312913Y-97812443D01*
X191312912Y-97812443D01*
X191110743Y-97746754D01*
X191110741Y-97746753D01*
X191110740Y-97746753D01*
X190949457Y-97721208D01*
X190900787Y-97713500D01*
X190688213Y-97713500D01*
X190639542Y-97721208D01*
X190478260Y-97746753D01*
X190276085Y-97812444D01*
X190086679Y-97908951D01*
X189914713Y-98033890D01*
X189764390Y-98184213D01*
X189639449Y-98356182D01*
X189634984Y-98364946D01*
X189587009Y-98415742D01*
X189519188Y-98432536D01*
X189453053Y-98409998D01*
X189414016Y-98364946D01*
X189409550Y-98356182D01*
X189284609Y-98184213D01*
X189134286Y-98033890D01*
X188962320Y-97908951D01*
X188772914Y-97812444D01*
X188772913Y-97812443D01*
X188772912Y-97812443D01*
X188570743Y-97746754D01*
X188570741Y-97746753D01*
X188570740Y-97746753D01*
X188409457Y-97721208D01*
X188360787Y-97713500D01*
X188148213Y-97713500D01*
X188099542Y-97721208D01*
X187938260Y-97746753D01*
X187736085Y-97812444D01*
X187546679Y-97908951D01*
X187374713Y-98033890D01*
X187224390Y-98184213D01*
X187099449Y-98356182D01*
X187094984Y-98364946D01*
X187047009Y-98415742D01*
X186979188Y-98432536D01*
X186913053Y-98409998D01*
X186874016Y-98364946D01*
X186869550Y-98356182D01*
X186744609Y-98184213D01*
X186594286Y-98033890D01*
X186422320Y-97908951D01*
X186232914Y-97812444D01*
X186232913Y-97812443D01*
X186232912Y-97812443D01*
X186030743Y-97746754D01*
X186030741Y-97746753D01*
X186030740Y-97746753D01*
X185869457Y-97721208D01*
X185820787Y-97713500D01*
X185608213Y-97713500D01*
X185559542Y-97721208D01*
X185398260Y-97746753D01*
X185196085Y-97812444D01*
X185006679Y-97908951D01*
X184834713Y-98033890D01*
X184684390Y-98184213D01*
X184559449Y-98356182D01*
X184554984Y-98364946D01*
X184507009Y-98415742D01*
X184439188Y-98432536D01*
X184373053Y-98409998D01*
X184334016Y-98364946D01*
X184329550Y-98356182D01*
X184204609Y-98184213D01*
X184054286Y-98033890D01*
X183882320Y-97908951D01*
X183692914Y-97812444D01*
X183692913Y-97812443D01*
X183692912Y-97812443D01*
X183490743Y-97746754D01*
X183490741Y-97746753D01*
X183490740Y-97746753D01*
X183329457Y-97721208D01*
X183280787Y-97713500D01*
X183068213Y-97713500D01*
X183019542Y-97721208D01*
X182858260Y-97746753D01*
X182656085Y-97812444D01*
X182466679Y-97908951D01*
X182294713Y-98033890D01*
X182144390Y-98184213D01*
X182019449Y-98356182D01*
X182014984Y-98364946D01*
X181967009Y-98415742D01*
X181899188Y-98432536D01*
X181833053Y-98409998D01*
X181794016Y-98364946D01*
X181789550Y-98356182D01*
X181664609Y-98184213D01*
X181514286Y-98033890D01*
X181342320Y-97908951D01*
X181152914Y-97812444D01*
X181152913Y-97812443D01*
X181152912Y-97812443D01*
X180950743Y-97746754D01*
X180950741Y-97746753D01*
X180950740Y-97746753D01*
X180789457Y-97721208D01*
X180740787Y-97713500D01*
X180528213Y-97713500D01*
X180479542Y-97721208D01*
X180318260Y-97746753D01*
X180116085Y-97812444D01*
X179926679Y-97908951D01*
X179754713Y-98033890D01*
X179604390Y-98184213D01*
X179479449Y-98356182D01*
X179474984Y-98364946D01*
X179427009Y-98415742D01*
X179359188Y-98432536D01*
X179293053Y-98409998D01*
X179254016Y-98364946D01*
X179249550Y-98356182D01*
X179124609Y-98184213D01*
X178974286Y-98033890D01*
X178802320Y-97908951D01*
X178612914Y-97812444D01*
X178612913Y-97812443D01*
X178612912Y-97812443D01*
X178410743Y-97746754D01*
X178410741Y-97746753D01*
X178410740Y-97746753D01*
X178249457Y-97721208D01*
X178200787Y-97713500D01*
X177988213Y-97713500D01*
X177939542Y-97721208D01*
X177778260Y-97746753D01*
X177576085Y-97812444D01*
X177386679Y-97908951D01*
X177214713Y-98033890D01*
X177064390Y-98184213D01*
X176939449Y-98356182D01*
X176934984Y-98364946D01*
X176887009Y-98415742D01*
X176819188Y-98432536D01*
X176753053Y-98409998D01*
X176714016Y-98364946D01*
X176709550Y-98356182D01*
X176584609Y-98184213D01*
X176434286Y-98033890D01*
X176262320Y-97908951D01*
X176072914Y-97812444D01*
X176072913Y-97812443D01*
X176072912Y-97812443D01*
X175870743Y-97746754D01*
X175870741Y-97746753D01*
X175870740Y-97746753D01*
X175709457Y-97721208D01*
X175660787Y-97713500D01*
X175448213Y-97713500D01*
X175399542Y-97721208D01*
X175238260Y-97746753D01*
X175036085Y-97812444D01*
X174846679Y-97908951D01*
X174674713Y-98033890D01*
X174524390Y-98184213D01*
X174399449Y-98356182D01*
X174394984Y-98364946D01*
X174347009Y-98415742D01*
X174279188Y-98432536D01*
X174213053Y-98409998D01*
X174174016Y-98364946D01*
X174169550Y-98356182D01*
X174044609Y-98184213D01*
X173894286Y-98033890D01*
X173722320Y-97908951D01*
X173532914Y-97812444D01*
X173532913Y-97812443D01*
X173532912Y-97812443D01*
X173330743Y-97746754D01*
X173330741Y-97746753D01*
X173330740Y-97746753D01*
X173169457Y-97721208D01*
X173120787Y-97713500D01*
X172908213Y-97713500D01*
X172859542Y-97721208D01*
X172698260Y-97746753D01*
X172496085Y-97812444D01*
X172306679Y-97908951D01*
X172134713Y-98033890D01*
X171984390Y-98184213D01*
X171859449Y-98356182D01*
X171854984Y-98364946D01*
X171807009Y-98415742D01*
X171739188Y-98432536D01*
X171673053Y-98409998D01*
X171634016Y-98364946D01*
X171629550Y-98356182D01*
X171504609Y-98184213D01*
X171354286Y-98033890D01*
X171182320Y-97908951D01*
X170992914Y-97812444D01*
X170992913Y-97812443D01*
X170992912Y-97812443D01*
X170790743Y-97746754D01*
X170790741Y-97746753D01*
X170790740Y-97746753D01*
X170629457Y-97721208D01*
X170580787Y-97713500D01*
X170368213Y-97713500D01*
X170319542Y-97721208D01*
X170158260Y-97746753D01*
X169956085Y-97812444D01*
X169766679Y-97908951D01*
X169594713Y-98033890D01*
X169444390Y-98184213D01*
X169319449Y-98356182D01*
X169314984Y-98364946D01*
X169267009Y-98415742D01*
X169199188Y-98432536D01*
X169133053Y-98409998D01*
X169094016Y-98364946D01*
X169089550Y-98356182D01*
X168964609Y-98184213D01*
X168814286Y-98033890D01*
X168642320Y-97908951D01*
X168452914Y-97812444D01*
X168452913Y-97812443D01*
X168452912Y-97812443D01*
X168250743Y-97746754D01*
X168250741Y-97746753D01*
X168250740Y-97746753D01*
X168089457Y-97721208D01*
X168040787Y-97713500D01*
X167828213Y-97713500D01*
X167779542Y-97721208D01*
X167618260Y-97746753D01*
X167416085Y-97812444D01*
X167226679Y-97908951D01*
X167054713Y-98033890D01*
X166904390Y-98184213D01*
X166779449Y-98356182D01*
X166774984Y-98364946D01*
X166727009Y-98415742D01*
X166659188Y-98432536D01*
X166593053Y-98409998D01*
X166554016Y-98364946D01*
X166549550Y-98356182D01*
X166424609Y-98184213D01*
X166274286Y-98033890D01*
X166102320Y-97908951D01*
X165912914Y-97812444D01*
X165912913Y-97812443D01*
X165912912Y-97812443D01*
X165710743Y-97746754D01*
X165710741Y-97746753D01*
X165710740Y-97746753D01*
X165549457Y-97721208D01*
X165500787Y-97713500D01*
X165288213Y-97713500D01*
X165239542Y-97721208D01*
X165078260Y-97746753D01*
X164876085Y-97812444D01*
X164686679Y-97908951D01*
X164514713Y-98033890D01*
X164364390Y-98184213D01*
X164239449Y-98356182D01*
X164234984Y-98364946D01*
X164187009Y-98415742D01*
X164119188Y-98432536D01*
X164053053Y-98409998D01*
X164014016Y-98364946D01*
X164009550Y-98356182D01*
X163884609Y-98184213D01*
X163734286Y-98033890D01*
X163562320Y-97908951D01*
X163372914Y-97812444D01*
X163372913Y-97812443D01*
X163372912Y-97812443D01*
X163170743Y-97746754D01*
X163170741Y-97746753D01*
X163170740Y-97746753D01*
X163009457Y-97721208D01*
X162960787Y-97713500D01*
X162748213Y-97713500D01*
X162699542Y-97721208D01*
X162538260Y-97746753D01*
X162336085Y-97812444D01*
X162146679Y-97908951D01*
X161974713Y-98033890D01*
X161824390Y-98184213D01*
X161699449Y-98356182D01*
X161694984Y-98364946D01*
X161647009Y-98415742D01*
X161579188Y-98432536D01*
X161513053Y-98409998D01*
X161474016Y-98364946D01*
X161469550Y-98356182D01*
X161344609Y-98184213D01*
X161194286Y-98033890D01*
X161022320Y-97908951D01*
X160832914Y-97812444D01*
X160832913Y-97812443D01*
X160832912Y-97812443D01*
X160630743Y-97746754D01*
X160630741Y-97746753D01*
X160630740Y-97746753D01*
X160469457Y-97721208D01*
X160420787Y-97713500D01*
X160208213Y-97713500D01*
X160159542Y-97721208D01*
X159998260Y-97746753D01*
X159796085Y-97812444D01*
X159606679Y-97908951D01*
X159434713Y-98033890D01*
X159284390Y-98184213D01*
X159159449Y-98356182D01*
X159154984Y-98364946D01*
X159107009Y-98415742D01*
X159039188Y-98432536D01*
X158973053Y-98409998D01*
X158934016Y-98364946D01*
X158929550Y-98356182D01*
X158804609Y-98184213D01*
X158654286Y-98033890D01*
X158482320Y-97908951D01*
X158292914Y-97812444D01*
X158292913Y-97812443D01*
X158292912Y-97812443D01*
X158090743Y-97746754D01*
X158090741Y-97746753D01*
X158090740Y-97746753D01*
X157929457Y-97721208D01*
X157880787Y-97713500D01*
X157668213Y-97713500D01*
X157619542Y-97721208D01*
X157458260Y-97746753D01*
X157256085Y-97812444D01*
X157066679Y-97908951D01*
X156894713Y-98033890D01*
X156744390Y-98184213D01*
X156619449Y-98356182D01*
X156614984Y-98364946D01*
X156567009Y-98415742D01*
X156499188Y-98432536D01*
X156433053Y-98409998D01*
X156394016Y-98364946D01*
X156389550Y-98356182D01*
X156264609Y-98184213D01*
X156114286Y-98033890D01*
X155942320Y-97908951D01*
X155752914Y-97812444D01*
X155752913Y-97812443D01*
X155752912Y-97812443D01*
X155550743Y-97746754D01*
X155550741Y-97746753D01*
X155550740Y-97746753D01*
X155389457Y-97721208D01*
X155340787Y-97713500D01*
X155128213Y-97713500D01*
X155079542Y-97721208D01*
X154918260Y-97746753D01*
X154716085Y-97812444D01*
X154526679Y-97908951D01*
X154354715Y-98033889D01*
X154241173Y-98147431D01*
X154179850Y-98180915D01*
X154110158Y-98175931D01*
X154054225Y-98134059D01*
X154037310Y-98103082D01*
X153988297Y-97971671D01*
X153988293Y-97971664D01*
X153902047Y-97856455D01*
X153902044Y-97856452D01*
X153786835Y-97770206D01*
X153786828Y-97770202D01*
X153651982Y-97719908D01*
X153651983Y-97719908D01*
X153592383Y-97713501D01*
X153592381Y-97713500D01*
X153592373Y-97713500D01*
X153592364Y-97713500D01*
X151796629Y-97713500D01*
X151796623Y-97713501D01*
X151737016Y-97719908D01*
X151602171Y-97770202D01*
X151602164Y-97770206D01*
X151486955Y-97856452D01*
X151486952Y-97856455D01*
X151400706Y-97971664D01*
X151400702Y-97971671D01*
X151350408Y-98106517D01*
X151344001Y-98166116D01*
X151344000Y-98166135D01*
X110779816Y-98166135D01*
X110768631Y-98154950D01*
X110768624Y-98154944D01*
X110544882Y-97983261D01*
X110544880Y-97983259D01*
X110544874Y-97983255D01*
X110544869Y-97983252D01*
X110544866Y-97983250D01*
X110316473Y-97851387D01*
X110268257Y-97800820D01*
X110255035Y-97732213D01*
X110281003Y-97667348D01*
X110316473Y-97636613D01*
X110389782Y-97594287D01*
X110544874Y-97504745D01*
X110768626Y-97333054D01*
X110968054Y-97133626D01*
X111139745Y-96909874D01*
X111280762Y-96665626D01*
X111388691Y-96405061D01*
X111461687Y-96132637D01*
X111498500Y-95853017D01*
X111498500Y-95570983D01*
X111461687Y-95291363D01*
X111388691Y-95018939D01*
X111280762Y-94758374D01*
X111280760Y-94758371D01*
X111280758Y-94758366D01*
X111139749Y-94514133D01*
X111139745Y-94514126D01*
X111046123Y-94392116D01*
X110968055Y-94290375D01*
X110968049Y-94290368D01*
X110768631Y-94090950D01*
X110768624Y-94090944D01*
X110544882Y-93919261D01*
X110544880Y-93919259D01*
X110544874Y-93919255D01*
X110544869Y-93919252D01*
X110544866Y-93919250D01*
X110300633Y-93778241D01*
X110300622Y-93778236D01*
X110040065Y-93670310D01*
X109767634Y-93597312D01*
X109488024Y-93560500D01*
X109488017Y-93560500D01*
X109205983Y-93560500D01*
X109205975Y-93560500D01*
X108926365Y-93597312D01*
X108653934Y-93670310D01*
X108393377Y-93778236D01*
X108393366Y-93778241D01*
X108149133Y-93919250D01*
X108149117Y-93919261D01*
X107925375Y-94090944D01*
X107925368Y-94090950D01*
X107725950Y-94290368D01*
X107725944Y-94290375D01*
X107554261Y-94514117D01*
X107554250Y-94514133D01*
X107413241Y-94758366D01*
X107413236Y-94758377D01*
X107305310Y-95018934D01*
X107232312Y-95291365D01*
X107195500Y-95570975D01*
X98632499Y-95570975D01*
X98632499Y-95018939D01*
X98632499Y-94392129D01*
X98632498Y-94392123D01*
X98632497Y-94392116D01*
X98626091Y-94332517D01*
X98610370Y-94290368D01*
X98575797Y-94197671D01*
X98575793Y-94197664D01*
X98489547Y-94082455D01*
X98489544Y-94082452D01*
X98374335Y-93996206D01*
X98374328Y-93996202D01*
X98239482Y-93945908D01*
X98239483Y-93945908D01*
X98179883Y-93939501D01*
X98179881Y-93939500D01*
X98179873Y-93939500D01*
X98179864Y-93939500D01*
X96384129Y-93939500D01*
X96384123Y-93939501D01*
X96324516Y-93945908D01*
X96189671Y-93996202D01*
X96189664Y-93996206D01*
X96074455Y-94082452D01*
X96074452Y-94082455D01*
X95988206Y-94197664D01*
X95988202Y-94197671D01*
X95937908Y-94332517D01*
X95931501Y-94392116D01*
X95931501Y-94392123D01*
X95931500Y-94392135D01*
X93726500Y-94392135D01*
X93726500Y-90490975D01*
X107195500Y-90490975D01*
X107195500Y-90773024D01*
X107232312Y-91052634D01*
X107305310Y-91325065D01*
X107413236Y-91585622D01*
X107413241Y-91585633D01*
X107554250Y-91829866D01*
X107554261Y-91829882D01*
X107725944Y-92053624D01*
X107725950Y-92053631D01*
X107925368Y-92253049D01*
X107925374Y-92253054D01*
X108149126Y-92424745D01*
X108149133Y-92424749D01*
X108393366Y-92565758D01*
X108393371Y-92565760D01*
X108393374Y-92565762D01*
X108653939Y-92673691D01*
X108926363Y-92746687D01*
X109205983Y-92783500D01*
X109205990Y-92783500D01*
X109488010Y-92783500D01*
X109488017Y-92783500D01*
X109767637Y-92746687D01*
X110040061Y-92673691D01*
X110300626Y-92565762D01*
X110544874Y-92424745D01*
X110768626Y-92253054D01*
X110968054Y-92053626D01*
X111139745Y-91829874D01*
X111280762Y-91585626D01*
X111388691Y-91325061D01*
X111461687Y-91052637D01*
X111498500Y-90773017D01*
X111498500Y-90490983D01*
X111461687Y-90211363D01*
X111388691Y-89938939D01*
X111280762Y-89678374D01*
X111280760Y-89678371D01*
X111280758Y-89678366D01*
X111139749Y-89434133D01*
X111139745Y-89434126D01*
X110968054Y-89210374D01*
X110968049Y-89210368D01*
X110768631Y-89010950D01*
X110768624Y-89010944D01*
X110544882Y-88839261D01*
X110544880Y-88839259D01*
X110544874Y-88839255D01*
X110544869Y-88839252D01*
X110544866Y-88839250D01*
X110300633Y-88698241D01*
X110300622Y-88698236D01*
X110040065Y-88590310D01*
X110025700Y-88586461D01*
X109811988Y-88529197D01*
X109767634Y-88517312D01*
X109488024Y-88480500D01*
X109488017Y-88480500D01*
X109205983Y-88480500D01*
X109205975Y-88480500D01*
X108926365Y-88517312D01*
X108653934Y-88590310D01*
X108393377Y-88698236D01*
X108393366Y-88698241D01*
X108149133Y-88839250D01*
X108149117Y-88839261D01*
X107925375Y-89010944D01*
X107925368Y-89010950D01*
X107725950Y-89210368D01*
X107725944Y-89210375D01*
X107554261Y-89434117D01*
X107554250Y-89434133D01*
X107413241Y-89678366D01*
X107413236Y-89678377D01*
X107305310Y-89938934D01*
X107232312Y-90211365D01*
X107195500Y-90490975D01*
X93726500Y-90490975D01*
X93726500Y-88443135D01*
X114579500Y-88443135D01*
X114579500Y-90788870D01*
X114579501Y-90788876D01*
X114585908Y-90848483D01*
X114636202Y-90983328D01*
X114636206Y-90983335D01*
X114722452Y-91098544D01*
X114722455Y-91098547D01*
X114837664Y-91184793D01*
X114837671Y-91184797D01*
X114972517Y-91235091D01*
X114972516Y-91235091D01*
X114979444Y-91235835D01*
X115032127Y-91241500D01*
X117377872Y-91241499D01*
X117437483Y-91235091D01*
X117572331Y-91184796D01*
X117687546Y-91098546D01*
X117773796Y-90983331D01*
X117824091Y-90848483D01*
X117830500Y-90788873D01*
X117830499Y-88443128D01*
X117824091Y-88383517D01*
X117773796Y-88248669D01*
X117773795Y-88248668D01*
X117773793Y-88248664D01*
X117687547Y-88133455D01*
X117687544Y-88133452D01*
X117572335Y-88047206D01*
X117572328Y-88047202D01*
X117437482Y-87996908D01*
X117437483Y-87996908D01*
X117377883Y-87990501D01*
X117377881Y-87990500D01*
X117377873Y-87990500D01*
X117377864Y-87990500D01*
X115032129Y-87990500D01*
X115032123Y-87990501D01*
X114972516Y-87996908D01*
X114837671Y-88047202D01*
X114837664Y-88047206D01*
X114722455Y-88133452D01*
X114722452Y-88133455D01*
X114636206Y-88248664D01*
X114636202Y-88248671D01*
X114585908Y-88383517D01*
X114579501Y-88443116D01*
X114579501Y-88443123D01*
X114579500Y-88443135D01*
X93726500Y-88443135D01*
X93726500Y-85862947D01*
X121838600Y-85862947D01*
X121838600Y-86095052D01*
X121868894Y-86325148D01*
X121928962Y-86549328D01*
X122017777Y-86763745D01*
X122017785Y-86763762D01*
X122133820Y-86964743D01*
X122133821Y-86964745D01*
X122275109Y-87148875D01*
X122275115Y-87148882D01*
X122439217Y-87312984D01*
X122439224Y-87312990D01*
X122623354Y-87454278D01*
X122623356Y-87454279D01*
X122824337Y-87570314D01*
X122824340Y-87570315D01*
X122824348Y-87570320D01*
X123038770Y-87659137D01*
X123262951Y-87719206D01*
X123493055Y-87749500D01*
X123493062Y-87749500D01*
X123725138Y-87749500D01*
X123725145Y-87749500D01*
X123955249Y-87719206D01*
X124179430Y-87659137D01*
X124393852Y-87570320D01*
X124594848Y-87454276D01*
X124778977Y-87312989D01*
X124943089Y-87148877D01*
X125084376Y-86964748D01*
X125200420Y-86763752D01*
X125289237Y-86549330D01*
X125349306Y-86325149D01*
X125379600Y-86095045D01*
X125379600Y-85862955D01*
X125379599Y-85862947D01*
X141828400Y-85862947D01*
X141828400Y-86095052D01*
X141858694Y-86325148D01*
X141918762Y-86549328D01*
X142007577Y-86763745D01*
X142007585Y-86763762D01*
X142123620Y-86964743D01*
X142123621Y-86964745D01*
X142264909Y-87148875D01*
X142264915Y-87148882D01*
X142429017Y-87312984D01*
X142429024Y-87312990D01*
X142613154Y-87454278D01*
X142613156Y-87454279D01*
X142814137Y-87570314D01*
X142814140Y-87570315D01*
X142814148Y-87570320D01*
X143028570Y-87659137D01*
X143252751Y-87719206D01*
X143482855Y-87749500D01*
X143482862Y-87749500D01*
X143714938Y-87749500D01*
X143714945Y-87749500D01*
X143945049Y-87719206D01*
X144169230Y-87659137D01*
X144383652Y-87570320D01*
X144584648Y-87454276D01*
X144768777Y-87312989D01*
X144932889Y-87148877D01*
X145074176Y-86964748D01*
X145190220Y-86763752D01*
X145279037Y-86549330D01*
X145339106Y-86325149D01*
X145369400Y-86095045D01*
X145369400Y-85862955D01*
X145339106Y-85632851D01*
X145279037Y-85408670D01*
X145190220Y-85194248D01*
X145190214Y-85194237D01*
X145074179Y-84993256D01*
X145074178Y-84993254D01*
X144932890Y-84809124D01*
X144932884Y-84809117D01*
X144768782Y-84645015D01*
X144768775Y-84645009D01*
X144584645Y-84503721D01*
X144584643Y-84503720D01*
X144383662Y-84387685D01*
X144383654Y-84387681D01*
X144383652Y-84387680D01*
X144313003Y-84358416D01*
X144169228Y-84298862D01*
X144027103Y-84260780D01*
X143945049Y-84238794D01*
X143916286Y-84235007D01*
X143714952Y-84208500D01*
X143714945Y-84208500D01*
X143482855Y-84208500D01*
X143482847Y-84208500D01*
X143252751Y-84238794D01*
X143028571Y-84298862D01*
X142814154Y-84387677D01*
X142814137Y-84387685D01*
X142613156Y-84503720D01*
X142613154Y-84503721D01*
X142429024Y-84645009D01*
X142429017Y-84645015D01*
X142264915Y-84809117D01*
X142264909Y-84809124D01*
X142123621Y-84993254D01*
X142123620Y-84993256D01*
X142007585Y-85194237D01*
X142007577Y-85194254D01*
X141918762Y-85408671D01*
X141858694Y-85632851D01*
X141828400Y-85862947D01*
X125379599Y-85862947D01*
X125349306Y-85632851D01*
X125289237Y-85408670D01*
X125200420Y-85194248D01*
X125200414Y-85194237D01*
X125084379Y-84993256D01*
X125084378Y-84993254D01*
X124943090Y-84809124D01*
X124943084Y-84809117D01*
X124778982Y-84645015D01*
X124778975Y-84645009D01*
X124594845Y-84503721D01*
X124594843Y-84503720D01*
X124393862Y-84387685D01*
X124393854Y-84387681D01*
X124393852Y-84387680D01*
X124323203Y-84358416D01*
X124179428Y-84298862D01*
X124037303Y-84260780D01*
X123955249Y-84238794D01*
X123926486Y-84235007D01*
X123725152Y-84208500D01*
X123725145Y-84208500D01*
X123493055Y-84208500D01*
X123493047Y-84208500D01*
X123262951Y-84238794D01*
X123038771Y-84298862D01*
X122824354Y-84387677D01*
X122824337Y-84387685D01*
X122623356Y-84503720D01*
X122623354Y-84503721D01*
X122439224Y-84645009D01*
X122439217Y-84645015D01*
X122275115Y-84809117D01*
X122275109Y-84809124D01*
X122133821Y-84993254D01*
X122133820Y-84993256D01*
X122017785Y-85194237D01*
X122017777Y-85194254D01*
X121928962Y-85408671D01*
X121868894Y-85632851D01*
X121838600Y-85862947D01*
X93726500Y-85862947D01*
X93726500Y-83560378D01*
X100592000Y-83560378D01*
X100592000Y-83759021D01*
X100623075Y-83955220D01*
X100623075Y-83955223D01*
X100684457Y-84144137D01*
X100774641Y-84321132D01*
X100801730Y-84358415D01*
X100801731Y-84358416D01*
X101364504Y-83795642D01*
X101380619Y-83855781D01*
X101447498Y-83971620D01*
X101542080Y-84066202D01*
X101657919Y-84133081D01*
X101718057Y-84149194D01*
X101155283Y-84711968D01*
X101155283Y-84711969D01*
X101192567Y-84739058D01*
X101369562Y-84829242D01*
X101558477Y-84890624D01*
X101754679Y-84921700D01*
X101953321Y-84921700D01*
X102149520Y-84890624D01*
X102149523Y-84890624D01*
X102338437Y-84829242D01*
X102515425Y-84739062D01*
X102552716Y-84711968D01*
X101989942Y-84149194D01*
X102050081Y-84133081D01*
X102165920Y-84066202D01*
X102260502Y-83971620D01*
X102327381Y-83855781D01*
X102343495Y-83795642D01*
X102906268Y-84358415D01*
X102933364Y-84321122D01*
X103013234Y-84164369D01*
X103061208Y-84113572D01*
X103129029Y-84096777D01*
X103195164Y-84119314D01*
X103234203Y-84164367D01*
X103314213Y-84321394D01*
X103431019Y-84482164D01*
X103571536Y-84622681D01*
X103732306Y-84739487D01*
X103819149Y-84783735D01*
X103909367Y-84829705D01*
X103909370Y-84829706D01*
X104003866Y-84860409D01*
X104098364Y-84891113D01*
X104294639Y-84922200D01*
X104294640Y-84922200D01*
X104493360Y-84922200D01*
X104493361Y-84922200D01*
X104689636Y-84891113D01*
X104878632Y-84829705D01*
X105055694Y-84739487D01*
X105216464Y-84622681D01*
X105356981Y-84482164D01*
X105473787Y-84321394D01*
X105553515Y-84164918D01*
X105601490Y-84114123D01*
X105669311Y-84097328D01*
X105735446Y-84119865D01*
X105774484Y-84164918D01*
X105854213Y-84321394D01*
X105971019Y-84482164D01*
X106111536Y-84622681D01*
X106272306Y-84739487D01*
X106359149Y-84783735D01*
X106449367Y-84829705D01*
X106449370Y-84829706D01*
X106543866Y-84860409D01*
X106638364Y-84891113D01*
X106834639Y-84922200D01*
X106834640Y-84922200D01*
X107033360Y-84922200D01*
X107033361Y-84922200D01*
X107229636Y-84891113D01*
X107418632Y-84829705D01*
X107595694Y-84739487D01*
X107756464Y-84622681D01*
X107896981Y-84482164D01*
X108013787Y-84321394D01*
X108104005Y-84144332D01*
X108165413Y-83955336D01*
X108196500Y-83759061D01*
X108196500Y-83560339D01*
X108165413Y-83364064D01*
X108104005Y-83175068D01*
X108104005Y-83175067D01*
X108058035Y-83084849D01*
X108013787Y-82998006D01*
X107896981Y-82837236D01*
X107756464Y-82696719D01*
X107595694Y-82579913D01*
X107418632Y-82489694D01*
X107418629Y-82489693D01*
X107229637Y-82428287D01*
X107131498Y-82412743D01*
X107033361Y-82397200D01*
X106834639Y-82397200D01*
X106769214Y-82407562D01*
X106638362Y-82428287D01*
X106449370Y-82489693D01*
X106449367Y-82489694D01*
X106272305Y-82579913D01*
X106111533Y-82696721D01*
X105971021Y-82837233D01*
X105854213Y-82998005D01*
X105774485Y-83154480D01*
X105726510Y-83205276D01*
X105658689Y-83222071D01*
X105592554Y-83199533D01*
X105553515Y-83154480D01*
X105534179Y-83116532D01*
X105473787Y-82998006D01*
X105356981Y-82837236D01*
X105216464Y-82696719D01*
X105055694Y-82579913D01*
X104878632Y-82489694D01*
X104878629Y-82489693D01*
X104689637Y-82428287D01*
X104591498Y-82412743D01*
X104493361Y-82397200D01*
X104294639Y-82397200D01*
X104229214Y-82407562D01*
X104098362Y-82428287D01*
X103909370Y-82489693D01*
X103909367Y-82489694D01*
X103732305Y-82579913D01*
X103571533Y-82696721D01*
X103431021Y-82837233D01*
X103314213Y-82998005D01*
X103234204Y-83155031D01*
X103186229Y-83205827D01*
X103118408Y-83222622D01*
X103052273Y-83200084D01*
X103013234Y-83155031D01*
X102933358Y-82998267D01*
X102906268Y-82960983D01*
X102343494Y-83523757D01*
X102327381Y-83463619D01*
X102260502Y-83347780D01*
X102165920Y-83253198D01*
X102050081Y-83186319D01*
X101989942Y-83170204D01*
X102552716Y-82607431D01*
X102552715Y-82607430D01*
X102515432Y-82580341D01*
X102338437Y-82490157D01*
X102149522Y-82428775D01*
X101953321Y-82397700D01*
X101754679Y-82397700D01*
X101558479Y-82428775D01*
X101558476Y-82428775D01*
X101369562Y-82490157D01*
X101192564Y-82580343D01*
X101155283Y-82607429D01*
X101155282Y-82607430D01*
X101718058Y-83170204D01*
X101657919Y-83186319D01*
X101542080Y-83253198D01*
X101447498Y-83347780D01*
X101380619Y-83463619D01*
X101364504Y-83523757D01*
X100801730Y-82960982D01*
X100801729Y-82960983D01*
X100774643Y-82998264D01*
X100684457Y-83175262D01*
X100623075Y-83364176D01*
X100623075Y-83364179D01*
X100592000Y-83560378D01*
X93726500Y-83560378D01*
X93726500Y-78614883D01*
X155695368Y-78614883D01*
X155695368Y-78763516D01*
X155724361Y-78909272D01*
X155724363Y-78909280D01*
X155781239Y-79046591D01*
X155863807Y-79170164D01*
X155863813Y-79170171D01*
X155968896Y-79275254D01*
X155968903Y-79275260D01*
X156092476Y-79357828D01*
X156092477Y-79357828D01*
X156092478Y-79357829D01*
X156110911Y-79365464D01*
X156165316Y-79409304D01*
X156187382Y-79475597D01*
X156170104Y-79543297D01*
X156118968Y-79590909D01*
X156110924Y-79594583D01*
X156106611Y-79596369D01*
X156106608Y-79596371D01*
X155983035Y-79678939D01*
X155983028Y-79678945D01*
X155877945Y-79784028D01*
X155877939Y-79784035D01*
X155795371Y-79907608D01*
X155738495Y-80044919D01*
X155738493Y-80044927D01*
X155709500Y-80190683D01*
X155709500Y-80339316D01*
X155738493Y-80485072D01*
X155738495Y-80485080D01*
X155795371Y-80622391D01*
X155877939Y-80745964D01*
X155877945Y-80745971D01*
X155983028Y-80851054D01*
X155983035Y-80851060D01*
X156106608Y-80933628D01*
X156106609Y-80933628D01*
X156106610Y-80933629D01*
X156243920Y-80990505D01*
X156389683Y-81019499D01*
X156389687Y-81019500D01*
X156389688Y-81019500D01*
X156538313Y-81019500D01*
X156538314Y-81019499D01*
X156684080Y-80990505D01*
X156821390Y-80933629D01*
X156944966Y-80851059D01*
X157050059Y-80745966D01*
X157132629Y-80622390D01*
X157189505Y-80485080D01*
X157218500Y-80339312D01*
X157218500Y-80190688D01*
X157189505Y-80044920D01*
X157132629Y-79907610D01*
X157050059Y-79784034D01*
X157050054Y-79784028D01*
X156944971Y-79678945D01*
X156944964Y-79678939D01*
X156821391Y-79596371D01*
X156821392Y-79596371D01*
X156802953Y-79588734D01*
X156748550Y-79544893D01*
X156726485Y-79478599D01*
X156743764Y-79410900D01*
X156794901Y-79363289D01*
X156802944Y-79359615D01*
X156807258Y-79357829D01*
X156930834Y-79275259D01*
X157035927Y-79170166D01*
X157118497Y-79046590D01*
X157175373Y-78909280D01*
X157204368Y-78763512D01*
X157204368Y-78614888D01*
X157175373Y-78469120D01*
X157118497Y-78331810D01*
X157035927Y-78208234D01*
X157035922Y-78208228D01*
X156930839Y-78103145D01*
X156930832Y-78103139D01*
X156807259Y-78020571D01*
X156669948Y-77963695D01*
X156669940Y-77963693D01*
X156524184Y-77934700D01*
X156524180Y-77934700D01*
X156375556Y-77934700D01*
X156375551Y-77934700D01*
X156229795Y-77963693D01*
X156229787Y-77963695D01*
X156092476Y-78020571D01*
X155968903Y-78103139D01*
X155968896Y-78103145D01*
X155863813Y-78208228D01*
X155863807Y-78208235D01*
X155781239Y-78331808D01*
X155724363Y-78469119D01*
X155724361Y-78469127D01*
X155695368Y-78614883D01*
X93726500Y-78614883D01*
X93726500Y-76089713D01*
X151342000Y-76089713D01*
X151342000Y-76302287D01*
X151375254Y-76512243D01*
X151438344Y-76706414D01*
X151440944Y-76714414D01*
X151537451Y-76903820D01*
X151662390Y-77075786D01*
X151812713Y-77226109D01*
X151984679Y-77351048D01*
X151984681Y-77351049D01*
X151984684Y-77351051D01*
X152174088Y-77447557D01*
X152376257Y-77513246D01*
X152586213Y-77546500D01*
X152586214Y-77546500D01*
X152798786Y-77546500D01*
X152798787Y-77546500D01*
X153008743Y-77513246D01*
X153210912Y-77447557D01*
X153400316Y-77351051D01*
X153422289Y-77335086D01*
X153572286Y-77226109D01*
X153572288Y-77226106D01*
X153572292Y-77226104D01*
X153722604Y-77075792D01*
X153722606Y-77075788D01*
X153722609Y-77075786D01*
X153847548Y-76903820D01*
X153847550Y-76903817D01*
X153847551Y-76903816D01*
X153852014Y-76895054D01*
X153899988Y-76844259D01*
X153967808Y-76827463D01*
X154033944Y-76849999D01*
X154072984Y-76895054D01*
X154073375Y-76895820D01*
X154077451Y-76903820D01*
X154202390Y-77075786D01*
X154352713Y-77226109D01*
X154524679Y-77351048D01*
X154524681Y-77351049D01*
X154524684Y-77351051D01*
X154714088Y-77447557D01*
X154916257Y-77513246D01*
X155126213Y-77546500D01*
X155126214Y-77546500D01*
X155338786Y-77546500D01*
X155338787Y-77546500D01*
X155548743Y-77513246D01*
X155750912Y-77447557D01*
X155940316Y-77351051D01*
X155962289Y-77335086D01*
X156112286Y-77226109D01*
X156112288Y-77226106D01*
X156112292Y-77226104D01*
X156262604Y-77075792D01*
X156262606Y-77075788D01*
X156262609Y-77075786D01*
X156387548Y-76903820D01*
X156387550Y-76903817D01*
X156387551Y-76903816D01*
X156392014Y-76895054D01*
X156439988Y-76844259D01*
X156507808Y-76827463D01*
X156573944Y-76849999D01*
X156612984Y-76895054D01*
X156613375Y-76895820D01*
X156617451Y-76903820D01*
X156742390Y-77075786D01*
X156892713Y-77226109D01*
X157064679Y-77351048D01*
X157064681Y-77351049D01*
X157064684Y-77351051D01*
X157254088Y-77447557D01*
X157456257Y-77513246D01*
X157666213Y-77546500D01*
X157666214Y-77546500D01*
X157878786Y-77546500D01*
X157878787Y-77546500D01*
X158088743Y-77513246D01*
X158290912Y-77447557D01*
X158480316Y-77351051D01*
X158502289Y-77335086D01*
X158652286Y-77226109D01*
X158652288Y-77226106D01*
X158652292Y-77226104D01*
X158802604Y-77075792D01*
X158802606Y-77075788D01*
X158802609Y-77075786D01*
X158927548Y-76903820D01*
X158927550Y-76903817D01*
X158927551Y-76903816D01*
X158932014Y-76895054D01*
X158979988Y-76844259D01*
X159047808Y-76827463D01*
X159113944Y-76849999D01*
X159152984Y-76895054D01*
X159153375Y-76895820D01*
X159157451Y-76903820D01*
X159282390Y-77075786D01*
X159432713Y-77226109D01*
X159604679Y-77351048D01*
X159604681Y-77351049D01*
X159604684Y-77351051D01*
X159794088Y-77447557D01*
X159996257Y-77513246D01*
X160206213Y-77546500D01*
X160206214Y-77546500D01*
X160418786Y-77546500D01*
X160418787Y-77546500D01*
X160628743Y-77513246D01*
X160830912Y-77447557D01*
X161020316Y-77351051D01*
X161042289Y-77335086D01*
X161192286Y-77226109D01*
X161192288Y-77226106D01*
X161192292Y-77226104D01*
X161342604Y-77075792D01*
X161342606Y-77075788D01*
X161342609Y-77075786D01*
X161467548Y-76903820D01*
X161467550Y-76903817D01*
X161467551Y-76903816D01*
X161472014Y-76895054D01*
X161519988Y-76844259D01*
X161587808Y-76827463D01*
X161653944Y-76849999D01*
X161692984Y-76895054D01*
X161693375Y-76895820D01*
X161697451Y-76903820D01*
X161822390Y-77075786D01*
X161972713Y-77226109D01*
X162144679Y-77351048D01*
X162144681Y-77351049D01*
X162144684Y-77351051D01*
X162334088Y-77447557D01*
X162536257Y-77513246D01*
X162746213Y-77546500D01*
X162746214Y-77546500D01*
X162958786Y-77546500D01*
X162958787Y-77546500D01*
X163168743Y-77513246D01*
X163370912Y-77447557D01*
X163560316Y-77351051D01*
X163582289Y-77335086D01*
X163732286Y-77226109D01*
X163732288Y-77226106D01*
X163732292Y-77226104D01*
X163882604Y-77075792D01*
X163882606Y-77075788D01*
X163882609Y-77075786D01*
X164007548Y-76903820D01*
X164007550Y-76903817D01*
X164007551Y-76903816D01*
X164012014Y-76895054D01*
X164059988Y-76844259D01*
X164127808Y-76827463D01*
X164193944Y-76849999D01*
X164232984Y-76895054D01*
X164233375Y-76895820D01*
X164237451Y-76903820D01*
X164362390Y-77075786D01*
X164512713Y-77226109D01*
X164684679Y-77351048D01*
X164684681Y-77351049D01*
X164684684Y-77351051D01*
X164874088Y-77447557D01*
X165076257Y-77513246D01*
X165286213Y-77546500D01*
X165286214Y-77546500D01*
X165498786Y-77546500D01*
X165498787Y-77546500D01*
X165708743Y-77513246D01*
X165910912Y-77447557D01*
X166100316Y-77351051D01*
X166122289Y-77335086D01*
X166272286Y-77226109D01*
X166272288Y-77226106D01*
X166272292Y-77226104D01*
X166422604Y-77075792D01*
X166422606Y-77075788D01*
X166422609Y-77075786D01*
X166547548Y-76903820D01*
X166547550Y-76903817D01*
X166547551Y-76903816D01*
X166552014Y-76895054D01*
X166599988Y-76844259D01*
X166667808Y-76827463D01*
X166733944Y-76849999D01*
X166772984Y-76895054D01*
X166773375Y-76895820D01*
X166777451Y-76903820D01*
X166902390Y-77075786D01*
X167052713Y-77226109D01*
X167224679Y-77351048D01*
X167224681Y-77351049D01*
X167224684Y-77351051D01*
X167414088Y-77447557D01*
X167616257Y-77513246D01*
X167826213Y-77546500D01*
X167826214Y-77546500D01*
X168038786Y-77546500D01*
X168038787Y-77546500D01*
X168248743Y-77513246D01*
X168450912Y-77447557D01*
X168640316Y-77351051D01*
X168662289Y-77335086D01*
X168812286Y-77226109D01*
X168812288Y-77226106D01*
X168812292Y-77226104D01*
X168962604Y-77075792D01*
X168962606Y-77075788D01*
X168962609Y-77075786D01*
X169087548Y-76903820D01*
X169087550Y-76903817D01*
X169087551Y-76903816D01*
X169092014Y-76895054D01*
X169139988Y-76844259D01*
X169207808Y-76827463D01*
X169273944Y-76849999D01*
X169312984Y-76895054D01*
X169313375Y-76895820D01*
X169317451Y-76903820D01*
X169442390Y-77075786D01*
X169592713Y-77226109D01*
X169764679Y-77351048D01*
X169764681Y-77351049D01*
X169764684Y-77351051D01*
X169954088Y-77447557D01*
X170156257Y-77513246D01*
X170366213Y-77546500D01*
X170366214Y-77546500D01*
X170578786Y-77546500D01*
X170578787Y-77546500D01*
X170788743Y-77513246D01*
X170990912Y-77447557D01*
X171180316Y-77351051D01*
X171202289Y-77335086D01*
X171352286Y-77226109D01*
X171352288Y-77226106D01*
X171352292Y-77226104D01*
X171502604Y-77075792D01*
X171502606Y-77075788D01*
X171502609Y-77075786D01*
X171627548Y-76903820D01*
X171627550Y-76903817D01*
X171627551Y-76903816D01*
X171632014Y-76895054D01*
X171679988Y-76844259D01*
X171747808Y-76827463D01*
X171813944Y-76849999D01*
X171852984Y-76895054D01*
X171853375Y-76895820D01*
X171857451Y-76903820D01*
X171982390Y-77075786D01*
X172132713Y-77226109D01*
X172304679Y-77351048D01*
X172304681Y-77351049D01*
X172304684Y-77351051D01*
X172494088Y-77447557D01*
X172696257Y-77513246D01*
X172906213Y-77546500D01*
X172906214Y-77546500D01*
X173118786Y-77546500D01*
X173118787Y-77546500D01*
X173328743Y-77513246D01*
X173530912Y-77447557D01*
X173720316Y-77351051D01*
X173742289Y-77335086D01*
X173892286Y-77226109D01*
X173892288Y-77226106D01*
X173892292Y-77226104D01*
X174042604Y-77075792D01*
X174042606Y-77075788D01*
X174042609Y-77075786D01*
X174167548Y-76903820D01*
X174167550Y-76903817D01*
X174167551Y-76903816D01*
X174172014Y-76895054D01*
X174219988Y-76844259D01*
X174287808Y-76827463D01*
X174353944Y-76849999D01*
X174392984Y-76895054D01*
X174393375Y-76895820D01*
X174397451Y-76903820D01*
X174522390Y-77075786D01*
X174672713Y-77226109D01*
X174844679Y-77351048D01*
X174844681Y-77351049D01*
X174844684Y-77351051D01*
X175034088Y-77447557D01*
X175236257Y-77513246D01*
X175446213Y-77546500D01*
X175446214Y-77546500D01*
X175658786Y-77546500D01*
X175658787Y-77546500D01*
X175868743Y-77513246D01*
X176070912Y-77447557D01*
X176260316Y-77351051D01*
X176282289Y-77335086D01*
X176432286Y-77226109D01*
X176432288Y-77226106D01*
X176432292Y-77226104D01*
X176582604Y-77075792D01*
X176582606Y-77075788D01*
X176582609Y-77075786D01*
X176707548Y-76903820D01*
X176707550Y-76903817D01*
X176707551Y-76903816D01*
X176712014Y-76895054D01*
X176759988Y-76844259D01*
X176827808Y-76827463D01*
X176893944Y-76849999D01*
X176932984Y-76895054D01*
X176933375Y-76895820D01*
X176937451Y-76903820D01*
X177062390Y-77075786D01*
X177212713Y-77226109D01*
X177384679Y-77351048D01*
X177384681Y-77351049D01*
X177384684Y-77351051D01*
X177574088Y-77447557D01*
X177776257Y-77513246D01*
X177986213Y-77546500D01*
X177986214Y-77546500D01*
X178198786Y-77546500D01*
X178198787Y-77546500D01*
X178408743Y-77513246D01*
X178610912Y-77447557D01*
X178800316Y-77351051D01*
X178822289Y-77335086D01*
X178972286Y-77226109D01*
X178972288Y-77226106D01*
X178972292Y-77226104D01*
X179122604Y-77075792D01*
X179122606Y-77075788D01*
X179122609Y-77075786D01*
X179247548Y-76903820D01*
X179247550Y-76903817D01*
X179247551Y-76903816D01*
X179252014Y-76895054D01*
X179299988Y-76844259D01*
X179367808Y-76827463D01*
X179433944Y-76849999D01*
X179472984Y-76895054D01*
X179473375Y-76895820D01*
X179477451Y-76903820D01*
X179602390Y-77075786D01*
X179752713Y-77226109D01*
X179924679Y-77351048D01*
X179924681Y-77351049D01*
X179924684Y-77351051D01*
X180114088Y-77447557D01*
X180316257Y-77513246D01*
X180526213Y-77546500D01*
X180526214Y-77546500D01*
X180738786Y-77546500D01*
X180738787Y-77546500D01*
X180948743Y-77513246D01*
X181150912Y-77447557D01*
X181340316Y-77351051D01*
X181362289Y-77335086D01*
X181512286Y-77226109D01*
X181512288Y-77226106D01*
X181512292Y-77226104D01*
X181662604Y-77075792D01*
X181662606Y-77075788D01*
X181662609Y-77075786D01*
X181787548Y-76903820D01*
X181787550Y-76903817D01*
X181787551Y-76903816D01*
X181792014Y-76895054D01*
X181839988Y-76844259D01*
X181907808Y-76827463D01*
X181973944Y-76849999D01*
X182012984Y-76895054D01*
X182013375Y-76895820D01*
X182017451Y-76903820D01*
X182142390Y-77075786D01*
X182292713Y-77226109D01*
X182464679Y-77351048D01*
X182464681Y-77351049D01*
X182464684Y-77351051D01*
X182654088Y-77447557D01*
X182856257Y-77513246D01*
X183066213Y-77546500D01*
X183066214Y-77546500D01*
X183278786Y-77546500D01*
X183278787Y-77546500D01*
X183488743Y-77513246D01*
X183690912Y-77447557D01*
X183880316Y-77351051D01*
X183902289Y-77335086D01*
X184052286Y-77226109D01*
X184052288Y-77226106D01*
X184052292Y-77226104D01*
X184202604Y-77075792D01*
X184202606Y-77075788D01*
X184202609Y-77075786D01*
X184327548Y-76903820D01*
X184327550Y-76903817D01*
X184327551Y-76903816D01*
X184332014Y-76895054D01*
X184379988Y-76844259D01*
X184447808Y-76827463D01*
X184513944Y-76849999D01*
X184552984Y-76895054D01*
X184553375Y-76895820D01*
X184557451Y-76903820D01*
X184682390Y-77075786D01*
X184832713Y-77226109D01*
X185004679Y-77351048D01*
X185004681Y-77351049D01*
X185004684Y-77351051D01*
X185194088Y-77447557D01*
X185396257Y-77513246D01*
X185606213Y-77546500D01*
X185606214Y-77546500D01*
X185818786Y-77546500D01*
X185818787Y-77546500D01*
X186028743Y-77513246D01*
X186230912Y-77447557D01*
X186420316Y-77351051D01*
X186442289Y-77335086D01*
X186592286Y-77226109D01*
X186592288Y-77226106D01*
X186592292Y-77226104D01*
X186742604Y-77075792D01*
X186742606Y-77075788D01*
X186742609Y-77075786D01*
X186867548Y-76903820D01*
X186867550Y-76903817D01*
X186867551Y-76903816D01*
X186872014Y-76895054D01*
X186919988Y-76844259D01*
X186987808Y-76827463D01*
X187053944Y-76849999D01*
X187092984Y-76895054D01*
X187093375Y-76895820D01*
X187097451Y-76903820D01*
X187222390Y-77075786D01*
X187372713Y-77226109D01*
X187544679Y-77351048D01*
X187544681Y-77351049D01*
X187544684Y-77351051D01*
X187734088Y-77447557D01*
X187936257Y-77513246D01*
X188146213Y-77546500D01*
X188146214Y-77546500D01*
X188358786Y-77546500D01*
X188358787Y-77546500D01*
X188568743Y-77513246D01*
X188770912Y-77447557D01*
X188960316Y-77351051D01*
X188982289Y-77335086D01*
X189132286Y-77226109D01*
X189132288Y-77226106D01*
X189132292Y-77226104D01*
X189282604Y-77075792D01*
X189282606Y-77075788D01*
X189282609Y-77075786D01*
X189407548Y-76903820D01*
X189407550Y-76903817D01*
X189407551Y-76903816D01*
X189412014Y-76895054D01*
X189459988Y-76844259D01*
X189527808Y-76827463D01*
X189593944Y-76849999D01*
X189632984Y-76895054D01*
X189633375Y-76895820D01*
X189637451Y-76903820D01*
X189762390Y-77075786D01*
X189912713Y-77226109D01*
X190084679Y-77351048D01*
X190084681Y-77351049D01*
X190084684Y-77351051D01*
X190274088Y-77447557D01*
X190476257Y-77513246D01*
X190686213Y-77546500D01*
X190686214Y-77546500D01*
X190898786Y-77546500D01*
X190898787Y-77546500D01*
X191108743Y-77513246D01*
X191310912Y-77447557D01*
X191500316Y-77351051D01*
X191522289Y-77335086D01*
X191672286Y-77226109D01*
X191672288Y-77226106D01*
X191672292Y-77226104D01*
X191822604Y-77075792D01*
X191822606Y-77075788D01*
X191822609Y-77075786D01*
X191947548Y-76903820D01*
X191947550Y-76903817D01*
X191947551Y-76903816D01*
X191952014Y-76895054D01*
X191999988Y-76844259D01*
X192067808Y-76827463D01*
X192133944Y-76849999D01*
X192172984Y-76895054D01*
X192173375Y-76895820D01*
X192177451Y-76903820D01*
X192302390Y-77075786D01*
X192452713Y-77226109D01*
X192624679Y-77351048D01*
X192624681Y-77351049D01*
X192624684Y-77351051D01*
X192814088Y-77447557D01*
X193016257Y-77513246D01*
X193226213Y-77546500D01*
X193226214Y-77546500D01*
X193438786Y-77546500D01*
X193438787Y-77546500D01*
X193648743Y-77513246D01*
X193850912Y-77447557D01*
X194040316Y-77351051D01*
X194062289Y-77335086D01*
X194212286Y-77226109D01*
X194212288Y-77226106D01*
X194212292Y-77226104D01*
X194362604Y-77075792D01*
X194362606Y-77075788D01*
X194362609Y-77075786D01*
X194487548Y-76903820D01*
X194487550Y-76903817D01*
X194487551Y-76903816D01*
X194492014Y-76895054D01*
X194539988Y-76844259D01*
X194607808Y-76827463D01*
X194673944Y-76849999D01*
X194712984Y-76895054D01*
X194713375Y-76895820D01*
X194717451Y-76903820D01*
X194842390Y-77075786D01*
X194992713Y-77226109D01*
X195164679Y-77351048D01*
X195164681Y-77351049D01*
X195164684Y-77351051D01*
X195354088Y-77447557D01*
X195556257Y-77513246D01*
X195766213Y-77546500D01*
X195766214Y-77546500D01*
X195978786Y-77546500D01*
X195978787Y-77546500D01*
X196188743Y-77513246D01*
X196390912Y-77447557D01*
X196580316Y-77351051D01*
X196602289Y-77335086D01*
X196752286Y-77226109D01*
X196752288Y-77226106D01*
X196752292Y-77226104D01*
X196902604Y-77075792D01*
X196902606Y-77075788D01*
X196902609Y-77075786D01*
X197027550Y-76903817D01*
X197036553Y-76886149D01*
X197084527Y-76835353D01*
X197152348Y-76818557D01*
X197218483Y-76841094D01*
X197257522Y-76886147D01*
X197257523Y-76886149D01*
X197262451Y-76895819D01*
X197387390Y-77067786D01*
X197537713Y-77218109D01*
X197709679Y-77343048D01*
X197709681Y-77343049D01*
X197709684Y-77343051D01*
X197899088Y-77439557D01*
X198101257Y-77505246D01*
X198311213Y-77538500D01*
X198311214Y-77538500D01*
X198523786Y-77538500D01*
X198523787Y-77538500D01*
X198733743Y-77505246D01*
X198935912Y-77439557D01*
X199125316Y-77343051D01*
X199147289Y-77327086D01*
X199297286Y-77218109D01*
X199297288Y-77218106D01*
X199297292Y-77218104D01*
X199447604Y-77067792D01*
X199447606Y-77067788D01*
X199447609Y-77067786D01*
X199572548Y-76895820D01*
X199572549Y-76895819D01*
X199572551Y-76895816D01*
X199669057Y-76706412D01*
X199734746Y-76504243D01*
X199768000Y-76294287D01*
X199768000Y-76081713D01*
X199734746Y-75871757D01*
X199669057Y-75669588D01*
X199572551Y-75480184D01*
X199572549Y-75480181D01*
X199572548Y-75480179D01*
X199447609Y-75308213D01*
X199297286Y-75157890D01*
X199125320Y-75032951D01*
X198935914Y-74936444D01*
X198935913Y-74936443D01*
X198935912Y-74936443D01*
X198733743Y-74870754D01*
X198733741Y-74870753D01*
X198733740Y-74870753D01*
X198572457Y-74845208D01*
X198523787Y-74837500D01*
X198311213Y-74837500D01*
X198262542Y-74845208D01*
X198101260Y-74870753D01*
X197899085Y-74936444D01*
X197709679Y-75032951D01*
X197537713Y-75157890D01*
X197387390Y-75308213D01*
X197262448Y-75480183D01*
X197253443Y-75497856D01*
X197205466Y-75548650D01*
X197137644Y-75565442D01*
X197071511Y-75542901D01*
X197032475Y-75497848D01*
X197027550Y-75488181D01*
X196902609Y-75316213D01*
X196752286Y-75165890D01*
X196580320Y-75040951D01*
X196390914Y-74944444D01*
X196390913Y-74944443D01*
X196390912Y-74944443D01*
X196188743Y-74878754D01*
X196188741Y-74878753D01*
X196188740Y-74878753D01*
X196027457Y-74853208D01*
X195978787Y-74845500D01*
X195766213Y-74845500D01*
X195717542Y-74853208D01*
X195556260Y-74878753D01*
X195354085Y-74944444D01*
X195164679Y-75040951D01*
X194992713Y-75165890D01*
X194842390Y-75316213D01*
X194717449Y-75488182D01*
X194712984Y-75496946D01*
X194665009Y-75547742D01*
X194597188Y-75564536D01*
X194531053Y-75541998D01*
X194492016Y-75496946D01*
X194487550Y-75488182D01*
X194362609Y-75316213D01*
X194212286Y-75165890D01*
X194040320Y-75040951D01*
X193850914Y-74944444D01*
X193850913Y-74944443D01*
X193850912Y-74944443D01*
X193648743Y-74878754D01*
X193648741Y-74878753D01*
X193648740Y-74878753D01*
X193487457Y-74853208D01*
X193438787Y-74845500D01*
X193226213Y-74845500D01*
X193177542Y-74853208D01*
X193016260Y-74878753D01*
X192814085Y-74944444D01*
X192624679Y-75040951D01*
X192452713Y-75165890D01*
X192302390Y-75316213D01*
X192177449Y-75488182D01*
X192172984Y-75496946D01*
X192125009Y-75547742D01*
X192057188Y-75564536D01*
X191991053Y-75541998D01*
X191952016Y-75496946D01*
X191947550Y-75488182D01*
X191822609Y-75316213D01*
X191672286Y-75165890D01*
X191500320Y-75040951D01*
X191310914Y-74944444D01*
X191310913Y-74944443D01*
X191310912Y-74944443D01*
X191108743Y-74878754D01*
X191108741Y-74878753D01*
X191108740Y-74878753D01*
X190947457Y-74853208D01*
X190898787Y-74845500D01*
X190686213Y-74845500D01*
X190637542Y-74853208D01*
X190476260Y-74878753D01*
X190274085Y-74944444D01*
X190084679Y-75040951D01*
X189912713Y-75165890D01*
X189762390Y-75316213D01*
X189637449Y-75488182D01*
X189632984Y-75496946D01*
X189585009Y-75547742D01*
X189517188Y-75564536D01*
X189451053Y-75541998D01*
X189412016Y-75496946D01*
X189407550Y-75488182D01*
X189282609Y-75316213D01*
X189132286Y-75165890D01*
X188960320Y-75040951D01*
X188770914Y-74944444D01*
X188770913Y-74944443D01*
X188770912Y-74944443D01*
X188568743Y-74878754D01*
X188568741Y-74878753D01*
X188568740Y-74878753D01*
X188407457Y-74853208D01*
X188358787Y-74845500D01*
X188146213Y-74845500D01*
X188097542Y-74853208D01*
X187936260Y-74878753D01*
X187734085Y-74944444D01*
X187544679Y-75040951D01*
X187372713Y-75165890D01*
X187222390Y-75316213D01*
X187097449Y-75488182D01*
X187092984Y-75496946D01*
X187045009Y-75547742D01*
X186977188Y-75564536D01*
X186911053Y-75541998D01*
X186872016Y-75496946D01*
X186867550Y-75488182D01*
X186742609Y-75316213D01*
X186592286Y-75165890D01*
X186420320Y-75040951D01*
X186230914Y-74944444D01*
X186230913Y-74944443D01*
X186230912Y-74944443D01*
X186028743Y-74878754D01*
X186028741Y-74878753D01*
X186028740Y-74878753D01*
X185867457Y-74853208D01*
X185818787Y-74845500D01*
X185606213Y-74845500D01*
X185557542Y-74853208D01*
X185396260Y-74878753D01*
X185194085Y-74944444D01*
X185004679Y-75040951D01*
X184832713Y-75165890D01*
X184682390Y-75316213D01*
X184557449Y-75488182D01*
X184552984Y-75496946D01*
X184505009Y-75547742D01*
X184437188Y-75564536D01*
X184371053Y-75541998D01*
X184332016Y-75496946D01*
X184327550Y-75488182D01*
X184202609Y-75316213D01*
X184052286Y-75165890D01*
X183880320Y-75040951D01*
X183690914Y-74944444D01*
X183690913Y-74944443D01*
X183690912Y-74944443D01*
X183488743Y-74878754D01*
X183488741Y-74878753D01*
X183488740Y-74878753D01*
X183327457Y-74853208D01*
X183278787Y-74845500D01*
X183066213Y-74845500D01*
X183017542Y-74853208D01*
X182856260Y-74878753D01*
X182654085Y-74944444D01*
X182464679Y-75040951D01*
X182292713Y-75165890D01*
X182142390Y-75316213D01*
X182017449Y-75488182D01*
X182012984Y-75496946D01*
X181965009Y-75547742D01*
X181897188Y-75564536D01*
X181831053Y-75541998D01*
X181792016Y-75496946D01*
X181787550Y-75488182D01*
X181662609Y-75316213D01*
X181512286Y-75165890D01*
X181340320Y-75040951D01*
X181150914Y-74944444D01*
X181150913Y-74944443D01*
X181150912Y-74944443D01*
X180948743Y-74878754D01*
X180948741Y-74878753D01*
X180948740Y-74878753D01*
X180787457Y-74853208D01*
X180738787Y-74845500D01*
X180526213Y-74845500D01*
X180477542Y-74853208D01*
X180316260Y-74878753D01*
X180114085Y-74944444D01*
X179924679Y-75040951D01*
X179752713Y-75165890D01*
X179602390Y-75316213D01*
X179477449Y-75488182D01*
X179472984Y-75496946D01*
X179425009Y-75547742D01*
X179357188Y-75564536D01*
X179291053Y-75541998D01*
X179252016Y-75496946D01*
X179247550Y-75488182D01*
X179122609Y-75316213D01*
X178972286Y-75165890D01*
X178800320Y-75040951D01*
X178610914Y-74944444D01*
X178610913Y-74944443D01*
X178610912Y-74944443D01*
X178408743Y-74878754D01*
X178408741Y-74878753D01*
X178408740Y-74878753D01*
X178247457Y-74853208D01*
X178198787Y-74845500D01*
X177986213Y-74845500D01*
X177937542Y-74853208D01*
X177776260Y-74878753D01*
X177574085Y-74944444D01*
X177384679Y-75040951D01*
X177212713Y-75165890D01*
X177062390Y-75316213D01*
X176937449Y-75488182D01*
X176932984Y-75496946D01*
X176885009Y-75547742D01*
X176817188Y-75564536D01*
X176751053Y-75541998D01*
X176712016Y-75496946D01*
X176707550Y-75488182D01*
X176582609Y-75316213D01*
X176432286Y-75165890D01*
X176260320Y-75040951D01*
X176070914Y-74944444D01*
X176070913Y-74944443D01*
X176070912Y-74944443D01*
X175868743Y-74878754D01*
X175868741Y-74878753D01*
X175868740Y-74878753D01*
X175707457Y-74853208D01*
X175658787Y-74845500D01*
X175446213Y-74845500D01*
X175397542Y-74853208D01*
X175236260Y-74878753D01*
X175034085Y-74944444D01*
X174844679Y-75040951D01*
X174672713Y-75165890D01*
X174522390Y-75316213D01*
X174397449Y-75488182D01*
X174392984Y-75496946D01*
X174345009Y-75547742D01*
X174277188Y-75564536D01*
X174211053Y-75541998D01*
X174172016Y-75496946D01*
X174167550Y-75488182D01*
X174042609Y-75316213D01*
X173892286Y-75165890D01*
X173720320Y-75040951D01*
X173530914Y-74944444D01*
X173530913Y-74944443D01*
X173530912Y-74944443D01*
X173328743Y-74878754D01*
X173328741Y-74878753D01*
X173328740Y-74878753D01*
X173167457Y-74853208D01*
X173118787Y-74845500D01*
X172906213Y-74845500D01*
X172857542Y-74853208D01*
X172696260Y-74878753D01*
X172494085Y-74944444D01*
X172304679Y-75040951D01*
X172132713Y-75165890D01*
X171982390Y-75316213D01*
X171857449Y-75488182D01*
X171852984Y-75496946D01*
X171805009Y-75547742D01*
X171737188Y-75564536D01*
X171671053Y-75541998D01*
X171632016Y-75496946D01*
X171627550Y-75488182D01*
X171502609Y-75316213D01*
X171352286Y-75165890D01*
X171180320Y-75040951D01*
X170990914Y-74944444D01*
X170990913Y-74944443D01*
X170990912Y-74944443D01*
X170788743Y-74878754D01*
X170788741Y-74878753D01*
X170788740Y-74878753D01*
X170627457Y-74853208D01*
X170578787Y-74845500D01*
X170366213Y-74845500D01*
X170317542Y-74853208D01*
X170156260Y-74878753D01*
X169954085Y-74944444D01*
X169764679Y-75040951D01*
X169592713Y-75165890D01*
X169442390Y-75316213D01*
X169317449Y-75488182D01*
X169312984Y-75496946D01*
X169265009Y-75547742D01*
X169197188Y-75564536D01*
X169131053Y-75541998D01*
X169092016Y-75496946D01*
X169087550Y-75488182D01*
X168962609Y-75316213D01*
X168812286Y-75165890D01*
X168640320Y-75040951D01*
X168450914Y-74944444D01*
X168450913Y-74944443D01*
X168450912Y-74944443D01*
X168248743Y-74878754D01*
X168248741Y-74878753D01*
X168248740Y-74878753D01*
X168087457Y-74853208D01*
X168038787Y-74845500D01*
X167826213Y-74845500D01*
X167777542Y-74853208D01*
X167616260Y-74878753D01*
X167414085Y-74944444D01*
X167224679Y-75040951D01*
X167052713Y-75165890D01*
X166902390Y-75316213D01*
X166777449Y-75488182D01*
X166772984Y-75496946D01*
X166725009Y-75547742D01*
X166657188Y-75564536D01*
X166591053Y-75541998D01*
X166552016Y-75496946D01*
X166547550Y-75488182D01*
X166422609Y-75316213D01*
X166272286Y-75165890D01*
X166100320Y-75040951D01*
X165910914Y-74944444D01*
X165910913Y-74944443D01*
X165910912Y-74944443D01*
X165708743Y-74878754D01*
X165708741Y-74878753D01*
X165708740Y-74878753D01*
X165547457Y-74853208D01*
X165498787Y-74845500D01*
X165286213Y-74845500D01*
X165237542Y-74853208D01*
X165076260Y-74878753D01*
X164874085Y-74944444D01*
X164684679Y-75040951D01*
X164512713Y-75165890D01*
X164362390Y-75316213D01*
X164237449Y-75488182D01*
X164232984Y-75496946D01*
X164185009Y-75547742D01*
X164117188Y-75564536D01*
X164051053Y-75541998D01*
X164012016Y-75496946D01*
X164007550Y-75488182D01*
X163882609Y-75316213D01*
X163732286Y-75165890D01*
X163560320Y-75040951D01*
X163370914Y-74944444D01*
X163370913Y-74944443D01*
X163370912Y-74944443D01*
X163168743Y-74878754D01*
X163168741Y-74878753D01*
X163168740Y-74878753D01*
X163007457Y-74853208D01*
X162958787Y-74845500D01*
X162746213Y-74845500D01*
X162697542Y-74853208D01*
X162536260Y-74878753D01*
X162334085Y-74944444D01*
X162144679Y-75040951D01*
X161972713Y-75165890D01*
X161822390Y-75316213D01*
X161697449Y-75488182D01*
X161692984Y-75496946D01*
X161645009Y-75547742D01*
X161577188Y-75564536D01*
X161511053Y-75541998D01*
X161472016Y-75496946D01*
X161467550Y-75488182D01*
X161342609Y-75316213D01*
X161192286Y-75165890D01*
X161020320Y-75040951D01*
X160830914Y-74944444D01*
X160830913Y-74944443D01*
X160830912Y-74944443D01*
X160628743Y-74878754D01*
X160628741Y-74878753D01*
X160628740Y-74878753D01*
X160467457Y-74853208D01*
X160418787Y-74845500D01*
X160206213Y-74845500D01*
X160157542Y-74853208D01*
X159996260Y-74878753D01*
X159794085Y-74944444D01*
X159604679Y-75040951D01*
X159432713Y-75165890D01*
X159282390Y-75316213D01*
X159157449Y-75488182D01*
X159152984Y-75496946D01*
X159105009Y-75547742D01*
X159037188Y-75564536D01*
X158971053Y-75541998D01*
X158932016Y-75496946D01*
X158927550Y-75488182D01*
X158802609Y-75316213D01*
X158652286Y-75165890D01*
X158480320Y-75040951D01*
X158290914Y-74944444D01*
X158290913Y-74944443D01*
X158290912Y-74944443D01*
X158088743Y-74878754D01*
X158088741Y-74878753D01*
X158088740Y-74878753D01*
X157927457Y-74853208D01*
X157878787Y-74845500D01*
X157666213Y-74845500D01*
X157617542Y-74853208D01*
X157456260Y-74878753D01*
X157254085Y-74944444D01*
X157064679Y-75040951D01*
X156892713Y-75165890D01*
X156742390Y-75316213D01*
X156617449Y-75488182D01*
X156612984Y-75496946D01*
X156565009Y-75547742D01*
X156497188Y-75564536D01*
X156431053Y-75541998D01*
X156392016Y-75496946D01*
X156387550Y-75488182D01*
X156262609Y-75316213D01*
X156112286Y-75165890D01*
X155940320Y-75040951D01*
X155750914Y-74944444D01*
X155750913Y-74944443D01*
X155750912Y-74944443D01*
X155548743Y-74878754D01*
X155548741Y-74878753D01*
X155548740Y-74878753D01*
X155387457Y-74853208D01*
X155338787Y-74845500D01*
X155126213Y-74845500D01*
X155077542Y-74853208D01*
X154916260Y-74878753D01*
X154714085Y-74944444D01*
X154524679Y-75040951D01*
X154352713Y-75165890D01*
X154202390Y-75316213D01*
X154077449Y-75488182D01*
X154072984Y-75496946D01*
X154025009Y-75547742D01*
X153957188Y-75564536D01*
X153891053Y-75541998D01*
X153852016Y-75496946D01*
X153847550Y-75488182D01*
X153722609Y-75316213D01*
X153572286Y-75165890D01*
X153400320Y-75040951D01*
X153210914Y-74944444D01*
X153210913Y-74944443D01*
X153210912Y-74944443D01*
X153008743Y-74878754D01*
X153008741Y-74878753D01*
X153008740Y-74878753D01*
X152847457Y-74853208D01*
X152798787Y-74845500D01*
X152586213Y-74845500D01*
X152537542Y-74853208D01*
X152376260Y-74878753D01*
X152174085Y-74944444D01*
X151984679Y-75040951D01*
X151812713Y-75165890D01*
X151662390Y-75316213D01*
X151537451Y-75488179D01*
X151440944Y-75677585D01*
X151375253Y-75879760D01*
X151343267Y-76081713D01*
X151342000Y-76089713D01*
X93726500Y-76089713D01*
X93726500Y-68977778D01*
X187829500Y-68977778D01*
X187829500Y-69198221D01*
X187863985Y-69415952D01*
X187932103Y-69625603D01*
X187932104Y-69625606D01*
X188032187Y-69822025D01*
X188161752Y-70000358D01*
X188161756Y-70000363D01*
X188317636Y-70156243D01*
X188317641Y-70156247D01*
X188419606Y-70230328D01*
X188495978Y-70285815D01*
X188624375Y-70351237D01*
X188692393Y-70385895D01*
X188692396Y-70385896D01*
X188797221Y-70419955D01*
X188902049Y-70454015D01*
X189119778Y-70488500D01*
X189119779Y-70488500D01*
X189340221Y-70488500D01*
X189340222Y-70488500D01*
X189557951Y-70454015D01*
X189767606Y-70385895D01*
X189964022Y-70285815D01*
X190142365Y-70156242D01*
X190192536Y-70106070D01*
X190253857Y-70072586D01*
X190323548Y-70077570D01*
X190379482Y-70119441D01*
X190396398Y-70150419D01*
X190426202Y-70230328D01*
X190426206Y-70230335D01*
X190512452Y-70345544D01*
X190512455Y-70345547D01*
X190627664Y-70431793D01*
X190627671Y-70431797D01*
X190762517Y-70482091D01*
X190762516Y-70482091D01*
X190769444Y-70482835D01*
X190822127Y-70488500D01*
X192717872Y-70488499D01*
X192777483Y-70482091D01*
X192912331Y-70431796D01*
X193027546Y-70345546D01*
X193113796Y-70230331D01*
X193164091Y-70095483D01*
X193170500Y-70035873D01*
X193170499Y-68140128D01*
X193164091Y-68080517D01*
X193143601Y-68025581D01*
X193113797Y-67945671D01*
X193113793Y-67945664D01*
X193027547Y-67830455D01*
X193027544Y-67830452D01*
X192912335Y-67744206D01*
X192912328Y-67744202D01*
X192777482Y-67693908D01*
X192777483Y-67693908D01*
X192717883Y-67687501D01*
X192717881Y-67687500D01*
X192717873Y-67687500D01*
X192717864Y-67687500D01*
X190822129Y-67687500D01*
X190822123Y-67687501D01*
X190762516Y-67693908D01*
X190627671Y-67744202D01*
X190627664Y-67744206D01*
X190512455Y-67830452D01*
X190512452Y-67830455D01*
X190426206Y-67945664D01*
X190426203Y-67945669D01*
X190396398Y-68025581D01*
X190354526Y-68081514D01*
X190289062Y-68105931D01*
X190220789Y-68091079D01*
X190192535Y-68069928D01*
X190142363Y-68019756D01*
X190142358Y-68019752D01*
X189964025Y-67890187D01*
X189964024Y-67890186D01*
X189964022Y-67890185D01*
X189846791Y-67830452D01*
X189767606Y-67790104D01*
X189767603Y-67790103D01*
X189557952Y-67721985D01*
X189449086Y-67704742D01*
X189340222Y-67687500D01*
X189119778Y-67687500D01*
X189047201Y-67698995D01*
X188902047Y-67721985D01*
X188692396Y-67790103D01*
X188692393Y-67790104D01*
X188495974Y-67890187D01*
X188317641Y-68019752D01*
X188317636Y-68019756D01*
X188161756Y-68175636D01*
X188161752Y-68175641D01*
X188032187Y-68353974D01*
X187932104Y-68550393D01*
X187932103Y-68550396D01*
X187863985Y-68760047D01*
X187829500Y-68977778D01*
X93726500Y-68977778D01*
X93726500Y-66043480D01*
X93726695Y-66036528D01*
X93727096Y-66029380D01*
X93734086Y-65904905D01*
X94114500Y-65904905D01*
X94114500Y-66175094D01*
X94144749Y-66443558D01*
X94144751Y-66443570D01*
X94204872Y-66706979D01*
X94294106Y-66961996D01*
X94411331Y-67205416D01*
X94411333Y-67205419D01*
X94555077Y-67434187D01*
X94723532Y-67645422D01*
X94914578Y-67836468D01*
X95125813Y-68004923D01*
X95354581Y-68148667D01*
X95598005Y-68265894D01*
X95853020Y-68355127D01*
X95853022Y-68355127D01*
X95853023Y-68355128D01*
X96116429Y-68415249D01*
X96384905Y-68445499D01*
X96384906Y-68445500D01*
X96384910Y-68445500D01*
X96655094Y-68445500D01*
X96655094Y-68445499D01*
X96923571Y-68415249D01*
X97186977Y-68355128D01*
X97441995Y-68265894D01*
X97685419Y-68148667D01*
X97914187Y-68004923D01*
X98125422Y-67836468D01*
X98316468Y-67645422D01*
X98484923Y-67434187D01*
X98628667Y-67205419D01*
X98745894Y-66961995D01*
X98835128Y-66706977D01*
X98895249Y-66443571D01*
X98925500Y-66175090D01*
X98925500Y-65904910D01*
X98895249Y-65636429D01*
X98835128Y-65373023D01*
X98745894Y-65118005D01*
X98628667Y-64874581D01*
X98575969Y-64790713D01*
X141524500Y-64790713D01*
X141524500Y-65003286D01*
X141543627Y-65124053D01*
X141557754Y-65213243D01*
X141622236Y-65411698D01*
X141623444Y-65415414D01*
X141719951Y-65604820D01*
X141844890Y-65776786D01*
X141995213Y-65927109D01*
X142167179Y-66052048D01*
X142167181Y-66052049D01*
X142167184Y-66052051D01*
X142356588Y-66148557D01*
X142558757Y-66214246D01*
X142768713Y-66247500D01*
X142768714Y-66247500D01*
X142981286Y-66247500D01*
X142981287Y-66247500D01*
X143191243Y-66214246D01*
X143393412Y-66148557D01*
X143582816Y-66052051D01*
X143604789Y-66036086D01*
X143754786Y-65927109D01*
X143754788Y-65927106D01*
X143754792Y-65927104D01*
X143905104Y-65776792D01*
X143905106Y-65776788D01*
X143905109Y-65776786D01*
X144030048Y-65604820D01*
X144030047Y-65604820D01*
X144030051Y-65604816D01*
X144034514Y-65596054D01*
X144082488Y-65545259D01*
X144150308Y-65528463D01*
X144216444Y-65550999D01*
X144255486Y-65596056D01*
X144259951Y-65604820D01*
X144384890Y-65776786D01*
X144535213Y-65927109D01*
X144707179Y-66052048D01*
X144707181Y-66052049D01*
X144707184Y-66052051D01*
X144896588Y-66148557D01*
X145098757Y-66214246D01*
X145308713Y-66247500D01*
X145308714Y-66247500D01*
X145521286Y-66247500D01*
X145521287Y-66247500D01*
X145731243Y-66214246D01*
X145933412Y-66148557D01*
X146122816Y-66052051D01*
X146294792Y-65927104D01*
X146408329Y-65813566D01*
X146469648Y-65780084D01*
X146539340Y-65785068D01*
X146595274Y-65826939D01*
X146612189Y-65857917D01*
X146661202Y-65989328D01*
X146661206Y-65989335D01*
X146747452Y-66104544D01*
X146747455Y-66104547D01*
X146862664Y-66190793D01*
X146862671Y-66190797D01*
X146997517Y-66241091D01*
X146997516Y-66241091D01*
X147004444Y-66241835D01*
X147057127Y-66247500D01*
X148852872Y-66247499D01*
X148912483Y-66241091D01*
X149047331Y-66190796D01*
X149162546Y-66104546D01*
X149248796Y-65989331D01*
X149280283Y-65904910D01*
X149280285Y-65904905D01*
X195714500Y-65904905D01*
X195714500Y-66175094D01*
X195744749Y-66443558D01*
X195744751Y-66443570D01*
X195804872Y-66706979D01*
X195894106Y-66961996D01*
X196011331Y-67205416D01*
X196011333Y-67205419D01*
X196155077Y-67434187D01*
X196323532Y-67645422D01*
X196514578Y-67836468D01*
X196725813Y-68004923D01*
X196954581Y-68148667D01*
X197198005Y-68265894D01*
X197453020Y-68355127D01*
X197453022Y-68355127D01*
X197453023Y-68355128D01*
X197716429Y-68415249D01*
X197984905Y-68445499D01*
X197984906Y-68445500D01*
X197984910Y-68445500D01*
X198255094Y-68445500D01*
X198255094Y-68445499D01*
X198523571Y-68415249D01*
X198786977Y-68355128D01*
X199041995Y-68265894D01*
X199285419Y-68148667D01*
X199514187Y-68004923D01*
X199725422Y-67836468D01*
X199916468Y-67645422D01*
X200084923Y-67434187D01*
X200228667Y-67205419D01*
X200345894Y-66961995D01*
X200435128Y-66706977D01*
X200495249Y-66443571D01*
X200525500Y-66175090D01*
X200525500Y-65904910D01*
X200495249Y-65636429D01*
X200435128Y-65373023D01*
X200345894Y-65118005D01*
X200228667Y-64874581D01*
X200084923Y-64645813D01*
X199916468Y-64434578D01*
X199725422Y-64243532D01*
X199724752Y-64242998D01*
X199657272Y-64189184D01*
X199514187Y-64075077D01*
X199285419Y-63931333D01*
X199285416Y-63931331D01*
X199041996Y-63814106D01*
X198786978Y-63724872D01*
X198786980Y-63724872D01*
X198567055Y-63674676D01*
X198523571Y-63664751D01*
X198523567Y-63664750D01*
X198523558Y-63664749D01*
X198255094Y-63634500D01*
X198255090Y-63634500D01*
X197984910Y-63634500D01*
X197984906Y-63634500D01*
X197716441Y-63664749D01*
X197716429Y-63664751D01*
X197453020Y-63724872D01*
X197198003Y-63814106D01*
X196954583Y-63931331D01*
X196725814Y-64075076D01*
X196514578Y-64243531D01*
X196323531Y-64434578D01*
X196155076Y-64645814D01*
X196011331Y-64874583D01*
X195894106Y-65118003D01*
X195804872Y-65373020D01*
X195744751Y-65636429D01*
X195744749Y-65636441D01*
X195714500Y-65904905D01*
X149280285Y-65904905D01*
X149297743Y-65858098D01*
X149297743Y-65858097D01*
X149299090Y-65854485D01*
X149299091Y-65854483D01*
X149302052Y-65826939D01*
X149305500Y-65794873D01*
X149305499Y-63999128D01*
X149299091Y-63939517D01*
X149297810Y-63936083D01*
X149248797Y-63804671D01*
X149248793Y-63804664D01*
X149162547Y-63689455D01*
X149162544Y-63689452D01*
X149047335Y-63603206D01*
X149047328Y-63603202D01*
X148912482Y-63552908D01*
X148912483Y-63552908D01*
X148852883Y-63546501D01*
X148852881Y-63546500D01*
X148852873Y-63546500D01*
X148852864Y-63546500D01*
X147057129Y-63546500D01*
X147057123Y-63546501D01*
X146997516Y-63552908D01*
X146862671Y-63603202D01*
X146862664Y-63603206D01*
X146747455Y-63689452D01*
X146747452Y-63689455D01*
X146661206Y-63804664D01*
X146661203Y-63804669D01*
X146612189Y-63936083D01*
X146570317Y-63992016D01*
X146504853Y-64016433D01*
X146436580Y-64001581D01*
X146408326Y-63980430D01*
X146294786Y-63866890D01*
X146122820Y-63741951D01*
X145933414Y-63645444D01*
X145933413Y-63645443D01*
X145933412Y-63645443D01*
X145731243Y-63579754D01*
X145731241Y-63579753D01*
X145731240Y-63579753D01*
X145569957Y-63554208D01*
X145521287Y-63546500D01*
X145308713Y-63546500D01*
X145260042Y-63554208D01*
X145098760Y-63579753D01*
X144896585Y-63645444D01*
X144707179Y-63741951D01*
X144535213Y-63866890D01*
X144384890Y-64017213D01*
X144259949Y-64189182D01*
X144255484Y-64197946D01*
X144207509Y-64248742D01*
X144139688Y-64265536D01*
X144073553Y-64242998D01*
X144034516Y-64197946D01*
X144030050Y-64189182D01*
X143905109Y-64017213D01*
X143754786Y-63866890D01*
X143582820Y-63741951D01*
X143393414Y-63645444D01*
X143393413Y-63645443D01*
X143393412Y-63645443D01*
X143191243Y-63579754D01*
X143191241Y-63579753D01*
X143191240Y-63579753D01*
X143029957Y-63554208D01*
X142981287Y-63546500D01*
X142768713Y-63546500D01*
X142720042Y-63554208D01*
X142558760Y-63579753D01*
X142356585Y-63645444D01*
X142167179Y-63741951D01*
X141995213Y-63866890D01*
X141844890Y-64017213D01*
X141719951Y-64189179D01*
X141623444Y-64378585D01*
X141557753Y-64580760D01*
X141524500Y-64790713D01*
X98575969Y-64790713D01*
X98484923Y-64645813D01*
X98316468Y-64434578D01*
X98125422Y-64243532D01*
X98124752Y-64242998D01*
X98057272Y-64189184D01*
X97914187Y-64075077D01*
X97685419Y-63931333D01*
X97685416Y-63931331D01*
X97441996Y-63814106D01*
X97186978Y-63724872D01*
X97186980Y-63724872D01*
X96967055Y-63674676D01*
X96923571Y-63664751D01*
X96923567Y-63664750D01*
X96923558Y-63664749D01*
X96655094Y-63634500D01*
X96655090Y-63634500D01*
X96384910Y-63634500D01*
X96384906Y-63634500D01*
X96116441Y-63664749D01*
X96116429Y-63664751D01*
X95853020Y-63724872D01*
X95598003Y-63814106D01*
X95354583Y-63931331D01*
X95125814Y-64075076D01*
X94914578Y-64243531D01*
X94723531Y-64434578D01*
X94555076Y-64645814D01*
X94411331Y-64874583D01*
X94294106Y-65118003D01*
X94204872Y-65373020D01*
X94144751Y-65636429D01*
X94144749Y-65636441D01*
X94114500Y-65904905D01*
X93734086Y-65904905D01*
X93743675Y-65734168D01*
X93745229Y-65720371D01*
X93795372Y-65425250D01*
X93798466Y-65411698D01*
X93866716Y-65174799D01*
X93881336Y-65124049D01*
X93885928Y-65110929D01*
X93907765Y-65058207D01*
X94000480Y-64834372D01*
X94006502Y-64821866D01*
X94151316Y-64559847D01*
X94158694Y-64548104D01*
X94331938Y-64303940D01*
X94340576Y-64293108D01*
X94540066Y-64069878D01*
X94549878Y-64060066D01*
X94773108Y-63860576D01*
X94783940Y-63851938D01*
X95028104Y-63678694D01*
X95039847Y-63671316D01*
X95301866Y-63526502D01*
X95314372Y-63520480D01*
X95590929Y-63405928D01*
X95604049Y-63401336D01*
X95891703Y-63318464D01*
X95905250Y-63315372D01*
X96200371Y-63265229D01*
X96214168Y-63263675D01*
X96516528Y-63246695D01*
X96523481Y-63246500D01*
X96574851Y-63246500D01*
X198065149Y-63246500D01*
X198116519Y-63246500D01*
X198123472Y-63246695D01*
G37*
%TD.AperFunction*%
%TD*%
M02*
