%TF.GenerationSoftware,KiCad,Pcbnew,9.0.6*%
%TF.CreationDate,2026-06-16T15:16:34-05:00*%
%TF.ProjectId,Open_Field_Logger_Lab,4f70656e-5f46-4696-956c-645f4c6f6767,1.0*%
%TF.SameCoordinates,Original*%
%TF.FileFunction,Soldermask,Top*%
%TF.FilePolarity,Negative*%
%FSLAX46Y46*%
G04 Gerber Fmt 4.6, Leading zero omitted, Abs format (unit mm)*
G04 Created by KiCad (PCBNEW 9.0.6) date 2026-06-16 15:16:34*
%MOMM*%
%LPD*%
G01*
G04 APERTURE LIST*
G04 Aperture macros list*
%AMRoundRect*
0 Rectangle with rounded corners*
0 $1 Rounding radius*
0 $2 $3 $4 $5 $6 $7 $8 $9 X,Y pos of 4 corners*
0 Add a 4 corners polygon primitive as box body*
4,1,4,$2,$3,$4,$5,$6,$7,$8,$9,$2,$3,0*
0 Add four circle primitives for the rounded corners*
1,1,$1+$1,$2,$3*
1,1,$1+$1,$4,$5*
1,1,$1+$1,$6,$7*
1,1,$1+$1,$8,$9*
0 Add four rect primitives between the rounded corners*
20,1,$1+$1,$2,$3,$4,$5,0*
20,1,$1+$1,$4,$5,$6,$7,0*
20,1,$1+$1,$6,$7,$8,$9,0*
20,1,$1+$1,$8,$9,$2,$3,0*%
G04 Aperture macros list end*
%ADD10C,3.810000*%
%ADD11RoundRect,0.102000X-1.125000X1.125000X-1.125000X-1.125000X1.125000X-1.125000X1.125000X1.125000X0*%
%ADD12C,2.454000*%
%ADD13R,1.700000X1.700000*%
%ADD14O,1.700000X1.700000*%
%ADD15RoundRect,0.218750X0.256250X-0.218750X0.256250X0.218750X-0.256250X0.218750X-0.256250X-0.218750X0*%
%ADD16R,1.600200X1.168400*%
%ADD17C,2.540000*%
%ADD18RoundRect,0.218750X-0.256250X0.218750X-0.256250X-0.218750X0.256250X-0.218750X0.256250X0.218750X0*%
%ADD19RoundRect,0.243750X0.243750X0.456250X-0.243750X0.456250X-0.243750X-0.456250X0.243750X-0.456250X0*%
%ADD20RoundRect,0.218750X0.218750X0.256250X-0.218750X0.256250X-0.218750X-0.256250X0.218750X-0.256250X0*%
%ADD21R,0.700000X1.200000*%
%ADD22R,1.000000X0.800000*%
%ADD23R,1.300000X1.900000*%
%ADD24R,1.000000X2.800000*%
%ADD25R,1.000000X1.200000*%
%ADD26R,1.498600X1.498600*%
%ADD27C,1.498600*%
%ADD28R,1.320800X1.320800*%
%ADD29C,1.320800*%
%ADD30RoundRect,0.218750X-0.218750X-0.256250X0.218750X-0.256250X0.218750X0.256250X-0.218750X0.256250X0*%
%ADD31RoundRect,0.075000X-0.650000X-0.075000X0.650000X-0.075000X0.650000X0.075000X-0.650000X0.075000X0*%
%ADD32C,2.000000*%
%ADD33R,0.800000X0.900000*%
%ADD34C,3.302000*%
%ADD35C,1.700000*%
%ADD36R,1.800000X1.800000*%
%ADD37C,1.800000*%
%ADD38C,1.524000*%
%ADD39R,1.549400X1.295400*%
G04 APERTURE END LIST*
D10*
%TO.C,H4*%
X96520000Y-129540000D03*
%TD*%
%TO.C,H1*%
X198120000Y-129540000D03*
%TD*%
D11*
%TO.C,D3*%
X116205000Y-89616000D03*
D12*
X116205000Y-105872000D03*
%TD*%
D10*
%TO.C,H2*%
X96520000Y-66040000D03*
%TD*%
D13*
%TO.C,J13*%
X127802000Y-128778000D03*
D14*
X132802000Y-128778000D03*
%TD*%
D15*
%TO.C,R11*%
X159004000Y-128041500D03*
X159004000Y-126466500D03*
%TD*%
D16*
%TO.C,Y1*%
X140012500Y-110544800D03*
X140012500Y-107700000D03*
%TD*%
D10*
%TO.C,H3*%
X198120000Y-66040000D03*
%TD*%
D17*
%TO.C,BT1*%
X143598900Y-85979000D03*
X123609100Y-85979000D03*
%TD*%
D18*
%TO.C,R15*%
X123698000Y-115671500D03*
X123698000Y-117246500D03*
%TD*%
D19*
%TO.C,D2*%
X180007500Y-69088000D03*
X178132500Y-69088000D03*
%TD*%
D13*
%TO.C,J12*%
X117388000Y-128778000D03*
D14*
X122388000Y-128778000D03*
%TD*%
D20*
%TO.C,R7*%
X123723500Y-105156000D03*
X122148500Y-105156000D03*
%TD*%
D21*
%TO.C,J8*%
X170161000Y-115960500D03*
X169061000Y-115960500D03*
X167961000Y-115960500D03*
X166861000Y-115960500D03*
X165761000Y-115960500D03*
X164661000Y-115960500D03*
X163561000Y-115960500D03*
X162461000Y-115960500D03*
X161361000Y-115960500D03*
D22*
X160561000Y-126460500D03*
D23*
X174061000Y-131060500D03*
D24*
X160561000Y-130610500D03*
D25*
X171711000Y-115960500D03*
X160561000Y-120260500D03*
%TD*%
D26*
%TO.C,U3*%
X142748000Y-107933400D03*
D27*
X142748000Y-110473400D03*
X142748000Y-113013400D03*
X142748000Y-115553400D03*
X150368000Y-115553400D03*
X150368000Y-113013400D03*
X150368000Y-110473400D03*
X150368000Y-107933400D03*
%TD*%
D20*
%TO.C,R6*%
X128295500Y-105156000D03*
X126720500Y-105156000D03*
%TD*%
D28*
%TO.C,TH1*%
X95471999Y-114554000D03*
D29*
X104172001Y-114554000D03*
%TD*%
D30*
%TO.C,R2*%
X174980500Y-69088000D03*
X176555500Y-69088000D03*
%TD*%
D13*
%TO.C,J6*%
X177546000Y-130556000D03*
D14*
X180086000Y-130556000D03*
X182626000Y-130556000D03*
X185166000Y-130556000D03*
X187706000Y-130556000D03*
X190246000Y-130556000D03*
%TD*%
D31*
%TO.C,U4*%
X125308000Y-112157000D03*
X125308000Y-112657000D03*
X125308000Y-113157000D03*
X125308000Y-113657000D03*
X125308000Y-114157000D03*
X129708000Y-114157000D03*
X129708000Y-113657000D03*
X129708000Y-113157000D03*
X129708000Y-112657000D03*
X129708000Y-112157000D03*
%TD*%
D13*
%TO.C,J4*%
X156972000Y-105791000D03*
D14*
X159512000Y-105791000D03*
X162052000Y-105791000D03*
X164592000Y-105791000D03*
%TD*%
D18*
%TO.C,R18*%
X131318000Y-115671500D03*
X131318000Y-117246500D03*
%TD*%
D32*
%TO.C,FID1*%
X100965000Y-129540000D03*
%TD*%
D20*
%TO.C,R5*%
X132867500Y-105156000D03*
X131292500Y-105156000D03*
%TD*%
D18*
%TO.C,R3*%
X152623600Y-108055400D03*
X152623600Y-109630400D03*
%TD*%
D33*
%TO.C,Q2*%
X128458000Y-106696000D03*
X126558000Y-106696000D03*
X127508000Y-108696000D03*
%TD*%
D30*
%TO.C,R8*%
X131292500Y-110236000D03*
X132867500Y-110236000D03*
%TD*%
%TO.C,R10*%
X122148500Y-110236000D03*
X123723500Y-110236000D03*
%TD*%
D34*
%TO.C,J3*%
X109347000Y-90632000D03*
X109347000Y-95712000D03*
%TD*%
%TO.C,J2*%
X109347000Y-104856000D03*
X109347000Y-99776000D03*
%TD*%
D13*
%TO.C,U2*%
X152694500Y-99064000D03*
D35*
X155234500Y-99064000D03*
X157774500Y-99064000D03*
X160314500Y-99064000D03*
X162854500Y-99064000D03*
X165394500Y-99064000D03*
X167934500Y-99064000D03*
X170474500Y-99064000D03*
X173014500Y-99064000D03*
X175554500Y-99064000D03*
X178094500Y-99064000D03*
X180634500Y-99064000D03*
X183174500Y-99064000D03*
X185714500Y-99064000D03*
X188254500Y-99064000D03*
X190794500Y-99064000D03*
X193334500Y-99064000D03*
X195874500Y-99064000D03*
X198414500Y-99064000D03*
X198417500Y-76188000D03*
X195872500Y-76196000D03*
X193332500Y-76196000D03*
X190792500Y-76196000D03*
X188252500Y-76196000D03*
X185712500Y-76196000D03*
X183172500Y-76196000D03*
X180632500Y-76196000D03*
X178092500Y-76196000D03*
X175552500Y-76196000D03*
X173012500Y-76196000D03*
X170472500Y-76196000D03*
X167932500Y-76196000D03*
X165392500Y-76196000D03*
X162852500Y-76196000D03*
X160312500Y-76196000D03*
X157772500Y-76196000D03*
X155232500Y-76196000D03*
X152692500Y-76196000D03*
%TD*%
D13*
%TO.C,J5*%
X147955000Y-64897000D03*
D14*
X145415000Y-64897000D03*
X142875000Y-64897000D03*
%TD*%
D30*
%TO.C,C1*%
X101854000Y-87249000D03*
X103429000Y-87249000D03*
%TD*%
%TO.C,R4*%
X164795000Y-69088000D03*
X166370000Y-69088000D03*
%TD*%
D18*
%TO.C,R17*%
X129794000Y-115671500D03*
X129794000Y-117246500D03*
%TD*%
D36*
%TO.C,D1*%
X191770000Y-69088000D03*
D37*
X189230000Y-69088000D03*
%TD*%
D19*
%TO.C,D4*%
X169847500Y-69088000D03*
X167972500Y-69088000D03*
%TD*%
D20*
%TO.C,C4*%
X138006000Y-110544800D03*
X136431000Y-110544800D03*
%TD*%
D30*
%TO.C,R12*%
X161010500Y-113792000D03*
X162585500Y-113792000D03*
%TD*%
D33*
%TO.C,Q1*%
X133030000Y-106696000D03*
X131130000Y-106696000D03*
X132080000Y-108696000D03*
%TD*%
%TO.C,Q3*%
X123886000Y-106696000D03*
X121986000Y-106696000D03*
X122936000Y-108696000D03*
%TD*%
D20*
%TO.C,R13*%
X172491500Y-112014000D03*
X170916500Y-112014000D03*
%TD*%
D13*
%TO.C,J1*%
X97282000Y-95290000D03*
D14*
X97282000Y-100290000D03*
%TD*%
D13*
%TO.C,J11*%
X106974000Y-128778000D03*
D14*
X111974000Y-128778000D03*
%TD*%
D30*
%TO.C,R1*%
X184881500Y-69088000D03*
X186456500Y-69088000D03*
%TD*%
D38*
%TO.C,U1*%
X106934000Y-83659700D03*
X104394000Y-83659700D03*
X101854000Y-83659700D03*
%TD*%
D18*
%TO.C,R16*%
X125222000Y-115671500D03*
X125222000Y-117246500D03*
%TD*%
D30*
%TO.C,R9*%
X126720500Y-110236000D03*
X128295500Y-110236000D03*
%TD*%
D39*
%TO.C,SW1*%
X160184998Y-71338001D03*
X152235002Y-71338001D03*
X160184998Y-66837999D03*
X152235002Y-66837999D03*
%TD*%
D13*
%TO.C,J10*%
X148630000Y-128778000D03*
D14*
X153630000Y-128778000D03*
%TD*%
D13*
%TO.C,J14*%
X138216000Y-128778000D03*
D14*
X143216000Y-128778000D03*
%TD*%
D20*
%TO.C,C3*%
X137980500Y-107700000D03*
X136405500Y-107700000D03*
%TD*%
D14*
%TO.C,J9*%
X96520000Y-118364000D03*
%TD*%
D30*
%TO.C,C6*%
X132080000Y-113157000D03*
X133655000Y-113157000D03*
%TD*%
D20*
%TO.C,C2*%
X150337600Y-105312400D03*
X148762600Y-105312400D03*
%TD*%
D13*
%TO.C,J7*%
X199136000Y-122174000D03*
D14*
X199136000Y-119634000D03*
X199136000Y-117094000D03*
X199136000Y-114554000D03*
%TD*%
D32*
%TO.C,FID2*%
X198120000Y-70612000D03*
%TD*%
D30*
%TO.C,R14*%
X106400500Y-114554000D03*
X107975500Y-114554000D03*
%TD*%
D20*
%TO.C,C5*%
X172491500Y-113792000D03*
X170916500Y-113792000D03*
%TD*%
M02*
