%TF.GenerationSoftware,KiCad,Pcbnew,9.0.6*%
%TF.CreationDate,2026-07-06T14:28:08-05:00*%
%TF.ProjectId,Open_Field_Logger_Lab,4f70656e-5f46-4696-956c-645f4c6f6767,1.1*%
%TF.SameCoordinates,Original*%
%TF.FileFunction,Paste,Top*%
%TF.FilePolarity,Positive*%
%FSLAX46Y46*%
G04 Gerber Fmt 4.6, Leading zero omitted, Abs format (unit mm)*
G04 Created by KiCad (PCBNEW 9.0.6) date 2026-07-06 14:28:08*
%MOMM*%
%LPD*%
G01*
G04 APERTURE LIST*
G04 Aperture macros list*
%AMRoundRect*
0 Rectangle with rounded corners*
0 $1 Rounding radius*
0 $2 $3 $4 $5 $6 $7 $8 $9 X,Y pos of 4 corners*
0 Add a 4 corners polygon primitive as box body*
4,1,4,$2,$3,$4,$5,$6,$7,$8,$9,$2,$3,0*
0 Add four circle primitives for the rounded corners*
1,1,$1+$1,$2,$3*
1,1,$1+$1,$4,$5*
1,1,$1+$1,$6,$7*
1,1,$1+$1,$8,$9*
0 Add four rect primitives between the rounded corners*
20,1,$1+$1,$2,$3,$4,$5,0*
20,1,$1+$1,$4,$5,$6,$7,0*
20,1,$1+$1,$6,$7,$8,$9,0*
20,1,$1+$1,$8,$9,$2,$3,0*%
G04 Aperture macros list end*
%ADD10RoundRect,0.218750X0.256250X-0.218750X0.256250X0.218750X-0.256250X0.218750X-0.256250X-0.218750X0*%
%ADD11R,1.600200X1.168400*%
%ADD12RoundRect,0.218750X-0.256250X0.218750X-0.256250X-0.218750X0.256250X-0.218750X0.256250X0.218750X0*%
%ADD13RoundRect,0.243750X0.243750X0.456250X-0.243750X0.456250X-0.243750X-0.456250X0.243750X-0.456250X0*%
%ADD14RoundRect,0.218750X0.218750X0.256250X-0.218750X0.256250X-0.218750X-0.256250X0.218750X-0.256250X0*%
%ADD15R,0.700000X1.200000*%
%ADD16R,1.000000X0.800000*%
%ADD17R,1.300000X1.900000*%
%ADD18R,1.000000X2.800000*%
%ADD19R,1.000000X1.200000*%
%ADD20RoundRect,0.218750X-0.218750X-0.256250X0.218750X-0.256250X0.218750X0.256250X-0.218750X0.256250X0*%
%ADD21RoundRect,0.075000X-0.650000X-0.075000X0.650000X-0.075000X0.650000X0.075000X-0.650000X0.075000X0*%
%ADD22R,0.800000X0.900000*%
%ADD23R,1.549400X1.295400*%
G04 APERTURE END LIST*
D10*
%TO.C,R11*%
X159004000Y-128041500D03*
X159004000Y-126466500D03*
%TD*%
D11*
%TO.C,Y1*%
X140012500Y-110544800D03*
X140012500Y-107700000D03*
%TD*%
D12*
%TO.C,R15*%
X123698000Y-113004500D03*
X123698000Y-114579500D03*
%TD*%
D13*
%TO.C,D2*%
X180007500Y-69088000D03*
X178132500Y-69088000D03*
%TD*%
D14*
%TO.C,R7*%
X123723500Y-102489000D03*
X122148500Y-102489000D03*
%TD*%
D15*
%TO.C,J8*%
X170161000Y-115960500D03*
X169061000Y-115960500D03*
X167961000Y-115960500D03*
X166861000Y-115960500D03*
X165761000Y-115960500D03*
X164661000Y-115960500D03*
X163561000Y-115960500D03*
X162461000Y-115960500D03*
X161361000Y-115960500D03*
D16*
X160561000Y-126460500D03*
D17*
X174061000Y-131060500D03*
D18*
X160561000Y-130610500D03*
D19*
X171711000Y-115960500D03*
X160561000Y-120260500D03*
%TD*%
D14*
%TO.C,R6*%
X128295500Y-102489000D03*
X126720500Y-102489000D03*
%TD*%
D20*
%TO.C,R2*%
X174980500Y-69088000D03*
X176555500Y-69088000D03*
%TD*%
D21*
%TO.C,U4*%
X125308000Y-109490000D03*
X125308000Y-109990000D03*
X125308000Y-110490000D03*
X125308000Y-110990000D03*
X125308000Y-111490000D03*
X129708000Y-111490000D03*
X129708000Y-110990000D03*
X129708000Y-110490000D03*
X129708000Y-109990000D03*
X129708000Y-109490000D03*
%TD*%
D12*
%TO.C,R18*%
X131318000Y-113004500D03*
X131318000Y-114579500D03*
%TD*%
D14*
%TO.C,R5*%
X132867500Y-102489000D03*
X131292500Y-102489000D03*
%TD*%
D12*
%TO.C,R3*%
X152273000Y-108055400D03*
X152273000Y-109630400D03*
%TD*%
D22*
%TO.C,Q2*%
X128458000Y-104029000D03*
X126558000Y-104029000D03*
X127508000Y-106029000D03*
%TD*%
D20*
%TO.C,R8*%
X131292500Y-107569000D03*
X132867500Y-107569000D03*
%TD*%
%TO.C,R10*%
X122148500Y-107569000D03*
X123723500Y-107569000D03*
%TD*%
D14*
%TO.C,C1*%
X106959500Y-87249000D03*
X105384500Y-87249000D03*
%TD*%
D20*
%TO.C,R4*%
X164795000Y-69088000D03*
X166370000Y-69088000D03*
%TD*%
D12*
%TO.C,R17*%
X129794000Y-113004500D03*
X129794000Y-114579500D03*
%TD*%
D13*
%TO.C,D4*%
X169847500Y-69088000D03*
X167972500Y-69088000D03*
%TD*%
D14*
%TO.C,C4*%
X138006000Y-110544800D03*
X136431000Y-110544800D03*
%TD*%
D20*
%TO.C,R12*%
X161010500Y-113792000D03*
X162585500Y-113792000D03*
%TD*%
D22*
%TO.C,Q1*%
X133030000Y-104029000D03*
X131130000Y-104029000D03*
X132080000Y-106029000D03*
%TD*%
%TO.C,Q3*%
X123886000Y-104029000D03*
X121986000Y-104029000D03*
X122936000Y-106029000D03*
%TD*%
D14*
%TO.C,R13*%
X172491500Y-112014000D03*
X170916500Y-112014000D03*
%TD*%
D20*
%TO.C,R1*%
X184881500Y-69088000D03*
X186456500Y-69088000D03*
%TD*%
D12*
%TO.C,R16*%
X125222000Y-113004500D03*
X125222000Y-114579500D03*
%TD*%
D20*
%TO.C,R9*%
X126720500Y-107569000D03*
X128295500Y-107569000D03*
%TD*%
D23*
%TO.C,SW1*%
X160184998Y-71338001D03*
X152235002Y-71338001D03*
X160184998Y-66837999D03*
X152235002Y-66837999D03*
%TD*%
D14*
%TO.C,C3*%
X137980500Y-107700000D03*
X136405500Y-107700000D03*
%TD*%
D20*
%TO.C,C6*%
X132080000Y-110490000D03*
X133655000Y-110490000D03*
%TD*%
D14*
%TO.C,C2*%
X150337600Y-105312400D03*
X148762600Y-105312400D03*
%TD*%
D20*
%TO.C,R14*%
X106400500Y-114554000D03*
X107975500Y-114554000D03*
%TD*%
D14*
%TO.C,C5*%
X172491500Y-113792000D03*
X170916500Y-113792000D03*
%TD*%
M02*
