%TF.GenerationSoftware,KiCad,Pcbnew,9.0.6*%
%TF.CreationDate,2026-07-06T14:28:08-05:00*%
%TF.ProjectId,Open_Field_Logger_Lab,4f70656e-5f46-4696-956c-645f4c6f6767,1.1*%
%TF.SameCoordinates,Original*%
%TF.FileFunction,Copper,L4,Bot*%
%TF.FilePolarity,Positive*%
%FSLAX46Y46*%
G04 Gerber Fmt 4.6, Leading zero omitted, Abs format (unit mm)*
G04 Created by KiCad (PCBNEW 9.0.6) date 2026-07-06 14:28:08*
%MOMM*%
%LPD*%
G01*
G04 APERTURE LIST*
%TA.AperFunction,WasherPad*%
%ADD10C,3.810000*%
%TD*%
%TA.AperFunction,ComponentPad*%
%ADD11R,2.250000X2.250000*%
%TD*%
%TA.AperFunction,ComponentPad*%
%ADD12C,2.250000*%
%TD*%
%TA.AperFunction,ComponentPad*%
%ADD13R,1.700000X1.700000*%
%TD*%
%TA.AperFunction,ComponentPad*%
%ADD14O,1.700000X1.700000*%
%TD*%
%TA.AperFunction,ComponentPad*%
%ADD15C,2.540000*%
%TD*%
%TA.AperFunction,ComponentPad*%
%ADD16R,1.498600X1.498600*%
%TD*%
%TA.AperFunction,ComponentPad*%
%ADD17C,1.498600*%
%TD*%
%TA.AperFunction,ComponentPad*%
%ADD18R,1.320800X1.320800*%
%TD*%
%TA.AperFunction,ComponentPad*%
%ADD19C,1.320800*%
%TD*%
%TA.AperFunction,ComponentPad*%
%ADD20C,3.302000*%
%TD*%
%TA.AperFunction,ComponentPad*%
%ADD21C,1.700000*%
%TD*%
%TA.AperFunction,ComponentPad*%
%ADD22R,1.800000X1.800000*%
%TD*%
%TA.AperFunction,ComponentPad*%
%ADD23C,1.800000*%
%TD*%
%TA.AperFunction,ComponentPad*%
%ADD24C,1.524000*%
%TD*%
%TA.AperFunction,ViaPad*%
%ADD25C,0.508000*%
%TD*%
%TA.AperFunction,Conductor*%
%ADD26C,0.304800*%
%TD*%
G04 APERTURE END LIST*
D10*
%TO.P,H4,*%
%TO.N,*%
X96520000Y-129540000D03*
%TD*%
%TO.P,H1,*%
%TO.N,*%
X198120000Y-129540000D03*
%TD*%
D11*
%TO.P,D3,1*%
%TO.N,Net-(U1-Vin)*%
X116205000Y-89616000D03*
D12*
%TO.P,D3,2*%
%TO.N,Net-(J3-Pin_1)*%
X116205000Y-105872000D03*
%TD*%
D10*
%TO.P,H2,*%
%TO.N,*%
X96520000Y-66040000D03*
%TD*%
D13*
%TO.P,J13,1,Pin_1*%
%TO.N,GND*%
X128016000Y-127381000D03*
D14*
%TO.P,J13,2,Pin_2*%
%TO.N,Net-(J13-Pin_2)*%
X133016000Y-127381000D03*
%TD*%
D10*
%TO.P,H3,*%
%TO.N,*%
X198120000Y-66040000D03*
%TD*%
D15*
%TO.P,BT1,1,+*%
%TO.N,Net-(BT1-+)*%
X143598900Y-85979000D03*
%TO.P,BT1,2,-*%
%TO.N,GND*%
X123609100Y-85979000D03*
%TD*%
D13*
%TO.P,J12,1,Pin_1*%
%TO.N,GND*%
X117221000Y-127381000D03*
D14*
%TO.P,J12,2,Pin_2*%
%TO.N,Net-(J12-Pin_2)*%
X122221000Y-127381000D03*
%TD*%
D16*
%TO.P,U3,1,X1*%
%TO.N,Net-(U3-X1)*%
X142748000Y-107933400D03*
D17*
%TO.P,U3,2,X2*%
%TO.N,Net-(U3-X2)*%
X142748000Y-110473400D03*
%TO.P,U3,3,Vbat*%
%TO.N,Net-(BT1-+)*%
X142748000Y-113013400D03*
%TO.P,U3,4,GND*%
%TO.N,GND*%
X142748000Y-115553400D03*
%TO.P,U3,5,SDA*%
%TO.N,I2C_SDA*%
X150368000Y-115553400D03*
%TO.P,U3,6,SCL*%
%TO.N,I2C_SCL*%
X150368000Y-113013400D03*
%TO.P,U3,7,MFP*%
%TO.N,RTC_MFP*%
X150368000Y-110473400D03*
%TO.P,U3,8,VDC*%
%TO.N,+3V3*%
X150368000Y-107933400D03*
%TD*%
D18*
%TO.P,TH1,1*%
%TO.N,GND*%
X95471999Y-114554000D03*
D19*
%TO.P,TH1,2*%
%TO.N,Net-(J9-Pin_1)*%
X104172001Y-114554000D03*
%TD*%
D13*
%TO.P,J6,1,Pin_1*%
%TO.N,GND*%
X177546000Y-130556000D03*
D14*
%TO.P,J6,2,Pin_2*%
%TO.N,EXT_CS*%
X180086000Y-130556000D03*
%TO.P,J6,3,Pin_3*%
%TO.N,SPI_SCK*%
X182626000Y-130556000D03*
%TO.P,J6,4,Pin_4*%
%TO.N,SPI_MISO*%
X185166000Y-130556000D03*
%TO.P,J6,5,Pin_5*%
%TO.N,SPI_MOSI*%
X187706000Y-130556000D03*
%TO.P,J6,6,Pin_6*%
%TO.N,+3V3*%
X190246000Y-130556000D03*
%TD*%
D13*
%TO.P,J4,1,Pin_1*%
%TO.N,Net-(J4-Pin_1)*%
X156972000Y-105791000D03*
D14*
%TO.P,J4,2,Pin_2*%
%TO.N,Net-(J4-Pin_2)*%
X159512000Y-105791000D03*
%TO.P,J4,3,Pin_3*%
%TO.N,Net-(J4-Pin_3)*%
X162052000Y-105791000D03*
%TO.P,J4,4,Pin_4*%
%TO.N,Net-(J4-Pin_4)*%
X164592000Y-105791000D03*
%TD*%
D20*
%TO.P,J3,*%
%TO.N,*%
X109347000Y-90632000D03*
%TO.P,J3,1,Pin_1*%
%TO.N,Net-(J3-Pin_1)*%
X109347000Y-95712000D03*
%TD*%
%TO.P,J2,*%
%TO.N,*%
X109347000Y-104856000D03*
%TO.P,J2,1,Pin_1*%
%TO.N,Net-(J1-Pin_2)*%
X109347000Y-99776000D03*
%TD*%
D13*
%TO.P,U2,1,3V3*%
%TO.N,+3V3*%
X152694500Y-99064000D03*
D21*
%TO.P,U2,2,EN*%
%TO.N,unconnected-(U2-EN-Pad2)*%
X155234500Y-99064000D03*
%TO.P,U2,3,IO36*%
%TO.N,Net-(J4-Pin_1)*%
X157774500Y-99064000D03*
%TO.P,U2,4,IO39*%
%TO.N,Net-(J4-Pin_2)*%
X160314500Y-99064000D03*
%TO.P,U2,5,IO34*%
%TO.N,Net-(J4-Pin_3)*%
X162854500Y-99064000D03*
%TO.P,U2,6,IO35*%
%TO.N,Net-(J4-Pin_4)*%
X165394500Y-99064000D03*
%TO.P,U2,7,IO32*%
%TO.N,SD_CD*%
X167934500Y-99064000D03*
%TO.P,U2,8,IO33*%
%TO.N,RTC_MFP*%
X170474500Y-99064000D03*
%TO.P,U2,9,IO25*%
%TO.N,EXT_CS*%
X173014500Y-99064000D03*
%TO.P,U2,10,IO26*%
%TO.N,ADC_ALRT*%
X175554500Y-99064000D03*
%TO.P,U2,11,IO27*%
%TO.N,Error_LED*%
X178094500Y-99064000D03*
%TO.P,U2,12,IO14*%
%TO.N,Log_LED*%
X180634500Y-99064000D03*
%TO.P,U2,13,IO12*%
%TO.N,unconnected-(U2-IO12-Pad13)*%
X183174500Y-99064000D03*
%TO.P,U2,14,GND*%
%TO.N,GND*%
X185714500Y-99064000D03*
%TO.P,U2,15,IO13*%
%TO.N,unconnected-(U2-IO13-Pad15)*%
X188254500Y-99064000D03*
%TO.P,U2,16,IO9*%
%TO.N,unconnected-(U2-IO9-Pad16)*%
X190794500Y-99064000D03*
%TO.P,U2,17,IO10*%
%TO.N,unconnected-(U2-IO10-Pad17)*%
X193334500Y-99064000D03*
%TO.P,U2,18,IO11*%
%TO.N,unconnected-(U2-IO11-Pad18)*%
X195874500Y-99064000D03*
%TO.P,U2,19,5V*%
%TO.N,+5V*%
X198414500Y-99064000D03*
%TO.P,U2,20,IO6/SCK*%
%TO.N,unconnected-(U2-IO6{slash}SCK-Pad20)*%
X198417500Y-76188000D03*
%TO.P,U2,21,IO7*%
%TO.N,unconnected-(U2-IO7-Pad21)*%
X195872500Y-76196000D03*
%TO.P,U2,22,IO8*%
%TO.N,unconnected-(U2-IO8-Pad22)*%
X193332500Y-76196000D03*
%TO.P,U2,23,IO15*%
%TO.N,unconnected-(U2-IO15-Pad23)*%
X190792500Y-76196000D03*
%TO.P,U2,24,IO2*%
%TO.N,unconnected-(U2-IO2-Pad24)*%
X188252500Y-76196000D03*
%TO.P,U2,25,IO0*%
%TO.N,unconnected-(U2-IO0-Pad25)*%
X185712500Y-76196000D03*
%TO.P,U2,26,IO4*%
%TO.N,unconnected-(U2-IO4-Pad26)*%
X183172500Y-76196000D03*
%TO.P,U2,27,IO16*%
%TO.N,Log_Button*%
X180632500Y-76196000D03*
%TO.P,U2,28,IO17*%
%TO.N,unconnected-(U2-IO17-Pad28)*%
X178092500Y-76196000D03*
%TO.P,U2,29,SS/IO5*%
%TO.N,SD_CS*%
X175552500Y-76196000D03*
%TO.P,U2,30,SCLK/IO18*%
%TO.N,SPI_SCK*%
X173012500Y-76196000D03*
%TO.P,U2,31,MISO/IO19*%
%TO.N,SPI_MISO*%
X170472500Y-76196000D03*
%TO.P,U2,32,GND*%
%TO.N,GND*%
X167932500Y-76196000D03*
%TO.P,U2,33,SDA/IO21*%
%TO.N,I2C_SDA*%
X165392500Y-76196000D03*
%TO.P,U2,34,RX/IO3*%
%TO.N,RX*%
X162852500Y-76196000D03*
%TO.P,U2,35,TX/IO1*%
%TO.N,TX*%
X160312500Y-76196000D03*
%TO.P,U2,36,SCL/IO22*%
%TO.N,I2C_SCL*%
X157772500Y-76196000D03*
%TO.P,U2,37,MOSI/IO23*%
%TO.N,SPI_MOSI*%
X155232500Y-76196000D03*
%TO.P,U2,38,GND*%
%TO.N,GND*%
X152692500Y-76196000D03*
%TD*%
D13*
%TO.P,J5,1,Pin_1*%
%TO.N,GND*%
X147955000Y-64897000D03*
D14*
%TO.P,J5,2,Pin_2*%
%TO.N,RX*%
X145415000Y-64897000D03*
%TO.P,J5,3,Pin_3*%
%TO.N,TX*%
X142875000Y-64897000D03*
%TD*%
D22*
%TO.P,D1,1,K*%
%TO.N,GND*%
X191770000Y-69088000D03*
D23*
%TO.P,D1,2,A*%
%TO.N,Net-(D1-A)*%
X189230000Y-69088000D03*
%TD*%
D13*
%TO.P,J1,1,Pin_1*%
%TO.N,GND*%
X98679000Y-95290000D03*
D14*
%TO.P,J1,2,Pin_2*%
%TO.N,Net-(J1-Pin_2)*%
X98679000Y-100290000D03*
%TD*%
D13*
%TO.P,J11,1,Pin_1*%
%TO.N,GND*%
X106426000Y-127381000D03*
D14*
%TO.P,J11,2,Pin_2*%
%TO.N,Net-(J11-Pin_2)*%
X111426000Y-127381000D03*
%TD*%
D24*
%TO.P,U1,1,Vin*%
%TO.N,Net-(U1-Vin)*%
X101854000Y-83659700D03*
%TO.P,U1,2,GND*%
%TO.N,GND*%
X104394000Y-83659700D03*
%TO.P,U1,3,Vout*%
%TO.N,+5V*%
X106934000Y-83659700D03*
%TD*%
D13*
%TO.P,J10,1,Pin_1*%
%TO.N,GND*%
X149606000Y-127381000D03*
D14*
%TO.P,J10,2,Pin_2*%
%TO.N,+5V*%
X154606000Y-127381000D03*
%TD*%
D13*
%TO.P,J14,1,Pin_1*%
%TO.N,GND*%
X138811000Y-127381000D03*
D14*
%TO.P,J14,2,Pin_2*%
%TO.N,Net-(J14-Pin_2)*%
X143811000Y-127381000D03*
%TD*%
%TO.P,J9,1,Pin_1*%
%TO.N,Net-(J9-Pin_1)*%
X96520000Y-118364000D03*
%TD*%
D13*
%TO.P,J7,1,Pin_1*%
%TO.N,GND*%
X199136000Y-122174000D03*
D14*
%TO.P,J7,2,Pin_2*%
%TO.N,I2C_SCL*%
X199136000Y-119634000D03*
%TO.P,J7,3,Pin_3*%
%TO.N,I2C_SDA*%
X199136000Y-117094000D03*
%TO.P,J7,4,Pin_4*%
%TO.N,+3V3*%
X199136000Y-114554000D03*
%TD*%
D25*
%TO.N,Net-(BT1-+)*%
X144119597Y-102311200D03*
X144018000Y-104345200D03*
%TO.N,GND*%
X161417000Y-117221000D03*
X164719000Y-117475000D03*
X147447000Y-105283000D03*
%TO.N,+5V*%
X134112000Y-107569000D03*
X183642000Y-69088000D03*
X132080000Y-109220000D03*
X129540000Y-107569000D03*
X124968000Y-107569000D03*
X109220000Y-114554000D03*
%TO.N,+3V3*%
X134112000Y-104013000D03*
X161036000Y-112522000D03*
X172466000Y-110871000D03*
X129540000Y-104013000D03*
X159004000Y-129286000D03*
X124968000Y-104013000D03*
%TO.N,I2C_SDA*%
X145440403Y-102311200D03*
X144780000Y-104089203D03*
X183414400Y-120397000D03*
%TO.N,I2C_SCL*%
X144780000Y-102311200D03*
X184262868Y-119938800D03*
X144780000Y-103428800D03*
%TO.N,SD_CD*%
X159004000Y-125222000D03*
X159004000Y-116967000D03*
X166395388Y-103428800D03*
%TO.N,SD_CS*%
X169037000Y-103428800D03*
%TO.N,SPI_MOSI*%
X168021000Y-118363000D03*
X168599518Y-101853000D03*
X168376597Y-103428800D03*
X156449868Y-78689200D03*
X156464000Y-80265000D03*
X167961000Y-114868000D03*
%TO.N,SPI_MISO*%
X167055791Y-103428800D03*
%TO.N,SPI_SCK*%
X169184628Y-100477628D03*
X167716194Y-103428800D03*
X182626000Y-118821200D03*
%TO.N,EXT_CS*%
X180086000Y-121031000D03*
%TO.N,RTC_MFP*%
X153670000Y-102311200D03*
X153606500Y-110299500D03*
%TD*%
D26*
%TO.N,Net-(BT1-+)*%
X144018000Y-104345200D02*
X144119597Y-104243603D01*
X144119597Y-104243603D02*
X144119597Y-102311200D01*
%TO.N,GND*%
X169291000Y-74549000D02*
X154178000Y-74549000D01*
X153670000Y-75057000D02*
X153670000Y-76200000D01*
X154178000Y-74549000D02*
X153670000Y-75057000D01*
%TO.N,Net-(J4-Pin_3)*%
X162854500Y-99064000D02*
X162854500Y-100543500D01*
X162052000Y-101346000D02*
X162052000Y-105791000D01*
X162854500Y-100543500D02*
X162052000Y-101346000D01*
%TO.N,Net-(J4-Pin_1)*%
X157774500Y-100543500D02*
X156972000Y-101346000D01*
X156972000Y-101346000D02*
X156972000Y-105791000D01*
X157774500Y-99064000D02*
X157774500Y-100543500D01*
%TO.N,Net-(J4-Pin_2)*%
X160314500Y-100543500D02*
X159512000Y-101346000D01*
X159512000Y-101346000D02*
X159512000Y-105791000D01*
X160314500Y-99064000D02*
X160314500Y-100543500D01*
%TO.N,Net-(J4-Pin_4)*%
X165394500Y-100543500D02*
X164592000Y-101346000D01*
X165394500Y-99064000D02*
X165394500Y-100543500D01*
X164592000Y-101346000D02*
X164592000Y-105791000D01*
%TO.N,I2C_SDA*%
X183414400Y-119995591D02*
X184234191Y-119175800D01*
X197231000Y-118618000D02*
X197231000Y-117475000D01*
X184234191Y-119175800D02*
X196673200Y-119175800D01*
X145440403Y-103860597D02*
X145440403Y-102311200D01*
X144780000Y-104089203D02*
X144880603Y-103988600D01*
X145312400Y-103988600D02*
X145440403Y-103860597D01*
X197612000Y-117094000D02*
X199136000Y-117094000D01*
X197231000Y-117475000D02*
X197612000Y-117094000D01*
X183414400Y-120397000D02*
X183414400Y-119995591D01*
X196673200Y-119175800D02*
X197231000Y-118618000D01*
X144880603Y-103988600D02*
X145312400Y-103988600D01*
%TO.N,I2C_SCL*%
X184567668Y-119634000D02*
X199136000Y-119634000D01*
X144780000Y-103428800D02*
X144780000Y-102311200D01*
X184262868Y-119938800D02*
X184567668Y-119634000D01*
%TO.N,SD_CD*%
X167934500Y-100289500D02*
X167934500Y-99064000D01*
X166395388Y-101828612D02*
X167934500Y-100289500D01*
X166395388Y-103428800D02*
X166395388Y-101828612D01*
X159004000Y-125222000D02*
X159004000Y-116967000D01*
X166395388Y-103428800D02*
X166372000Y-103405412D01*
%TO.N,SD_CS*%
X171704000Y-79121000D02*
X172720000Y-78105000D01*
X172720000Y-78105000D02*
X175133000Y-78105000D01*
X169037000Y-102362000D02*
X171704000Y-99695000D01*
X171704000Y-99695000D02*
X171704000Y-79121000D01*
X169037000Y-103428800D02*
X169037000Y-102362000D01*
X175552500Y-77685500D02*
X175552500Y-76196000D01*
X175133000Y-78105000D02*
X175552500Y-77685500D01*
%TO.N,SPI_MOSI*%
X156464000Y-78703332D02*
X156449868Y-78689200D01*
X167961000Y-114868000D02*
X168021000Y-114928000D01*
X156464000Y-80265000D02*
X156464000Y-78703332D01*
X168021000Y-114928000D02*
X168021000Y-118363000D01*
X168376597Y-103428800D02*
X168376597Y-102075921D01*
X168376597Y-102075921D02*
X168599518Y-101853000D01*
%TO.N,SPI_MISO*%
X170472500Y-77685500D02*
X170472500Y-76196000D01*
X167055791Y-101816201D02*
X169164000Y-99707992D01*
X169164000Y-78994000D02*
X170472500Y-77685500D01*
X169164000Y-99707992D02*
X169164000Y-78994000D01*
X167055791Y-103428800D02*
X167055791Y-101816201D01*
%TO.N,SPI_SCK*%
X182626000Y-118821200D02*
X182626000Y-130556000D01*
X167716194Y-103428800D02*
X167716194Y-101946062D01*
X167716194Y-101946062D02*
X169184628Y-100477628D01*
%TO.N,EXT_CS*%
X173014500Y-101005500D02*
X173014500Y-99064000D01*
X174879000Y-102870000D02*
X173014500Y-101005500D01*
X179324000Y-102870000D02*
X174879000Y-102870000D01*
X180086000Y-103632000D02*
X179324000Y-102870000D01*
X180086000Y-121031000D02*
X180086000Y-103632000D01*
%TO.N,RTC_MFP*%
X153670000Y-102489000D02*
X153670000Y-102311200D01*
X153606500Y-102552500D02*
X153670000Y-102489000D01*
X153606500Y-110299500D02*
X153606500Y-102552500D01*
%TD*%
%TA.AperFunction,Conductor*%
%TO.N,GND*%
G36*
X198123472Y-63246695D02*
G01*
X198425829Y-63263675D01*
X198439630Y-63265230D01*
X198734744Y-63315372D01*
X198748301Y-63318466D01*
X199035946Y-63401335D01*
X199049070Y-63405928D01*
X199325618Y-63520477D01*
X199338140Y-63526506D01*
X199588274Y-63664751D01*
X199600142Y-63671310D01*
X199611903Y-63678700D01*
X199856050Y-63851932D01*
X199866899Y-63860583D01*
X200090110Y-64060056D01*
X200099941Y-64069887D01*
X200274783Y-64265536D01*
X200299411Y-64293094D01*
X200308069Y-64303951D01*
X200481296Y-64548091D01*
X200488689Y-64559857D01*
X200633489Y-64821852D01*
X200639522Y-64834381D01*
X200754071Y-65110929D01*
X200758664Y-65124053D01*
X200841533Y-65411698D01*
X200844627Y-65425255D01*
X200894768Y-65720361D01*
X200896325Y-65734179D01*
X200913305Y-66036527D01*
X200913500Y-66043480D01*
X200913500Y-129536519D01*
X200913305Y-129543472D01*
X200896325Y-129845820D01*
X200894768Y-129859638D01*
X200844627Y-130154744D01*
X200841533Y-130168301D01*
X200758664Y-130455946D01*
X200754071Y-130469070D01*
X200639522Y-130745618D01*
X200633489Y-130758147D01*
X200488689Y-131020142D01*
X200481291Y-131031915D01*
X200308075Y-131276039D01*
X200299411Y-131286905D01*
X200099943Y-131510110D01*
X200090110Y-131519943D01*
X199866905Y-131719411D01*
X199856039Y-131728075D01*
X199685120Y-131849350D01*
X199611916Y-131901291D01*
X199600142Y-131908689D01*
X199338147Y-132053489D01*
X199325618Y-132059522D01*
X199049070Y-132174071D01*
X199035946Y-132178664D01*
X198748301Y-132261533D01*
X198734744Y-132264627D01*
X198439638Y-132314768D01*
X198425820Y-132316325D01*
X198123472Y-132333305D01*
X198116519Y-132333500D01*
X96523481Y-132333500D01*
X96516528Y-132333305D01*
X96214179Y-132316325D01*
X96200361Y-132314768D01*
X95905255Y-132264627D01*
X95891698Y-132261533D01*
X95604053Y-132178664D01*
X95590929Y-132174071D01*
X95314381Y-132059522D01*
X95301852Y-132053489D01*
X95039857Y-131908689D01*
X95028091Y-131901296D01*
X94783951Y-131728069D01*
X94773094Y-131719411D01*
X94763739Y-131711051D01*
X94549887Y-131519941D01*
X94540056Y-131510110D01*
X94487259Y-131451030D01*
X94340583Y-131286899D01*
X94331932Y-131276050D01*
X94158700Y-131031903D01*
X94151310Y-131020142D01*
X94069567Y-130872239D01*
X94006506Y-130758140D01*
X94000477Y-130745618D01*
X93981929Y-130700840D01*
X93894669Y-130490174D01*
X93885928Y-130469070D01*
X93881335Y-130455946D01*
X93798466Y-130168301D01*
X93795372Y-130154744D01*
X93745230Y-129859630D01*
X93743675Y-129845829D01*
X93726695Y-129543472D01*
X93726500Y-129536519D01*
X93726500Y-129404905D01*
X94114500Y-129404905D01*
X94114500Y-129675094D01*
X94144749Y-129943558D01*
X94144751Y-129943570D01*
X94204872Y-130206979D01*
X94294106Y-130461996D01*
X94411331Y-130705416D01*
X94436592Y-130745618D01*
X94555077Y-130934187D01*
X94723532Y-131145422D01*
X94914578Y-131336468D01*
X95125813Y-131504923D01*
X95354581Y-131648667D01*
X95598005Y-131765894D01*
X95853020Y-131855127D01*
X95853022Y-131855127D01*
X95853023Y-131855128D01*
X96116429Y-131915249D01*
X96384905Y-131945499D01*
X96384906Y-131945500D01*
X96384910Y-131945500D01*
X96655094Y-131945500D01*
X96655094Y-131945499D01*
X96923571Y-131915249D01*
X97186977Y-131855128D01*
X97441995Y-131765894D01*
X97685419Y-131648667D01*
X97914187Y-131504923D01*
X98125422Y-131336468D01*
X98316468Y-131145422D01*
X98484923Y-130934187D01*
X98628667Y-130705419D01*
X98745894Y-130461995D01*
X98835128Y-130206977D01*
X98895249Y-129943571D01*
X98925500Y-129675090D01*
X98925500Y-129404910D01*
X98909470Y-129262645D01*
X98904607Y-129219480D01*
X98904607Y-129219479D01*
X98903729Y-129211683D01*
X158249500Y-129211683D01*
X158249500Y-129360316D01*
X158278493Y-129506072D01*
X158278495Y-129506080D01*
X158335371Y-129643391D01*
X158417939Y-129766964D01*
X158417945Y-129766971D01*
X158523028Y-129872054D01*
X158523035Y-129872060D01*
X158646608Y-129954628D01*
X158646609Y-129954628D01*
X158646610Y-129954629D01*
X158783920Y-130011505D01*
X158929683Y-130040499D01*
X158929687Y-130040500D01*
X158929688Y-130040500D01*
X159078313Y-130040500D01*
X159078314Y-130040499D01*
X159224080Y-130011505D01*
X159361390Y-129954629D01*
X159484966Y-129872059D01*
X159590059Y-129766966D01*
X159662763Y-129658155D01*
X176196000Y-129658155D01*
X176196000Y-130306000D01*
X177112988Y-130306000D01*
X177080075Y-130363007D01*
X177046000Y-130490174D01*
X177046000Y-130621826D01*
X177080075Y-130748993D01*
X177112988Y-130806000D01*
X176196000Y-130806000D01*
X176196000Y-131453844D01*
X176202401Y-131513372D01*
X176202403Y-131513379D01*
X176252645Y-131648086D01*
X176252649Y-131648093D01*
X176338809Y-131763187D01*
X176338812Y-131763190D01*
X176453906Y-131849350D01*
X176453913Y-131849354D01*
X176588620Y-131899596D01*
X176588627Y-131899598D01*
X176648155Y-131905999D01*
X176648172Y-131906000D01*
X177296000Y-131906000D01*
X177296000Y-130989012D01*
X177353007Y-131021925D01*
X177480174Y-131056000D01*
X177611826Y-131056000D01*
X177738993Y-131021925D01*
X177796000Y-130989012D01*
X177796000Y-131906000D01*
X178443828Y-131906000D01*
X178443844Y-131905999D01*
X178503372Y-131899598D01*
X178503379Y-131899596D01*
X178638086Y-131849354D01*
X178638093Y-131849350D01*
X178753187Y-131763190D01*
X178753190Y-131763187D01*
X178839350Y-131648093D01*
X178839354Y-131648086D01*
X178888422Y-131516529D01*
X178930293Y-131460595D01*
X178995757Y-131436178D01*
X179064030Y-131451030D01*
X179092285Y-131472181D01*
X179206213Y-131586109D01*
X179378179Y-131711048D01*
X179378181Y-131711049D01*
X179378184Y-131711051D01*
X179567588Y-131807557D01*
X179769757Y-131873246D01*
X179979713Y-131906500D01*
X179979714Y-131906500D01*
X180192286Y-131906500D01*
X180192287Y-131906500D01*
X180402243Y-131873246D01*
X180604412Y-131807557D01*
X180793816Y-131711051D01*
X180862486Y-131661160D01*
X180965786Y-131586109D01*
X180965788Y-131586106D01*
X180965792Y-131586104D01*
X181116104Y-131435792D01*
X181116106Y-131435788D01*
X181116109Y-131435786D01*
X181241048Y-131263820D01*
X181241047Y-131263820D01*
X181241051Y-131263816D01*
X181245514Y-131255054D01*
X181293488Y-131204259D01*
X181361308Y-131187463D01*
X181427444Y-131209999D01*
X181466486Y-131255056D01*
X181470951Y-131263820D01*
X181595890Y-131435786D01*
X181746213Y-131586109D01*
X181918179Y-131711048D01*
X181918181Y-131711049D01*
X181918184Y-131711051D01*
X182107588Y-131807557D01*
X182309757Y-131873246D01*
X182519713Y-131906500D01*
X182519714Y-131906500D01*
X182732286Y-131906500D01*
X182732287Y-131906500D01*
X182942243Y-131873246D01*
X183144412Y-131807557D01*
X183333816Y-131711051D01*
X183402486Y-131661160D01*
X183505786Y-131586109D01*
X183505788Y-131586106D01*
X183505792Y-131586104D01*
X183656104Y-131435792D01*
X183656106Y-131435788D01*
X183656109Y-131435786D01*
X183781048Y-131263820D01*
X183781047Y-131263820D01*
X183781051Y-131263816D01*
X183785514Y-131255054D01*
X183833488Y-131204259D01*
X183901308Y-131187463D01*
X183967444Y-131209999D01*
X184006486Y-131255056D01*
X184010951Y-131263820D01*
X184135890Y-131435786D01*
X184286213Y-131586109D01*
X184458179Y-131711048D01*
X184458181Y-131711049D01*
X184458184Y-131711051D01*
X184647588Y-131807557D01*
X184849757Y-131873246D01*
X185059713Y-131906500D01*
X185059714Y-131906500D01*
X185272286Y-131906500D01*
X185272287Y-131906500D01*
X185482243Y-131873246D01*
X185684412Y-131807557D01*
X185873816Y-131711051D01*
X185942486Y-131661160D01*
X186045786Y-131586109D01*
X186045788Y-131586106D01*
X186045792Y-131586104D01*
X186196104Y-131435792D01*
X186196106Y-131435788D01*
X186196109Y-131435786D01*
X186321048Y-131263820D01*
X186321047Y-131263820D01*
X186321051Y-131263816D01*
X186325514Y-131255054D01*
X186373488Y-131204259D01*
X186441308Y-131187463D01*
X186507444Y-131209999D01*
X186546486Y-131255056D01*
X186550951Y-131263820D01*
X186675890Y-131435786D01*
X186826213Y-131586109D01*
X186998179Y-131711048D01*
X186998181Y-131711049D01*
X186998184Y-131711051D01*
X187187588Y-131807557D01*
X187389757Y-131873246D01*
X187599713Y-131906500D01*
X187599714Y-131906500D01*
X187812286Y-131906500D01*
X187812287Y-131906500D01*
X188022243Y-131873246D01*
X188224412Y-131807557D01*
X188413816Y-131711051D01*
X188482486Y-131661160D01*
X188585786Y-131586109D01*
X188585788Y-131586106D01*
X188585792Y-131586104D01*
X188736104Y-131435792D01*
X188736106Y-131435788D01*
X188736109Y-131435786D01*
X188861048Y-131263820D01*
X188861047Y-131263820D01*
X188861051Y-131263816D01*
X188865514Y-131255054D01*
X188913488Y-131204259D01*
X188981308Y-131187463D01*
X189047444Y-131209999D01*
X189086486Y-131255056D01*
X189090951Y-131263820D01*
X189215890Y-131435786D01*
X189366213Y-131586109D01*
X189538179Y-131711048D01*
X189538181Y-131711049D01*
X189538184Y-131711051D01*
X189727588Y-131807557D01*
X189929757Y-131873246D01*
X190139713Y-131906500D01*
X190139714Y-131906500D01*
X190352286Y-131906500D01*
X190352287Y-131906500D01*
X190562243Y-131873246D01*
X190764412Y-131807557D01*
X190953816Y-131711051D01*
X191022486Y-131661160D01*
X191125786Y-131586109D01*
X191125788Y-131586106D01*
X191125792Y-131586104D01*
X191276104Y-131435792D01*
X191276106Y-131435788D01*
X191276109Y-131435786D01*
X191401048Y-131263820D01*
X191401047Y-131263820D01*
X191401051Y-131263816D01*
X191497557Y-131074412D01*
X191563246Y-130872243D01*
X191596500Y-130662287D01*
X191596500Y-130449713D01*
X191563246Y-130239757D01*
X191497557Y-130037588D01*
X191401051Y-129848184D01*
X191401049Y-129848181D01*
X191401048Y-129848179D01*
X191276109Y-129676213D01*
X191125790Y-129525894D01*
X191125785Y-129525890D01*
X191092581Y-129501765D01*
X191092558Y-129501750D01*
X190959261Y-129404905D01*
X195714500Y-129404905D01*
X195714500Y-129675094D01*
X195744749Y-129943558D01*
X195744751Y-129943570D01*
X195804872Y-130206979D01*
X195894106Y-130461996D01*
X196011331Y-130705416D01*
X196036592Y-130745618D01*
X196155077Y-130934187D01*
X196323532Y-131145422D01*
X196514578Y-131336468D01*
X196725813Y-131504923D01*
X196954581Y-131648667D01*
X197198005Y-131765894D01*
X197453020Y-131855127D01*
X197453022Y-131855127D01*
X197453023Y-131855128D01*
X197716429Y-131915249D01*
X197984905Y-131945499D01*
X197984906Y-131945500D01*
X197984910Y-131945500D01*
X198255094Y-131945500D01*
X198255094Y-131945499D01*
X198523571Y-131915249D01*
X198786977Y-131855128D01*
X199041995Y-131765894D01*
X199285419Y-131648667D01*
X199514187Y-131504923D01*
X199725422Y-131336468D01*
X199916468Y-131145422D01*
X200084923Y-130934187D01*
X200228667Y-130705419D01*
X200345894Y-130461995D01*
X200435128Y-130206977D01*
X200495249Y-129943571D01*
X200525500Y-129675090D01*
X200525500Y-129404910D01*
X200495249Y-129136429D01*
X200435128Y-128873023D01*
X200345894Y-128618005D01*
X200228667Y-128374581D01*
X200084923Y-128145813D01*
X199916468Y-127934578D01*
X199725422Y-127743532D01*
X199514187Y-127575077D01*
X199285419Y-127431333D01*
X199285416Y-127431331D01*
X199041996Y-127314106D01*
X198786978Y-127224872D01*
X198786980Y-127224872D01*
X198589422Y-127179781D01*
X198523571Y-127164751D01*
X198523567Y-127164750D01*
X198523558Y-127164749D01*
X198255094Y-127134500D01*
X198255090Y-127134500D01*
X197984910Y-127134500D01*
X197984906Y-127134500D01*
X197716441Y-127164749D01*
X197716429Y-127164751D01*
X197453020Y-127224872D01*
X197198003Y-127314106D01*
X196954583Y-127431331D01*
X196725814Y-127575076D01*
X196514578Y-127743531D01*
X196323531Y-127934578D01*
X196155076Y-128145814D01*
X196011331Y-128374583D01*
X195894106Y-128618003D01*
X195804872Y-128873020D01*
X195744751Y-129136429D01*
X195744749Y-129136441D01*
X195714500Y-129404905D01*
X190959261Y-129404905D01*
X190953815Y-129400948D01*
X190764414Y-129304444D01*
X190764413Y-129304443D01*
X190764412Y-129304443D01*
X190562243Y-129238754D01*
X190562241Y-129238753D01*
X190562240Y-129238753D01*
X190400957Y-129213208D01*
X190352287Y-129205500D01*
X190139713Y-129205500D01*
X190091042Y-129213208D01*
X189929760Y-129238753D01*
X189727585Y-129304444D01*
X189538179Y-129400951D01*
X189366213Y-129525890D01*
X189215890Y-129676213D01*
X189090949Y-129848182D01*
X189086484Y-129856946D01*
X189038509Y-129907742D01*
X188970688Y-129924536D01*
X188904553Y-129901998D01*
X188865516Y-129856946D01*
X188861050Y-129848182D01*
X188736109Y-129676213D01*
X188585786Y-129525890D01*
X188413820Y-129400951D01*
X188224414Y-129304444D01*
X188224413Y-129304443D01*
X188224412Y-129304443D01*
X188022243Y-129238754D01*
X188022241Y-129238753D01*
X188022240Y-129238753D01*
X187860957Y-129213208D01*
X187812287Y-129205500D01*
X187599713Y-129205500D01*
X187551042Y-129213208D01*
X187389760Y-129238753D01*
X187187585Y-129304444D01*
X186998179Y-129400951D01*
X186826213Y-129525890D01*
X186675890Y-129676213D01*
X186550949Y-129848182D01*
X186546484Y-129856946D01*
X186498509Y-129907742D01*
X186430688Y-129924536D01*
X186364553Y-129901998D01*
X186325516Y-129856946D01*
X186321050Y-129848182D01*
X186196109Y-129676213D01*
X186045786Y-129525890D01*
X185873820Y-129400951D01*
X185684414Y-129304444D01*
X185684413Y-129304443D01*
X185684412Y-129304443D01*
X185482243Y-129238754D01*
X185482241Y-129238753D01*
X185482240Y-129238753D01*
X185320957Y-129213208D01*
X185272287Y-129205500D01*
X185059713Y-129205500D01*
X185011042Y-129213208D01*
X184849760Y-129238753D01*
X184647585Y-129304444D01*
X184458179Y-129400951D01*
X184286213Y-129525890D01*
X184135890Y-129676213D01*
X184010949Y-129848182D01*
X184006484Y-129856946D01*
X183958509Y-129907742D01*
X183890688Y-129924536D01*
X183824553Y-129901998D01*
X183785516Y-129856946D01*
X183781050Y-129848182D01*
X183656109Y-129676213D01*
X183505790Y-129525894D01*
X183505785Y-129525890D01*
X183330015Y-129398186D01*
X183287349Y-129342856D01*
X183278900Y-129297868D01*
X183278900Y-121275500D01*
X183298585Y-121208461D01*
X183351389Y-121162706D01*
X183402900Y-121151500D01*
X183488713Y-121151500D01*
X183488714Y-121151499D01*
X183634480Y-121122505D01*
X183771790Y-121065629D01*
X183895366Y-120983059D01*
X184000459Y-120877966D01*
X184059433Y-120789705D01*
X184086414Y-120749325D01*
X184088580Y-120750772D01*
X184129602Y-120709007D01*
X184190005Y-120693300D01*
X184337181Y-120693300D01*
X184337182Y-120693299D01*
X184482948Y-120664305D01*
X184620258Y-120607429D01*
X184743834Y-120524859D01*
X184848927Y-120419766D01*
X184900882Y-120342008D01*
X184954494Y-120297204D01*
X185003984Y-120286900D01*
X197877869Y-120286900D01*
X197944908Y-120306585D01*
X197978188Y-120338015D01*
X197980947Y-120341813D01*
X197980949Y-120341816D01*
X198037583Y-120419766D01*
X198105896Y-120513792D01*
X198219818Y-120627714D01*
X198253303Y-120689037D01*
X198248319Y-120758729D01*
X198206447Y-120814662D01*
X198175471Y-120831577D01*
X198043912Y-120880646D01*
X198043906Y-120880649D01*
X197928812Y-120966809D01*
X197928809Y-120966812D01*
X197842649Y-121081906D01*
X197842645Y-121081913D01*
X197792403Y-121216620D01*
X197792401Y-121216627D01*
X197786000Y-121276155D01*
X197786000Y-121924000D01*
X198702988Y-121924000D01*
X198670075Y-121981007D01*
X198636000Y-122108174D01*
X198636000Y-122239826D01*
X198670075Y-122366993D01*
X198702988Y-122424000D01*
X197786000Y-122424000D01*
X197786000Y-123071844D01*
X197792401Y-123131372D01*
X197792403Y-123131379D01*
X197842645Y-123266086D01*
X197842649Y-123266093D01*
X197928809Y-123381187D01*
X197928812Y-123381190D01*
X198043906Y-123467350D01*
X198043913Y-123467354D01*
X198178620Y-123517596D01*
X198178627Y-123517598D01*
X198238155Y-123523999D01*
X198238172Y-123524000D01*
X198886000Y-123524000D01*
X198886000Y-122607012D01*
X198943007Y-122639925D01*
X199070174Y-122674000D01*
X199201826Y-122674000D01*
X199328993Y-122639925D01*
X199386000Y-122607012D01*
X199386000Y-123524000D01*
X200033828Y-123524000D01*
X200033844Y-123523999D01*
X200093372Y-123517598D01*
X200093379Y-123517596D01*
X200228086Y-123467354D01*
X200228093Y-123467350D01*
X200343187Y-123381190D01*
X200343190Y-123381187D01*
X200429350Y-123266093D01*
X200429354Y-123266086D01*
X200479596Y-123131379D01*
X200479598Y-123131372D01*
X200485999Y-123071844D01*
X200486000Y-123071827D01*
X200486000Y-122424000D01*
X199569012Y-122424000D01*
X199601925Y-122366993D01*
X199636000Y-122239826D01*
X199636000Y-122108174D01*
X199601925Y-121981007D01*
X199569012Y-121924000D01*
X200486000Y-121924000D01*
X200486000Y-121276172D01*
X200485999Y-121276155D01*
X200479598Y-121216627D01*
X200479596Y-121216620D01*
X200429354Y-121081913D01*
X200429350Y-121081906D01*
X200343190Y-120966812D01*
X200343187Y-120966809D01*
X200228093Y-120880649D01*
X200228088Y-120880646D01*
X200096528Y-120831577D01*
X200040595Y-120789705D01*
X200016178Y-120724241D01*
X200031030Y-120655968D01*
X200052175Y-120627720D01*
X200166104Y-120513792D01*
X200291051Y-120341816D01*
X200387557Y-120152412D01*
X200453246Y-119950243D01*
X200486500Y-119740287D01*
X200486500Y-119527713D01*
X200453246Y-119317757D01*
X200387557Y-119115588D01*
X200291051Y-118926184D01*
X200291049Y-118926181D01*
X200291048Y-118926179D01*
X200166109Y-118754213D01*
X200015786Y-118603890D01*
X199843820Y-118478951D01*
X199843115Y-118478591D01*
X199835054Y-118474485D01*
X199784259Y-118426512D01*
X199767463Y-118358692D01*
X199789999Y-118292556D01*
X199835054Y-118253515D01*
X199843816Y-118249051D01*
X199865789Y-118233086D01*
X200015786Y-118124109D01*
X200015788Y-118124106D01*
X200015792Y-118124104D01*
X200166104Y-117973792D01*
X200166106Y-117973788D01*
X200166109Y-117973786D01*
X200291048Y-117801820D01*
X200291047Y-117801820D01*
X200291051Y-117801816D01*
X200387557Y-117612412D01*
X200453246Y-117410243D01*
X200486500Y-117200287D01*
X200486500Y-116987713D01*
X200453246Y-116777757D01*
X200387557Y-116575588D01*
X200291051Y-116386184D01*
X200291049Y-116386181D01*
X200291048Y-116386179D01*
X200166109Y-116214213D01*
X200015786Y-116063890D01*
X199843820Y-115938951D01*
X199843115Y-115938591D01*
X199835054Y-115934485D01*
X199784259Y-115886512D01*
X199767463Y-115818692D01*
X199789999Y-115752556D01*
X199835054Y-115713515D01*
X199843816Y-115709051D01*
X199914421Y-115657754D01*
X200015786Y-115584109D01*
X200015788Y-115584106D01*
X200015792Y-115584104D01*
X200166104Y-115433792D01*
X200166106Y-115433788D01*
X200166109Y-115433786D01*
X200291048Y-115261820D01*
X200291047Y-115261820D01*
X200291051Y-115261816D01*
X200387557Y-115072412D01*
X200453246Y-114870243D01*
X200486500Y-114660287D01*
X200486500Y-114447713D01*
X200453246Y-114237757D01*
X200387557Y-114035588D01*
X200291051Y-113846184D01*
X200291049Y-113846181D01*
X200291048Y-113846179D01*
X200166109Y-113674213D01*
X200015786Y-113523890D01*
X199843820Y-113398951D01*
X199654414Y-113302444D01*
X199654413Y-113302443D01*
X199654412Y-113302443D01*
X199452243Y-113236754D01*
X199452241Y-113236753D01*
X199452240Y-113236753D01*
X199290957Y-113211208D01*
X199242287Y-113203500D01*
X199029713Y-113203500D01*
X198981042Y-113211208D01*
X198819760Y-113236753D01*
X198617585Y-113302444D01*
X198428179Y-113398951D01*
X198256213Y-113523890D01*
X198105890Y-113674213D01*
X197980951Y-113846179D01*
X197884444Y-114035585D01*
X197818753Y-114237760D01*
X197785500Y-114447713D01*
X197785500Y-114660286D01*
X197817729Y-114863775D01*
X197818754Y-114870243D01*
X197872275Y-115034964D01*
X197884444Y-115072414D01*
X197980951Y-115261820D01*
X198105890Y-115433786D01*
X198256213Y-115584109D01*
X198428182Y-115709050D01*
X198436946Y-115713516D01*
X198487742Y-115761491D01*
X198504536Y-115829312D01*
X198481998Y-115895447D01*
X198436946Y-115934484D01*
X198428182Y-115938949D01*
X198256213Y-116063890D01*
X198105896Y-116214207D01*
X198084960Y-116243024D01*
X197980949Y-116386184D01*
X197980947Y-116386186D01*
X197978188Y-116389985D01*
X197922858Y-116432651D01*
X197877869Y-116441100D01*
X197547693Y-116441100D01*
X197421561Y-116466189D01*
X197421555Y-116466191D01*
X197302737Y-116515407D01*
X197195797Y-116586861D01*
X196723856Y-117058802D01*
X196698238Y-117097145D01*
X196688017Y-117112443D01*
X196673753Y-117133789D01*
X196652407Y-117165736D01*
X196603191Y-117284555D01*
X196603189Y-117284561D01*
X196578100Y-117410692D01*
X196578100Y-118296197D01*
X196569455Y-118325637D01*
X196562932Y-118355624D01*
X196559177Y-118360639D01*
X196558415Y-118363236D01*
X196541781Y-118383878D01*
X196439078Y-118486581D01*
X196377755Y-118520066D01*
X196351397Y-118522900D01*
X184169884Y-118522900D01*
X184043748Y-118547990D01*
X184043744Y-118547991D01*
X183994531Y-118568375D01*
X183994531Y-118568376D01*
X183976351Y-118575906D01*
X183924930Y-118597205D01*
X183924921Y-118597210D01*
X183817992Y-118668658D01*
X183817988Y-118668661D01*
X183592181Y-118894469D01*
X183530858Y-118927954D01*
X183461166Y-118922970D01*
X183405233Y-118881098D01*
X183380816Y-118815634D01*
X183380500Y-118806788D01*
X183380500Y-118746887D01*
X183380499Y-118746883D01*
X183372399Y-118706163D01*
X183351505Y-118601120D01*
X183294629Y-118463810D01*
X183276926Y-118437316D01*
X183212060Y-118340235D01*
X183212054Y-118340228D01*
X183106971Y-118235145D01*
X183106964Y-118235139D01*
X182983391Y-118152571D01*
X182846080Y-118095695D01*
X182846072Y-118095693D01*
X182700316Y-118066700D01*
X182700312Y-118066700D01*
X182551688Y-118066700D01*
X182551683Y-118066700D01*
X182405927Y-118095693D01*
X182405919Y-118095695D01*
X182268608Y-118152571D01*
X182145035Y-118235139D01*
X182145028Y-118235145D01*
X182039945Y-118340228D01*
X182039939Y-118340235D01*
X181957371Y-118463808D01*
X181900495Y-118601119D01*
X181900493Y-118601127D01*
X181871500Y-118746883D01*
X181871500Y-118895516D01*
X181900493Y-119041272D01*
X181900495Y-119041280D01*
X181957370Y-119178588D01*
X181958452Y-119180612D01*
X181958824Y-119182100D01*
X181959702Y-119184218D01*
X181959388Y-119184348D01*
X181973100Y-119239076D01*
X181973100Y-129297868D01*
X181953415Y-129364907D01*
X181921985Y-129398186D01*
X181746214Y-129525890D01*
X181746209Y-129525894D01*
X181595890Y-129676213D01*
X181470949Y-129848182D01*
X181466484Y-129856946D01*
X181418509Y-129907742D01*
X181350688Y-129924536D01*
X181284553Y-129901998D01*
X181245516Y-129856946D01*
X181241050Y-129848182D01*
X181116109Y-129676213D01*
X180965786Y-129525890D01*
X180793820Y-129400951D01*
X180604414Y-129304444D01*
X180604413Y-129304443D01*
X180604412Y-129304443D01*
X180402243Y-129238754D01*
X180402241Y-129238753D01*
X180402240Y-129238753D01*
X180240957Y-129213208D01*
X180192287Y-129205500D01*
X179979713Y-129205500D01*
X179931042Y-129213208D01*
X179769760Y-129238753D01*
X179567585Y-129304444D01*
X179378179Y-129400951D01*
X179206215Y-129525889D01*
X179092285Y-129639819D01*
X179030962Y-129673303D01*
X178961270Y-129668319D01*
X178905337Y-129626447D01*
X178888422Y-129595470D01*
X178839354Y-129463913D01*
X178839350Y-129463906D01*
X178753190Y-129348812D01*
X178753187Y-129348809D01*
X178638093Y-129262649D01*
X178638086Y-129262645D01*
X178503379Y-129212403D01*
X178503372Y-129212401D01*
X178443844Y-129206000D01*
X177796000Y-129206000D01*
X177796000Y-130122988D01*
X177738993Y-130090075D01*
X177611826Y-130056000D01*
X177480174Y-130056000D01*
X177353007Y-130090075D01*
X177296000Y-130122988D01*
X177296000Y-129206000D01*
X176648155Y-129206000D01*
X176588627Y-129212401D01*
X176588620Y-129212403D01*
X176453913Y-129262645D01*
X176453906Y-129262649D01*
X176338812Y-129348809D01*
X176338809Y-129348812D01*
X176252649Y-129463906D01*
X176252645Y-129463913D01*
X176202403Y-129598620D01*
X176202401Y-129598627D01*
X176196000Y-129658155D01*
X159662763Y-129658155D01*
X159672629Y-129643390D01*
X159729505Y-129506080D01*
X159758500Y-129360312D01*
X159758500Y-129211688D01*
X159729505Y-129065920D01*
X159672629Y-128928610D01*
X159635487Y-128873023D01*
X159590060Y-128805035D01*
X159590054Y-128805028D01*
X159484971Y-128699945D01*
X159484964Y-128699939D01*
X159361391Y-128617371D01*
X159224080Y-128560495D01*
X159224072Y-128560493D01*
X159078316Y-128531500D01*
X159078312Y-128531500D01*
X158929688Y-128531500D01*
X158929683Y-128531500D01*
X158783927Y-128560493D01*
X158783919Y-128560495D01*
X158646608Y-128617371D01*
X158523035Y-128699939D01*
X158523028Y-128699945D01*
X158417945Y-128805028D01*
X158417939Y-128805035D01*
X158335371Y-128928608D01*
X158278495Y-129065919D01*
X158278493Y-129065927D01*
X158249500Y-129211683D01*
X98903729Y-129211683D01*
X98895251Y-129136443D01*
X98895250Y-129136438D01*
X98895249Y-129136429D01*
X98835128Y-128873023D01*
X98745894Y-128618005D01*
X98628667Y-128374581D01*
X98484923Y-128145813D01*
X98316468Y-127934578D01*
X98125422Y-127743532D01*
X98067373Y-127697239D01*
X98041474Y-127676585D01*
X97984312Y-127631000D01*
X97914187Y-127575077D01*
X97685419Y-127431333D01*
X97685416Y-127431331D01*
X97582067Y-127381561D01*
X97441996Y-127314106D01*
X97186978Y-127224872D01*
X97186980Y-127224872D01*
X96989422Y-127179781D01*
X96923571Y-127164751D01*
X96923567Y-127164750D01*
X96923558Y-127164749D01*
X96655094Y-127134500D01*
X96655090Y-127134500D01*
X96384910Y-127134500D01*
X96384906Y-127134500D01*
X96116441Y-127164749D01*
X96116429Y-127164751D01*
X95853020Y-127224872D01*
X95598003Y-127314106D01*
X95354583Y-127431331D01*
X95125814Y-127575076D01*
X94914578Y-127743531D01*
X94723531Y-127934578D01*
X94555076Y-128145814D01*
X94411331Y-128374583D01*
X94294106Y-128618003D01*
X94204872Y-128873020D01*
X94144751Y-129136429D01*
X94144749Y-129136441D01*
X94114500Y-129404905D01*
X93726500Y-129404905D01*
X93726500Y-126483155D01*
X105076000Y-126483155D01*
X105076000Y-127131000D01*
X105992988Y-127131000D01*
X105960075Y-127188007D01*
X105926000Y-127315174D01*
X105926000Y-127446826D01*
X105960075Y-127573993D01*
X105992988Y-127631000D01*
X105076000Y-127631000D01*
X105076000Y-128278844D01*
X105082401Y-128338372D01*
X105082403Y-128338379D01*
X105132645Y-128473086D01*
X105132649Y-128473093D01*
X105218809Y-128588187D01*
X105218812Y-128588190D01*
X105333906Y-128674350D01*
X105333913Y-128674354D01*
X105468620Y-128724596D01*
X105468627Y-128724598D01*
X105528155Y-128730999D01*
X105528172Y-128731000D01*
X106176000Y-128731000D01*
X106176000Y-127814012D01*
X106233007Y-127846925D01*
X106360174Y-127881000D01*
X106491826Y-127881000D01*
X106618993Y-127846925D01*
X106676000Y-127814012D01*
X106676000Y-128731000D01*
X107323828Y-128731000D01*
X107323844Y-128730999D01*
X107383372Y-128724598D01*
X107383379Y-128724596D01*
X107518086Y-128674354D01*
X107518093Y-128674350D01*
X107633187Y-128588190D01*
X107633190Y-128588187D01*
X107719350Y-128473093D01*
X107719354Y-128473086D01*
X107769596Y-128338379D01*
X107769598Y-128338372D01*
X107775999Y-128278844D01*
X107776000Y-128278827D01*
X107776000Y-127631000D01*
X106859012Y-127631000D01*
X106891925Y-127573993D01*
X106926000Y-127446826D01*
X106926000Y-127315174D01*
X106915158Y-127274713D01*
X110075500Y-127274713D01*
X110075500Y-127487286D01*
X110108753Y-127697239D01*
X110108753Y-127697241D01*
X110108754Y-127697243D01*
X110123794Y-127743532D01*
X110174444Y-127899414D01*
X110270951Y-128088820D01*
X110395890Y-128260786D01*
X110546213Y-128411109D01*
X110718179Y-128536048D01*
X110718181Y-128536049D01*
X110718184Y-128536051D01*
X110907588Y-128632557D01*
X111109757Y-128698246D01*
X111319713Y-128731500D01*
X111319714Y-128731500D01*
X111532286Y-128731500D01*
X111532287Y-128731500D01*
X111742243Y-128698246D01*
X111944412Y-128632557D01*
X112133816Y-128536051D01*
X112220471Y-128473093D01*
X112305786Y-128411109D01*
X112305788Y-128411106D01*
X112305792Y-128411104D01*
X112456104Y-128260792D01*
X112456106Y-128260788D01*
X112456109Y-128260786D01*
X112581048Y-128088820D01*
X112581047Y-128088820D01*
X112581051Y-128088816D01*
X112677557Y-127899412D01*
X112743246Y-127697243D01*
X112776500Y-127487287D01*
X112776500Y-127274713D01*
X112743246Y-127064757D01*
X112677557Y-126862588D01*
X112581051Y-126673184D01*
X112581049Y-126673181D01*
X112581048Y-126673179D01*
X112493542Y-126552736D01*
X112456109Y-126501214D01*
X112456105Y-126501209D01*
X112438051Y-126483155D01*
X115871000Y-126483155D01*
X115871000Y-127131000D01*
X116787988Y-127131000D01*
X116755075Y-127188007D01*
X116721000Y-127315174D01*
X116721000Y-127446826D01*
X116755075Y-127573993D01*
X116787988Y-127631000D01*
X115871000Y-127631000D01*
X115871000Y-128278844D01*
X115877401Y-128338372D01*
X115877403Y-128338379D01*
X115927645Y-128473086D01*
X115927649Y-128473093D01*
X116013809Y-128588187D01*
X116013812Y-128588190D01*
X116128906Y-128674350D01*
X116128913Y-128674354D01*
X116263620Y-128724596D01*
X116263627Y-128724598D01*
X116323155Y-128730999D01*
X116323172Y-128731000D01*
X116971000Y-128731000D01*
X116971000Y-127814012D01*
X117028007Y-127846925D01*
X117155174Y-127881000D01*
X117286826Y-127881000D01*
X117413993Y-127846925D01*
X117471000Y-127814012D01*
X117471000Y-128731000D01*
X118118828Y-128731000D01*
X118118844Y-128730999D01*
X118178372Y-128724598D01*
X118178379Y-128724596D01*
X118313086Y-128674354D01*
X118313093Y-128674350D01*
X118428187Y-128588190D01*
X118428190Y-128588187D01*
X118514350Y-128473093D01*
X118514354Y-128473086D01*
X118564596Y-128338379D01*
X118564598Y-128338372D01*
X118570999Y-128278844D01*
X118571000Y-128278827D01*
X118571000Y-127631000D01*
X117654012Y-127631000D01*
X117686925Y-127573993D01*
X117721000Y-127446826D01*
X117721000Y-127315174D01*
X117710158Y-127274713D01*
X120870500Y-127274713D01*
X120870500Y-127487286D01*
X120903753Y-127697239D01*
X120903753Y-127697241D01*
X120903754Y-127697243D01*
X120918794Y-127743532D01*
X120969444Y-127899414D01*
X121065951Y-128088820D01*
X121190890Y-128260786D01*
X121341213Y-128411109D01*
X121513179Y-128536048D01*
X121513181Y-128536049D01*
X121513184Y-128536051D01*
X121702588Y-128632557D01*
X121904757Y-128698246D01*
X122114713Y-128731500D01*
X122114714Y-128731500D01*
X122327286Y-128731500D01*
X122327287Y-128731500D01*
X122537243Y-128698246D01*
X122739412Y-128632557D01*
X122928816Y-128536051D01*
X123015471Y-128473093D01*
X123100786Y-128411109D01*
X123100788Y-128411106D01*
X123100792Y-128411104D01*
X123251104Y-128260792D01*
X123251106Y-128260788D01*
X123251109Y-128260786D01*
X123376048Y-128088820D01*
X123376047Y-128088820D01*
X123376051Y-128088816D01*
X123472557Y-127899412D01*
X123538246Y-127697243D01*
X123571500Y-127487287D01*
X123571500Y-127274713D01*
X123538246Y-127064757D01*
X123472557Y-126862588D01*
X123376051Y-126673184D01*
X123376049Y-126673181D01*
X123376048Y-126673179D01*
X123288542Y-126552736D01*
X123251109Y-126501214D01*
X123251105Y-126501209D01*
X123233051Y-126483155D01*
X126666000Y-126483155D01*
X126666000Y-127131000D01*
X127582988Y-127131000D01*
X127550075Y-127188007D01*
X127516000Y-127315174D01*
X127516000Y-127446826D01*
X127550075Y-127573993D01*
X127582988Y-127631000D01*
X126666000Y-127631000D01*
X126666000Y-128278844D01*
X126672401Y-128338372D01*
X126672403Y-128338379D01*
X126722645Y-128473086D01*
X126722649Y-128473093D01*
X126808809Y-128588187D01*
X126808812Y-128588190D01*
X126923906Y-128674350D01*
X126923913Y-128674354D01*
X127058620Y-128724596D01*
X127058627Y-128724598D01*
X127118155Y-128730999D01*
X127118172Y-128731000D01*
X127766000Y-128731000D01*
X127766000Y-127814012D01*
X127823007Y-127846925D01*
X127950174Y-127881000D01*
X128081826Y-127881000D01*
X128208993Y-127846925D01*
X128266000Y-127814012D01*
X128266000Y-128731000D01*
X128913828Y-128731000D01*
X128913844Y-128730999D01*
X128973372Y-128724598D01*
X128973379Y-128724596D01*
X129108086Y-128674354D01*
X129108093Y-128674350D01*
X129223187Y-128588190D01*
X129223190Y-128588187D01*
X129309350Y-128473093D01*
X129309354Y-128473086D01*
X129359596Y-128338379D01*
X129359598Y-128338372D01*
X129365999Y-128278844D01*
X129366000Y-128278827D01*
X129366000Y-127631000D01*
X128449012Y-127631000D01*
X128481925Y-127573993D01*
X128516000Y-127446826D01*
X128516000Y-127315174D01*
X128505158Y-127274713D01*
X131665500Y-127274713D01*
X131665500Y-127487286D01*
X131698753Y-127697239D01*
X131698753Y-127697241D01*
X131698754Y-127697243D01*
X131713794Y-127743532D01*
X131764444Y-127899414D01*
X131860951Y-128088820D01*
X131985890Y-128260786D01*
X132136213Y-128411109D01*
X132308179Y-128536048D01*
X132308181Y-128536049D01*
X132308184Y-128536051D01*
X132497588Y-128632557D01*
X132699757Y-128698246D01*
X132909713Y-128731500D01*
X132909714Y-128731500D01*
X133122286Y-128731500D01*
X133122287Y-128731500D01*
X133332243Y-128698246D01*
X133534412Y-128632557D01*
X133723816Y-128536051D01*
X133810471Y-128473093D01*
X133895786Y-128411109D01*
X133895788Y-128411106D01*
X133895792Y-128411104D01*
X134046104Y-128260792D01*
X134046106Y-128260788D01*
X134046109Y-128260786D01*
X134171048Y-128088820D01*
X134171047Y-128088820D01*
X134171051Y-128088816D01*
X134267557Y-127899412D01*
X134333246Y-127697243D01*
X134366500Y-127487287D01*
X134366500Y-127274713D01*
X134333246Y-127064757D01*
X134267557Y-126862588D01*
X134171051Y-126673184D01*
X134171049Y-126673181D01*
X134171048Y-126673179D01*
X134083542Y-126552736D01*
X134046109Y-126501214D01*
X134046105Y-126501209D01*
X134028051Y-126483155D01*
X137461000Y-126483155D01*
X137461000Y-127131000D01*
X138377988Y-127131000D01*
X138345075Y-127188007D01*
X138311000Y-127315174D01*
X138311000Y-127446826D01*
X138345075Y-127573993D01*
X138377988Y-127631000D01*
X137461000Y-127631000D01*
X137461000Y-128278844D01*
X137467401Y-128338372D01*
X137467403Y-128338379D01*
X137517645Y-128473086D01*
X137517649Y-128473093D01*
X137603809Y-128588187D01*
X137603812Y-128588190D01*
X137718906Y-128674350D01*
X137718913Y-128674354D01*
X137853620Y-128724596D01*
X137853627Y-128724598D01*
X137913155Y-128730999D01*
X137913172Y-128731000D01*
X138561000Y-128731000D01*
X138561000Y-127814012D01*
X138618007Y-127846925D01*
X138745174Y-127881000D01*
X138876826Y-127881000D01*
X139003993Y-127846925D01*
X139061000Y-127814012D01*
X139061000Y-128731000D01*
X139708828Y-128731000D01*
X139708844Y-128730999D01*
X139768372Y-128724598D01*
X139768379Y-128724596D01*
X139903086Y-128674354D01*
X139903093Y-128674350D01*
X140018187Y-128588190D01*
X140018190Y-128588187D01*
X140104350Y-128473093D01*
X140104354Y-128473086D01*
X140154596Y-128338379D01*
X140154598Y-128338372D01*
X140160999Y-128278844D01*
X140161000Y-128278827D01*
X140161000Y-127631000D01*
X139244012Y-127631000D01*
X139276925Y-127573993D01*
X139311000Y-127446826D01*
X139311000Y-127315174D01*
X139300158Y-127274713D01*
X142460500Y-127274713D01*
X142460500Y-127487286D01*
X142493753Y-127697239D01*
X142493753Y-127697241D01*
X142493754Y-127697243D01*
X142508794Y-127743532D01*
X142559444Y-127899414D01*
X142655951Y-128088820D01*
X142780890Y-128260786D01*
X142931213Y-128411109D01*
X143103179Y-128536048D01*
X143103181Y-128536049D01*
X143103184Y-128536051D01*
X143292588Y-128632557D01*
X143494757Y-128698246D01*
X143704713Y-128731500D01*
X143704714Y-128731500D01*
X143917286Y-128731500D01*
X143917287Y-128731500D01*
X144127243Y-128698246D01*
X144329412Y-128632557D01*
X144518816Y-128536051D01*
X144605471Y-128473093D01*
X144690786Y-128411109D01*
X144690788Y-128411106D01*
X144690792Y-128411104D01*
X144841104Y-128260792D01*
X144841106Y-128260788D01*
X144841109Y-128260786D01*
X144966048Y-128088820D01*
X144966047Y-128088820D01*
X144966051Y-128088816D01*
X145062557Y-127899412D01*
X145128246Y-127697243D01*
X145161500Y-127487287D01*
X145161500Y-127274713D01*
X145128246Y-127064757D01*
X145062557Y-126862588D01*
X144966051Y-126673184D01*
X144966049Y-126673181D01*
X144966048Y-126673179D01*
X144878542Y-126552736D01*
X144841109Y-126501214D01*
X144841105Y-126501209D01*
X144823051Y-126483155D01*
X148256000Y-126483155D01*
X148256000Y-127131000D01*
X149172988Y-127131000D01*
X149140075Y-127188007D01*
X149106000Y-127315174D01*
X149106000Y-127446826D01*
X149140075Y-127573993D01*
X149172988Y-127631000D01*
X148256000Y-127631000D01*
X148256000Y-128278844D01*
X148262401Y-128338372D01*
X148262403Y-128338379D01*
X148312645Y-128473086D01*
X148312649Y-128473093D01*
X148398809Y-128588187D01*
X148398812Y-128588190D01*
X148513906Y-128674350D01*
X148513913Y-128674354D01*
X148648620Y-128724596D01*
X148648627Y-128724598D01*
X148708155Y-128730999D01*
X148708172Y-128731000D01*
X149356000Y-128731000D01*
X149356000Y-127814012D01*
X149413007Y-127846925D01*
X149540174Y-127881000D01*
X149671826Y-127881000D01*
X149798993Y-127846925D01*
X149856000Y-127814012D01*
X149856000Y-128731000D01*
X150503828Y-128731000D01*
X150503844Y-128730999D01*
X150563372Y-128724598D01*
X150563379Y-128724596D01*
X150698086Y-128674354D01*
X150698093Y-128674350D01*
X150813187Y-128588190D01*
X150813190Y-128588187D01*
X150899350Y-128473093D01*
X150899354Y-128473086D01*
X150949596Y-128338379D01*
X150949598Y-128338372D01*
X150955999Y-128278844D01*
X150956000Y-128278827D01*
X150956000Y-127631000D01*
X150039012Y-127631000D01*
X150071925Y-127573993D01*
X150106000Y-127446826D01*
X150106000Y-127315174D01*
X150095158Y-127274713D01*
X153255500Y-127274713D01*
X153255500Y-127487286D01*
X153288753Y-127697239D01*
X153288753Y-127697241D01*
X153288754Y-127697243D01*
X153303794Y-127743532D01*
X153354444Y-127899414D01*
X153450951Y-128088820D01*
X153575890Y-128260786D01*
X153726213Y-128411109D01*
X153898179Y-128536048D01*
X153898181Y-128536049D01*
X153898184Y-128536051D01*
X154087588Y-128632557D01*
X154289757Y-128698246D01*
X154499713Y-128731500D01*
X154499714Y-128731500D01*
X154712286Y-128731500D01*
X154712287Y-128731500D01*
X154922243Y-128698246D01*
X155124412Y-128632557D01*
X155313816Y-128536051D01*
X155400471Y-128473093D01*
X155485786Y-128411109D01*
X155485788Y-128411106D01*
X155485792Y-128411104D01*
X155636104Y-128260792D01*
X155636106Y-128260788D01*
X155636109Y-128260786D01*
X155761048Y-128088820D01*
X155761047Y-128088820D01*
X155761051Y-128088816D01*
X155857557Y-127899412D01*
X155923246Y-127697243D01*
X155956500Y-127487287D01*
X155956500Y-127274713D01*
X155923246Y-127064757D01*
X155857557Y-126862588D01*
X155761051Y-126673184D01*
X155761049Y-126673181D01*
X155761048Y-126673179D01*
X155636109Y-126501213D01*
X155485786Y-126350890D01*
X155313820Y-126225951D01*
X155124414Y-126129444D01*
X155124413Y-126129443D01*
X155124412Y-126129443D01*
X154922243Y-126063754D01*
X154922241Y-126063753D01*
X154922240Y-126063753D01*
X154760957Y-126038208D01*
X154712287Y-126030500D01*
X154499713Y-126030500D01*
X154451042Y-126038208D01*
X154289760Y-126063753D01*
X154087585Y-126129444D01*
X153898179Y-126225951D01*
X153726213Y-126350890D01*
X153575890Y-126501213D01*
X153450951Y-126673179D01*
X153354444Y-126862585D01*
X153288753Y-127064760D01*
X153255500Y-127274713D01*
X150095158Y-127274713D01*
X150071925Y-127188007D01*
X150039012Y-127131000D01*
X150956000Y-127131000D01*
X150956000Y-126483172D01*
X150955999Y-126483155D01*
X150949598Y-126423627D01*
X150949596Y-126423620D01*
X150899354Y-126288913D01*
X150899350Y-126288906D01*
X150813190Y-126173812D01*
X150813187Y-126173809D01*
X150698093Y-126087649D01*
X150698086Y-126087645D01*
X150563379Y-126037403D01*
X150563372Y-126037401D01*
X150503844Y-126031000D01*
X149856000Y-126031000D01*
X149856000Y-126947988D01*
X149798993Y-126915075D01*
X149671826Y-126881000D01*
X149540174Y-126881000D01*
X149413007Y-126915075D01*
X149356000Y-126947988D01*
X149356000Y-126031000D01*
X148708155Y-126031000D01*
X148648627Y-126037401D01*
X148648620Y-126037403D01*
X148513913Y-126087645D01*
X148513906Y-126087649D01*
X148398812Y-126173809D01*
X148398809Y-126173812D01*
X148312649Y-126288906D01*
X148312645Y-126288913D01*
X148262403Y-126423620D01*
X148262401Y-126423627D01*
X148256000Y-126483155D01*
X144823051Y-126483155D01*
X144690786Y-126350890D01*
X144518820Y-126225951D01*
X144329414Y-126129444D01*
X144329413Y-126129443D01*
X144329412Y-126129443D01*
X144127243Y-126063754D01*
X144127241Y-126063753D01*
X144127240Y-126063753D01*
X143965957Y-126038208D01*
X143917287Y-126030500D01*
X143704713Y-126030500D01*
X143656042Y-126038208D01*
X143494760Y-126063753D01*
X143292585Y-126129444D01*
X143103179Y-126225951D01*
X142931213Y-126350890D01*
X142780890Y-126501213D01*
X142655951Y-126673179D01*
X142559444Y-126862585D01*
X142493753Y-127064760D01*
X142460500Y-127274713D01*
X139300158Y-127274713D01*
X139276925Y-127188007D01*
X139244012Y-127131000D01*
X140161000Y-127131000D01*
X140161000Y-126483172D01*
X140160999Y-126483155D01*
X140154598Y-126423627D01*
X140154596Y-126423620D01*
X140104354Y-126288913D01*
X140104350Y-126288906D01*
X140018190Y-126173812D01*
X140018187Y-126173809D01*
X139903093Y-126087649D01*
X139903086Y-126087645D01*
X139768379Y-126037403D01*
X139768372Y-126037401D01*
X139708844Y-126031000D01*
X139061000Y-126031000D01*
X139061000Y-126947988D01*
X139003993Y-126915075D01*
X138876826Y-126881000D01*
X138745174Y-126881000D01*
X138618007Y-126915075D01*
X138561000Y-126947988D01*
X138561000Y-126031000D01*
X137913155Y-126031000D01*
X137853627Y-126037401D01*
X137853620Y-126037403D01*
X137718913Y-126087645D01*
X137718906Y-126087649D01*
X137603812Y-126173809D01*
X137603809Y-126173812D01*
X137517649Y-126288906D01*
X137517645Y-126288913D01*
X137467403Y-126423620D01*
X137467401Y-126423627D01*
X137461000Y-126483155D01*
X134028051Y-126483155D01*
X133895786Y-126350890D01*
X133723820Y-126225951D01*
X133534414Y-126129444D01*
X133534413Y-126129443D01*
X133534412Y-126129443D01*
X133332243Y-126063754D01*
X133332241Y-126063753D01*
X133332240Y-126063753D01*
X133170957Y-126038208D01*
X133122287Y-126030500D01*
X132909713Y-126030500D01*
X132861042Y-126038208D01*
X132699760Y-126063753D01*
X132497585Y-126129444D01*
X132308179Y-126225951D01*
X132136213Y-126350890D01*
X131985890Y-126501213D01*
X131860951Y-126673179D01*
X131764444Y-126862585D01*
X131698753Y-127064760D01*
X131665500Y-127274713D01*
X128505158Y-127274713D01*
X128481925Y-127188007D01*
X128449012Y-127131000D01*
X129366000Y-127131000D01*
X129366000Y-126483172D01*
X129365999Y-126483155D01*
X129359598Y-126423627D01*
X129359596Y-126423620D01*
X129309354Y-126288913D01*
X129309350Y-126288906D01*
X129223190Y-126173812D01*
X129223187Y-126173809D01*
X129108093Y-126087649D01*
X129108086Y-126087645D01*
X128973379Y-126037403D01*
X128973372Y-126037401D01*
X128913844Y-126031000D01*
X128266000Y-126031000D01*
X128266000Y-126947988D01*
X128208993Y-126915075D01*
X128081826Y-126881000D01*
X127950174Y-126881000D01*
X127823007Y-126915075D01*
X127766000Y-126947988D01*
X127766000Y-126031000D01*
X127118155Y-126031000D01*
X127058627Y-126037401D01*
X127058620Y-126037403D01*
X126923913Y-126087645D01*
X126923906Y-126087649D01*
X126808812Y-126173809D01*
X126808809Y-126173812D01*
X126722649Y-126288906D01*
X126722645Y-126288913D01*
X126672403Y-126423620D01*
X126672401Y-126423627D01*
X126666000Y-126483155D01*
X123233051Y-126483155D01*
X123100786Y-126350890D01*
X122928820Y-126225951D01*
X122739414Y-126129444D01*
X122739413Y-126129443D01*
X122739412Y-126129443D01*
X122537243Y-126063754D01*
X122537241Y-126063753D01*
X122537240Y-126063753D01*
X122375957Y-126038208D01*
X122327287Y-126030500D01*
X122114713Y-126030500D01*
X122066042Y-126038208D01*
X121904760Y-126063753D01*
X121702585Y-126129444D01*
X121513179Y-126225951D01*
X121341213Y-126350890D01*
X121190890Y-126501213D01*
X121065951Y-126673179D01*
X120969444Y-126862585D01*
X120903753Y-127064760D01*
X120870500Y-127274713D01*
X117710158Y-127274713D01*
X117686925Y-127188007D01*
X117654012Y-127131000D01*
X118571000Y-127131000D01*
X118571000Y-126483172D01*
X118570999Y-126483155D01*
X118564598Y-126423627D01*
X118564596Y-126423620D01*
X118514354Y-126288913D01*
X118514350Y-126288906D01*
X118428190Y-126173812D01*
X118428187Y-126173809D01*
X118313093Y-126087649D01*
X118313086Y-126087645D01*
X118178379Y-126037403D01*
X118178372Y-126037401D01*
X118118844Y-126031000D01*
X117471000Y-126031000D01*
X117471000Y-126947988D01*
X117413993Y-126915075D01*
X117286826Y-126881000D01*
X117155174Y-126881000D01*
X117028007Y-126915075D01*
X116971000Y-126947988D01*
X116971000Y-126031000D01*
X116323155Y-126031000D01*
X116263627Y-126037401D01*
X116263620Y-126037403D01*
X116128913Y-126087645D01*
X116128906Y-126087649D01*
X116013812Y-126173809D01*
X116013809Y-126173812D01*
X115927649Y-126288906D01*
X115927645Y-126288913D01*
X115877403Y-126423620D01*
X115877401Y-126423627D01*
X115871000Y-126483155D01*
X112438051Y-126483155D01*
X112305786Y-126350890D01*
X112133820Y-126225951D01*
X111944414Y-126129444D01*
X111944413Y-126129443D01*
X111944412Y-126129443D01*
X111742243Y-126063754D01*
X111742241Y-126063753D01*
X111742240Y-126063753D01*
X111580957Y-126038208D01*
X111532287Y-126030500D01*
X111319713Y-126030500D01*
X111271042Y-126038208D01*
X111109760Y-126063753D01*
X110907585Y-126129444D01*
X110718179Y-126225951D01*
X110546213Y-126350890D01*
X110395890Y-126501213D01*
X110270951Y-126673179D01*
X110174444Y-126862585D01*
X110108753Y-127064760D01*
X110075500Y-127274713D01*
X106915158Y-127274713D01*
X106891925Y-127188007D01*
X106859012Y-127131000D01*
X107776000Y-127131000D01*
X107776000Y-126483172D01*
X107775999Y-126483155D01*
X107769598Y-126423627D01*
X107769596Y-126423620D01*
X107719354Y-126288913D01*
X107719350Y-126288906D01*
X107633190Y-126173812D01*
X107633187Y-126173809D01*
X107518093Y-126087649D01*
X107518086Y-126087645D01*
X107383379Y-126037403D01*
X107383372Y-126037401D01*
X107323844Y-126031000D01*
X106676000Y-126031000D01*
X106676000Y-126947988D01*
X106618993Y-126915075D01*
X106491826Y-126881000D01*
X106360174Y-126881000D01*
X106233007Y-126915075D01*
X106176000Y-126947988D01*
X106176000Y-126031000D01*
X105528155Y-126031000D01*
X105468627Y-126037401D01*
X105468620Y-126037403D01*
X105333913Y-126087645D01*
X105333906Y-126087649D01*
X105218812Y-126173809D01*
X105218809Y-126173812D01*
X105132649Y-126288906D01*
X105132645Y-126288913D01*
X105082403Y-126423620D01*
X105082401Y-126423627D01*
X105076000Y-126483155D01*
X93726500Y-126483155D01*
X93726500Y-118257713D01*
X95169500Y-118257713D01*
X95169500Y-118470286D01*
X95202418Y-118678125D01*
X95202754Y-118680243D01*
X95255950Y-118843964D01*
X95268444Y-118882414D01*
X95364951Y-119071820D01*
X95489890Y-119243786D01*
X95640213Y-119394109D01*
X95812179Y-119519048D01*
X95812181Y-119519049D01*
X95812184Y-119519051D01*
X96001588Y-119615557D01*
X96203757Y-119681246D01*
X96413713Y-119714500D01*
X96413714Y-119714500D01*
X96626286Y-119714500D01*
X96626287Y-119714500D01*
X96836243Y-119681246D01*
X97038412Y-119615557D01*
X97227816Y-119519051D01*
X97249789Y-119503086D01*
X97399786Y-119394109D01*
X97399788Y-119394106D01*
X97399792Y-119394104D01*
X97550104Y-119243792D01*
X97550106Y-119243788D01*
X97550109Y-119243786D01*
X97675048Y-119071820D01*
X97675047Y-119071820D01*
X97675051Y-119071816D01*
X97771557Y-118882412D01*
X97837246Y-118680243D01*
X97870500Y-118470287D01*
X97870500Y-118257713D01*
X97837246Y-118047757D01*
X97771557Y-117845588D01*
X97675051Y-117656184D01*
X97675049Y-117656181D01*
X97675048Y-117656179D01*
X97550109Y-117484213D01*
X97399786Y-117333890D01*
X97227820Y-117208951D01*
X97038414Y-117112444D01*
X97038413Y-117112443D01*
X97038412Y-117112443D01*
X96836243Y-117046754D01*
X96836241Y-117046753D01*
X96836240Y-117046753D01*
X96674957Y-117021208D01*
X96626287Y-117013500D01*
X96413713Y-117013500D01*
X96365042Y-117021208D01*
X96203760Y-117046753D01*
X96001585Y-117112444D01*
X95812179Y-117208951D01*
X95640213Y-117333890D01*
X95489890Y-117484213D01*
X95364951Y-117656179D01*
X95268444Y-117845585D01*
X95202753Y-118047760D01*
X95169500Y-118257713D01*
X93726500Y-118257713D01*
X93726500Y-116892683D01*
X158249500Y-116892683D01*
X158249500Y-117041316D01*
X158278493Y-117187072D01*
X158278495Y-117187080D01*
X158335370Y-117324388D01*
X158336452Y-117326412D01*
X158336824Y-117327900D01*
X158337702Y-117330018D01*
X158337388Y-117330148D01*
X158351100Y-117384876D01*
X158351100Y-124804123D01*
X158337390Y-124858854D01*
X158337702Y-124858983D01*
X158336833Y-124861079D01*
X158336459Y-124862575D01*
X158335370Y-124864610D01*
X158278495Y-125001919D01*
X158278493Y-125001927D01*
X158249500Y-125147683D01*
X158249500Y-125296316D01*
X158278493Y-125442072D01*
X158278495Y-125442080D01*
X158335371Y-125579391D01*
X158417939Y-125702964D01*
X158417945Y-125702971D01*
X158523028Y-125808054D01*
X158523035Y-125808060D01*
X158646608Y-125890628D01*
X158646609Y-125890628D01*
X158646610Y-125890629D01*
X158783920Y-125947505D01*
X158929683Y-125976499D01*
X158929687Y-125976500D01*
X158929688Y-125976500D01*
X159078313Y-125976500D01*
X159078314Y-125976499D01*
X159224080Y-125947505D01*
X159361390Y-125890629D01*
X159484966Y-125808059D01*
X159590059Y-125702966D01*
X159672629Y-125579390D01*
X159729505Y-125442080D01*
X159758500Y-125296312D01*
X159758500Y-125147688D01*
X159729505Y-125001920D01*
X159672629Y-124864610D01*
X159671541Y-124862575D01*
X159671166Y-124861079D01*
X159670298Y-124858983D01*
X159670609Y-124858854D01*
X159656900Y-124804123D01*
X159656900Y-117384876D01*
X159670611Y-117330148D01*
X159670298Y-117330018D01*
X159671175Y-117327900D01*
X159671548Y-117326412D01*
X159672623Y-117324397D01*
X159672629Y-117324390D01*
X159729505Y-117187080D01*
X159758500Y-117041312D01*
X159758500Y-116892688D01*
X159729505Y-116746920D01*
X159672629Y-116609610D01*
X159649896Y-116575588D01*
X159590060Y-116486035D01*
X159590054Y-116486028D01*
X159484971Y-116380945D01*
X159484964Y-116380939D01*
X159361391Y-116298371D01*
X159224080Y-116241495D01*
X159224072Y-116241493D01*
X159078316Y-116212500D01*
X159078312Y-116212500D01*
X158929688Y-116212500D01*
X158929683Y-116212500D01*
X158783927Y-116241493D01*
X158783919Y-116241495D01*
X158646608Y-116298371D01*
X158523035Y-116380939D01*
X158523028Y-116380945D01*
X158417945Y-116486028D01*
X158417939Y-116486035D01*
X158335371Y-116609608D01*
X158278495Y-116746919D01*
X158278493Y-116746927D01*
X158249500Y-116892683D01*
X93726500Y-116892683D01*
X93726500Y-113845755D01*
X94311599Y-113845755D01*
X94311599Y-114304000D01*
X95147262Y-114304000D01*
X95146798Y-114304464D01*
X95093294Y-114397135D01*
X95065599Y-114500496D01*
X95065599Y-114607504D01*
X95093294Y-114710865D01*
X95146798Y-114803536D01*
X95147262Y-114804000D01*
X94311599Y-114804000D01*
X94311599Y-115262244D01*
X94318000Y-115321772D01*
X94318002Y-115321779D01*
X94368244Y-115456486D01*
X94368248Y-115456493D01*
X94454408Y-115571587D01*
X94454411Y-115571590D01*
X94569505Y-115657750D01*
X94569512Y-115657754D01*
X94704219Y-115707996D01*
X94704226Y-115707998D01*
X94763754Y-115714399D01*
X94763771Y-115714400D01*
X95221999Y-115714400D01*
X95221999Y-114878737D01*
X95222463Y-114879201D01*
X95315134Y-114932705D01*
X95418495Y-114960400D01*
X95525503Y-114960400D01*
X95628864Y-114932705D01*
X95721535Y-114879201D01*
X95721999Y-114878737D01*
X95721999Y-115714400D01*
X96180227Y-115714400D01*
X96180243Y-115714399D01*
X96239771Y-115707998D01*
X96239778Y-115707996D01*
X96374485Y-115657754D01*
X96374492Y-115657750D01*
X96489586Y-115571590D01*
X96489589Y-115571587D01*
X96575749Y-115456493D01*
X96575753Y-115456486D01*
X96625995Y-115321779D01*
X96625997Y-115321772D01*
X96632398Y-115262244D01*
X96632399Y-115262227D01*
X96632399Y-114804000D01*
X95796736Y-114804000D01*
X95797200Y-114803536D01*
X95850704Y-114710865D01*
X95878399Y-114607504D01*
X95878399Y-114500496D01*
X95868253Y-114462629D01*
X103011101Y-114462629D01*
X103011101Y-114645370D01*
X103036226Y-114804000D01*
X103039686Y-114825845D01*
X103096153Y-114999631D01*
X103179110Y-115162444D01*
X103286516Y-115310276D01*
X103415725Y-115439485D01*
X103563557Y-115546891D01*
X103726370Y-115629848D01*
X103900156Y-115686315D01*
X103967836Y-115697034D01*
X104080631Y-115714900D01*
X104080636Y-115714900D01*
X104263371Y-115714900D01*
X104363632Y-115699019D01*
X104443846Y-115686315D01*
X104617632Y-115629848D01*
X104780445Y-115546891D01*
X104928277Y-115439485D01*
X105057486Y-115310276D01*
X105164892Y-115162444D01*
X105247849Y-114999631D01*
X105304316Y-114825845D01*
X105330538Y-114660286D01*
X105332901Y-114645370D01*
X105332901Y-114479683D01*
X108465500Y-114479683D01*
X108465500Y-114628316D01*
X108494493Y-114774072D01*
X108494495Y-114774080D01*
X108551371Y-114911391D01*
X108633939Y-115034964D01*
X108633945Y-115034971D01*
X108739028Y-115140054D01*
X108739035Y-115140060D01*
X108862608Y-115222628D01*
X108862609Y-115222628D01*
X108862610Y-115222629D01*
X108999920Y-115279505D01*
X109140409Y-115307450D01*
X109145683Y-115308499D01*
X109145687Y-115308500D01*
X109145688Y-115308500D01*
X109294313Y-115308500D01*
X109294314Y-115308499D01*
X109440080Y-115279505D01*
X109577390Y-115222629D01*
X109700966Y-115140059D01*
X109806059Y-115034966D01*
X109888629Y-114911390D01*
X109945505Y-114774080D01*
X109974500Y-114628312D01*
X109974500Y-114479688D01*
X109945505Y-114333920D01*
X109888629Y-114196610D01*
X109871941Y-114171635D01*
X109806060Y-114073035D01*
X109806054Y-114073028D01*
X109700971Y-113967945D01*
X109700964Y-113967939D01*
X109577391Y-113885371D01*
X109440080Y-113828495D01*
X109440072Y-113828493D01*
X109294316Y-113799500D01*
X109294312Y-113799500D01*
X109145688Y-113799500D01*
X109145683Y-113799500D01*
X108999927Y-113828493D01*
X108999919Y-113828495D01*
X108862608Y-113885371D01*
X108739035Y-113967939D01*
X108739028Y-113967945D01*
X108633945Y-114073028D01*
X108633939Y-114073035D01*
X108551371Y-114196608D01*
X108494495Y-114333919D01*
X108494493Y-114333927D01*
X108465500Y-114479683D01*
X105332901Y-114479683D01*
X105332901Y-114462629D01*
X105312515Y-114333920D01*
X105304316Y-114282155D01*
X105247849Y-114108369D01*
X105164892Y-113945556D01*
X105057486Y-113797724D01*
X104928277Y-113668515D01*
X104780445Y-113561109D01*
X104617632Y-113478152D01*
X104443846Y-113421685D01*
X104443844Y-113421684D01*
X104443842Y-113421684D01*
X104263371Y-113393100D01*
X104263366Y-113393100D01*
X104080636Y-113393100D01*
X104080631Y-113393100D01*
X103900159Y-113421684D01*
X103726367Y-113478153D01*
X103563556Y-113561109D01*
X103415722Y-113668517D01*
X103286518Y-113797721D01*
X103179110Y-113945555D01*
X103096154Y-114108366D01*
X103039685Y-114282158D01*
X103011101Y-114462629D01*
X95868253Y-114462629D01*
X95850704Y-114397135D01*
X95797200Y-114304464D01*
X95796736Y-114304000D01*
X96632399Y-114304000D01*
X96632399Y-113845772D01*
X96632398Y-113845755D01*
X96625997Y-113786227D01*
X96625995Y-113786220D01*
X96575753Y-113651513D01*
X96575749Y-113651506D01*
X96489589Y-113536412D01*
X96489586Y-113536409D01*
X96374492Y-113450249D01*
X96374485Y-113450245D01*
X96239778Y-113400003D01*
X96239771Y-113400001D01*
X96180243Y-113393600D01*
X95721999Y-113393600D01*
X95721999Y-114229263D01*
X95721535Y-114228799D01*
X95628864Y-114175295D01*
X95525503Y-114147600D01*
X95418495Y-114147600D01*
X95315134Y-114175295D01*
X95222463Y-114228799D01*
X95221999Y-114229263D01*
X95221999Y-113393600D01*
X94763754Y-113393600D01*
X94704226Y-113400001D01*
X94704219Y-113400003D01*
X94569512Y-113450245D01*
X94569505Y-113450249D01*
X94454411Y-113536409D01*
X94454408Y-113536412D01*
X94368248Y-113651506D01*
X94368244Y-113651513D01*
X94318002Y-113786220D01*
X94318000Y-113786227D01*
X94311599Y-113845755D01*
X93726500Y-113845755D01*
X93726500Y-109145683D01*
X131325500Y-109145683D01*
X131325500Y-109294316D01*
X131354493Y-109440072D01*
X131354495Y-109440080D01*
X131411371Y-109577391D01*
X131493939Y-109700964D01*
X131493945Y-109700971D01*
X131599028Y-109806054D01*
X131599035Y-109806060D01*
X131722608Y-109888628D01*
X131722609Y-109888628D01*
X131722610Y-109888629D01*
X131859920Y-109945505D01*
X132005683Y-109974499D01*
X132005687Y-109974500D01*
X132005688Y-109974500D01*
X132154313Y-109974500D01*
X132154314Y-109974499D01*
X132300080Y-109945505D01*
X132437390Y-109888629D01*
X132560966Y-109806059D01*
X132666059Y-109700966D01*
X132748629Y-109577390D01*
X132805505Y-109440080D01*
X132834500Y-109294312D01*
X132834500Y-109145688D01*
X132805505Y-108999920D01*
X132748629Y-108862610D01*
X132700235Y-108790183D01*
X132666060Y-108739035D01*
X132666054Y-108739028D01*
X132560971Y-108633945D01*
X132560964Y-108633939D01*
X132437391Y-108551371D01*
X132300080Y-108494495D01*
X132300072Y-108494493D01*
X132154316Y-108465500D01*
X132154312Y-108465500D01*
X132005688Y-108465500D01*
X132005683Y-108465500D01*
X131859927Y-108494493D01*
X131859919Y-108494495D01*
X131722608Y-108551371D01*
X131599035Y-108633939D01*
X131599028Y-108633945D01*
X131493945Y-108739028D01*
X131493939Y-108739035D01*
X131411371Y-108862608D01*
X131354495Y-108999919D01*
X131354493Y-108999927D01*
X131325500Y-109145683D01*
X93726500Y-109145683D01*
X93726500Y-104714975D01*
X107195500Y-104714975D01*
X107195500Y-104997024D01*
X107232312Y-105276634D01*
X107305310Y-105549065D01*
X107413236Y-105809622D01*
X107413241Y-105809633D01*
X107554250Y-106053866D01*
X107554261Y-106053882D01*
X107725944Y-106277624D01*
X107725950Y-106277631D01*
X107925368Y-106477049D01*
X107925375Y-106477055D01*
X107950028Y-106495972D01*
X108149126Y-106648745D01*
X108149133Y-106648749D01*
X108393366Y-106789758D01*
X108393371Y-106789760D01*
X108393374Y-106789762D01*
X108653939Y-106897691D01*
X108926363Y-106970687D01*
X109205983Y-107007500D01*
X109205990Y-107007500D01*
X109488010Y-107007500D01*
X109488017Y-107007500D01*
X109767637Y-106970687D01*
X110040061Y-106897691D01*
X110300626Y-106789762D01*
X110544874Y-106648745D01*
X110768626Y-106477054D01*
X110968054Y-106277626D01*
X111139745Y-106053874D01*
X111280762Y-105809626D01*
X111307916Y-105744070D01*
X114579500Y-105744070D01*
X114579500Y-105999929D01*
X114619526Y-106252640D01*
X114698588Y-106495972D01*
X114698589Y-106495975D01*
X114776427Y-106648738D01*
X114809870Y-106714374D01*
X114814750Y-106723950D01*
X114965132Y-106930935D01*
X114965136Y-106930940D01*
X115146059Y-107111863D01*
X115146064Y-107111867D01*
X115186851Y-107141500D01*
X115353053Y-107262252D01*
X115502080Y-107338185D01*
X115581024Y-107378410D01*
X115581027Y-107378411D01*
X115702693Y-107417942D01*
X115824361Y-107457474D01*
X116077070Y-107497500D01*
X116077071Y-107497500D01*
X116332929Y-107497500D01*
X116332930Y-107497500D01*
X116350715Y-107494683D01*
X124213500Y-107494683D01*
X124213500Y-107643316D01*
X124242493Y-107789072D01*
X124242495Y-107789080D01*
X124299371Y-107926391D01*
X124381939Y-108049964D01*
X124381945Y-108049971D01*
X124487028Y-108155054D01*
X124487035Y-108155060D01*
X124610608Y-108237628D01*
X124610609Y-108237628D01*
X124610610Y-108237629D01*
X124747920Y-108294505D01*
X124893683Y-108323499D01*
X124893687Y-108323500D01*
X124893688Y-108323500D01*
X125042313Y-108323500D01*
X125042314Y-108323499D01*
X125188080Y-108294505D01*
X125325390Y-108237629D01*
X125448966Y-108155059D01*
X125554059Y-108049966D01*
X125636629Y-107926390D01*
X125693505Y-107789080D01*
X125722500Y-107643312D01*
X125722500Y-107494688D01*
X125722499Y-107494683D01*
X128785500Y-107494683D01*
X128785500Y-107643316D01*
X128814493Y-107789072D01*
X128814495Y-107789080D01*
X128871371Y-107926391D01*
X128953939Y-108049964D01*
X128953945Y-108049971D01*
X129059028Y-108155054D01*
X129059035Y-108155060D01*
X129182608Y-108237628D01*
X129182609Y-108237628D01*
X129182610Y-108237629D01*
X129319920Y-108294505D01*
X129465683Y-108323499D01*
X129465687Y-108323500D01*
X129465688Y-108323500D01*
X129614313Y-108323500D01*
X129614314Y-108323499D01*
X129760080Y-108294505D01*
X129897390Y-108237629D01*
X130020966Y-108155059D01*
X130126059Y-108049966D01*
X130208629Y-107926390D01*
X130265505Y-107789080D01*
X130294500Y-107643312D01*
X130294500Y-107494688D01*
X130294499Y-107494683D01*
X133357500Y-107494683D01*
X133357500Y-107643316D01*
X133386493Y-107789072D01*
X133386495Y-107789080D01*
X133443371Y-107926391D01*
X133525939Y-108049964D01*
X133525945Y-108049971D01*
X133631028Y-108155054D01*
X133631035Y-108155060D01*
X133754608Y-108237628D01*
X133754609Y-108237628D01*
X133754610Y-108237629D01*
X133891920Y-108294505D01*
X134037683Y-108323499D01*
X134037687Y-108323500D01*
X134037688Y-108323500D01*
X134186313Y-108323500D01*
X134186314Y-108323499D01*
X134332080Y-108294505D01*
X134469390Y-108237629D01*
X134592966Y-108155059D01*
X134698059Y-108049966D01*
X134780629Y-107926390D01*
X134837505Y-107789080D01*
X134866500Y-107643312D01*
X134866500Y-107494688D01*
X134837505Y-107348920D01*
X134780629Y-107211610D01*
X134743317Y-107155768D01*
X134730266Y-107136235D01*
X141498200Y-107136235D01*
X141498200Y-108730570D01*
X141498201Y-108730576D01*
X141504608Y-108790183D01*
X141554902Y-108925028D01*
X141554906Y-108925035D01*
X141641152Y-109040244D01*
X141641155Y-109040247D01*
X141756364Y-109126493D01*
X141756371Y-109126497D01*
X141891217Y-109176791D01*
X141891216Y-109176791D01*
X141898144Y-109177535D01*
X141950827Y-109183200D01*
X142015888Y-109183199D01*
X142082925Y-109202883D01*
X142128681Y-109255686D01*
X142138625Y-109324844D01*
X142109601Y-109388400D01*
X142088773Y-109407516D01*
X141933816Y-109520101D01*
X141933807Y-109520108D01*
X141794708Y-109659207D01*
X141794708Y-109659208D01*
X141794706Y-109659210D01*
X141764365Y-109700971D01*
X141679075Y-109818361D01*
X141589766Y-109993638D01*
X141528973Y-110180737D01*
X141498200Y-110375033D01*
X141498200Y-110571766D01*
X141528973Y-110766062D01*
X141589766Y-110953161D01*
X141641146Y-111053999D01*
X141679075Y-111128438D01*
X141794706Y-111287590D01*
X141933810Y-111426694D01*
X142092962Y-111542325D01*
X142174160Y-111583697D01*
X142270754Y-111632915D01*
X142321550Y-111680890D01*
X142338345Y-111748711D01*
X142315807Y-111814846D01*
X142270754Y-111853885D01*
X142092961Y-111944475D01*
X142002159Y-112010447D01*
X141933810Y-112060106D01*
X141933808Y-112060108D01*
X141933807Y-112060108D01*
X141794708Y-112199207D01*
X141794708Y-112199208D01*
X141794706Y-112199210D01*
X141745047Y-112267559D01*
X141679075Y-112358361D01*
X141589766Y-112533638D01*
X141528973Y-112720737D01*
X141498200Y-112915033D01*
X141498200Y-113111766D01*
X141528973Y-113306062D01*
X141589766Y-113493161D01*
X141611804Y-113536412D01*
X141679075Y-113668438D01*
X141794706Y-113827590D01*
X141933810Y-113966694D01*
X142092962Y-114082325D01*
X142221072Y-114147600D01*
X142271305Y-114173195D01*
X142322101Y-114221169D01*
X142338896Y-114288990D01*
X142316359Y-114355125D01*
X142271305Y-114394164D01*
X142093225Y-114484901D01*
X142093224Y-114484902D01*
X142058375Y-114510221D01*
X142058375Y-114510223D01*
X142622428Y-115074274D01*
X142556821Y-115091854D01*
X142443879Y-115157061D01*
X142351661Y-115249279D01*
X142286454Y-115362221D01*
X142268874Y-115427827D01*
X141704823Y-114863775D01*
X141704821Y-114863775D01*
X141679505Y-114898620D01*
X141590227Y-115073834D01*
X141590226Y-115073837D01*
X141529462Y-115260853D01*
X141498700Y-115455078D01*
X141498700Y-115651721D01*
X141529462Y-115845946D01*
X141590226Y-116032962D01*
X141590227Y-116032965D01*
X141679502Y-116208175D01*
X141704822Y-116243023D01*
X141704822Y-116243024D01*
X142268874Y-115678971D01*
X142286454Y-115744579D01*
X142351661Y-115857521D01*
X142443879Y-115949739D01*
X142556821Y-116014946D01*
X142622427Y-116032525D01*
X142058375Y-116596576D01*
X142058375Y-116596577D01*
X142093223Y-116621896D01*
X142268434Y-116711172D01*
X142268437Y-116711173D01*
X142455453Y-116771937D01*
X142649679Y-116802700D01*
X142846321Y-116802700D01*
X143040546Y-116771937D01*
X143227562Y-116711173D01*
X143227575Y-116711167D01*
X143402769Y-116621900D01*
X143402774Y-116621897D01*
X143437624Y-116596576D01*
X142873573Y-116032525D01*
X142939179Y-116014946D01*
X143052121Y-115949739D01*
X143144339Y-115857521D01*
X143209546Y-115744579D01*
X143227125Y-115678972D01*
X143791176Y-116243023D01*
X143816497Y-116208174D01*
X143816500Y-116208169D01*
X143905767Y-116032975D01*
X143905773Y-116032962D01*
X143966537Y-115845946D01*
X143997300Y-115651721D01*
X143997300Y-115455078D01*
X143966537Y-115260853D01*
X143905773Y-115073837D01*
X143905772Y-115073834D01*
X143816496Y-114898623D01*
X143791176Y-114863775D01*
X143227124Y-115427826D01*
X143209546Y-115362221D01*
X143144339Y-115249279D01*
X143052121Y-115157061D01*
X142939179Y-115091854D01*
X142873572Y-115074274D01*
X143437624Y-114510222D01*
X143402775Y-114484902D01*
X143224694Y-114394165D01*
X143173898Y-114346190D01*
X143157103Y-114278369D01*
X143179641Y-114212234D01*
X143224694Y-114173195D01*
X143227753Y-114171636D01*
X143227757Y-114171635D01*
X143403038Y-114082325D01*
X143562190Y-113966694D01*
X143701294Y-113827590D01*
X143816925Y-113668438D01*
X143906235Y-113493157D01*
X143967026Y-113306062D01*
X143971708Y-113276499D01*
X143997800Y-113111766D01*
X143997800Y-112915033D01*
X143967026Y-112720737D01*
X143906233Y-112533638D01*
X143816924Y-112358361D01*
X143775917Y-112301920D01*
X143701294Y-112199210D01*
X143562190Y-112060106D01*
X143403038Y-111944475D01*
X143227757Y-111855165D01*
X143225245Y-111853885D01*
X143174449Y-111805910D01*
X143157654Y-111738089D01*
X143180191Y-111671955D01*
X143225245Y-111632915D01*
X143239800Y-111625499D01*
X143403038Y-111542325D01*
X143562190Y-111426694D01*
X143701294Y-111287590D01*
X143816925Y-111128438D01*
X143906235Y-110953157D01*
X143967026Y-110766062D01*
X143974051Y-110721706D01*
X143997800Y-110571766D01*
X143997800Y-110375033D01*
X143967026Y-110180737D01*
X143906233Y-109993638D01*
X143816924Y-109818361D01*
X143807986Y-109806059D01*
X143701294Y-109659210D01*
X143562190Y-109520106D01*
X143407224Y-109407516D01*
X143364559Y-109352187D01*
X143358580Y-109282574D01*
X143391186Y-109220779D01*
X143452025Y-109186421D01*
X143480109Y-109183199D01*
X143545172Y-109183199D01*
X143604783Y-109176791D01*
X143739631Y-109126496D01*
X143854846Y-109040246D01*
X143941096Y-108925031D01*
X143991391Y-108790183D01*
X143997800Y-108730573D01*
X143997799Y-107835033D01*
X149118200Y-107835033D01*
X149118200Y-108031766D01*
X149148973Y-108226062D01*
X149209766Y-108413161D01*
X149280188Y-108551371D01*
X149299075Y-108588438D01*
X149414706Y-108747590D01*
X149553810Y-108886694D01*
X149712962Y-109002325D01*
X149787382Y-109040244D01*
X149890754Y-109092915D01*
X149941550Y-109140890D01*
X149958345Y-109208711D01*
X149935807Y-109274846D01*
X149890754Y-109313885D01*
X149712961Y-109404475D01*
X149663967Y-109440072D01*
X149553810Y-109520106D01*
X149553808Y-109520108D01*
X149553807Y-109520108D01*
X149414708Y-109659207D01*
X149414708Y-109659208D01*
X149414706Y-109659210D01*
X149384365Y-109700971D01*
X149299075Y-109818361D01*
X149209766Y-109993638D01*
X149148973Y-110180737D01*
X149118200Y-110375033D01*
X149118200Y-110571766D01*
X149148973Y-110766062D01*
X149209766Y-110953161D01*
X149261146Y-111053999D01*
X149299075Y-111128438D01*
X149414706Y-111287590D01*
X149553810Y-111426694D01*
X149712962Y-111542325D01*
X149794160Y-111583697D01*
X149890754Y-111632915D01*
X149941550Y-111680890D01*
X149958345Y-111748711D01*
X149935807Y-111814846D01*
X149890754Y-111853885D01*
X149712961Y-111944475D01*
X149622159Y-112010447D01*
X149553810Y-112060106D01*
X149553808Y-112060108D01*
X149553807Y-112060108D01*
X149414708Y-112199207D01*
X149414708Y-112199208D01*
X149414706Y-112199210D01*
X149365047Y-112267559D01*
X149299075Y-112358361D01*
X149209766Y-112533638D01*
X149148973Y-112720737D01*
X149118200Y-112915033D01*
X149118200Y-113111766D01*
X149148973Y-113306062D01*
X149209766Y-113493161D01*
X149231804Y-113536412D01*
X149299075Y-113668438D01*
X149414706Y-113827590D01*
X149553810Y-113966694D01*
X149712962Y-114082325D01*
X149794160Y-114123697D01*
X149890754Y-114172915D01*
X149941550Y-114220890D01*
X149958345Y-114288711D01*
X149935807Y-114354846D01*
X149890754Y-114393885D01*
X149712961Y-114484475D01*
X149676993Y-114510608D01*
X149553810Y-114600106D01*
X149553808Y-114600108D01*
X149553807Y-114600108D01*
X149414708Y-114739207D01*
X149414708Y-114739208D01*
X149414706Y-114739210D01*
X149375129Y-114793683D01*
X149299075Y-114898361D01*
X149209766Y-115073638D01*
X149148973Y-115260737D01*
X149118200Y-115455033D01*
X149118200Y-115651766D01*
X149148973Y-115846062D01*
X149209766Y-116033161D01*
X149298938Y-116208169D01*
X149299075Y-116208438D01*
X149414706Y-116367590D01*
X149553810Y-116506694D01*
X149712962Y-116622325D01*
X149795774Y-116664520D01*
X149888238Y-116711633D01*
X149888240Y-116711633D01*
X149888243Y-116711635D01*
X149988530Y-116744220D01*
X150075337Y-116772426D01*
X150269634Y-116803200D01*
X150269639Y-116803200D01*
X150466366Y-116803200D01*
X150560558Y-116788280D01*
X150660662Y-116772426D01*
X150660665Y-116772425D01*
X150660666Y-116772425D01*
X150672237Y-116768665D01*
X150672238Y-116768665D01*
X150722326Y-116752390D01*
X150847757Y-116711635D01*
X151023038Y-116622325D01*
X151182190Y-116506694D01*
X151321294Y-116367590D01*
X151436925Y-116208438D01*
X151526235Y-116033157D01*
X151587026Y-115846062D01*
X151601836Y-115752556D01*
X151617800Y-115651766D01*
X151617800Y-115455033D01*
X151587026Y-115260737D01*
X151530926Y-115088080D01*
X151526235Y-115073643D01*
X151526233Y-115073640D01*
X151526233Y-115073638D01*
X151468535Y-114960400D01*
X151436925Y-114898362D01*
X151436923Y-114898359D01*
X151436922Y-114898357D01*
X151409406Y-114860485D01*
X151409403Y-114860482D01*
X151384235Y-114825841D01*
X151360871Y-114793683D01*
X167206500Y-114793683D01*
X167206500Y-114942316D01*
X167235493Y-115088072D01*
X167235495Y-115088080D01*
X167292370Y-115225389D01*
X167292371Y-115225390D01*
X167347202Y-115307451D01*
X167368080Y-115374127D01*
X167368100Y-115376341D01*
X167368100Y-117945123D01*
X167354390Y-117999854D01*
X167354702Y-117999983D01*
X167353833Y-118002079D01*
X167353459Y-118003575D01*
X167352370Y-118005610D01*
X167295495Y-118142919D01*
X167295493Y-118142927D01*
X167266500Y-118288683D01*
X167266500Y-118437316D01*
X167295493Y-118583072D01*
X167295495Y-118583080D01*
X167352371Y-118720391D01*
X167434939Y-118843964D01*
X167434945Y-118843971D01*
X167540028Y-118949054D01*
X167540035Y-118949060D01*
X167663608Y-119031628D01*
X167663609Y-119031628D01*
X167663610Y-119031629D01*
X167800920Y-119088505D01*
X167937061Y-119115585D01*
X167946683Y-119117499D01*
X167946687Y-119117500D01*
X167946688Y-119117500D01*
X168095313Y-119117500D01*
X168095314Y-119117499D01*
X168241080Y-119088505D01*
X168378390Y-119031629D01*
X168501966Y-118949059D01*
X168607059Y-118843966D01*
X168689629Y-118720390D01*
X168746505Y-118583080D01*
X168775500Y-118437312D01*
X168775500Y-118288688D01*
X168746505Y-118142920D01*
X168689629Y-118005610D01*
X168688541Y-118003575D01*
X168688166Y-118002079D01*
X168687298Y-117999983D01*
X168687609Y-117999854D01*
X168673900Y-117945123D01*
X168673900Y-115143175D01*
X168683340Y-115095720D01*
X168686505Y-115088080D01*
X168715500Y-114942312D01*
X168715500Y-114793688D01*
X168686505Y-114647920D01*
X168629629Y-114510610D01*
X168629370Y-114510223D01*
X168547060Y-114387035D01*
X168547054Y-114387028D01*
X168441971Y-114281945D01*
X168441964Y-114281939D01*
X168318391Y-114199371D01*
X168181080Y-114142495D01*
X168181072Y-114142493D01*
X168035316Y-114113500D01*
X168035312Y-114113500D01*
X167886688Y-114113500D01*
X167886683Y-114113500D01*
X167740927Y-114142493D01*
X167740919Y-114142495D01*
X167603608Y-114199371D01*
X167480035Y-114281939D01*
X167480028Y-114281945D01*
X167374945Y-114387028D01*
X167374939Y-114387035D01*
X167292371Y-114510608D01*
X167235495Y-114647919D01*
X167235493Y-114647927D01*
X167206500Y-114793683D01*
X151360871Y-114793683D01*
X151321294Y-114739210D01*
X151182190Y-114600106D01*
X151023038Y-114484475D01*
X150847757Y-114395165D01*
X150845245Y-114393885D01*
X150794449Y-114345910D01*
X150777654Y-114278089D01*
X150800191Y-114211955D01*
X150845245Y-114172915D01*
X150894928Y-114147600D01*
X151023038Y-114082325D01*
X151182190Y-113966694D01*
X151321294Y-113827590D01*
X151436925Y-113668438D01*
X151526235Y-113493157D01*
X151587026Y-113306062D01*
X151591708Y-113276499D01*
X151617800Y-113111766D01*
X151617800Y-112915033D01*
X151587026Y-112720737D01*
X151526232Y-112533635D01*
X151508020Y-112497892D01*
X151508019Y-112497891D01*
X151482436Y-112447683D01*
X160281500Y-112447683D01*
X160281500Y-112596316D01*
X160310493Y-112742072D01*
X160310495Y-112742080D01*
X160367371Y-112879391D01*
X160449939Y-113002964D01*
X160449945Y-113002971D01*
X160555028Y-113108054D01*
X160555035Y-113108060D01*
X160678608Y-113190628D01*
X160678609Y-113190628D01*
X160678610Y-113190629D01*
X160815920Y-113247505D01*
X160961683Y-113276499D01*
X160961687Y-113276500D01*
X160961688Y-113276500D01*
X161110313Y-113276500D01*
X161110314Y-113276499D01*
X161256080Y-113247505D01*
X161393390Y-113190629D01*
X161516966Y-113108059D01*
X161622059Y-113002966D01*
X161704629Y-112879390D01*
X161761505Y-112742080D01*
X161790500Y-112596312D01*
X161790500Y-112447688D01*
X161761505Y-112301920D01*
X161704629Y-112164610D01*
X161634802Y-112060106D01*
X161622060Y-112041035D01*
X161622054Y-112041028D01*
X161516971Y-111935945D01*
X161516964Y-111935939D01*
X161393391Y-111853371D01*
X161256080Y-111796495D01*
X161256072Y-111796493D01*
X161110316Y-111767500D01*
X161110312Y-111767500D01*
X160961688Y-111767500D01*
X160961683Y-111767500D01*
X160815927Y-111796493D01*
X160815919Y-111796495D01*
X160678608Y-111853371D01*
X160555035Y-111935939D01*
X160555028Y-111935945D01*
X160449945Y-112041028D01*
X160449939Y-112041035D01*
X160367371Y-112164608D01*
X160310495Y-112301919D01*
X160310493Y-112301927D01*
X160281500Y-112447683D01*
X151482436Y-112447683D01*
X151436924Y-112358361D01*
X151395917Y-112301920D01*
X151321294Y-112199210D01*
X151182190Y-112060106D01*
X151023038Y-111944475D01*
X150847757Y-111855165D01*
X150845245Y-111853885D01*
X150794449Y-111805910D01*
X150777654Y-111738089D01*
X150800191Y-111671955D01*
X150845245Y-111632915D01*
X150859800Y-111625499D01*
X151023038Y-111542325D01*
X151182190Y-111426694D01*
X151321294Y-111287590D01*
X151436925Y-111128438D01*
X151526235Y-110953157D01*
X151587026Y-110766062D01*
X151594051Y-110721706D01*
X151617800Y-110571766D01*
X151617800Y-110375033D01*
X151596174Y-110238494D01*
X151594066Y-110225183D01*
X152852000Y-110225183D01*
X152852000Y-110373816D01*
X152880993Y-110519572D01*
X152880995Y-110519580D01*
X152937871Y-110656891D01*
X153020439Y-110780464D01*
X153020445Y-110780471D01*
X153125528Y-110885554D01*
X153125535Y-110885560D01*
X153249108Y-110968128D01*
X153249109Y-110968128D01*
X153249110Y-110968129D01*
X153386420Y-111025005D01*
X153532183Y-111053999D01*
X153532187Y-111054000D01*
X153532188Y-111054000D01*
X153680813Y-111054000D01*
X153680814Y-111053999D01*
X153826580Y-111025005D01*
X153963890Y-110968129D01*
X154087466Y-110885559D01*
X154176342Y-110796683D01*
X171711500Y-110796683D01*
X171711500Y-110945316D01*
X171740493Y-111091072D01*
X171740495Y-111091080D01*
X171797371Y-111228391D01*
X171879939Y-111351964D01*
X171879945Y-111351971D01*
X171985028Y-111457054D01*
X171985035Y-111457060D01*
X172108608Y-111539628D01*
X172108609Y-111539628D01*
X172108610Y-111539629D01*
X172245920Y-111596505D01*
X172391683Y-111625499D01*
X172391687Y-111625500D01*
X172391688Y-111625500D01*
X172540313Y-111625500D01*
X172540314Y-111625499D01*
X172686080Y-111596505D01*
X172823390Y-111539629D01*
X172946966Y-111457059D01*
X173052059Y-111351966D01*
X173134629Y-111228390D01*
X173191505Y-111091080D01*
X173220500Y-110945312D01*
X173220500Y-110796688D01*
X173191505Y-110650920D01*
X173134629Y-110513610D01*
X173052059Y-110390034D01*
X173052054Y-110390028D01*
X172946971Y-110284945D01*
X172946964Y-110284939D01*
X172823391Y-110202371D01*
X172686080Y-110145495D01*
X172686072Y-110145493D01*
X172540316Y-110116500D01*
X172540312Y-110116500D01*
X172391688Y-110116500D01*
X172391683Y-110116500D01*
X172245927Y-110145493D01*
X172245919Y-110145495D01*
X172108608Y-110202371D01*
X171985035Y-110284939D01*
X171985028Y-110284945D01*
X171879945Y-110390028D01*
X171879939Y-110390035D01*
X171797371Y-110513608D01*
X171740495Y-110650919D01*
X171740493Y-110650927D01*
X171711500Y-110796683D01*
X154176342Y-110796683D01*
X154192559Y-110780466D01*
X154275129Y-110656890D01*
X154332005Y-110519580D01*
X154361000Y-110373812D01*
X154361000Y-110225188D01*
X154332005Y-110079420D01*
X154275129Y-109942110D01*
X154274041Y-109940075D01*
X154273666Y-109938579D01*
X154272798Y-109936483D01*
X154273109Y-109936354D01*
X154259400Y-109881623D01*
X154259400Y-102824780D01*
X154279085Y-102757741D01*
X154280298Y-102755889D01*
X154338625Y-102668596D01*
X154338625Y-102668595D01*
X154338629Y-102668590D01*
X154395505Y-102531280D01*
X154424500Y-102385512D01*
X154424500Y-102236888D01*
X154395505Y-102091120D01*
X154338629Y-101953810D01*
X154321049Y-101927500D01*
X154256060Y-101830235D01*
X154256054Y-101830228D01*
X154150971Y-101725145D01*
X154150964Y-101725139D01*
X154027391Y-101642571D01*
X153890080Y-101585695D01*
X153890072Y-101585693D01*
X153744316Y-101556700D01*
X153744312Y-101556700D01*
X153595688Y-101556700D01*
X153595683Y-101556700D01*
X153449927Y-101585693D01*
X153449919Y-101585695D01*
X153312608Y-101642571D01*
X153189035Y-101725139D01*
X153189028Y-101725145D01*
X153083945Y-101830228D01*
X153083939Y-101830235D01*
X153001371Y-101953808D01*
X152944495Y-102091119D01*
X152944493Y-102091127D01*
X152915500Y-102236883D01*
X152915500Y-102385516D01*
X152944493Y-102531272D01*
X152946263Y-102537107D01*
X152945524Y-102537331D01*
X152953600Y-102577926D01*
X152953600Y-109881623D01*
X152939890Y-109936354D01*
X152940202Y-109936483D01*
X152939333Y-109938579D01*
X152938959Y-109940075D01*
X152937870Y-109942110D01*
X152880995Y-110079419D01*
X152880993Y-110079427D01*
X152852000Y-110225183D01*
X151594066Y-110225183D01*
X151587026Y-110180737D01*
X151526233Y-109993638D01*
X151436924Y-109818361D01*
X151427986Y-109806059D01*
X151321294Y-109659210D01*
X151182190Y-109520106D01*
X151023038Y-109404475D01*
X150847757Y-109315165D01*
X150845245Y-109313885D01*
X150794449Y-109265910D01*
X150777654Y-109198089D01*
X150800191Y-109131955D01*
X150845245Y-109092915D01*
X150857485Y-109086677D01*
X151023038Y-109002325D01*
X151182190Y-108886694D01*
X151321294Y-108747590D01*
X151436925Y-108588438D01*
X151526235Y-108413157D01*
X151587026Y-108226062D01*
X151598272Y-108155059D01*
X151617800Y-108031766D01*
X151617800Y-107835033D01*
X151587026Y-107640737D01*
X151539570Y-107494683D01*
X151526235Y-107453643D01*
X151526233Y-107453640D01*
X151526233Y-107453638D01*
X151472876Y-107348920D01*
X151436925Y-107278362D01*
X151321294Y-107119210D01*
X151182190Y-106980106D01*
X151023038Y-106864475D01*
X150847761Y-106775166D01*
X150660662Y-106714373D01*
X150466366Y-106683600D01*
X150466361Y-106683600D01*
X150269639Y-106683600D01*
X150269634Y-106683600D01*
X150075337Y-106714373D01*
X149888238Y-106775166D01*
X149712961Y-106864475D01*
X149622159Y-106930447D01*
X149553810Y-106980106D01*
X149553808Y-106980108D01*
X149553807Y-106980108D01*
X149414708Y-107119207D01*
X149414708Y-107119208D01*
X149414706Y-107119210D01*
X149365047Y-107187559D01*
X149299075Y-107278361D01*
X149209766Y-107453638D01*
X149148973Y-107640737D01*
X149118200Y-107835033D01*
X143997799Y-107835033D01*
X143997799Y-107136228D01*
X143991391Y-107076617D01*
X143978687Y-107042557D01*
X143941097Y-106941771D01*
X143941093Y-106941764D01*
X143854847Y-106826555D01*
X143854844Y-106826552D01*
X143739635Y-106740306D01*
X143739628Y-106740302D01*
X143604782Y-106690008D01*
X143604783Y-106690008D01*
X143545183Y-106683601D01*
X143545181Y-106683600D01*
X143545173Y-106683600D01*
X143545164Y-106683600D01*
X141950829Y-106683600D01*
X141950823Y-106683601D01*
X141891216Y-106690008D01*
X141756371Y-106740302D01*
X141756364Y-106740306D01*
X141641155Y-106826552D01*
X141641152Y-106826555D01*
X141554906Y-106941764D01*
X141554902Y-106941771D01*
X141504608Y-107076617D01*
X141498322Y-107135091D01*
X141498201Y-107136223D01*
X141498200Y-107136235D01*
X134730266Y-107136235D01*
X134698060Y-107088035D01*
X134698054Y-107088028D01*
X134592971Y-106982945D01*
X134592964Y-106982939D01*
X134469391Y-106900371D01*
X134332080Y-106843495D01*
X134332072Y-106843493D01*
X134186316Y-106814500D01*
X134186312Y-106814500D01*
X134037688Y-106814500D01*
X134037683Y-106814500D01*
X133891927Y-106843493D01*
X133891919Y-106843495D01*
X133754608Y-106900371D01*
X133631035Y-106982939D01*
X133631028Y-106982945D01*
X133525945Y-107088028D01*
X133525939Y-107088035D01*
X133443371Y-107211608D01*
X133386495Y-107348919D01*
X133386493Y-107348927D01*
X133357500Y-107494683D01*
X130294499Y-107494683D01*
X130265505Y-107348920D01*
X130208629Y-107211610D01*
X130202070Y-107201794D01*
X130126060Y-107088035D01*
X130126054Y-107088028D01*
X130020971Y-106982945D01*
X130020964Y-106982939D01*
X129897391Y-106900371D01*
X129760080Y-106843495D01*
X129760072Y-106843493D01*
X129614316Y-106814500D01*
X129614312Y-106814500D01*
X129465688Y-106814500D01*
X129465683Y-106814500D01*
X129319927Y-106843493D01*
X129319919Y-106843495D01*
X129182608Y-106900371D01*
X129059035Y-106982939D01*
X129059028Y-106982945D01*
X128953945Y-107088028D01*
X128953939Y-107088035D01*
X128871371Y-107211608D01*
X128814495Y-107348919D01*
X128814493Y-107348927D01*
X128785500Y-107494683D01*
X125722499Y-107494683D01*
X125693505Y-107348920D01*
X125636629Y-107211610D01*
X125630070Y-107201794D01*
X125554060Y-107088035D01*
X125554054Y-107088028D01*
X125448971Y-106982945D01*
X125448964Y-106982939D01*
X125325391Y-106900371D01*
X125188080Y-106843495D01*
X125188072Y-106843493D01*
X125042316Y-106814500D01*
X125042312Y-106814500D01*
X124893688Y-106814500D01*
X124893683Y-106814500D01*
X124747927Y-106843493D01*
X124747919Y-106843495D01*
X124610608Y-106900371D01*
X124487035Y-106982939D01*
X124487028Y-106982945D01*
X124381945Y-107088028D01*
X124381939Y-107088035D01*
X124299371Y-107211608D01*
X124242495Y-107348919D01*
X124242493Y-107348927D01*
X124213500Y-107494683D01*
X116350715Y-107494683D01*
X116585639Y-107457474D01*
X116828975Y-107378410D01*
X116828979Y-107378408D01*
X116829561Y-107378112D01*
X116829562Y-107378111D01*
X116886854Y-107348919D01*
X117056947Y-107262252D01*
X117263942Y-107111862D01*
X117444862Y-106930942D01*
X117595252Y-106723947D01*
X117711410Y-106495975D01*
X117790474Y-106252639D01*
X117830500Y-105999930D01*
X117830500Y-105744070D01*
X117790474Y-105491361D01*
X117711410Y-105248025D01*
X117711410Y-105248024D01*
X117657765Y-105142742D01*
X117595252Y-105020053D01*
X117576038Y-104993607D01*
X117444867Y-104813064D01*
X117444863Y-104813059D01*
X117263940Y-104632136D01*
X117263935Y-104632132D01*
X117056950Y-104481750D01*
X117056949Y-104481749D01*
X117056947Y-104481748D01*
X116937360Y-104420815D01*
X116828975Y-104365589D01*
X116828972Y-104365588D01*
X116585640Y-104286526D01*
X116459284Y-104266513D01*
X116332930Y-104246500D01*
X116077070Y-104246500D01*
X115992833Y-104259842D01*
X115824359Y-104286526D01*
X115581027Y-104365588D01*
X115581024Y-104365589D01*
X115353049Y-104481750D01*
X115146064Y-104632132D01*
X115146059Y-104632136D01*
X114965136Y-104813059D01*
X114965132Y-104813064D01*
X114814750Y-105020049D01*
X114698589Y-105248024D01*
X114698588Y-105248027D01*
X114619526Y-105491359D01*
X114579500Y-105744070D01*
X111307916Y-105744070D01*
X111332503Y-105684713D01*
X111388689Y-105549065D01*
X111388691Y-105549061D01*
X111461687Y-105276637D01*
X111498500Y-104997017D01*
X111498500Y-104714983D01*
X111496352Y-104698671D01*
X111487592Y-104632132D01*
X111461687Y-104435363D01*
X111388691Y-104162939D01*
X111373026Y-104125119D01*
X111312936Y-103980049D01*
X111312935Y-103980047D01*
X111295802Y-103938683D01*
X124213500Y-103938683D01*
X124213500Y-104087313D01*
X124242493Y-104233072D01*
X124242495Y-104233080D01*
X124299371Y-104370391D01*
X124381939Y-104493964D01*
X124381945Y-104493971D01*
X124487028Y-104599054D01*
X124487035Y-104599060D01*
X124610608Y-104681628D01*
X124610609Y-104681628D01*
X124610610Y-104681629D01*
X124747920Y-104738505D01*
X124893683Y-104767499D01*
X124893687Y-104767500D01*
X124893688Y-104767500D01*
X125042313Y-104767500D01*
X125042314Y-104767499D01*
X125188080Y-104738505D01*
X125325390Y-104681629D01*
X125448966Y-104599059D01*
X125554059Y-104493966D01*
X125636629Y-104370390D01*
X125693505Y-104233080D01*
X125722500Y-104087312D01*
X125722500Y-103938688D01*
X125722499Y-103938683D01*
X128785500Y-103938683D01*
X128785500Y-104087313D01*
X128814493Y-104233072D01*
X128814495Y-104233080D01*
X128871371Y-104370391D01*
X128953939Y-104493964D01*
X128953945Y-104493971D01*
X129059028Y-104599054D01*
X129059035Y-104599060D01*
X129182608Y-104681628D01*
X129182609Y-104681628D01*
X129182610Y-104681629D01*
X129319920Y-104738505D01*
X129465683Y-104767499D01*
X129465687Y-104767500D01*
X129465688Y-104767500D01*
X129614313Y-104767500D01*
X129614314Y-104767499D01*
X129760080Y-104738505D01*
X129897390Y-104681629D01*
X130020966Y-104599059D01*
X130126059Y-104493966D01*
X130208629Y-104370390D01*
X130265505Y-104233080D01*
X130294500Y-104087312D01*
X130294500Y-103938688D01*
X130294499Y-103938683D01*
X133357500Y-103938683D01*
X133357500Y-104087313D01*
X133386493Y-104233072D01*
X133386495Y-104233080D01*
X133443371Y-104370391D01*
X133525939Y-104493964D01*
X133525945Y-104493971D01*
X133631028Y-104599054D01*
X133631035Y-104599060D01*
X133754608Y-104681628D01*
X133754609Y-104681628D01*
X133754610Y-104681629D01*
X133891920Y-104738505D01*
X134037683Y-104767499D01*
X134037687Y-104767500D01*
X134037688Y-104767500D01*
X134186313Y-104767500D01*
X134186314Y-104767499D01*
X134332080Y-104738505D01*
X134469390Y-104681629D01*
X134592966Y-104599059D01*
X134698059Y-104493966D01*
X134780629Y-104370390D01*
X134821846Y-104270883D01*
X143263500Y-104270883D01*
X143263500Y-104419516D01*
X143292493Y-104565272D01*
X143292495Y-104565280D01*
X143349371Y-104702591D01*
X143431939Y-104826164D01*
X143431945Y-104826171D01*
X143537028Y-104931254D01*
X143537035Y-104931260D01*
X143660608Y-105013828D01*
X143660609Y-105013828D01*
X143660610Y-105013829D01*
X143797920Y-105070705D01*
X143904706Y-105091946D01*
X143943683Y-105099699D01*
X143943687Y-105099700D01*
X143943688Y-105099700D01*
X144092313Y-105099700D01*
X144092314Y-105099699D01*
X144238080Y-105070705D01*
X144375390Y-105013829D01*
X144498966Y-104931259D01*
X144559428Y-104870796D01*
X144620749Y-104837313D01*
X144671297Y-104836862D01*
X144705688Y-104843703D01*
X144705689Y-104843703D01*
X144854313Y-104843703D01*
X144854314Y-104843702D01*
X145000080Y-104814708D01*
X145137390Y-104757832D01*
X145260966Y-104675262D01*
X145260969Y-104675258D01*
X145265681Y-104671393D01*
X145267072Y-104673088D01*
X145319733Y-104644334D01*
X145346091Y-104641500D01*
X145376707Y-104641500D01*
X145461565Y-104624619D01*
X145502844Y-104616409D01*
X145621664Y-104567192D01*
X145728600Y-104495741D01*
X145947544Y-104276796D01*
X146018996Y-104169860D01*
X146044333Y-104108690D01*
X146053188Y-104087313D01*
X146068210Y-104051045D01*
X146068212Y-104051041D01*
X146080790Y-103987808D01*
X146093303Y-103924904D01*
X146093303Y-102729076D01*
X146107014Y-102674348D01*
X146106701Y-102674218D01*
X146107578Y-102672100D01*
X146107951Y-102670612D01*
X146109028Y-102668596D01*
X146109032Y-102668590D01*
X146165908Y-102531280D01*
X146194903Y-102385512D01*
X146194903Y-102236888D01*
X146165908Y-102091120D01*
X146109032Y-101953810D01*
X146091452Y-101927500D01*
X146026463Y-101830235D01*
X146026457Y-101830228D01*
X145921374Y-101725145D01*
X145921367Y-101725139D01*
X145797794Y-101642571D01*
X145660483Y-101585695D01*
X145660475Y-101585693D01*
X145514719Y-101556700D01*
X145514715Y-101556700D01*
X145366091Y-101556700D01*
X145366086Y-101556700D01*
X145220330Y-101585693D01*
X145220318Y-101585696D01*
X145157653Y-101611653D01*
X145088184Y-101619122D01*
X145062748Y-101611653D01*
X145000080Y-101585695D01*
X145000072Y-101585693D01*
X144854316Y-101556700D01*
X144854312Y-101556700D01*
X144705688Y-101556700D01*
X144705683Y-101556700D01*
X144559927Y-101585693D01*
X144559915Y-101585696D01*
X144497250Y-101611653D01*
X144427781Y-101619122D01*
X144402345Y-101611653D01*
X144339677Y-101585695D01*
X144339669Y-101585693D01*
X144193913Y-101556700D01*
X144193909Y-101556700D01*
X144045285Y-101556700D01*
X144045280Y-101556700D01*
X143899524Y-101585693D01*
X143899516Y-101585695D01*
X143762205Y-101642571D01*
X143638632Y-101725139D01*
X143638625Y-101725145D01*
X143533542Y-101830228D01*
X143533536Y-101830235D01*
X143450968Y-101953808D01*
X143394092Y-102091119D01*
X143394090Y-102091127D01*
X143365097Y-102236883D01*
X143365097Y-102385516D01*
X143394090Y-102531272D01*
X143394092Y-102531280D01*
X143450967Y-102668588D01*
X143452049Y-102670612D01*
X143452421Y-102672100D01*
X143453299Y-102674218D01*
X143452985Y-102674348D01*
X143466697Y-102729076D01*
X143466697Y-103778115D01*
X143447012Y-103845154D01*
X143435584Y-103859334D01*
X143435810Y-103859519D01*
X143431939Y-103864235D01*
X143349371Y-103987808D01*
X143292495Y-104125119D01*
X143292493Y-104125127D01*
X143263500Y-104270883D01*
X134821846Y-104270883D01*
X134837505Y-104233080D01*
X134853175Y-104154304D01*
X134866500Y-104087313D01*
X134866500Y-103938687D01*
X134866499Y-103938683D01*
X134859275Y-103902366D01*
X134837505Y-103792920D01*
X134780629Y-103655610D01*
X134776132Y-103648880D01*
X134698060Y-103532035D01*
X134698054Y-103532028D01*
X134592971Y-103426945D01*
X134592964Y-103426939D01*
X134469391Y-103344371D01*
X134332080Y-103287495D01*
X134332072Y-103287493D01*
X134186316Y-103258500D01*
X134186312Y-103258500D01*
X134037688Y-103258500D01*
X134037683Y-103258500D01*
X133891927Y-103287493D01*
X133891919Y-103287495D01*
X133754608Y-103344371D01*
X133631035Y-103426939D01*
X133631028Y-103426945D01*
X133525945Y-103532028D01*
X133525939Y-103532035D01*
X133443371Y-103655608D01*
X133386495Y-103792919D01*
X133386493Y-103792927D01*
X133357500Y-103938683D01*
X130294499Y-103938683D01*
X130265505Y-103792920D01*
X130208629Y-103655610D01*
X130204132Y-103648880D01*
X130126060Y-103532035D01*
X130126054Y-103532028D01*
X130020971Y-103426945D01*
X130020964Y-103426939D01*
X129897391Y-103344371D01*
X129760080Y-103287495D01*
X129760072Y-103287493D01*
X129614316Y-103258500D01*
X129614312Y-103258500D01*
X129465688Y-103258500D01*
X129465683Y-103258500D01*
X129319927Y-103287493D01*
X129319919Y-103287495D01*
X129182608Y-103344371D01*
X129059035Y-103426939D01*
X129059028Y-103426945D01*
X128953945Y-103532028D01*
X128953939Y-103532035D01*
X128871371Y-103655608D01*
X128814495Y-103792919D01*
X128814493Y-103792927D01*
X128785500Y-103938683D01*
X125722499Y-103938683D01*
X125693505Y-103792920D01*
X125636629Y-103655610D01*
X125632132Y-103648880D01*
X125554060Y-103532035D01*
X125554054Y-103532028D01*
X125448971Y-103426945D01*
X125448964Y-103426939D01*
X125325391Y-103344371D01*
X125188080Y-103287495D01*
X125188072Y-103287493D01*
X125042316Y-103258500D01*
X125042312Y-103258500D01*
X124893688Y-103258500D01*
X124893683Y-103258500D01*
X124747927Y-103287493D01*
X124747919Y-103287495D01*
X124610608Y-103344371D01*
X124487035Y-103426939D01*
X124487028Y-103426945D01*
X124381945Y-103532028D01*
X124381939Y-103532035D01*
X124299371Y-103655608D01*
X124242495Y-103792919D01*
X124242493Y-103792927D01*
X124213500Y-103938683D01*
X111295802Y-103938683D01*
X111280766Y-103902382D01*
X111280758Y-103902366D01*
X111139749Y-103658133D01*
X111139745Y-103658126D01*
X111042987Y-103532028D01*
X110968055Y-103434375D01*
X110968049Y-103434368D01*
X110768631Y-103234950D01*
X110768624Y-103234944D01*
X110544882Y-103063261D01*
X110544880Y-103063259D01*
X110544874Y-103063255D01*
X110544869Y-103063252D01*
X110544866Y-103063250D01*
X110300633Y-102922241D01*
X110300622Y-102922236D01*
X110040065Y-102814310D01*
X109767634Y-102741312D01*
X109488024Y-102704500D01*
X109488017Y-102704500D01*
X109205983Y-102704500D01*
X109205975Y-102704500D01*
X108926365Y-102741312D01*
X108653934Y-102814310D01*
X108393377Y-102922236D01*
X108393366Y-102922241D01*
X108149133Y-103063250D01*
X108149117Y-103063261D01*
X107925375Y-103234944D01*
X107925368Y-103234950D01*
X107725950Y-103434368D01*
X107725944Y-103434375D01*
X107554261Y-103658117D01*
X107554250Y-103658133D01*
X107413241Y-103902366D01*
X107413236Y-103902377D01*
X107305310Y-104162934D01*
X107232312Y-104435365D01*
X107195500Y-104714975D01*
X93726500Y-104714975D01*
X93726500Y-100183713D01*
X97328500Y-100183713D01*
X97328500Y-100396287D01*
X97331384Y-100414498D01*
X97350712Y-100536531D01*
X97361754Y-100606243D01*
X97403246Y-100733943D01*
X97427444Y-100808414D01*
X97523951Y-100997820D01*
X97648890Y-101169786D01*
X97799213Y-101320109D01*
X97971179Y-101445048D01*
X97971181Y-101445049D01*
X97971184Y-101445051D01*
X98160588Y-101541557D01*
X98362757Y-101607246D01*
X98572713Y-101640500D01*
X98572714Y-101640500D01*
X98785286Y-101640500D01*
X98785287Y-101640500D01*
X98995243Y-101607246D01*
X99197412Y-101541557D01*
X99386816Y-101445051D01*
X99431740Y-101412412D01*
X99558786Y-101320109D01*
X99558788Y-101320106D01*
X99558792Y-101320104D01*
X99709104Y-101169792D01*
X99709106Y-101169788D01*
X99709109Y-101169786D01*
X99834048Y-100997820D01*
X99834047Y-100997820D01*
X99834051Y-100997816D01*
X99930557Y-100808412D01*
X99996246Y-100606243D01*
X100029500Y-100396287D01*
X100029500Y-100183713D01*
X99996246Y-99973757D01*
X99930557Y-99771588D01*
X99834051Y-99582184D01*
X99834049Y-99582181D01*
X99834048Y-99582179D01*
X99709109Y-99410213D01*
X99558786Y-99259890D01*
X99386820Y-99134951D01*
X99197414Y-99038444D01*
X99197413Y-99038443D01*
X99197412Y-99038443D01*
X98995243Y-98972754D01*
X98995241Y-98972753D01*
X98995240Y-98972753D01*
X98833957Y-98947208D01*
X98785287Y-98939500D01*
X98572713Y-98939500D01*
X98524042Y-98947208D01*
X98362760Y-98972753D01*
X98160585Y-99038444D01*
X97971179Y-99134951D01*
X97799213Y-99259890D01*
X97648890Y-99410213D01*
X97523951Y-99582179D01*
X97427444Y-99771585D01*
X97361753Y-99973760D01*
X97342692Y-100094109D01*
X97328500Y-100183713D01*
X93726500Y-100183713D01*
X93726500Y-94392155D01*
X97329000Y-94392155D01*
X97329000Y-95040000D01*
X98245988Y-95040000D01*
X98213075Y-95097007D01*
X98179000Y-95224174D01*
X98179000Y-95355826D01*
X98213075Y-95482993D01*
X98245988Y-95540000D01*
X97329000Y-95540000D01*
X97329000Y-96187844D01*
X97335401Y-96247372D01*
X97335403Y-96247379D01*
X97385645Y-96382086D01*
X97385649Y-96382093D01*
X97471809Y-96497187D01*
X97471812Y-96497190D01*
X97586906Y-96583350D01*
X97586913Y-96583354D01*
X97721620Y-96633596D01*
X97721627Y-96633598D01*
X97781155Y-96639999D01*
X97781172Y-96640000D01*
X98429000Y-96640000D01*
X98429000Y-95723012D01*
X98486007Y-95755925D01*
X98613174Y-95790000D01*
X98744826Y-95790000D01*
X98871993Y-95755925D01*
X98929000Y-95723012D01*
X98929000Y-96640000D01*
X99576828Y-96640000D01*
X99576844Y-96639999D01*
X99636372Y-96633598D01*
X99636379Y-96633596D01*
X99771086Y-96583354D01*
X99771093Y-96583350D01*
X99886187Y-96497190D01*
X99886190Y-96497187D01*
X99972350Y-96382093D01*
X99972354Y-96382086D01*
X100022596Y-96247379D01*
X100022598Y-96247372D01*
X100028999Y-96187844D01*
X100029000Y-96187827D01*
X100029000Y-95570975D01*
X107195500Y-95570975D01*
X107195500Y-95853024D01*
X107232312Y-96132634D01*
X107305310Y-96405065D01*
X107413236Y-96665622D01*
X107413241Y-96665633D01*
X107554250Y-96909866D01*
X107554261Y-96909882D01*
X107725944Y-97133624D01*
X107725950Y-97133631D01*
X107925368Y-97333049D01*
X107925374Y-97333054D01*
X108149126Y-97504745D01*
X108149133Y-97504749D01*
X108377526Y-97636613D01*
X108425742Y-97687180D01*
X108438964Y-97755787D01*
X108412996Y-97820652D01*
X108377526Y-97851387D01*
X108149133Y-97983250D01*
X108149117Y-97983261D01*
X107925375Y-98154944D01*
X107925368Y-98154950D01*
X107725950Y-98354368D01*
X107725944Y-98354375D01*
X107554261Y-98578117D01*
X107554250Y-98578133D01*
X107413241Y-98822366D01*
X107413236Y-98822377D01*
X107305310Y-99082934D01*
X107232312Y-99355365D01*
X107195500Y-99634975D01*
X107195500Y-99917024D01*
X107232312Y-100196634D01*
X107305310Y-100469065D01*
X107413236Y-100729621D01*
X107413238Y-100729627D01*
X107554250Y-100973866D01*
X107554261Y-100973882D01*
X107725944Y-101197624D01*
X107725950Y-101197631D01*
X107925368Y-101397049D01*
X107925374Y-101397054D01*
X108149126Y-101568745D01*
X108149133Y-101568749D01*
X108393366Y-101709758D01*
X108393371Y-101709760D01*
X108393374Y-101709762D01*
X108653939Y-101817691D01*
X108926363Y-101890687D01*
X109205983Y-101927500D01*
X109205990Y-101927500D01*
X109488010Y-101927500D01*
X109488017Y-101927500D01*
X109767637Y-101890687D01*
X110040061Y-101817691D01*
X110300626Y-101709762D01*
X110544874Y-101568745D01*
X110768626Y-101397054D01*
X110968054Y-101197626D01*
X111139745Y-100973874D01*
X111235275Y-100808412D01*
X111280762Y-100729627D01*
X111280764Y-100729621D01*
X111388691Y-100469061D01*
X111461687Y-100196637D01*
X111498500Y-99917017D01*
X111498500Y-99634983D01*
X111461687Y-99355363D01*
X111388691Y-99082939D01*
X111280762Y-98822374D01*
X111280760Y-98822371D01*
X111280758Y-98822366D01*
X111139749Y-98578133D01*
X111139745Y-98578126D01*
X110976591Y-98365499D01*
X110968055Y-98354375D01*
X110968049Y-98354368D01*
X110768631Y-98154950D01*
X110768624Y-98154944D01*
X110544882Y-97983261D01*
X110544880Y-97983259D01*
X110544874Y-97983255D01*
X110544869Y-97983252D01*
X110544866Y-97983250D01*
X110316473Y-97851387D01*
X110268257Y-97800820D01*
X110255035Y-97732213D01*
X110281003Y-97667348D01*
X110316473Y-97636613D01*
X110389782Y-97594287D01*
X110544874Y-97504745D01*
X110768626Y-97333054D01*
X110968054Y-97133626D01*
X111139745Y-96909874D01*
X111280762Y-96665626D01*
X111388691Y-96405061D01*
X111461687Y-96132637D01*
X111498500Y-95853017D01*
X111498500Y-95570983D01*
X111461687Y-95291363D01*
X111388691Y-95018939D01*
X111280762Y-94758374D01*
X111280760Y-94758371D01*
X111280758Y-94758366D01*
X111139749Y-94514133D01*
X111139745Y-94514126D01*
X110968054Y-94290374D01*
X110968049Y-94290368D01*
X110768631Y-94090950D01*
X110768624Y-94090944D01*
X110544882Y-93919261D01*
X110544880Y-93919259D01*
X110544874Y-93919255D01*
X110544869Y-93919252D01*
X110544866Y-93919250D01*
X110300633Y-93778241D01*
X110300622Y-93778236D01*
X110040065Y-93670310D01*
X109767634Y-93597312D01*
X109488024Y-93560500D01*
X109488017Y-93560500D01*
X109205983Y-93560500D01*
X109205975Y-93560500D01*
X108926365Y-93597312D01*
X108653934Y-93670310D01*
X108393377Y-93778236D01*
X108393366Y-93778241D01*
X108149133Y-93919250D01*
X108149117Y-93919261D01*
X107925375Y-94090944D01*
X107925368Y-94090950D01*
X107725950Y-94290368D01*
X107725944Y-94290375D01*
X107554261Y-94514117D01*
X107554250Y-94514133D01*
X107413241Y-94758366D01*
X107413236Y-94758377D01*
X107305310Y-95018934D01*
X107232312Y-95291365D01*
X107195500Y-95570975D01*
X100029000Y-95570975D01*
X100029000Y-95540000D01*
X99112012Y-95540000D01*
X99144925Y-95482993D01*
X99179000Y-95355826D01*
X99179000Y-95224174D01*
X99144925Y-95097007D01*
X99112012Y-95040000D01*
X100029000Y-95040000D01*
X100029000Y-94392172D01*
X100028999Y-94392155D01*
X100022598Y-94332627D01*
X100022596Y-94332620D01*
X99972354Y-94197913D01*
X99972350Y-94197906D01*
X99886190Y-94082812D01*
X99886187Y-94082809D01*
X99771093Y-93996649D01*
X99771086Y-93996645D01*
X99636379Y-93946403D01*
X99636372Y-93946401D01*
X99576844Y-93940000D01*
X98929000Y-93940000D01*
X98929000Y-94856988D01*
X98871993Y-94824075D01*
X98744826Y-94790000D01*
X98613174Y-94790000D01*
X98486007Y-94824075D01*
X98429000Y-94856988D01*
X98429000Y-93940000D01*
X97781155Y-93940000D01*
X97721627Y-93946401D01*
X97721620Y-93946403D01*
X97586913Y-93996645D01*
X97586906Y-93996649D01*
X97471812Y-94082809D01*
X97471809Y-94082812D01*
X97385649Y-94197906D01*
X97385645Y-94197913D01*
X97335403Y-94332620D01*
X97335401Y-94332627D01*
X97329000Y-94392155D01*
X93726500Y-94392155D01*
X93726500Y-90490975D01*
X107195500Y-90490975D01*
X107195500Y-90773024D01*
X107232312Y-91052634D01*
X107305310Y-91325065D01*
X107413236Y-91585622D01*
X107413241Y-91585633D01*
X107554250Y-91829866D01*
X107554261Y-91829882D01*
X107725944Y-92053624D01*
X107725950Y-92053631D01*
X107925368Y-92253049D01*
X107925374Y-92253054D01*
X108149126Y-92424745D01*
X108149133Y-92424749D01*
X108393366Y-92565758D01*
X108393371Y-92565760D01*
X108393374Y-92565762D01*
X108653939Y-92673691D01*
X108926363Y-92746687D01*
X109205983Y-92783500D01*
X109205990Y-92783500D01*
X109488010Y-92783500D01*
X109488017Y-92783500D01*
X109767637Y-92746687D01*
X110040061Y-92673691D01*
X110300626Y-92565762D01*
X110544874Y-92424745D01*
X110768626Y-92253054D01*
X110968054Y-92053626D01*
X111139745Y-91829874D01*
X111280762Y-91585626D01*
X111388691Y-91325061D01*
X111461687Y-91052637D01*
X111498500Y-90773017D01*
X111498500Y-90490983D01*
X111461687Y-90211363D01*
X111388691Y-89938939D01*
X111280762Y-89678374D01*
X111280760Y-89678371D01*
X111280758Y-89678366D01*
X111139749Y-89434133D01*
X111139745Y-89434126D01*
X110968054Y-89210374D01*
X110968049Y-89210368D01*
X110768631Y-89010950D01*
X110768624Y-89010944D01*
X110544882Y-88839261D01*
X110544880Y-88839259D01*
X110544874Y-88839255D01*
X110544869Y-88839252D01*
X110544866Y-88839250D01*
X110300633Y-88698241D01*
X110300622Y-88698236D01*
X110040065Y-88590310D01*
X110025700Y-88586461D01*
X109811988Y-88529197D01*
X109767634Y-88517312D01*
X109488024Y-88480500D01*
X109488017Y-88480500D01*
X109205983Y-88480500D01*
X109205975Y-88480500D01*
X108926365Y-88517312D01*
X108653934Y-88590310D01*
X108393377Y-88698236D01*
X108393366Y-88698241D01*
X108149133Y-88839250D01*
X108149117Y-88839261D01*
X107925375Y-89010944D01*
X107925368Y-89010950D01*
X107725950Y-89210368D01*
X107725944Y-89210375D01*
X107554261Y-89434117D01*
X107554250Y-89434133D01*
X107413241Y-89678366D01*
X107413236Y-89678377D01*
X107305310Y-89938934D01*
X107232312Y-90211365D01*
X107195500Y-90490975D01*
X93726500Y-90490975D01*
X93726500Y-88443135D01*
X114579500Y-88443135D01*
X114579500Y-90788870D01*
X114579501Y-90788876D01*
X114585908Y-90848483D01*
X114636202Y-90983328D01*
X114636206Y-90983335D01*
X114722452Y-91098544D01*
X114722455Y-91098547D01*
X114837664Y-91184793D01*
X114837671Y-91184797D01*
X114972517Y-91235091D01*
X114972516Y-91235091D01*
X114979444Y-91235835D01*
X115032127Y-91241500D01*
X117377872Y-91241499D01*
X117437483Y-91235091D01*
X117572331Y-91184796D01*
X117687546Y-91098546D01*
X117773796Y-90983331D01*
X117824091Y-90848483D01*
X117830500Y-90788873D01*
X117830499Y-88443128D01*
X117824091Y-88383517D01*
X117773796Y-88248669D01*
X117773795Y-88248668D01*
X117773793Y-88248664D01*
X117687547Y-88133455D01*
X117687544Y-88133452D01*
X117572335Y-88047206D01*
X117572328Y-88047202D01*
X117437482Y-87996908D01*
X117437483Y-87996908D01*
X117377883Y-87990501D01*
X117377881Y-87990500D01*
X117377873Y-87990500D01*
X117377864Y-87990500D01*
X115032129Y-87990500D01*
X115032123Y-87990501D01*
X114972516Y-87996908D01*
X114837671Y-88047202D01*
X114837664Y-88047206D01*
X114722455Y-88133452D01*
X114722452Y-88133455D01*
X114636206Y-88248664D01*
X114636202Y-88248671D01*
X114585908Y-88383517D01*
X114579501Y-88443116D01*
X114579501Y-88443123D01*
X114579500Y-88443135D01*
X93726500Y-88443135D01*
X93726500Y-85862994D01*
X121839100Y-85862994D01*
X121839100Y-86095005D01*
X121839101Y-86095022D01*
X121869383Y-86325040D01*
X121869386Y-86325053D01*
X121929436Y-86549167D01*
X122018224Y-86763521D01*
X122018232Y-86763538D01*
X122134236Y-86964461D01*
X122134242Y-86964469D01*
X122193217Y-87041327D01*
X123000098Y-86234447D01*
X123023861Y-86291817D01*
X123096134Y-86399980D01*
X123188120Y-86491966D01*
X123296283Y-86564239D01*
X123353651Y-86588001D01*
X122546771Y-87394881D01*
X122623630Y-87453857D01*
X122623638Y-87453863D01*
X122824561Y-87569867D01*
X122824578Y-87569875D01*
X123038932Y-87658663D01*
X123263046Y-87718713D01*
X123263059Y-87718716D01*
X123493077Y-87748998D01*
X123493095Y-87749000D01*
X123725105Y-87749000D01*
X123725122Y-87748998D01*
X123955140Y-87718716D01*
X123955153Y-87718713D01*
X124179267Y-87658663D01*
X124393621Y-87569875D01*
X124393638Y-87569867D01*
X124594575Y-87453855D01*
X124671427Y-87394883D01*
X124671427Y-87394880D01*
X123864547Y-86588001D01*
X123921917Y-86564239D01*
X124030080Y-86491966D01*
X124122066Y-86399980D01*
X124194339Y-86291817D01*
X124218101Y-86234448D01*
X125024980Y-87041327D01*
X125024983Y-87041327D01*
X125083955Y-86964475D01*
X125199967Y-86763538D01*
X125199975Y-86763521D01*
X125288763Y-86549167D01*
X125348813Y-86325053D01*
X125348816Y-86325040D01*
X125379098Y-86095022D01*
X125379100Y-86095005D01*
X125379100Y-85862986D01*
X125379095Y-85862947D01*
X141828400Y-85862947D01*
X141828400Y-86095052D01*
X141858694Y-86325148D01*
X141918762Y-86549328D01*
X142007577Y-86763745D01*
X142007585Y-86763762D01*
X142123620Y-86964743D01*
X142123621Y-86964745D01*
X142264909Y-87148875D01*
X142264915Y-87148882D01*
X142429017Y-87312984D01*
X142429024Y-87312990D01*
X142613154Y-87454278D01*
X142613156Y-87454279D01*
X142814137Y-87570314D01*
X142814140Y-87570315D01*
X142814148Y-87570320D01*
X143028570Y-87659137D01*
X143252751Y-87719206D01*
X143482855Y-87749500D01*
X143482862Y-87749500D01*
X143714938Y-87749500D01*
X143714945Y-87749500D01*
X143945049Y-87719206D01*
X144169230Y-87659137D01*
X144383652Y-87570320D01*
X144584648Y-87454276D01*
X144768777Y-87312989D01*
X144932889Y-87148877D01*
X145074176Y-86964748D01*
X145190220Y-86763752D01*
X145279037Y-86549330D01*
X145339106Y-86325149D01*
X145369400Y-86095045D01*
X145369400Y-85862955D01*
X145339106Y-85632851D01*
X145279037Y-85408670D01*
X145190220Y-85194248D01*
X145190214Y-85194237D01*
X145074179Y-84993256D01*
X145074178Y-84993254D01*
X144932890Y-84809124D01*
X144932884Y-84809117D01*
X144768782Y-84645015D01*
X144768775Y-84645009D01*
X144584645Y-84503721D01*
X144584643Y-84503720D01*
X144383662Y-84387685D01*
X144383654Y-84387681D01*
X144383652Y-84387680D01*
X144313003Y-84358416D01*
X144169228Y-84298862D01*
X144027103Y-84260780D01*
X143945049Y-84238794D01*
X143916286Y-84235007D01*
X143714952Y-84208500D01*
X143714945Y-84208500D01*
X143482855Y-84208500D01*
X143482847Y-84208500D01*
X143252751Y-84238794D01*
X143028571Y-84298862D01*
X142814154Y-84387677D01*
X142814137Y-84387685D01*
X142613156Y-84503720D01*
X142613154Y-84503721D01*
X142429024Y-84645009D01*
X142429017Y-84645015D01*
X142264915Y-84809117D01*
X142264909Y-84809124D01*
X142123621Y-84993254D01*
X142123620Y-84993256D01*
X142007585Y-85194237D01*
X142007577Y-85194254D01*
X141918762Y-85408671D01*
X141858694Y-85632851D01*
X141828400Y-85862947D01*
X125379095Y-85862947D01*
X125348816Y-85632959D01*
X125348813Y-85632946D01*
X125288763Y-85408832D01*
X125199975Y-85194478D01*
X125199967Y-85194461D01*
X125083963Y-84993538D01*
X125083957Y-84993530D01*
X125024981Y-84916671D01*
X124218101Y-85723551D01*
X124194339Y-85666183D01*
X124122066Y-85558020D01*
X124030080Y-85466034D01*
X123921917Y-85393761D01*
X123864547Y-85369998D01*
X124671427Y-84563117D01*
X124594569Y-84504142D01*
X124594561Y-84504136D01*
X124393638Y-84388132D01*
X124393621Y-84388124D01*
X124179267Y-84299336D01*
X123955153Y-84239286D01*
X123955140Y-84239283D01*
X123725122Y-84209001D01*
X123725105Y-84209000D01*
X123493095Y-84209000D01*
X123493077Y-84209001D01*
X123263059Y-84239283D01*
X123263046Y-84239286D01*
X123038932Y-84299336D01*
X122824578Y-84388124D01*
X122824561Y-84388132D01*
X122623641Y-84504134D01*
X122623633Y-84504140D01*
X122546771Y-84563116D01*
X122546771Y-84563117D01*
X123353652Y-85369998D01*
X123296283Y-85393761D01*
X123188120Y-85466034D01*
X123096134Y-85558020D01*
X123023861Y-85666183D01*
X123000098Y-85723551D01*
X122193217Y-84916671D01*
X122193216Y-84916671D01*
X122134240Y-84993533D01*
X122134234Y-84993541D01*
X122018232Y-85194461D01*
X122018224Y-85194478D01*
X121929436Y-85408832D01*
X121869386Y-85632946D01*
X121869383Y-85632959D01*
X121839101Y-85862977D01*
X121839100Y-85862994D01*
X93726500Y-85862994D01*
X93726500Y-83560339D01*
X100591500Y-83560339D01*
X100591500Y-83759060D01*
X100622587Y-83955337D01*
X100683993Y-84144329D01*
X100683994Y-84144332D01*
X100762732Y-84298862D01*
X100774213Y-84321394D01*
X100891019Y-84482164D01*
X101031536Y-84622681D01*
X101192306Y-84739487D01*
X101279149Y-84783735D01*
X101369367Y-84829705D01*
X101369370Y-84829706D01*
X101463866Y-84860409D01*
X101558364Y-84891113D01*
X101754639Y-84922200D01*
X101754640Y-84922200D01*
X101953360Y-84922200D01*
X101953361Y-84922200D01*
X102149636Y-84891113D01*
X102338632Y-84829705D01*
X102515694Y-84739487D01*
X102676464Y-84622681D01*
X102816981Y-84482164D01*
X102933787Y-84321394D01*
X103013796Y-84164367D01*
X103061769Y-84113572D01*
X103129590Y-84096777D01*
X103195725Y-84119314D01*
X103234765Y-84164368D01*
X103314641Y-84321132D01*
X103341730Y-84358415D01*
X103341731Y-84358416D01*
X103904504Y-83795642D01*
X103920619Y-83855781D01*
X103987498Y-83971620D01*
X104082080Y-84066202D01*
X104197919Y-84133081D01*
X104258057Y-84149194D01*
X103695283Y-84711968D01*
X103695283Y-84711969D01*
X103732567Y-84739058D01*
X103909562Y-84829242D01*
X104098477Y-84890624D01*
X104294679Y-84921700D01*
X104493321Y-84921700D01*
X104689520Y-84890624D01*
X104689523Y-84890624D01*
X104878437Y-84829242D01*
X105055425Y-84739062D01*
X105092716Y-84711968D01*
X104529942Y-84149194D01*
X104590081Y-84133081D01*
X104705920Y-84066202D01*
X104800502Y-83971620D01*
X104867381Y-83855781D01*
X104883495Y-83795642D01*
X105446268Y-84358415D01*
X105473364Y-84321122D01*
X105553234Y-84164369D01*
X105601208Y-84113572D01*
X105669029Y-84096777D01*
X105735164Y-84119314D01*
X105774203Y-84164367D01*
X105854213Y-84321394D01*
X105971019Y-84482164D01*
X106111536Y-84622681D01*
X106272306Y-84739487D01*
X106359149Y-84783735D01*
X106449367Y-84829705D01*
X106449370Y-84829706D01*
X106543866Y-84860409D01*
X106638364Y-84891113D01*
X106834639Y-84922200D01*
X106834640Y-84922200D01*
X107033360Y-84922200D01*
X107033361Y-84922200D01*
X107229636Y-84891113D01*
X107418632Y-84829705D01*
X107595694Y-84739487D01*
X107756464Y-84622681D01*
X107896981Y-84482164D01*
X108013787Y-84321394D01*
X108104005Y-84144332D01*
X108165413Y-83955336D01*
X108196500Y-83759061D01*
X108196500Y-83560339D01*
X108165413Y-83364064D01*
X108104005Y-83175068D01*
X108104005Y-83175067D01*
X108058035Y-83084849D01*
X108013787Y-82998006D01*
X107896981Y-82837236D01*
X107756464Y-82696719D01*
X107595694Y-82579913D01*
X107418632Y-82489694D01*
X107418629Y-82489693D01*
X107229637Y-82428287D01*
X107131498Y-82412743D01*
X107033361Y-82397200D01*
X106834639Y-82397200D01*
X106769214Y-82407562D01*
X106638362Y-82428287D01*
X106449370Y-82489693D01*
X106449367Y-82489694D01*
X106272305Y-82579913D01*
X106111533Y-82696721D01*
X105971021Y-82837233D01*
X105854213Y-82998005D01*
X105774204Y-83155031D01*
X105726229Y-83205827D01*
X105658408Y-83222622D01*
X105592273Y-83200084D01*
X105553234Y-83155031D01*
X105473358Y-82998267D01*
X105446268Y-82960983D01*
X104883494Y-83523757D01*
X104867381Y-83463619D01*
X104800502Y-83347780D01*
X104705920Y-83253198D01*
X104590081Y-83186319D01*
X104529942Y-83170204D01*
X105092716Y-82607431D01*
X105092715Y-82607430D01*
X105055432Y-82580341D01*
X104878437Y-82490157D01*
X104689522Y-82428775D01*
X104493321Y-82397700D01*
X104294679Y-82397700D01*
X104098479Y-82428775D01*
X104098476Y-82428775D01*
X103909562Y-82490157D01*
X103732564Y-82580343D01*
X103695283Y-82607429D01*
X103695282Y-82607430D01*
X104258058Y-83170204D01*
X104197919Y-83186319D01*
X104082080Y-83253198D01*
X103987498Y-83347780D01*
X103920619Y-83463619D01*
X103904504Y-83523757D01*
X103341730Y-82960982D01*
X103341729Y-82960983D01*
X103314641Y-82998266D01*
X103234764Y-83155032D01*
X103186790Y-83205827D01*
X103118969Y-83222622D01*
X103052834Y-83200084D01*
X103013796Y-83155032D01*
X102933787Y-82998006D01*
X102816981Y-82837236D01*
X102676464Y-82696719D01*
X102515694Y-82579913D01*
X102338632Y-82489694D01*
X102338629Y-82489693D01*
X102149637Y-82428287D01*
X102051498Y-82412743D01*
X101953361Y-82397200D01*
X101754639Y-82397200D01*
X101689214Y-82407562D01*
X101558362Y-82428287D01*
X101369370Y-82489693D01*
X101369367Y-82489694D01*
X101192305Y-82579913D01*
X101031533Y-82696721D01*
X100891021Y-82837233D01*
X100774213Y-82998005D01*
X100683994Y-83175067D01*
X100683993Y-83175070D01*
X100622587Y-83364062D01*
X100591500Y-83560339D01*
X93726500Y-83560339D01*
X93726500Y-78614883D01*
X155695368Y-78614883D01*
X155695368Y-78763516D01*
X155724361Y-78909272D01*
X155724363Y-78909280D01*
X155781237Y-79046587D01*
X155781241Y-79046594D01*
X155790200Y-79060001D01*
X155811080Y-79126678D01*
X155811100Y-79128895D01*
X155811100Y-79847123D01*
X155797390Y-79901854D01*
X155797702Y-79901983D01*
X155796833Y-79904079D01*
X155796459Y-79905575D01*
X155795370Y-79907610D01*
X155738495Y-80044919D01*
X155738493Y-80044927D01*
X155709500Y-80190683D01*
X155709500Y-80339316D01*
X155738493Y-80485072D01*
X155738495Y-80485080D01*
X155795371Y-80622391D01*
X155877939Y-80745964D01*
X155877945Y-80745971D01*
X155983028Y-80851054D01*
X155983035Y-80851060D01*
X156106608Y-80933628D01*
X156106609Y-80933628D01*
X156106610Y-80933629D01*
X156243920Y-80990505D01*
X156389683Y-81019499D01*
X156389687Y-81019500D01*
X156389688Y-81019500D01*
X156538313Y-81019500D01*
X156538314Y-81019499D01*
X156684080Y-80990505D01*
X156821390Y-80933629D01*
X156944966Y-80851059D01*
X157050059Y-80745966D01*
X157132629Y-80622390D01*
X157189505Y-80485080D01*
X157218500Y-80339312D01*
X157218500Y-80190688D01*
X157189505Y-80044920D01*
X157132629Y-79907610D01*
X157131541Y-79905575D01*
X157131166Y-79904079D01*
X157130298Y-79901983D01*
X157130609Y-79901854D01*
X157116900Y-79847123D01*
X157116900Y-79075111D01*
X157126339Y-79027658D01*
X157129225Y-79020689D01*
X157175373Y-78909280D01*
X157204368Y-78763512D01*
X157204368Y-78614888D01*
X157175373Y-78469120D01*
X157118497Y-78331810D01*
X157035927Y-78208234D01*
X157035922Y-78208228D01*
X156930839Y-78103145D01*
X156930832Y-78103139D01*
X156807259Y-78020571D01*
X156669948Y-77963695D01*
X156669940Y-77963693D01*
X156524184Y-77934700D01*
X156524180Y-77934700D01*
X156375556Y-77934700D01*
X156375551Y-77934700D01*
X156229795Y-77963693D01*
X156229787Y-77963695D01*
X156092476Y-78020571D01*
X155968903Y-78103139D01*
X155968896Y-78103145D01*
X155863813Y-78208228D01*
X155863807Y-78208235D01*
X155781239Y-78331808D01*
X155724363Y-78469119D01*
X155724361Y-78469127D01*
X155695368Y-78614883D01*
X93726500Y-78614883D01*
X93726500Y-76089753D01*
X151342500Y-76089753D01*
X151342500Y-76302246D01*
X151375742Y-76512127D01*
X151375742Y-76512130D01*
X151441404Y-76714217D01*
X151537875Y-76903550D01*
X151577228Y-76957716D01*
X152209537Y-76325408D01*
X152226575Y-76388993D01*
X152292401Y-76503007D01*
X152385493Y-76596099D01*
X152499507Y-76661925D01*
X152563090Y-76678962D01*
X151930782Y-77311269D01*
X151930782Y-77311270D01*
X151984949Y-77350624D01*
X152174282Y-77447095D01*
X152376370Y-77512757D01*
X152586254Y-77546000D01*
X152798746Y-77546000D01*
X153008627Y-77512757D01*
X153008630Y-77512757D01*
X153210717Y-77447095D01*
X153400054Y-77350622D01*
X153454216Y-77311270D01*
X153454217Y-77311270D01*
X152821908Y-76678962D01*
X152885493Y-76661925D01*
X152999507Y-76596099D01*
X153092599Y-76503007D01*
X153158425Y-76388993D01*
X153175462Y-76325408D01*
X153807770Y-76957717D01*
X153807770Y-76957716D01*
X153847122Y-76903555D01*
X153851732Y-76894507D01*
X153899705Y-76843709D01*
X153967525Y-76826912D01*
X154033661Y-76849447D01*
X154072704Y-76894504D01*
X154077449Y-76903817D01*
X154202390Y-77075786D01*
X154352713Y-77226109D01*
X154524679Y-77351048D01*
X154524681Y-77351049D01*
X154524684Y-77351051D01*
X154714088Y-77447557D01*
X154916257Y-77513246D01*
X155126213Y-77546500D01*
X155126214Y-77546500D01*
X155338786Y-77546500D01*
X155338787Y-77546500D01*
X155548743Y-77513246D01*
X155750912Y-77447557D01*
X155940316Y-77351051D01*
X155996195Y-77310453D01*
X156112286Y-77226109D01*
X156112288Y-77226106D01*
X156112292Y-77226104D01*
X156262604Y-77075792D01*
X156262606Y-77075788D01*
X156262609Y-77075786D01*
X156387548Y-76903820D01*
X156387547Y-76903820D01*
X156387551Y-76903816D01*
X156392014Y-76895054D01*
X156439988Y-76844259D01*
X156507808Y-76827463D01*
X156573944Y-76849999D01*
X156612984Y-76895054D01*
X156613375Y-76895820D01*
X156617451Y-76903820D01*
X156742390Y-77075786D01*
X156892713Y-77226109D01*
X157064679Y-77351048D01*
X157064681Y-77351049D01*
X157064684Y-77351051D01*
X157254088Y-77447557D01*
X157456257Y-77513246D01*
X157666213Y-77546500D01*
X157666214Y-77546500D01*
X157878786Y-77546500D01*
X157878787Y-77546500D01*
X158088743Y-77513246D01*
X158290912Y-77447557D01*
X158480316Y-77351051D01*
X158536195Y-77310453D01*
X158652286Y-77226109D01*
X158652288Y-77226106D01*
X158652292Y-77226104D01*
X158802604Y-77075792D01*
X158802606Y-77075788D01*
X158802609Y-77075786D01*
X158927548Y-76903820D01*
X158927547Y-76903820D01*
X158927551Y-76903816D01*
X158932014Y-76895054D01*
X158979988Y-76844259D01*
X159047808Y-76827463D01*
X159113944Y-76849999D01*
X159152984Y-76895054D01*
X159153375Y-76895820D01*
X159157451Y-76903820D01*
X159282390Y-77075786D01*
X159432713Y-77226109D01*
X159604679Y-77351048D01*
X159604681Y-77351049D01*
X159604684Y-77351051D01*
X159794088Y-77447557D01*
X159996257Y-77513246D01*
X160206213Y-77546500D01*
X160206214Y-77546500D01*
X160418786Y-77546500D01*
X160418787Y-77546500D01*
X160628743Y-77513246D01*
X160830912Y-77447557D01*
X161020316Y-77351051D01*
X161076195Y-77310453D01*
X161192286Y-77226109D01*
X161192288Y-77226106D01*
X161192292Y-77226104D01*
X161342604Y-77075792D01*
X161342606Y-77075788D01*
X161342609Y-77075786D01*
X161467548Y-76903820D01*
X161467547Y-76903820D01*
X161467551Y-76903816D01*
X161472014Y-76895054D01*
X161519988Y-76844259D01*
X161587808Y-76827463D01*
X161653944Y-76849999D01*
X161692984Y-76895054D01*
X161693375Y-76895820D01*
X161697451Y-76903820D01*
X161822390Y-77075786D01*
X161972713Y-77226109D01*
X162144679Y-77351048D01*
X162144681Y-77351049D01*
X162144684Y-77351051D01*
X162334088Y-77447557D01*
X162536257Y-77513246D01*
X162746213Y-77546500D01*
X162746214Y-77546500D01*
X162958786Y-77546500D01*
X162958787Y-77546500D01*
X163168743Y-77513246D01*
X163370912Y-77447557D01*
X163560316Y-77351051D01*
X163616195Y-77310453D01*
X163732286Y-77226109D01*
X163732288Y-77226106D01*
X163732292Y-77226104D01*
X163882604Y-77075792D01*
X163882606Y-77075788D01*
X163882609Y-77075786D01*
X164007548Y-76903820D01*
X164007547Y-76903820D01*
X164007551Y-76903816D01*
X164012014Y-76895054D01*
X164059988Y-76844259D01*
X164127808Y-76827463D01*
X164193944Y-76849999D01*
X164232984Y-76895054D01*
X164233375Y-76895820D01*
X164237451Y-76903820D01*
X164362390Y-77075786D01*
X164512713Y-77226109D01*
X164684679Y-77351048D01*
X164684681Y-77351049D01*
X164684684Y-77351051D01*
X164874088Y-77447557D01*
X165076257Y-77513246D01*
X165286213Y-77546500D01*
X165286214Y-77546500D01*
X165498786Y-77546500D01*
X165498787Y-77546500D01*
X165708743Y-77513246D01*
X165910912Y-77447557D01*
X166100316Y-77351051D01*
X166156195Y-77310453D01*
X166272286Y-77226109D01*
X166272288Y-77226106D01*
X166272292Y-77226104D01*
X166422604Y-77075792D01*
X166422606Y-77075788D01*
X166422609Y-77075786D01*
X166508390Y-76957717D01*
X166547551Y-76903816D01*
X166552293Y-76894508D01*
X166600263Y-76843711D01*
X166668083Y-76826911D01*
X166734219Y-76849445D01*
X166773263Y-76894500D01*
X166777873Y-76903547D01*
X166817228Y-76957716D01*
X167449537Y-76325408D01*
X167466575Y-76388993D01*
X167532401Y-76503007D01*
X167625493Y-76596099D01*
X167739507Y-76661925D01*
X167803090Y-76678962D01*
X167170782Y-77311269D01*
X167170782Y-77311270D01*
X167224949Y-77350624D01*
X167414282Y-77447095D01*
X167616370Y-77512757D01*
X167826254Y-77546000D01*
X168038746Y-77546000D01*
X168248627Y-77512757D01*
X168248630Y-77512757D01*
X168450717Y-77447095D01*
X168640054Y-77350622D01*
X168694216Y-77311270D01*
X168694217Y-77311270D01*
X168061908Y-76678962D01*
X168125493Y-76661925D01*
X168239507Y-76596099D01*
X168332599Y-76503007D01*
X168398425Y-76388993D01*
X168415462Y-76325408D01*
X169047770Y-76957717D01*
X169047770Y-76957716D01*
X169087122Y-76903555D01*
X169091732Y-76894507D01*
X169139705Y-76843709D01*
X169207525Y-76826912D01*
X169273661Y-76849447D01*
X169312704Y-76894504D01*
X169317449Y-76903817D01*
X169442390Y-77075786D01*
X169592709Y-77226105D01*
X169592714Y-77226109D01*
X169716105Y-77315758D01*
X169758771Y-77371088D01*
X169764750Y-77440701D01*
X169732144Y-77502496D01*
X169730901Y-77503757D01*
X168656863Y-78577794D01*
X168656860Y-78577797D01*
X168586181Y-78683576D01*
X168586182Y-78683577D01*
X168585406Y-78684738D01*
X168536192Y-78803551D01*
X168536189Y-78803561D01*
X168511100Y-78929692D01*
X168511100Y-97660678D01*
X168491415Y-97727717D01*
X168438611Y-97773472D01*
X168369453Y-97783416D01*
X168348782Y-97778609D01*
X168250740Y-97746753D01*
X168089457Y-97721208D01*
X168040787Y-97713500D01*
X167828213Y-97713500D01*
X167779542Y-97721208D01*
X167618260Y-97746753D01*
X167544125Y-97770841D01*
X167505424Y-97783416D01*
X167416085Y-97812444D01*
X167226679Y-97908951D01*
X167054713Y-98033890D01*
X166904390Y-98184213D01*
X166779449Y-98356182D01*
X166774984Y-98364946D01*
X166727009Y-98415742D01*
X166659188Y-98432536D01*
X166593053Y-98409998D01*
X166554016Y-98364946D01*
X166549550Y-98356182D01*
X166424609Y-98184213D01*
X166274286Y-98033890D01*
X166102320Y-97908951D01*
X165912914Y-97812444D01*
X165912913Y-97812443D01*
X165912912Y-97812443D01*
X165710743Y-97746754D01*
X165710741Y-97746753D01*
X165710740Y-97746753D01*
X165549457Y-97721208D01*
X165500787Y-97713500D01*
X165288213Y-97713500D01*
X165239542Y-97721208D01*
X165078260Y-97746753D01*
X165004125Y-97770841D01*
X164965424Y-97783416D01*
X164876085Y-97812444D01*
X164686679Y-97908951D01*
X164514713Y-98033890D01*
X164364390Y-98184213D01*
X164239449Y-98356182D01*
X164234984Y-98364946D01*
X164187009Y-98415742D01*
X164119188Y-98432536D01*
X164053053Y-98409998D01*
X164014016Y-98364946D01*
X164009550Y-98356182D01*
X163884609Y-98184213D01*
X163734286Y-98033890D01*
X163562320Y-97908951D01*
X163372914Y-97812444D01*
X163372913Y-97812443D01*
X163372912Y-97812443D01*
X163170743Y-97746754D01*
X163170741Y-97746753D01*
X163170740Y-97746753D01*
X163009457Y-97721208D01*
X162960787Y-97713500D01*
X162748213Y-97713500D01*
X162699542Y-97721208D01*
X162538260Y-97746753D01*
X162464125Y-97770841D01*
X162425424Y-97783416D01*
X162336085Y-97812444D01*
X162146679Y-97908951D01*
X161974713Y-98033890D01*
X161824390Y-98184213D01*
X161699449Y-98356182D01*
X161694984Y-98364946D01*
X161647009Y-98415742D01*
X161579188Y-98432536D01*
X161513053Y-98409998D01*
X161474016Y-98364946D01*
X161469550Y-98356182D01*
X161344609Y-98184213D01*
X161194286Y-98033890D01*
X161022320Y-97908951D01*
X160832914Y-97812444D01*
X160832913Y-97812443D01*
X160832912Y-97812443D01*
X160630743Y-97746754D01*
X160630741Y-97746753D01*
X160630740Y-97746753D01*
X160469457Y-97721208D01*
X160420787Y-97713500D01*
X160208213Y-97713500D01*
X160159542Y-97721208D01*
X159998260Y-97746753D01*
X159924125Y-97770841D01*
X159885424Y-97783416D01*
X159796085Y-97812444D01*
X159606679Y-97908951D01*
X159434713Y-98033890D01*
X159284390Y-98184213D01*
X159159449Y-98356182D01*
X159154984Y-98364946D01*
X159107009Y-98415742D01*
X159039188Y-98432536D01*
X158973053Y-98409998D01*
X158934016Y-98364946D01*
X158929550Y-98356182D01*
X158804609Y-98184213D01*
X158654286Y-98033890D01*
X158482320Y-97908951D01*
X158292914Y-97812444D01*
X158292913Y-97812443D01*
X158292912Y-97812443D01*
X158090743Y-97746754D01*
X158090741Y-97746753D01*
X158090740Y-97746753D01*
X157929457Y-97721208D01*
X157880787Y-97713500D01*
X157668213Y-97713500D01*
X157619542Y-97721208D01*
X157458260Y-97746753D01*
X157384125Y-97770841D01*
X157345424Y-97783416D01*
X157256085Y-97812444D01*
X157066679Y-97908951D01*
X156894713Y-98033890D01*
X156744390Y-98184213D01*
X156619449Y-98356182D01*
X156614984Y-98364946D01*
X156567009Y-98415742D01*
X156499188Y-98432536D01*
X156433053Y-98409998D01*
X156394016Y-98364946D01*
X156389550Y-98356182D01*
X156264609Y-98184213D01*
X156114286Y-98033890D01*
X155942320Y-97908951D01*
X155752914Y-97812444D01*
X155752913Y-97812443D01*
X155752912Y-97812443D01*
X155550743Y-97746754D01*
X155550741Y-97746753D01*
X155550740Y-97746753D01*
X155389457Y-97721208D01*
X155340787Y-97713500D01*
X155128213Y-97713500D01*
X155079542Y-97721208D01*
X154918260Y-97746753D01*
X154844125Y-97770841D01*
X154805424Y-97783416D01*
X154716085Y-97812444D01*
X154526679Y-97908951D01*
X154354715Y-98033889D01*
X154241173Y-98147431D01*
X154179850Y-98180915D01*
X154110158Y-98175931D01*
X154054225Y-98134059D01*
X154037310Y-98103082D01*
X153988297Y-97971671D01*
X153988293Y-97971664D01*
X153902047Y-97856455D01*
X153902044Y-97856452D01*
X153786835Y-97770206D01*
X153786828Y-97770202D01*
X153651982Y-97719908D01*
X153651983Y-97719908D01*
X153592383Y-97713501D01*
X153592381Y-97713500D01*
X153592373Y-97713500D01*
X153592364Y-97713500D01*
X151796629Y-97713500D01*
X151796623Y-97713501D01*
X151737016Y-97719908D01*
X151602171Y-97770202D01*
X151602164Y-97770206D01*
X151486955Y-97856452D01*
X151486952Y-97856455D01*
X151400706Y-97971664D01*
X151400702Y-97971671D01*
X151350408Y-98106517D01*
X151344001Y-98166116D01*
X151344000Y-98166135D01*
X151344000Y-99961870D01*
X151344001Y-99961876D01*
X151350408Y-100021483D01*
X151400702Y-100156328D01*
X151400706Y-100156335D01*
X151486952Y-100271544D01*
X151486955Y-100271547D01*
X151602164Y-100357793D01*
X151602171Y-100357797D01*
X151737017Y-100408091D01*
X151737016Y-100408091D01*
X151743944Y-100408835D01*
X151796627Y-100414500D01*
X153592372Y-100414499D01*
X153651983Y-100408091D01*
X153786831Y-100357796D01*
X153902046Y-100271546D01*
X153988296Y-100156331D01*
X154037310Y-100024916D01*
X154079181Y-99968984D01*
X154144645Y-99944566D01*
X154212918Y-99959417D01*
X154241173Y-99980569D01*
X154354713Y-100094109D01*
X154526679Y-100219048D01*
X154526681Y-100219049D01*
X154526684Y-100219051D01*
X154716088Y-100315557D01*
X154918257Y-100381246D01*
X155128213Y-100414500D01*
X155128214Y-100414500D01*
X155340786Y-100414500D01*
X155340787Y-100414500D01*
X155550743Y-100381246D01*
X155752912Y-100315557D01*
X155942316Y-100219051D01*
X155990955Y-100183713D01*
X156114286Y-100094109D01*
X156114288Y-100094106D01*
X156114292Y-100094104D01*
X156264604Y-99943792D01*
X156264606Y-99943788D01*
X156264609Y-99943786D01*
X156389548Y-99771820D01*
X156389547Y-99771820D01*
X156389551Y-99771816D01*
X156394014Y-99763054D01*
X156441988Y-99712259D01*
X156509808Y-99695463D01*
X156575944Y-99717999D01*
X156614986Y-99763056D01*
X156619451Y-99771820D01*
X156744390Y-99943786D01*
X156744396Y-99943792D01*
X156894708Y-100094104D01*
X157012313Y-100179548D01*
X157054979Y-100234878D01*
X157060958Y-100304492D01*
X157028353Y-100366287D01*
X157027109Y-100367548D01*
X156464863Y-100929794D01*
X156464863Y-100929795D01*
X156464860Y-100929798D01*
X156464859Y-100929800D01*
X156395429Y-101033711D01*
X156393408Y-101036736D01*
X156393407Y-101036738D01*
X156344191Y-101155555D01*
X156344189Y-101155561D01*
X156319100Y-101281692D01*
X156319100Y-104316500D01*
X156299415Y-104383539D01*
X156246611Y-104429294D01*
X156195101Y-104440500D01*
X156074130Y-104440500D01*
X156074123Y-104440501D01*
X156014516Y-104446908D01*
X155879671Y-104497202D01*
X155879664Y-104497206D01*
X155764455Y-104583452D01*
X155764452Y-104583455D01*
X155678206Y-104698664D01*
X155678202Y-104698671D01*
X155627908Y-104833517D01*
X155621501Y-104893116D01*
X155621500Y-104893135D01*
X155621500Y-106688870D01*
X155621501Y-106688876D01*
X155627908Y-106748483D01*
X155678202Y-106883328D01*
X155678206Y-106883335D01*
X155764452Y-106998544D01*
X155764455Y-106998547D01*
X155879664Y-107084793D01*
X155879671Y-107084797D01*
X156014517Y-107135091D01*
X156014516Y-107135091D01*
X156021444Y-107135835D01*
X156074127Y-107141500D01*
X157869872Y-107141499D01*
X157929483Y-107135091D01*
X158064331Y-107084796D01*
X158179546Y-106998546D01*
X158265796Y-106883331D01*
X158314810Y-106751916D01*
X158356681Y-106695984D01*
X158422145Y-106671566D01*
X158490418Y-106686417D01*
X158518673Y-106707569D01*
X158632213Y-106821109D01*
X158804179Y-106946048D01*
X158804181Y-106946049D01*
X158804184Y-106946051D01*
X158993588Y-107042557D01*
X159195757Y-107108246D01*
X159405713Y-107141500D01*
X159405714Y-107141500D01*
X159618286Y-107141500D01*
X159618287Y-107141500D01*
X159828243Y-107108246D01*
X160030412Y-107042557D01*
X160219816Y-106946051D01*
X160282690Y-106900371D01*
X160391786Y-106821109D01*
X160391788Y-106821106D01*
X160391792Y-106821104D01*
X160542104Y-106670792D01*
X160542106Y-106670788D01*
X160542109Y-106670786D01*
X160667048Y-106498820D01*
X160667047Y-106498820D01*
X160667051Y-106498816D01*
X160671514Y-106490054D01*
X160719488Y-106439259D01*
X160787308Y-106422463D01*
X160853444Y-106444999D01*
X160892484Y-106490054D01*
X160896591Y-106498115D01*
X160896951Y-106498820D01*
X161021890Y-106670786D01*
X161172213Y-106821109D01*
X161344179Y-106946048D01*
X161344181Y-106946049D01*
X161344184Y-106946051D01*
X161533588Y-107042557D01*
X161735757Y-107108246D01*
X161945713Y-107141500D01*
X161945714Y-107141500D01*
X162158286Y-107141500D01*
X162158287Y-107141500D01*
X162368243Y-107108246D01*
X162570412Y-107042557D01*
X162759816Y-106946051D01*
X162822690Y-106900371D01*
X162931786Y-106821109D01*
X162931788Y-106821106D01*
X162931792Y-106821104D01*
X163082104Y-106670792D01*
X163082106Y-106670788D01*
X163082109Y-106670786D01*
X163207048Y-106498820D01*
X163207047Y-106498820D01*
X163207051Y-106498816D01*
X163211514Y-106490054D01*
X163259488Y-106439259D01*
X163327308Y-106422463D01*
X163393444Y-106444999D01*
X163432484Y-106490054D01*
X163436591Y-106498115D01*
X163436951Y-106498820D01*
X163561890Y-106670786D01*
X163712213Y-106821109D01*
X163884179Y-106946048D01*
X163884181Y-106946049D01*
X163884184Y-106946051D01*
X164073588Y-107042557D01*
X164275757Y-107108246D01*
X164485713Y-107141500D01*
X164485714Y-107141500D01*
X164698286Y-107141500D01*
X164698287Y-107141500D01*
X164908243Y-107108246D01*
X165110412Y-107042557D01*
X165299816Y-106946051D01*
X165362690Y-106900371D01*
X165471786Y-106821109D01*
X165471788Y-106821106D01*
X165471792Y-106821104D01*
X165622104Y-106670792D01*
X165622106Y-106670788D01*
X165622109Y-106670786D01*
X165747048Y-106498820D01*
X165747047Y-106498820D01*
X165747051Y-106498816D01*
X165843557Y-106309412D01*
X165909246Y-106107243D01*
X165942500Y-105897287D01*
X165942500Y-105684713D01*
X165909246Y-105474757D01*
X165843557Y-105272588D01*
X165747051Y-105083184D01*
X165747049Y-105083181D01*
X165747048Y-105083179D01*
X165622109Y-104911213D01*
X165471790Y-104760894D01*
X165471785Y-104760890D01*
X165296015Y-104633186D01*
X165253349Y-104577856D01*
X165244900Y-104532868D01*
X165244900Y-101667802D01*
X165264585Y-101600763D01*
X165281219Y-101580121D01*
X165901638Y-100959702D01*
X165901640Y-100959700D01*
X165973092Y-100852764D01*
X166022309Y-100733944D01*
X166023168Y-100729626D01*
X166047400Y-100607805D01*
X166047400Y-100322130D01*
X166067085Y-100255092D01*
X166098515Y-100221812D01*
X166102313Y-100219052D01*
X166102316Y-100219051D01*
X166274292Y-100094104D01*
X166424604Y-99943792D01*
X166424606Y-99943788D01*
X166424609Y-99943786D01*
X166549548Y-99771820D01*
X166549547Y-99771820D01*
X166549551Y-99771816D01*
X166554014Y-99763054D01*
X166601988Y-99712259D01*
X166669808Y-99695463D01*
X166735944Y-99717999D01*
X166774986Y-99763056D01*
X166779451Y-99771820D01*
X166904390Y-99943786D01*
X167042950Y-100082346D01*
X167076435Y-100143669D01*
X167071451Y-100213361D01*
X167042950Y-100257708D01*
X165888246Y-101412412D01*
X165888242Y-101412417D01*
X165825089Y-101506936D01*
X165825088Y-101506939D01*
X165816794Y-101519350D01*
X165767579Y-101638167D01*
X165767577Y-101638173D01*
X165742488Y-101764304D01*
X165742488Y-103010923D01*
X165728778Y-103065654D01*
X165729090Y-103065783D01*
X165728221Y-103067879D01*
X165727847Y-103069375D01*
X165726758Y-103071410D01*
X165669883Y-103208719D01*
X165669881Y-103208727D01*
X165640888Y-103354483D01*
X165640888Y-103503116D01*
X165669881Y-103648872D01*
X165669883Y-103648880D01*
X165726759Y-103786191D01*
X165809327Y-103909764D01*
X165809333Y-103909771D01*
X165914416Y-104014854D01*
X165914423Y-104014860D01*
X166037996Y-104097428D01*
X166037997Y-104097428D01*
X166037998Y-104097429D01*
X166175308Y-104154305D01*
X166253524Y-104169863D01*
X166321071Y-104183299D01*
X166321075Y-104183300D01*
X166321076Y-104183300D01*
X166469701Y-104183300D01*
X166469702Y-104183299D01*
X166615468Y-104154305D01*
X166678134Y-104128346D01*
X166747604Y-104120877D01*
X166773041Y-104128345D01*
X166835711Y-104154305D01*
X166913927Y-104169863D01*
X166981474Y-104183299D01*
X166981478Y-104183300D01*
X166981479Y-104183300D01*
X167130104Y-104183300D01*
X167130105Y-104183299D01*
X167275871Y-104154305D01*
X167338537Y-104128346D01*
X167408007Y-104120877D01*
X167433444Y-104128345D01*
X167496114Y-104154305D01*
X167574330Y-104169863D01*
X167641877Y-104183299D01*
X167641881Y-104183300D01*
X167641882Y-104183300D01*
X167790507Y-104183300D01*
X167790508Y-104183299D01*
X167936274Y-104154305D01*
X167998940Y-104128346D01*
X168068410Y-104120877D01*
X168093847Y-104128345D01*
X168156517Y-104154305D01*
X168234733Y-104169863D01*
X168302280Y-104183299D01*
X168302284Y-104183300D01*
X168302285Y-104183300D01*
X168450910Y-104183300D01*
X168450911Y-104183299D01*
X168596677Y-104154305D01*
X168659343Y-104128346D01*
X168728813Y-104120877D01*
X168754250Y-104128345D01*
X168816920Y-104154305D01*
X168895136Y-104169863D01*
X168962683Y-104183299D01*
X168962687Y-104183300D01*
X168962688Y-104183300D01*
X169111313Y-104183300D01*
X169111314Y-104183299D01*
X169257080Y-104154305D01*
X169394390Y-104097429D01*
X169517966Y-104014859D01*
X169623059Y-103909766D01*
X169705629Y-103786190D01*
X169762505Y-103648880D01*
X169791500Y-103503112D01*
X169791500Y-103354488D01*
X169762505Y-103208720D01*
X169705629Y-103071410D01*
X169704541Y-103069375D01*
X169704166Y-103067879D01*
X169703298Y-103065783D01*
X169703609Y-103065654D01*
X169689900Y-103010923D01*
X169689900Y-102683801D01*
X169709585Y-102616762D01*
X169726214Y-102596125D01*
X172113993Y-100208345D01*
X172143900Y-100192015D01*
X172173584Y-100175251D01*
X172174505Y-100175303D01*
X172175314Y-100174862D01*
X172209293Y-100177291D01*
X172243340Y-100179238D01*
X172244411Y-100179803D01*
X172245006Y-100179846D01*
X172274553Y-100195707D01*
X172306684Y-100219051D01*
X172306688Y-100219053D01*
X172310483Y-100221810D01*
X172353150Y-100277139D01*
X172361600Y-100322130D01*
X172361600Y-101069805D01*
X172380198Y-101163301D01*
X172386691Y-101195944D01*
X172435908Y-101314764D01*
X172507359Y-101421700D01*
X172507362Y-101421704D01*
X172507363Y-101421705D01*
X174462794Y-103377135D01*
X174462797Y-103377138D01*
X174462800Y-103377140D01*
X174511403Y-103409615D01*
X174569736Y-103448592D01*
X174688556Y-103497809D01*
X174688560Y-103497809D01*
X174688561Y-103497810D01*
X174814692Y-103522900D01*
X174814695Y-103522900D01*
X179002197Y-103522900D01*
X179069236Y-103542585D01*
X179089878Y-103559219D01*
X179396781Y-103866121D01*
X179430266Y-103927444D01*
X179433100Y-103953802D01*
X179433100Y-120613123D01*
X179419390Y-120667854D01*
X179419702Y-120667983D01*
X179418833Y-120670079D01*
X179418459Y-120671575D01*
X179417370Y-120673610D01*
X179360495Y-120810919D01*
X179360493Y-120810927D01*
X179331500Y-120956683D01*
X179331500Y-121105316D01*
X179360493Y-121251072D01*
X179360495Y-121251080D01*
X179417371Y-121388391D01*
X179499939Y-121511964D01*
X179499945Y-121511971D01*
X179605028Y-121617054D01*
X179605035Y-121617060D01*
X179728608Y-121699628D01*
X179728609Y-121699628D01*
X179728610Y-121699629D01*
X179865920Y-121756505D01*
X180011683Y-121785499D01*
X180011687Y-121785500D01*
X180011688Y-121785500D01*
X180160313Y-121785500D01*
X180160314Y-121785499D01*
X180306080Y-121756505D01*
X180443390Y-121699629D01*
X180566966Y-121617059D01*
X180672059Y-121511966D01*
X180754629Y-121388390D01*
X180811505Y-121251080D01*
X180840500Y-121105312D01*
X180840500Y-120956688D01*
X180811505Y-120810920D01*
X180754629Y-120673610D01*
X180753541Y-120671575D01*
X180753166Y-120670079D01*
X180752298Y-120667983D01*
X180752609Y-120667854D01*
X180738900Y-120613123D01*
X180738900Y-103567692D01*
X180713810Y-103441561D01*
X180713809Y-103441560D01*
X180713809Y-103441556D01*
X180664592Y-103322736D01*
X180641045Y-103287495D01*
X180641045Y-103287494D01*
X180593139Y-103215798D01*
X180593136Y-103215795D01*
X179740205Y-102362863D01*
X179740204Y-102362862D01*
X179740200Y-102362859D01*
X179633264Y-102291408D01*
X179514444Y-102242191D01*
X179514438Y-102242189D01*
X179388307Y-102217100D01*
X179388305Y-102217100D01*
X175200802Y-102217100D01*
X175133763Y-102197415D01*
X175113121Y-102180781D01*
X173703719Y-100771378D01*
X173670234Y-100710055D01*
X173667400Y-100683697D01*
X173667400Y-100322131D01*
X173687085Y-100255092D01*
X173718515Y-100221812D01*
X173722313Y-100219052D01*
X173722316Y-100219051D01*
X173894292Y-100094104D01*
X174044604Y-99943792D01*
X174044606Y-99943788D01*
X174044609Y-99943786D01*
X174169548Y-99771820D01*
X174169547Y-99771820D01*
X174169551Y-99771816D01*
X174174014Y-99763054D01*
X174221988Y-99712259D01*
X174289808Y-99695463D01*
X174355944Y-99717999D01*
X174394986Y-99763056D01*
X174399451Y-99771820D01*
X174524390Y-99943786D01*
X174674713Y-100094109D01*
X174846679Y-100219048D01*
X174846681Y-100219049D01*
X174846684Y-100219051D01*
X175036088Y-100315557D01*
X175238257Y-100381246D01*
X175448213Y-100414500D01*
X175448214Y-100414500D01*
X175660786Y-100414500D01*
X175660787Y-100414500D01*
X175870743Y-100381246D01*
X176072912Y-100315557D01*
X176262316Y-100219051D01*
X176310955Y-100183713D01*
X176434286Y-100094109D01*
X176434288Y-100094106D01*
X176434292Y-100094104D01*
X176584604Y-99943792D01*
X176584606Y-99943788D01*
X176584609Y-99943786D01*
X176709548Y-99771820D01*
X176709547Y-99771820D01*
X176709551Y-99771816D01*
X176714014Y-99763054D01*
X176761988Y-99712259D01*
X176829808Y-99695463D01*
X176895944Y-99717999D01*
X176934986Y-99763056D01*
X176939451Y-99771820D01*
X177064390Y-99943786D01*
X177214713Y-100094109D01*
X177386679Y-100219048D01*
X177386681Y-100219049D01*
X177386684Y-100219051D01*
X177576088Y-100315557D01*
X177778257Y-100381246D01*
X177988213Y-100414500D01*
X177988214Y-100414500D01*
X178200786Y-100414500D01*
X178200787Y-100414500D01*
X178410743Y-100381246D01*
X178612912Y-100315557D01*
X178802316Y-100219051D01*
X178850955Y-100183713D01*
X178974286Y-100094109D01*
X178974288Y-100094106D01*
X178974292Y-100094104D01*
X179124604Y-99943792D01*
X179124606Y-99943788D01*
X179124609Y-99943786D01*
X179249548Y-99771820D01*
X179249547Y-99771820D01*
X179249551Y-99771816D01*
X179254014Y-99763054D01*
X179301988Y-99712259D01*
X179369808Y-99695463D01*
X179435944Y-99717999D01*
X179474986Y-99763056D01*
X179479451Y-99771820D01*
X179604390Y-99943786D01*
X179754713Y-100094109D01*
X179926679Y-100219048D01*
X179926681Y-100219049D01*
X179926684Y-100219051D01*
X180116088Y-100315557D01*
X180318257Y-100381246D01*
X180528213Y-100414500D01*
X180528214Y-100414500D01*
X180740786Y-100414500D01*
X180740787Y-100414500D01*
X180950743Y-100381246D01*
X181152912Y-100315557D01*
X181342316Y-100219051D01*
X181390955Y-100183713D01*
X181514286Y-100094109D01*
X181514288Y-100094106D01*
X181514292Y-100094104D01*
X181664604Y-99943792D01*
X181664606Y-99943788D01*
X181664609Y-99943786D01*
X181789548Y-99771820D01*
X181789547Y-99771820D01*
X181789551Y-99771816D01*
X181794014Y-99763054D01*
X181841988Y-99712259D01*
X181909808Y-99695463D01*
X181975944Y-99717999D01*
X182014986Y-99763056D01*
X182019451Y-99771820D01*
X182144390Y-99943786D01*
X182294713Y-100094109D01*
X182466679Y-100219048D01*
X182466681Y-100219049D01*
X182466684Y-100219051D01*
X182656088Y-100315557D01*
X182858257Y-100381246D01*
X183068213Y-100414500D01*
X183068214Y-100414500D01*
X183280786Y-100414500D01*
X183280787Y-100414500D01*
X183490743Y-100381246D01*
X183692912Y-100315557D01*
X183882316Y-100219051D01*
X183930955Y-100183713D01*
X184054286Y-100094109D01*
X184054288Y-100094106D01*
X184054292Y-100094104D01*
X184204604Y-99943792D01*
X184204606Y-99943788D01*
X184204609Y-99943786D01*
X184290390Y-99825717D01*
X184329551Y-99771816D01*
X184334293Y-99762508D01*
X184382263Y-99711711D01*
X184450083Y-99694911D01*
X184516219Y-99717445D01*
X184555263Y-99762500D01*
X184559873Y-99771547D01*
X184599228Y-99825716D01*
X185231537Y-99193408D01*
X185248575Y-99256993D01*
X185314401Y-99371007D01*
X185407493Y-99464099D01*
X185521507Y-99529925D01*
X185585090Y-99546962D01*
X184952782Y-100179269D01*
X184952782Y-100179270D01*
X185006949Y-100218624D01*
X185196282Y-100315095D01*
X185398370Y-100380757D01*
X185608254Y-100414000D01*
X185820746Y-100414000D01*
X186030627Y-100380757D01*
X186030630Y-100380757D01*
X186232717Y-100315095D01*
X186422054Y-100218622D01*
X186476216Y-100179270D01*
X186476217Y-100179270D01*
X185843908Y-99546962D01*
X185907493Y-99529925D01*
X186021507Y-99464099D01*
X186114599Y-99371007D01*
X186180425Y-99256993D01*
X186197462Y-99193409D01*
X186829770Y-99825717D01*
X186829770Y-99825716D01*
X186869122Y-99771555D01*
X186873732Y-99762507D01*
X186921705Y-99711709D01*
X186989525Y-99694912D01*
X187055661Y-99717447D01*
X187094704Y-99762504D01*
X187099449Y-99771817D01*
X187224390Y-99943786D01*
X187374713Y-100094109D01*
X187546679Y-100219048D01*
X187546681Y-100219049D01*
X187546684Y-100219051D01*
X187736088Y-100315557D01*
X187938257Y-100381246D01*
X188148213Y-100414500D01*
X188148214Y-100414500D01*
X188360786Y-100414500D01*
X188360787Y-100414500D01*
X188570743Y-100381246D01*
X188772912Y-100315557D01*
X188962316Y-100219051D01*
X189010955Y-100183713D01*
X189134286Y-100094109D01*
X189134288Y-100094106D01*
X189134292Y-100094104D01*
X189284604Y-99943792D01*
X189284606Y-99943788D01*
X189284609Y-99943786D01*
X189409548Y-99771820D01*
X189409547Y-99771820D01*
X189409551Y-99771816D01*
X189414014Y-99763054D01*
X189461988Y-99712259D01*
X189529808Y-99695463D01*
X189595944Y-99717999D01*
X189634986Y-99763056D01*
X189639451Y-99771820D01*
X189764390Y-99943786D01*
X189914713Y-100094109D01*
X190086679Y-100219048D01*
X190086681Y-100219049D01*
X190086684Y-100219051D01*
X190276088Y-100315557D01*
X190478257Y-100381246D01*
X190688213Y-100414500D01*
X190688214Y-100414500D01*
X190900786Y-100414500D01*
X190900787Y-100414500D01*
X191110743Y-100381246D01*
X191312912Y-100315557D01*
X191502316Y-100219051D01*
X191550955Y-100183713D01*
X191674286Y-100094109D01*
X191674288Y-100094106D01*
X191674292Y-100094104D01*
X191824604Y-99943792D01*
X191824606Y-99943788D01*
X191824609Y-99943786D01*
X191949548Y-99771820D01*
X191949547Y-99771820D01*
X191949551Y-99771816D01*
X191954014Y-99763054D01*
X192001988Y-99712259D01*
X192069808Y-99695463D01*
X192135944Y-99717999D01*
X192174986Y-99763056D01*
X192179451Y-99771820D01*
X192304390Y-99943786D01*
X192454713Y-100094109D01*
X192626679Y-100219048D01*
X192626681Y-100219049D01*
X192626684Y-100219051D01*
X192816088Y-100315557D01*
X193018257Y-100381246D01*
X193228213Y-100414500D01*
X193228214Y-100414500D01*
X193440786Y-100414500D01*
X193440787Y-100414500D01*
X193650743Y-100381246D01*
X193852912Y-100315557D01*
X194042316Y-100219051D01*
X194090955Y-100183713D01*
X194214286Y-100094109D01*
X194214288Y-100094106D01*
X194214292Y-100094104D01*
X194364604Y-99943792D01*
X194364606Y-99943788D01*
X194364609Y-99943786D01*
X194489548Y-99771820D01*
X194489547Y-99771820D01*
X194489551Y-99771816D01*
X194494014Y-99763054D01*
X194541988Y-99712259D01*
X194609808Y-99695463D01*
X194675944Y-99717999D01*
X194714986Y-99763056D01*
X194719451Y-99771820D01*
X194844390Y-99943786D01*
X194994713Y-100094109D01*
X195166679Y-100219048D01*
X195166681Y-100219049D01*
X195166684Y-100219051D01*
X195356088Y-100315557D01*
X195558257Y-100381246D01*
X195768213Y-100414500D01*
X195768214Y-100414500D01*
X195980786Y-100414500D01*
X195980787Y-100414500D01*
X196190743Y-100381246D01*
X196392912Y-100315557D01*
X196582316Y-100219051D01*
X196630955Y-100183713D01*
X196754286Y-100094109D01*
X196754288Y-100094106D01*
X196754292Y-100094104D01*
X196904604Y-99943792D01*
X196904606Y-99943788D01*
X196904609Y-99943786D01*
X197029548Y-99771820D01*
X197029547Y-99771820D01*
X197029551Y-99771816D01*
X197034014Y-99763054D01*
X197081988Y-99712259D01*
X197149808Y-99695463D01*
X197215944Y-99717999D01*
X197254986Y-99763056D01*
X197259451Y-99771820D01*
X197384390Y-99943786D01*
X197534713Y-100094109D01*
X197706679Y-100219048D01*
X197706681Y-100219049D01*
X197706684Y-100219051D01*
X197896088Y-100315557D01*
X198098257Y-100381246D01*
X198308213Y-100414500D01*
X198308214Y-100414500D01*
X198520786Y-100414500D01*
X198520787Y-100414500D01*
X198730743Y-100381246D01*
X198932912Y-100315557D01*
X199122316Y-100219051D01*
X199170955Y-100183713D01*
X199294286Y-100094109D01*
X199294288Y-100094106D01*
X199294292Y-100094104D01*
X199444604Y-99943792D01*
X199444606Y-99943788D01*
X199444609Y-99943786D01*
X199569548Y-99771820D01*
X199569547Y-99771820D01*
X199569551Y-99771816D01*
X199666057Y-99582412D01*
X199731746Y-99380243D01*
X199765000Y-99170287D01*
X199765000Y-98957713D01*
X199731746Y-98747757D01*
X199666057Y-98545588D01*
X199569551Y-98356184D01*
X199569549Y-98356181D01*
X199569548Y-98356179D01*
X199444609Y-98184213D01*
X199294286Y-98033890D01*
X199122320Y-97908951D01*
X198932914Y-97812444D01*
X198932913Y-97812443D01*
X198932912Y-97812443D01*
X198730743Y-97746754D01*
X198730741Y-97746753D01*
X198730740Y-97746753D01*
X198569457Y-97721208D01*
X198520787Y-97713500D01*
X198308213Y-97713500D01*
X198259542Y-97721208D01*
X198098260Y-97746753D01*
X198024125Y-97770841D01*
X197985424Y-97783416D01*
X197896085Y-97812444D01*
X197706679Y-97908951D01*
X197534713Y-98033890D01*
X197384390Y-98184213D01*
X197259449Y-98356182D01*
X197254984Y-98364946D01*
X197207009Y-98415742D01*
X197139188Y-98432536D01*
X197073053Y-98409998D01*
X197034016Y-98364946D01*
X197029550Y-98356182D01*
X196904609Y-98184213D01*
X196754286Y-98033890D01*
X196582320Y-97908951D01*
X196392914Y-97812444D01*
X196392913Y-97812443D01*
X196392912Y-97812443D01*
X196190743Y-97746754D01*
X196190741Y-97746753D01*
X196190740Y-97746753D01*
X196029457Y-97721208D01*
X195980787Y-97713500D01*
X195768213Y-97713500D01*
X195719542Y-97721208D01*
X195558260Y-97746753D01*
X195484125Y-97770841D01*
X195445424Y-97783416D01*
X195356085Y-97812444D01*
X195166679Y-97908951D01*
X194994713Y-98033890D01*
X194844390Y-98184213D01*
X194719449Y-98356182D01*
X194714984Y-98364946D01*
X194667009Y-98415742D01*
X194599188Y-98432536D01*
X194533053Y-98409998D01*
X194494016Y-98364946D01*
X194489550Y-98356182D01*
X194364609Y-98184213D01*
X194214286Y-98033890D01*
X194042320Y-97908951D01*
X193852914Y-97812444D01*
X193852913Y-97812443D01*
X193852912Y-97812443D01*
X193650743Y-97746754D01*
X193650741Y-97746753D01*
X193650740Y-97746753D01*
X193489457Y-97721208D01*
X193440787Y-97713500D01*
X193228213Y-97713500D01*
X193179542Y-97721208D01*
X193018260Y-97746753D01*
X192944125Y-97770841D01*
X192905424Y-97783416D01*
X192816085Y-97812444D01*
X192626679Y-97908951D01*
X192454713Y-98033890D01*
X192304390Y-98184213D01*
X192179449Y-98356182D01*
X192174984Y-98364946D01*
X192127009Y-98415742D01*
X192059188Y-98432536D01*
X191993053Y-98409998D01*
X191954016Y-98364946D01*
X191949550Y-98356182D01*
X191824609Y-98184213D01*
X191674286Y-98033890D01*
X191502320Y-97908951D01*
X191312914Y-97812444D01*
X191312913Y-97812443D01*
X191312912Y-97812443D01*
X191110743Y-97746754D01*
X191110741Y-97746753D01*
X191110740Y-97746753D01*
X190949457Y-97721208D01*
X190900787Y-97713500D01*
X190688213Y-97713500D01*
X190639542Y-97721208D01*
X190478260Y-97746753D01*
X190404125Y-97770841D01*
X190365424Y-97783416D01*
X190276085Y-97812444D01*
X190086679Y-97908951D01*
X189914713Y-98033890D01*
X189764390Y-98184213D01*
X189639449Y-98356182D01*
X189634984Y-98364946D01*
X189587009Y-98415742D01*
X189519188Y-98432536D01*
X189453053Y-98409998D01*
X189414016Y-98364946D01*
X189409550Y-98356182D01*
X189284609Y-98184213D01*
X189134286Y-98033890D01*
X188962320Y-97908951D01*
X188772914Y-97812444D01*
X188772913Y-97812443D01*
X188772912Y-97812443D01*
X188570743Y-97746754D01*
X188570741Y-97746753D01*
X188570740Y-97746753D01*
X188409457Y-97721208D01*
X188360787Y-97713500D01*
X188148213Y-97713500D01*
X188099542Y-97721208D01*
X187938260Y-97746753D01*
X187864125Y-97770841D01*
X187825424Y-97783416D01*
X187736085Y-97812444D01*
X187546679Y-97908951D01*
X187374713Y-98033890D01*
X187224390Y-98184213D01*
X187099449Y-98356182D01*
X187094702Y-98365499D01*
X187046727Y-98416293D01*
X186978905Y-98433087D01*
X186912771Y-98410548D01*
X186873734Y-98365495D01*
X186869126Y-98356452D01*
X186829770Y-98302282D01*
X186829769Y-98302282D01*
X186197462Y-98934590D01*
X186180425Y-98871007D01*
X186114599Y-98756993D01*
X186021507Y-98663901D01*
X185907493Y-98598075D01*
X185843909Y-98581037D01*
X186476216Y-97948728D01*
X186422050Y-97909375D01*
X186232717Y-97812904D01*
X186030629Y-97747242D01*
X185820746Y-97714000D01*
X185608254Y-97714000D01*
X185398372Y-97747242D01*
X185398369Y-97747242D01*
X185196282Y-97812904D01*
X185006939Y-97909380D01*
X184952782Y-97948727D01*
X184952782Y-97948728D01*
X185585091Y-98581037D01*
X185521507Y-98598075D01*
X185407493Y-98663901D01*
X185314401Y-98756993D01*
X185248575Y-98871007D01*
X185231537Y-98934591D01*
X184599228Y-98302282D01*
X184599227Y-98302282D01*
X184559880Y-98356440D01*
X184559876Y-98356446D01*
X184555260Y-98365505D01*
X184507281Y-98416297D01*
X184439459Y-98433087D01*
X184373326Y-98410543D01*
X184334294Y-98365493D01*
X184329551Y-98356184D01*
X184329549Y-98356181D01*
X184329548Y-98356179D01*
X184204609Y-98184213D01*
X184054286Y-98033890D01*
X183882320Y-97908951D01*
X183692914Y-97812444D01*
X183692913Y-97812443D01*
X183692912Y-97812443D01*
X183490743Y-97746754D01*
X183490741Y-97746753D01*
X183490740Y-97746753D01*
X183329457Y-97721208D01*
X183280787Y-97713500D01*
X183068213Y-97713500D01*
X183019542Y-97721208D01*
X182858260Y-97746753D01*
X182784125Y-97770841D01*
X182745424Y-97783416D01*
X182656085Y-97812444D01*
X182466679Y-97908951D01*
X182294713Y-98033890D01*
X182144390Y-98184213D01*
X182019449Y-98356182D01*
X182014984Y-98364946D01*
X181967009Y-98415742D01*
X181899188Y-98432536D01*
X181833053Y-98409998D01*
X181794016Y-98364946D01*
X181789550Y-98356182D01*
X181664609Y-98184213D01*
X181514286Y-98033890D01*
X181342320Y-97908951D01*
X181152914Y-97812444D01*
X181152913Y-97812443D01*
X181152912Y-97812443D01*
X180950743Y-97746754D01*
X180950741Y-97746753D01*
X180950740Y-97746753D01*
X180789457Y-97721208D01*
X180740787Y-97713500D01*
X180528213Y-97713500D01*
X180479542Y-97721208D01*
X180318260Y-97746753D01*
X180244125Y-97770841D01*
X180205424Y-97783416D01*
X180116085Y-97812444D01*
X179926679Y-97908951D01*
X179754713Y-98033890D01*
X179604390Y-98184213D01*
X179479449Y-98356182D01*
X179474984Y-98364946D01*
X179427009Y-98415742D01*
X179359188Y-98432536D01*
X179293053Y-98409998D01*
X179254016Y-98364946D01*
X179249550Y-98356182D01*
X179124609Y-98184213D01*
X178974286Y-98033890D01*
X178802320Y-97908951D01*
X178612914Y-97812444D01*
X178612913Y-97812443D01*
X178612912Y-97812443D01*
X178410743Y-97746754D01*
X178410741Y-97746753D01*
X178410740Y-97746753D01*
X178249457Y-97721208D01*
X178200787Y-97713500D01*
X177988213Y-97713500D01*
X177939542Y-97721208D01*
X177778260Y-97746753D01*
X177704125Y-97770841D01*
X177665424Y-97783416D01*
X177576085Y-97812444D01*
X177386679Y-97908951D01*
X177214713Y-98033890D01*
X177064390Y-98184213D01*
X176939449Y-98356182D01*
X176934984Y-98364946D01*
X176887009Y-98415742D01*
X176819188Y-98432536D01*
X176753053Y-98409998D01*
X176714016Y-98364946D01*
X176709550Y-98356182D01*
X176584609Y-98184213D01*
X176434286Y-98033890D01*
X176262320Y-97908951D01*
X176072914Y-97812444D01*
X176072913Y-97812443D01*
X176072912Y-97812443D01*
X175870743Y-97746754D01*
X175870741Y-97746753D01*
X175870740Y-97746753D01*
X175709457Y-97721208D01*
X175660787Y-97713500D01*
X175448213Y-97713500D01*
X175399542Y-97721208D01*
X175238260Y-97746753D01*
X175164125Y-97770841D01*
X175125424Y-97783416D01*
X175036085Y-97812444D01*
X174846679Y-97908951D01*
X174674713Y-98033890D01*
X174524390Y-98184213D01*
X174399449Y-98356182D01*
X174394984Y-98364946D01*
X174347009Y-98415742D01*
X174279188Y-98432536D01*
X174213053Y-98409998D01*
X174174016Y-98364946D01*
X174169550Y-98356182D01*
X174044609Y-98184213D01*
X173894286Y-98033890D01*
X173722320Y-97908951D01*
X173532914Y-97812444D01*
X173532913Y-97812443D01*
X173532912Y-97812443D01*
X173330743Y-97746754D01*
X173330741Y-97746753D01*
X173330740Y-97746753D01*
X173169457Y-97721208D01*
X173120787Y-97713500D01*
X172908213Y-97713500D01*
X172868702Y-97719757D01*
X172698259Y-97746753D01*
X172519218Y-97804927D01*
X172449377Y-97806922D01*
X172389544Y-97770841D01*
X172358716Y-97708140D01*
X172356900Y-97686996D01*
X172356900Y-79442803D01*
X172376585Y-79375764D01*
X172393219Y-79355122D01*
X172954122Y-78794219D01*
X173015445Y-78760734D01*
X173041803Y-78757900D01*
X175197307Y-78757900D01*
X175282165Y-78741019D01*
X175323444Y-78732809D01*
X175442264Y-78683592D01*
X175549200Y-78612141D01*
X176059641Y-78101699D01*
X176131093Y-77994763D01*
X176180309Y-77875943D01*
X176205400Y-77749805D01*
X176205400Y-77621195D01*
X176205400Y-77454131D01*
X176225085Y-77387092D01*
X176256515Y-77353812D01*
X176260313Y-77351052D01*
X176260316Y-77351051D01*
X176432292Y-77226104D01*
X176582604Y-77075792D01*
X176582606Y-77075788D01*
X176582609Y-77075786D01*
X176707548Y-76903820D01*
X176707547Y-76903820D01*
X176707551Y-76903816D01*
X176712014Y-76895054D01*
X176759988Y-76844259D01*
X176827808Y-76827463D01*
X176893944Y-76849999D01*
X176932984Y-76895054D01*
X176933375Y-76895820D01*
X176937451Y-76903820D01*
X177062390Y-77075786D01*
X177212713Y-77226109D01*
X177384679Y-77351048D01*
X177384681Y-77351049D01*
X177384684Y-77351051D01*
X177574088Y-77447557D01*
X177776257Y-77513246D01*
X177986213Y-77546500D01*
X177986214Y-77546500D01*
X178198786Y-77546500D01*
X178198787Y-77546500D01*
X178408743Y-77513246D01*
X178610912Y-77447557D01*
X178800316Y-77351051D01*
X178856195Y-77310453D01*
X178972286Y-77226109D01*
X178972288Y-77226106D01*
X178972292Y-77226104D01*
X179122604Y-77075792D01*
X179122606Y-77075788D01*
X179122609Y-77075786D01*
X179247548Y-76903820D01*
X179247547Y-76903820D01*
X179247551Y-76903816D01*
X179252014Y-76895054D01*
X179299988Y-76844259D01*
X179367808Y-76827463D01*
X179433944Y-76849999D01*
X179472984Y-76895054D01*
X179473375Y-76895820D01*
X179477451Y-76903820D01*
X179602390Y-77075786D01*
X179752713Y-77226109D01*
X179924679Y-77351048D01*
X179924681Y-77351049D01*
X179924684Y-77351051D01*
X180114088Y-77447557D01*
X180316257Y-77513246D01*
X180526213Y-77546500D01*
X180526214Y-77546500D01*
X180738786Y-77546500D01*
X180738787Y-77546500D01*
X180948743Y-77513246D01*
X181150912Y-77447557D01*
X181340316Y-77351051D01*
X181396195Y-77310453D01*
X181512286Y-77226109D01*
X181512288Y-77226106D01*
X181512292Y-77226104D01*
X181662604Y-77075792D01*
X181662606Y-77075788D01*
X181662609Y-77075786D01*
X181787548Y-76903820D01*
X181787547Y-76903820D01*
X181787551Y-76903816D01*
X181792014Y-76895054D01*
X181839988Y-76844259D01*
X181907808Y-76827463D01*
X181973944Y-76849999D01*
X182012984Y-76895054D01*
X182013375Y-76895820D01*
X182017451Y-76903820D01*
X182142390Y-77075786D01*
X182292713Y-77226109D01*
X182464679Y-77351048D01*
X182464681Y-77351049D01*
X182464684Y-77351051D01*
X182654088Y-77447557D01*
X182856257Y-77513246D01*
X183066213Y-77546500D01*
X183066214Y-77546500D01*
X183278786Y-77546500D01*
X183278787Y-77546500D01*
X183488743Y-77513246D01*
X183690912Y-77447557D01*
X183880316Y-77351051D01*
X183936195Y-77310453D01*
X184052286Y-77226109D01*
X184052288Y-77226106D01*
X184052292Y-77226104D01*
X184202604Y-77075792D01*
X184202606Y-77075788D01*
X184202609Y-77075786D01*
X184327548Y-76903820D01*
X184327547Y-76903820D01*
X184327551Y-76903816D01*
X184332014Y-76895054D01*
X184379988Y-76844259D01*
X184447808Y-76827463D01*
X184513944Y-76849999D01*
X184552984Y-76895054D01*
X184553375Y-76895820D01*
X184557451Y-76903820D01*
X184682390Y-77075786D01*
X184832713Y-77226109D01*
X185004679Y-77351048D01*
X185004681Y-77351049D01*
X185004684Y-77351051D01*
X185194088Y-77447557D01*
X185396257Y-77513246D01*
X185606213Y-77546500D01*
X185606214Y-77546500D01*
X185818786Y-77546500D01*
X185818787Y-77546500D01*
X186028743Y-77513246D01*
X186230912Y-77447557D01*
X186420316Y-77351051D01*
X186476195Y-77310453D01*
X186592286Y-77226109D01*
X186592288Y-77226106D01*
X186592292Y-77226104D01*
X186742604Y-77075792D01*
X186742606Y-77075788D01*
X186742609Y-77075786D01*
X186867548Y-76903820D01*
X186867547Y-76903820D01*
X186867551Y-76903816D01*
X186872014Y-76895054D01*
X186919988Y-76844259D01*
X186987808Y-76827463D01*
X187053944Y-76849999D01*
X187092984Y-76895054D01*
X187093375Y-76895820D01*
X187097451Y-76903820D01*
X187222390Y-77075786D01*
X187372713Y-77226109D01*
X187544679Y-77351048D01*
X187544681Y-77351049D01*
X187544684Y-77351051D01*
X187734088Y-77447557D01*
X187936257Y-77513246D01*
X188146213Y-77546500D01*
X188146214Y-77546500D01*
X188358786Y-77546500D01*
X188358787Y-77546500D01*
X188568743Y-77513246D01*
X188770912Y-77447557D01*
X188960316Y-77351051D01*
X189016195Y-77310453D01*
X189132286Y-77226109D01*
X189132288Y-77226106D01*
X189132292Y-77226104D01*
X189282604Y-77075792D01*
X189282606Y-77075788D01*
X189282609Y-77075786D01*
X189407548Y-76903820D01*
X189407547Y-76903820D01*
X189407551Y-76903816D01*
X189412014Y-76895054D01*
X189459988Y-76844259D01*
X189527808Y-76827463D01*
X189593944Y-76849999D01*
X189632984Y-76895054D01*
X189633375Y-76895820D01*
X189637451Y-76903820D01*
X189762390Y-77075786D01*
X189912713Y-77226109D01*
X190084679Y-77351048D01*
X190084681Y-77351049D01*
X190084684Y-77351051D01*
X190274088Y-77447557D01*
X190476257Y-77513246D01*
X190686213Y-77546500D01*
X190686214Y-77546500D01*
X190898786Y-77546500D01*
X190898787Y-77546500D01*
X191108743Y-77513246D01*
X191310912Y-77447557D01*
X191500316Y-77351051D01*
X191556195Y-77310453D01*
X191672286Y-77226109D01*
X191672288Y-77226106D01*
X191672292Y-77226104D01*
X191822604Y-77075792D01*
X191822606Y-77075788D01*
X191822609Y-77075786D01*
X191947548Y-76903820D01*
X191947547Y-76903820D01*
X191947551Y-76903816D01*
X191952014Y-76895054D01*
X191999988Y-76844259D01*
X192067808Y-76827463D01*
X192133944Y-76849999D01*
X192172984Y-76895054D01*
X192173375Y-76895820D01*
X192177451Y-76903820D01*
X192302390Y-77075786D01*
X192452713Y-77226109D01*
X192624679Y-77351048D01*
X192624681Y-77351049D01*
X192624684Y-77351051D01*
X192814088Y-77447557D01*
X193016257Y-77513246D01*
X193226213Y-77546500D01*
X193226214Y-77546500D01*
X193438786Y-77546500D01*
X193438787Y-77546500D01*
X193648743Y-77513246D01*
X193850912Y-77447557D01*
X194040316Y-77351051D01*
X194096195Y-77310453D01*
X194212286Y-77226109D01*
X194212288Y-77226106D01*
X194212292Y-77226104D01*
X194362604Y-77075792D01*
X194362606Y-77075788D01*
X194362609Y-77075786D01*
X194487548Y-76903820D01*
X194487547Y-76903820D01*
X194487551Y-76903816D01*
X194492014Y-76895054D01*
X194539988Y-76844259D01*
X194607808Y-76827463D01*
X194673944Y-76849999D01*
X194712984Y-76895054D01*
X194713375Y-76895820D01*
X194717451Y-76903820D01*
X194842390Y-77075786D01*
X194992713Y-77226109D01*
X195164679Y-77351048D01*
X195164681Y-77351049D01*
X195164684Y-77351051D01*
X195354088Y-77447557D01*
X195556257Y-77513246D01*
X195766213Y-77546500D01*
X195766214Y-77546500D01*
X195978786Y-77546500D01*
X195978787Y-77546500D01*
X196188743Y-77513246D01*
X196390912Y-77447557D01*
X196580316Y-77351051D01*
X196636195Y-77310453D01*
X196752286Y-77226109D01*
X196752288Y-77226106D01*
X196752292Y-77226104D01*
X196902604Y-77075792D01*
X196902606Y-77075788D01*
X196902609Y-77075786D01*
X197027548Y-76903820D01*
X197027551Y-76903816D01*
X197036553Y-76886149D01*
X197084527Y-76835353D01*
X197152348Y-76818557D01*
X197218483Y-76841094D01*
X197257522Y-76886147D01*
X197261778Y-76894500D01*
X197262451Y-76895819D01*
X197387390Y-77067786D01*
X197537713Y-77218109D01*
X197709679Y-77343048D01*
X197709681Y-77343049D01*
X197709684Y-77343051D01*
X197899088Y-77439557D01*
X198101257Y-77505246D01*
X198311213Y-77538500D01*
X198311214Y-77538500D01*
X198523786Y-77538500D01*
X198523787Y-77538500D01*
X198733743Y-77505246D01*
X198935912Y-77439557D01*
X199125316Y-77343051D01*
X199169059Y-77311270D01*
X199297286Y-77218109D01*
X199297288Y-77218106D01*
X199297292Y-77218104D01*
X199447604Y-77067792D01*
X199447606Y-77067788D01*
X199447609Y-77067786D01*
X199572548Y-76895820D01*
X199572549Y-76895819D01*
X199572551Y-76895816D01*
X199669057Y-76706412D01*
X199734746Y-76504243D01*
X199768000Y-76294287D01*
X199768000Y-76081713D01*
X199734746Y-75871757D01*
X199669057Y-75669588D01*
X199572551Y-75480184D01*
X199572549Y-75480181D01*
X199572548Y-75480179D01*
X199447609Y-75308213D01*
X199297286Y-75157890D01*
X199125320Y-75032951D01*
X198935914Y-74936444D01*
X198935913Y-74936443D01*
X198935912Y-74936443D01*
X198733743Y-74870754D01*
X198733741Y-74870753D01*
X198733740Y-74870753D01*
X198572457Y-74845208D01*
X198523787Y-74837500D01*
X198311213Y-74837500D01*
X198262542Y-74845208D01*
X198101260Y-74870753D01*
X197899085Y-74936444D01*
X197709679Y-75032951D01*
X197537713Y-75157890D01*
X197387390Y-75308213D01*
X197262448Y-75480183D01*
X197253443Y-75497856D01*
X197205466Y-75548650D01*
X197137644Y-75565442D01*
X197071511Y-75542901D01*
X197032475Y-75497848D01*
X197027550Y-75488181D01*
X196902609Y-75316213D01*
X196752286Y-75165890D01*
X196580320Y-75040951D01*
X196390914Y-74944444D01*
X196390913Y-74944443D01*
X196390912Y-74944443D01*
X196188743Y-74878754D01*
X196188741Y-74878753D01*
X196188740Y-74878753D01*
X196027457Y-74853208D01*
X195978787Y-74845500D01*
X195766213Y-74845500D01*
X195717542Y-74853208D01*
X195556260Y-74878753D01*
X195354085Y-74944444D01*
X195164679Y-75040951D01*
X194992713Y-75165890D01*
X194842390Y-75316213D01*
X194717449Y-75488182D01*
X194712984Y-75496946D01*
X194665009Y-75547742D01*
X194597188Y-75564536D01*
X194531053Y-75541998D01*
X194492016Y-75496946D01*
X194487550Y-75488182D01*
X194362609Y-75316213D01*
X194212286Y-75165890D01*
X194040320Y-75040951D01*
X193850914Y-74944444D01*
X193850913Y-74944443D01*
X193850912Y-74944443D01*
X193648743Y-74878754D01*
X193648741Y-74878753D01*
X193648740Y-74878753D01*
X193487457Y-74853208D01*
X193438787Y-74845500D01*
X193226213Y-74845500D01*
X193177542Y-74853208D01*
X193016260Y-74878753D01*
X192814085Y-74944444D01*
X192624679Y-75040951D01*
X192452713Y-75165890D01*
X192302390Y-75316213D01*
X192177449Y-75488182D01*
X192172984Y-75496946D01*
X192125009Y-75547742D01*
X192057188Y-75564536D01*
X191991053Y-75541998D01*
X191952016Y-75496946D01*
X191947550Y-75488182D01*
X191822609Y-75316213D01*
X191672286Y-75165890D01*
X191500320Y-75040951D01*
X191310914Y-74944444D01*
X191310913Y-74944443D01*
X191310912Y-74944443D01*
X191108743Y-74878754D01*
X191108741Y-74878753D01*
X191108740Y-74878753D01*
X190947457Y-74853208D01*
X190898787Y-74845500D01*
X190686213Y-74845500D01*
X190637542Y-74853208D01*
X190476260Y-74878753D01*
X190274085Y-74944444D01*
X190084679Y-75040951D01*
X189912713Y-75165890D01*
X189762390Y-75316213D01*
X189637449Y-75488182D01*
X189632984Y-75496946D01*
X189585009Y-75547742D01*
X189517188Y-75564536D01*
X189451053Y-75541998D01*
X189412016Y-75496946D01*
X189407550Y-75488182D01*
X189282609Y-75316213D01*
X189132286Y-75165890D01*
X188960320Y-75040951D01*
X188770914Y-74944444D01*
X188770913Y-74944443D01*
X188770912Y-74944443D01*
X188568743Y-74878754D01*
X188568741Y-74878753D01*
X188568740Y-74878753D01*
X188407457Y-74853208D01*
X188358787Y-74845500D01*
X188146213Y-74845500D01*
X188097542Y-74853208D01*
X187936260Y-74878753D01*
X187734085Y-74944444D01*
X187544679Y-75040951D01*
X187372713Y-75165890D01*
X187222390Y-75316213D01*
X187097449Y-75488182D01*
X187092984Y-75496946D01*
X187045009Y-75547742D01*
X186977188Y-75564536D01*
X186911053Y-75541998D01*
X186872016Y-75496946D01*
X186867550Y-75488182D01*
X186742609Y-75316213D01*
X186592286Y-75165890D01*
X186420320Y-75040951D01*
X186230914Y-74944444D01*
X186230913Y-74944443D01*
X186230912Y-74944443D01*
X186028743Y-74878754D01*
X186028741Y-74878753D01*
X186028740Y-74878753D01*
X185867457Y-74853208D01*
X185818787Y-74845500D01*
X185606213Y-74845500D01*
X185557542Y-74853208D01*
X185396260Y-74878753D01*
X185194085Y-74944444D01*
X185004679Y-75040951D01*
X184832713Y-75165890D01*
X184682390Y-75316213D01*
X184557449Y-75488182D01*
X184552984Y-75496946D01*
X184505009Y-75547742D01*
X184437188Y-75564536D01*
X184371053Y-75541998D01*
X184332016Y-75496946D01*
X184327550Y-75488182D01*
X184202609Y-75316213D01*
X184052286Y-75165890D01*
X183880320Y-75040951D01*
X183690914Y-74944444D01*
X183690913Y-74944443D01*
X183690912Y-74944443D01*
X183488743Y-74878754D01*
X183488741Y-74878753D01*
X183488740Y-74878753D01*
X183327457Y-74853208D01*
X183278787Y-74845500D01*
X183066213Y-74845500D01*
X183017542Y-74853208D01*
X182856260Y-74878753D01*
X182654085Y-74944444D01*
X182464679Y-75040951D01*
X182292713Y-75165890D01*
X182142390Y-75316213D01*
X182017449Y-75488182D01*
X182012984Y-75496946D01*
X181965009Y-75547742D01*
X181897188Y-75564536D01*
X181831053Y-75541998D01*
X181792016Y-75496946D01*
X181787550Y-75488182D01*
X181662609Y-75316213D01*
X181512286Y-75165890D01*
X181340320Y-75040951D01*
X181150914Y-74944444D01*
X181150913Y-74944443D01*
X181150912Y-74944443D01*
X180948743Y-74878754D01*
X180948741Y-74878753D01*
X180948740Y-74878753D01*
X180787457Y-74853208D01*
X180738787Y-74845500D01*
X180526213Y-74845500D01*
X180477542Y-74853208D01*
X180316260Y-74878753D01*
X180114085Y-74944444D01*
X179924679Y-75040951D01*
X179752713Y-75165890D01*
X179602390Y-75316213D01*
X179477449Y-75488182D01*
X179472984Y-75496946D01*
X179425009Y-75547742D01*
X179357188Y-75564536D01*
X179291053Y-75541998D01*
X179252016Y-75496946D01*
X179247550Y-75488182D01*
X179122609Y-75316213D01*
X178972286Y-75165890D01*
X178800320Y-75040951D01*
X178610914Y-74944444D01*
X178610913Y-74944443D01*
X178610912Y-74944443D01*
X178408743Y-74878754D01*
X178408741Y-74878753D01*
X178408740Y-74878753D01*
X178247457Y-74853208D01*
X178198787Y-74845500D01*
X177986213Y-74845500D01*
X177937542Y-74853208D01*
X177776260Y-74878753D01*
X177574085Y-74944444D01*
X177384679Y-75040951D01*
X177212713Y-75165890D01*
X177062390Y-75316213D01*
X176937449Y-75488182D01*
X176932984Y-75496946D01*
X176885009Y-75547742D01*
X176817188Y-75564536D01*
X176751053Y-75541998D01*
X176712016Y-75496946D01*
X176707550Y-75488182D01*
X176582609Y-75316213D01*
X176432286Y-75165890D01*
X176260320Y-75040951D01*
X176070914Y-74944444D01*
X176070913Y-74944443D01*
X176070912Y-74944443D01*
X175868743Y-74878754D01*
X175868741Y-74878753D01*
X175868740Y-74878753D01*
X175707457Y-74853208D01*
X175658787Y-74845500D01*
X175446213Y-74845500D01*
X175397542Y-74853208D01*
X175236260Y-74878753D01*
X175034085Y-74944444D01*
X174844679Y-75040951D01*
X174672713Y-75165890D01*
X174522390Y-75316213D01*
X174397449Y-75488182D01*
X174392984Y-75496946D01*
X174345009Y-75547742D01*
X174277188Y-75564536D01*
X174211053Y-75541998D01*
X174172016Y-75496946D01*
X174167550Y-75488182D01*
X174042609Y-75316213D01*
X173892286Y-75165890D01*
X173720320Y-75040951D01*
X173530914Y-74944444D01*
X173530913Y-74944443D01*
X173530912Y-74944443D01*
X173328743Y-74878754D01*
X173328741Y-74878753D01*
X173328740Y-74878753D01*
X173167457Y-74853208D01*
X173118787Y-74845500D01*
X172906213Y-74845500D01*
X172857542Y-74853208D01*
X172696260Y-74878753D01*
X172494085Y-74944444D01*
X172304679Y-75040951D01*
X172132713Y-75165890D01*
X171982390Y-75316213D01*
X171857449Y-75488182D01*
X171852984Y-75496946D01*
X171805009Y-75547742D01*
X171737188Y-75564536D01*
X171671053Y-75541998D01*
X171632016Y-75496946D01*
X171627550Y-75488182D01*
X171502609Y-75316213D01*
X171352286Y-75165890D01*
X171180320Y-75040951D01*
X170990914Y-74944444D01*
X170990913Y-74944443D01*
X170990912Y-74944443D01*
X170788743Y-74878754D01*
X170788741Y-74878753D01*
X170788740Y-74878753D01*
X170627457Y-74853208D01*
X170578787Y-74845500D01*
X170366213Y-74845500D01*
X170317542Y-74853208D01*
X170156260Y-74878753D01*
X169954085Y-74944444D01*
X169764679Y-75040951D01*
X169592713Y-75165890D01*
X169442390Y-75316213D01*
X169317449Y-75488182D01*
X169312702Y-75497499D01*
X169264727Y-75548293D01*
X169196905Y-75565087D01*
X169130771Y-75542548D01*
X169091734Y-75497495D01*
X169087126Y-75488452D01*
X169047770Y-75434282D01*
X169047769Y-75434282D01*
X168415462Y-76066590D01*
X168398425Y-76003007D01*
X168332599Y-75888993D01*
X168239507Y-75795901D01*
X168125493Y-75730075D01*
X168061909Y-75713037D01*
X168694216Y-75080728D01*
X168640050Y-75041375D01*
X168450717Y-74944904D01*
X168248629Y-74879242D01*
X168038746Y-74846000D01*
X167826254Y-74846000D01*
X167616372Y-74879242D01*
X167616369Y-74879242D01*
X167414282Y-74944904D01*
X167224939Y-75041380D01*
X167170782Y-75080727D01*
X167170782Y-75080728D01*
X167803091Y-75713037D01*
X167739507Y-75730075D01*
X167625493Y-75795901D01*
X167532401Y-75888993D01*
X167466575Y-76003007D01*
X167449537Y-76066591D01*
X166817228Y-75434282D01*
X166817227Y-75434282D01*
X166777880Y-75488440D01*
X166777876Y-75488446D01*
X166773260Y-75497505D01*
X166725281Y-75548297D01*
X166657459Y-75565087D01*
X166591326Y-75542543D01*
X166552294Y-75497493D01*
X166547551Y-75488184D01*
X166547549Y-75488181D01*
X166547548Y-75488179D01*
X166422609Y-75316213D01*
X166272286Y-75165890D01*
X166100320Y-75040951D01*
X165910914Y-74944444D01*
X165910913Y-74944443D01*
X165910912Y-74944443D01*
X165708743Y-74878754D01*
X165708741Y-74878753D01*
X165708740Y-74878753D01*
X165547457Y-74853208D01*
X165498787Y-74845500D01*
X165286213Y-74845500D01*
X165237542Y-74853208D01*
X165076260Y-74878753D01*
X164874085Y-74944444D01*
X164684679Y-75040951D01*
X164512713Y-75165890D01*
X164362390Y-75316213D01*
X164237449Y-75488182D01*
X164232984Y-75496946D01*
X164185009Y-75547742D01*
X164117188Y-75564536D01*
X164051053Y-75541998D01*
X164012016Y-75496946D01*
X164007550Y-75488182D01*
X163882609Y-75316213D01*
X163732286Y-75165890D01*
X163560320Y-75040951D01*
X163370914Y-74944444D01*
X163370913Y-74944443D01*
X163370912Y-74944443D01*
X163168743Y-74878754D01*
X163168741Y-74878753D01*
X163168740Y-74878753D01*
X163007457Y-74853208D01*
X162958787Y-74845500D01*
X162746213Y-74845500D01*
X162697542Y-74853208D01*
X162536260Y-74878753D01*
X162334085Y-74944444D01*
X162144679Y-75040951D01*
X161972713Y-75165890D01*
X161822390Y-75316213D01*
X161697449Y-75488182D01*
X161692984Y-75496946D01*
X161645009Y-75547742D01*
X161577188Y-75564536D01*
X161511053Y-75541998D01*
X161472016Y-75496946D01*
X161467550Y-75488182D01*
X161342609Y-75316213D01*
X161192286Y-75165890D01*
X161020320Y-75040951D01*
X160830914Y-74944444D01*
X160830913Y-74944443D01*
X160830912Y-74944443D01*
X160628743Y-74878754D01*
X160628741Y-74878753D01*
X160628740Y-74878753D01*
X160467457Y-74853208D01*
X160418787Y-74845500D01*
X160206213Y-74845500D01*
X160157542Y-74853208D01*
X159996260Y-74878753D01*
X159794085Y-74944444D01*
X159604679Y-75040951D01*
X159432713Y-75165890D01*
X159282390Y-75316213D01*
X159157449Y-75488182D01*
X159152984Y-75496946D01*
X159105009Y-75547742D01*
X159037188Y-75564536D01*
X158971053Y-75541998D01*
X158932016Y-75496946D01*
X158927550Y-75488182D01*
X158802609Y-75316213D01*
X158652286Y-75165890D01*
X158480320Y-75040951D01*
X158290914Y-74944444D01*
X158290913Y-74944443D01*
X158290912Y-74944443D01*
X158088743Y-74878754D01*
X158088741Y-74878753D01*
X158088740Y-74878753D01*
X157927457Y-74853208D01*
X157878787Y-74845500D01*
X157666213Y-74845500D01*
X157617542Y-74853208D01*
X157456260Y-74878753D01*
X157254085Y-74944444D01*
X157064679Y-75040951D01*
X156892713Y-75165890D01*
X156742390Y-75316213D01*
X156617449Y-75488182D01*
X156612984Y-75496946D01*
X156565009Y-75547742D01*
X156497188Y-75564536D01*
X156431053Y-75541998D01*
X156392016Y-75496946D01*
X156387550Y-75488182D01*
X156262609Y-75316213D01*
X156112286Y-75165890D01*
X155940320Y-75040951D01*
X155750914Y-74944444D01*
X155750913Y-74944443D01*
X155750912Y-74944443D01*
X155548743Y-74878754D01*
X155548741Y-74878753D01*
X155548740Y-74878753D01*
X155387457Y-74853208D01*
X155338787Y-74845500D01*
X155126213Y-74845500D01*
X155077542Y-74853208D01*
X154916260Y-74878753D01*
X154714085Y-74944444D01*
X154524679Y-75040951D01*
X154352713Y-75165890D01*
X154202390Y-75316213D01*
X154077449Y-75488182D01*
X154072702Y-75497499D01*
X154024727Y-75548293D01*
X153956905Y-75565087D01*
X153890771Y-75542548D01*
X153851734Y-75497495D01*
X153847126Y-75488452D01*
X153807770Y-75434282D01*
X153807769Y-75434282D01*
X153175462Y-76066590D01*
X153158425Y-76003007D01*
X153092599Y-75888993D01*
X152999507Y-75795901D01*
X152885493Y-75730075D01*
X152821909Y-75713037D01*
X153454216Y-75080728D01*
X153400050Y-75041375D01*
X153210717Y-74944904D01*
X153008629Y-74879242D01*
X152798746Y-74846000D01*
X152586254Y-74846000D01*
X152376372Y-74879242D01*
X152376369Y-74879242D01*
X152174282Y-74944904D01*
X151984939Y-75041380D01*
X151930782Y-75080727D01*
X151930782Y-75080728D01*
X152563091Y-75713037D01*
X152499507Y-75730075D01*
X152385493Y-75795901D01*
X152292401Y-75888993D01*
X152226575Y-76003007D01*
X152209537Y-76066591D01*
X151577228Y-75434282D01*
X151577227Y-75434282D01*
X151537880Y-75488439D01*
X151441404Y-75677782D01*
X151375742Y-75879869D01*
X151375742Y-75879872D01*
X151342500Y-76089753D01*
X93726500Y-76089753D01*
X93726500Y-69013683D01*
X182887500Y-69013683D01*
X182887500Y-69162316D01*
X182916493Y-69308072D01*
X182916495Y-69308080D01*
X182973371Y-69445391D01*
X183055939Y-69568964D01*
X183055945Y-69568971D01*
X183161028Y-69674054D01*
X183161035Y-69674060D01*
X183284608Y-69756628D01*
X183284609Y-69756628D01*
X183284610Y-69756629D01*
X183421920Y-69813505D01*
X183567683Y-69842499D01*
X183567687Y-69842500D01*
X183567688Y-69842500D01*
X183716313Y-69842500D01*
X183716314Y-69842499D01*
X183862080Y-69813505D01*
X183999390Y-69756629D01*
X184122966Y-69674059D01*
X184228059Y-69568966D01*
X184310629Y-69445390D01*
X184367505Y-69308080D01*
X184396500Y-69162312D01*
X184396500Y-69013688D01*
X184389357Y-68977778D01*
X187829500Y-68977778D01*
X187829500Y-69198221D01*
X187863985Y-69415952D01*
X187932103Y-69625603D01*
X187932104Y-69625606D01*
X187998865Y-69756628D01*
X188027845Y-69813505D01*
X188032187Y-69822025D01*
X188161752Y-70000358D01*
X188161756Y-70000363D01*
X188317636Y-70156243D01*
X188317641Y-70156247D01*
X188473192Y-70269260D01*
X188495978Y-70285815D01*
X188612501Y-70345187D01*
X188692393Y-70385895D01*
X188692396Y-70385896D01*
X188797221Y-70419955D01*
X188902049Y-70454015D01*
X189119778Y-70488500D01*
X189119779Y-70488500D01*
X189340221Y-70488500D01*
X189340222Y-70488500D01*
X189557951Y-70454015D01*
X189767606Y-70385895D01*
X189964022Y-70285815D01*
X190142365Y-70156242D01*
X190192924Y-70105682D01*
X190254245Y-70072198D01*
X190323936Y-70077182D01*
X190379870Y-70119053D01*
X190396786Y-70150030D01*
X190426646Y-70230087D01*
X190426649Y-70230093D01*
X190512809Y-70345187D01*
X190512812Y-70345190D01*
X190627906Y-70431350D01*
X190627913Y-70431354D01*
X190762620Y-70481596D01*
X190762627Y-70481598D01*
X190822155Y-70487999D01*
X190822172Y-70488000D01*
X191520000Y-70488000D01*
X191520000Y-69463277D01*
X191596306Y-69507333D01*
X191710756Y-69538000D01*
X191829244Y-69538000D01*
X191943694Y-69507333D01*
X192020000Y-69463277D01*
X192020000Y-70488000D01*
X192717828Y-70488000D01*
X192717844Y-70487999D01*
X192777372Y-70481598D01*
X192777379Y-70481596D01*
X192912086Y-70431354D01*
X192912093Y-70431350D01*
X193027187Y-70345190D01*
X193027190Y-70345187D01*
X193113350Y-70230093D01*
X193113354Y-70230086D01*
X193163596Y-70095379D01*
X193163598Y-70095372D01*
X193169999Y-70035844D01*
X193170000Y-70035827D01*
X193170000Y-69338000D01*
X192145278Y-69338000D01*
X192189333Y-69261694D01*
X192220000Y-69147244D01*
X192220000Y-69028756D01*
X192189333Y-68914306D01*
X192145278Y-68838000D01*
X193170000Y-68838000D01*
X193170000Y-68140172D01*
X193169999Y-68140155D01*
X193163598Y-68080627D01*
X193163596Y-68080620D01*
X193113354Y-67945913D01*
X193113350Y-67945906D01*
X193027190Y-67830812D01*
X193027187Y-67830809D01*
X192912093Y-67744649D01*
X192912086Y-67744645D01*
X192777379Y-67694403D01*
X192777372Y-67694401D01*
X192717844Y-67688000D01*
X192020000Y-67688000D01*
X192020000Y-68712722D01*
X191943694Y-68668667D01*
X191829244Y-68638000D01*
X191710756Y-68638000D01*
X191596306Y-68668667D01*
X191520000Y-68712722D01*
X191520000Y-67688000D01*
X190822155Y-67688000D01*
X190762627Y-67694401D01*
X190762620Y-67694403D01*
X190627913Y-67744645D01*
X190627906Y-67744649D01*
X190512812Y-67830809D01*
X190512809Y-67830812D01*
X190426649Y-67945906D01*
X190426643Y-67945918D01*
X190396785Y-68025969D01*
X190354914Y-68081903D01*
X190289449Y-68106319D01*
X190221176Y-68091467D01*
X190192923Y-68070316D01*
X190142363Y-68019756D01*
X190142358Y-68019752D01*
X189964025Y-67890187D01*
X189964024Y-67890186D01*
X189964022Y-67890185D01*
X189858598Y-67836468D01*
X189767606Y-67790104D01*
X189767603Y-67790103D01*
X189557952Y-67721985D01*
X189449086Y-67704742D01*
X189340222Y-67687500D01*
X189119778Y-67687500D01*
X189047201Y-67698995D01*
X188902047Y-67721985D01*
X188692396Y-67790103D01*
X188692393Y-67790104D01*
X188495974Y-67890187D01*
X188317641Y-68019752D01*
X188317636Y-68019756D01*
X188161756Y-68175636D01*
X188161752Y-68175641D01*
X188032187Y-68353974D01*
X187932104Y-68550393D01*
X187932103Y-68550396D01*
X187863985Y-68760047D01*
X187829500Y-68977778D01*
X184389357Y-68977778D01*
X184367505Y-68867920D01*
X184310629Y-68730610D01*
X184269240Y-68668667D01*
X184228060Y-68607035D01*
X184228054Y-68607028D01*
X184122971Y-68501945D01*
X184122964Y-68501939D01*
X183999391Y-68419371D01*
X183862080Y-68362495D01*
X183862072Y-68362493D01*
X183716316Y-68333500D01*
X183716312Y-68333500D01*
X183567688Y-68333500D01*
X183567683Y-68333500D01*
X183421927Y-68362493D01*
X183421919Y-68362495D01*
X183284608Y-68419371D01*
X183161035Y-68501939D01*
X183161028Y-68501945D01*
X183055945Y-68607028D01*
X183055939Y-68607035D01*
X182973371Y-68730608D01*
X182916495Y-68867919D01*
X182916493Y-68867927D01*
X182887500Y-69013683D01*
X93726500Y-69013683D01*
X93726500Y-66043480D01*
X93726695Y-66036528D01*
X93727096Y-66029380D01*
X93734086Y-65904905D01*
X94114500Y-65904905D01*
X94114500Y-66175094D01*
X94144749Y-66443558D01*
X94144751Y-66443570D01*
X94204872Y-66706979D01*
X94294106Y-66961996D01*
X94411331Y-67205416D01*
X94411333Y-67205419D01*
X94555077Y-67434187D01*
X94723532Y-67645422D01*
X94914578Y-67836468D01*
X95125813Y-68004923D01*
X95354581Y-68148667D01*
X95598005Y-68265894D01*
X95853020Y-68355127D01*
X95853022Y-68355127D01*
X95853023Y-68355128D01*
X96116429Y-68415249D01*
X96384905Y-68445499D01*
X96384906Y-68445500D01*
X96384910Y-68445500D01*
X96655094Y-68445500D01*
X96655094Y-68445499D01*
X96923571Y-68415249D01*
X97186977Y-68355128D01*
X97441995Y-68265894D01*
X97685419Y-68148667D01*
X97914187Y-68004923D01*
X98125422Y-67836468D01*
X98316468Y-67645422D01*
X98484923Y-67434187D01*
X98628667Y-67205419D01*
X98745894Y-66961995D01*
X98835128Y-66706977D01*
X98895249Y-66443571D01*
X98925500Y-66175090D01*
X98925500Y-65904910D01*
X98895249Y-65636429D01*
X98835128Y-65373023D01*
X98745894Y-65118005D01*
X98628667Y-64874581D01*
X98575969Y-64790713D01*
X141524500Y-64790713D01*
X141524500Y-65003286D01*
X141543627Y-65124053D01*
X141557754Y-65213243D01*
X141622236Y-65411698D01*
X141623444Y-65415414D01*
X141719951Y-65604820D01*
X141844890Y-65776786D01*
X141995213Y-65927109D01*
X142167179Y-66052048D01*
X142167181Y-66052049D01*
X142167184Y-66052051D01*
X142356588Y-66148557D01*
X142558757Y-66214246D01*
X142768713Y-66247500D01*
X142768714Y-66247500D01*
X142981286Y-66247500D01*
X142981287Y-66247500D01*
X143191243Y-66214246D01*
X143393412Y-66148557D01*
X143582816Y-66052051D01*
X143604789Y-66036086D01*
X143754786Y-65927109D01*
X143754788Y-65927106D01*
X143754792Y-65927104D01*
X143905104Y-65776792D01*
X143905106Y-65776788D01*
X143905109Y-65776786D01*
X144030048Y-65604820D01*
X144030047Y-65604820D01*
X144030051Y-65604816D01*
X144034514Y-65596054D01*
X144082488Y-65545259D01*
X144150308Y-65528463D01*
X144216444Y-65550999D01*
X144255486Y-65596056D01*
X144259951Y-65604820D01*
X144384890Y-65776786D01*
X144535213Y-65927109D01*
X144707179Y-66052048D01*
X144707181Y-66052049D01*
X144707184Y-66052051D01*
X144896588Y-66148557D01*
X145098757Y-66214246D01*
X145308713Y-66247500D01*
X145308714Y-66247500D01*
X145521286Y-66247500D01*
X145521287Y-66247500D01*
X145731243Y-66214246D01*
X145933412Y-66148557D01*
X146122816Y-66052051D01*
X146209478Y-65989088D01*
X146294784Y-65927110D01*
X146294784Y-65927109D01*
X146294792Y-65927104D01*
X146408717Y-65813178D01*
X146470036Y-65779696D01*
X146539728Y-65784680D01*
X146595662Y-65826551D01*
X146612577Y-65857528D01*
X146661646Y-65989088D01*
X146661649Y-65989093D01*
X146747809Y-66104187D01*
X146747812Y-66104190D01*
X146862906Y-66190350D01*
X146862913Y-66190354D01*
X146997620Y-66240596D01*
X146997627Y-66240598D01*
X147057155Y-66246999D01*
X147057172Y-66247000D01*
X147705000Y-66247000D01*
X147705000Y-65330012D01*
X147762007Y-65362925D01*
X147889174Y-65397000D01*
X148020826Y-65397000D01*
X148147993Y-65362925D01*
X148205000Y-65330012D01*
X148205000Y-66247000D01*
X148852828Y-66247000D01*
X148852844Y-66246999D01*
X148912372Y-66240598D01*
X148912379Y-66240596D01*
X149047086Y-66190354D01*
X149047093Y-66190350D01*
X149162187Y-66104190D01*
X149162190Y-66104187D01*
X149248350Y-65989093D01*
X149248354Y-65989086D01*
X149279752Y-65904905D01*
X195714500Y-65904905D01*
X195714500Y-66175094D01*
X195744749Y-66443558D01*
X195744751Y-66443570D01*
X195804872Y-66706979D01*
X195894106Y-66961996D01*
X196011331Y-67205416D01*
X196011333Y-67205419D01*
X196155077Y-67434187D01*
X196323532Y-67645422D01*
X196514578Y-67836468D01*
X196725813Y-68004923D01*
X196954581Y-68148667D01*
X197198005Y-68265894D01*
X197453020Y-68355127D01*
X197453022Y-68355127D01*
X197453023Y-68355128D01*
X197716429Y-68415249D01*
X197984905Y-68445499D01*
X197984906Y-68445500D01*
X197984910Y-68445500D01*
X198255094Y-68445500D01*
X198255094Y-68445499D01*
X198523571Y-68415249D01*
X198786977Y-68355128D01*
X199041995Y-68265894D01*
X199285419Y-68148667D01*
X199514187Y-68004923D01*
X199725422Y-67836468D01*
X199916468Y-67645422D01*
X200084923Y-67434187D01*
X200228667Y-67205419D01*
X200345894Y-66961995D01*
X200435128Y-66706977D01*
X200495249Y-66443571D01*
X200525500Y-66175090D01*
X200525500Y-65904910D01*
X200495249Y-65636429D01*
X200435128Y-65373023D01*
X200345894Y-65118005D01*
X200228667Y-64874581D01*
X200084923Y-64645813D01*
X199916468Y-64434578D01*
X199725422Y-64243532D01*
X199724752Y-64242998D01*
X199657272Y-64189184D01*
X199514187Y-64075077D01*
X199285419Y-63931333D01*
X199285416Y-63931331D01*
X199041996Y-63814106D01*
X198786978Y-63724872D01*
X198786980Y-63724872D01*
X198567055Y-63674676D01*
X198523571Y-63664751D01*
X198523567Y-63664750D01*
X198523558Y-63664749D01*
X198255094Y-63634500D01*
X198255090Y-63634500D01*
X197984910Y-63634500D01*
X197984906Y-63634500D01*
X197716441Y-63664749D01*
X197716429Y-63664751D01*
X197453020Y-63724872D01*
X197198003Y-63814106D01*
X196954583Y-63931331D01*
X196725814Y-64075076D01*
X196514578Y-64243531D01*
X196323531Y-64434578D01*
X196155076Y-64645814D01*
X196011331Y-64874583D01*
X195894106Y-65118003D01*
X195804872Y-65373020D01*
X195744751Y-65636429D01*
X195744749Y-65636441D01*
X195714500Y-65904905D01*
X149279752Y-65904905D01*
X149297210Y-65858098D01*
X149298596Y-65854379D01*
X149298598Y-65854372D01*
X149304999Y-65794844D01*
X149305000Y-65794827D01*
X149305000Y-65147000D01*
X148388012Y-65147000D01*
X148420925Y-65089993D01*
X148455000Y-64962826D01*
X148455000Y-64831174D01*
X148420925Y-64704007D01*
X148388012Y-64647000D01*
X149305000Y-64647000D01*
X149305000Y-63999172D01*
X149304999Y-63999155D01*
X149298598Y-63939627D01*
X149298596Y-63939620D01*
X149248354Y-63804913D01*
X149248350Y-63804906D01*
X149162190Y-63689812D01*
X149162187Y-63689809D01*
X149047093Y-63603649D01*
X149047086Y-63603645D01*
X148912379Y-63553403D01*
X148912372Y-63553401D01*
X148852844Y-63547000D01*
X148205000Y-63547000D01*
X148205000Y-64463988D01*
X148147993Y-64431075D01*
X148020826Y-64397000D01*
X147889174Y-64397000D01*
X147762007Y-64431075D01*
X147705000Y-64463988D01*
X147705000Y-63547000D01*
X147057155Y-63547000D01*
X146997627Y-63553401D01*
X146997620Y-63553403D01*
X146862913Y-63603645D01*
X146862906Y-63603649D01*
X146747812Y-63689809D01*
X146747809Y-63689812D01*
X146661649Y-63804906D01*
X146661646Y-63804912D01*
X146612577Y-63936471D01*
X146570705Y-63992404D01*
X146505241Y-64016821D01*
X146436968Y-64001969D01*
X146408714Y-63980818D01*
X146294786Y-63866890D01*
X146122820Y-63741951D01*
X145933414Y-63645444D01*
X145933413Y-63645443D01*
X145933412Y-63645443D01*
X145731243Y-63579754D01*
X145731241Y-63579753D01*
X145731240Y-63579753D01*
X145569957Y-63554208D01*
X145521287Y-63546500D01*
X145308713Y-63546500D01*
X145260042Y-63554208D01*
X145098760Y-63579753D01*
X144896585Y-63645444D01*
X144707179Y-63741951D01*
X144535213Y-63866890D01*
X144384890Y-64017213D01*
X144259949Y-64189182D01*
X144255484Y-64197946D01*
X144207509Y-64248742D01*
X144139688Y-64265536D01*
X144073553Y-64242998D01*
X144034516Y-64197946D01*
X144030050Y-64189182D01*
X143905109Y-64017213D01*
X143754786Y-63866890D01*
X143582820Y-63741951D01*
X143393414Y-63645444D01*
X143393413Y-63645443D01*
X143393412Y-63645443D01*
X143191243Y-63579754D01*
X143191241Y-63579753D01*
X143191240Y-63579753D01*
X143029957Y-63554208D01*
X142981287Y-63546500D01*
X142768713Y-63546500D01*
X142720042Y-63554208D01*
X142558760Y-63579753D01*
X142356585Y-63645444D01*
X142167179Y-63741951D01*
X141995213Y-63866890D01*
X141844890Y-64017213D01*
X141719951Y-64189179D01*
X141623444Y-64378585D01*
X141557753Y-64580760D01*
X141524500Y-64790713D01*
X98575969Y-64790713D01*
X98484923Y-64645813D01*
X98316468Y-64434578D01*
X98125422Y-64243532D01*
X98124752Y-64242998D01*
X98057272Y-64189184D01*
X97914187Y-64075077D01*
X97685419Y-63931333D01*
X97685416Y-63931331D01*
X97441996Y-63814106D01*
X97186978Y-63724872D01*
X97186980Y-63724872D01*
X96967055Y-63674676D01*
X96923571Y-63664751D01*
X96923567Y-63664750D01*
X96923558Y-63664749D01*
X96655094Y-63634500D01*
X96655090Y-63634500D01*
X96384910Y-63634500D01*
X96384906Y-63634500D01*
X96116441Y-63664749D01*
X96116429Y-63664751D01*
X95853020Y-63724872D01*
X95598003Y-63814106D01*
X95354583Y-63931331D01*
X95125814Y-64075076D01*
X94914578Y-64243531D01*
X94723531Y-64434578D01*
X94555076Y-64645814D01*
X94411331Y-64874583D01*
X94294106Y-65118003D01*
X94204872Y-65373020D01*
X94144751Y-65636429D01*
X94144749Y-65636441D01*
X94114500Y-65904905D01*
X93734086Y-65904905D01*
X93743675Y-65734168D01*
X93745229Y-65720371D01*
X93795372Y-65425250D01*
X93798466Y-65411698D01*
X93802701Y-65397000D01*
X93881336Y-65124049D01*
X93885928Y-65110929D01*
X93907765Y-65058207D01*
X94000480Y-64834372D01*
X94006502Y-64821866D01*
X94151316Y-64559847D01*
X94158694Y-64548104D01*
X94331938Y-64303940D01*
X94340576Y-64293108D01*
X94540066Y-64069878D01*
X94549878Y-64060066D01*
X94773108Y-63860576D01*
X94783940Y-63851938D01*
X95028104Y-63678694D01*
X95039847Y-63671316D01*
X95301866Y-63526502D01*
X95314372Y-63520480D01*
X95590929Y-63405928D01*
X95604049Y-63401336D01*
X95891703Y-63318464D01*
X95905250Y-63315372D01*
X96200371Y-63265229D01*
X96214168Y-63263675D01*
X96516528Y-63246695D01*
X96523481Y-63246500D01*
X96574851Y-63246500D01*
X198065149Y-63246500D01*
X198116519Y-63246500D01*
X198123472Y-63246695D01*
G37*
%TD.AperFunction*%
%TD*%
M02*
